<?xml version="1.0" encoding="UTF-8" standalone="no"?>
<!DOCTYPE svg PUBLIC "-//W3C//DTD SVG 1.1//EN" "http://www.w3.org/Graphics/SVG/1.1/DTD/svg11.dtd">
<svg width="100%" height="100%" viewBox="0 0 1244 980" version="1.1" xmlns="http://www.w3.org/2000/svg" xmlns:xlink="http://www.w3.org/1999/xlink" xml:space="preserve" xmlns:serif="http://www.serif.com/" style="fill-rule:evenodd;clip-rule:evenodd;stroke-linejoin:round;stroke-miterlimit:2;">
    <g transform="matrix(0.1,0,0,-0.1,0,980)">
        <g transform="matrix(0.904074,0.0159885,-0.0159885,0.904074,675.442,370.576)">
            <path d="M5975,7619C5719,7585 5043,7373 4609,7190C4403,7103 4306,7030 4279,6941C4235,6794 4453,6631 4960,6432C5264,6312 5416,6251 5496,6216C5540,6196 5612,6171 5656,6160C6048,6058 6488,6205 6370,6397C6329,6465 6251,6503 6066,6545C5995,6561 5792,6632 5704,6671L5655,6693L5690,6701C5823,6730 6420,6749 6833,6738C7493,6720 8062,6632 8506,6479C8860,6357 9102,6216 9305,6015C9948,5379 9681,4518 8595,3729C8185,3430 7592,3123 7006,2906C5601,2384 5611.3,2456.47 5631.3,2432.47C5674.3,2380.47 8383,2957 9468,3774C9647,3909 9757,4005 9910,4159C10511,4764 10686,5381 10403,5900C10302,6086 10112,6286 9883,6447C9742,6547 9449,6698 9235,6783C8536,7058 7582,7196 6505,7177C6199,7171 5708,7148 5638,7135C5622,7133 5610,7134 5610,7138C5610,7142 5672,7181 5748,7224C5934,7331 6101,7442 6144,7490C6239,7596 6173,7646 5975,7619Z" style="fill:rgb(255,29,0);fill-opacity:0.6;fill-rule:nonzero;"/>
        </g>
        <g transform="matrix(22.2967,0,0,-22.2967,-3654.27,20692.8)">
            <clipPath id="_clip1">
                <rect x="442.858" y="597.868" width="307.085" height="69.348"/>
            </clipPath>
            <g clip-path="url(#_clip1)">
                <g transform="matrix(36,0,0,36,442.858,623.572)">
                    <path d="M0.069,-0.714L0.069,-0L0.226,-0L0.226,-0.308L0.515,-0.308L0.515,-0L0.672,-0L0.672,-0.714L0.515,-0.714L0.515,-0.44L0.226,-0.44L0.226,-0.714L0.069,-0.714Z" style="fill:white;fill-rule:nonzero;"/>
                </g>
                <g transform="matrix(36,0,0,36,469.534,623.572)">
                    <rect x="0.058" y="-0.714" width="0.142" height="0.714" style="fill:white;fill-rule:nonzero;"/>
                </g>
                <g transform="matrix(36,0,0,36,478.822,623.572)">
                    <path d="M0.402,-0.314L0.171,-0.314C0.172,-0.324 0.174,-0.335 0.178,-0.348C0.181,-0.361 0.188,-0.373 0.197,-0.384C0.206,-0.395 0.218,-0.405 0.233,-0.413C0.248,-0.42 0.266,-0.424 0.289,-0.424C0.324,-0.424 0.349,-0.415 0.367,-0.396C0.384,-0.377 0.395,-0.35 0.402,-0.314ZM0.171,-0.224L0.544,-0.224C0.547,-0.264 0.543,-0.302 0.534,-0.339C0.525,-0.376 0.509,-0.408 0.489,-0.437C0.468,-0.466 0.441,-0.489 0.408,-0.506C0.375,-0.523 0.337,-0.531 0.293,-0.531C0.254,-0.531 0.218,-0.524 0.186,-0.51C0.153,-0.496 0.125,-0.477 0.102,-0.453C0.079,-0.428 0.061,-0.399 0.048,-0.366C0.035,-0.333 0.029,-0.297 0.029,-0.258C0.029,-0.218 0.035,-0.181 0.048,-0.148C0.06,-0.115 0.077,-0.086 0.1,-0.062C0.123,-0.038 0.15,-0.02 0.183,-0.007C0.216,0.007 0.252,0.013 0.293,0.013C0.352,0.013 0.402,-0 0.443,-0.027C0.484,-0.054 0.515,-0.098 0.535,-0.16L0.41,-0.16C0.405,-0.144 0.393,-0.129 0.372,-0.115C0.351,-0.1 0.327,-0.093 0.298,-0.093C0.258,-0.093 0.227,-0.103 0.206,-0.124C0.185,-0.145 0.173,-0.178 0.171,-0.224Z" style="fill:white;fill-rule:nonzero;"/>
                </g>
                <g transform="matrix(36,0,0,36,499.486,623.572)">
                    <path d="M0.421,-0.26C0.421,-0.239 0.419,-0.218 0.415,-0.198C0.411,-0.178 0.404,-0.16 0.395,-0.145C0.386,-0.129 0.373,-0.116 0.358,-0.107C0.342,-0.098 0.322,-0.093 0.299,-0.093C0.277,-0.093 0.258,-0.098 0.243,-0.108C0.227,-0.117 0.214,-0.13 0.204,-0.146C0.193,-0.161 0.186,-0.179 0.181,-0.199C0.176,-0.219 0.174,-0.239 0.174,-0.259C0.174,-0.28 0.176,-0.301 0.181,-0.321C0.185,-0.34 0.192,-0.358 0.202,-0.373C0.211,-0.388 0.224,-0.401 0.24,-0.41C0.256,-0.419 0.276,-0.424 0.299,-0.424C0.322,-0.424 0.342,-0.419 0.357,-0.41C0.372,-0.401 0.385,-0.389 0.395,-0.374C0.404,-0.359 0.411,-0.341 0.415,-0.322C0.419,-0.302 0.421,-0.281 0.421,-0.26ZM0.423,-0.066L0.423,-0L0.558,-0L0.558,-0.714L0.416,-0.714L0.416,-0.454L0.414,-0.454C0.398,-0.479 0.376,-0.499 0.349,-0.512C0.321,-0.525 0.292,-0.531 0.261,-0.531C0.223,-0.531 0.19,-0.524 0.161,-0.509C0.132,-0.494 0.109,-0.474 0.09,-0.449C0.07,-0.424 0.056,-0.396 0.047,-0.364C0.037,-0.331 0.032,-0.298 0.032,-0.263C0.032,-0.227 0.037,-0.192 0.047,-0.159C0.056,-0.126 0.07,-0.096 0.09,-0.071C0.109,-0.045 0.133,-0.024 0.162,-0.01C0.191,0.006 0.225,0.013 0.264,0.013C0.298,0.013 0.329,0.007 0.356,-0.006C0.383,-0.018 0.404,-0.038 0.421,-0.066L0.423,-0.066Z" style="fill:white;fill-rule:nonzero;"/>
                </g>
                <g transform="matrix(36,0,0,36,521.482,623.572)">
                    <path d="M0.048,-0.358C0.05,-0.391 0.058,-0.419 0.073,-0.441C0.088,-0.463 0.106,-0.481 0.129,-0.494C0.152,-0.507 0.177,-0.517 0.206,-0.523C0.234,-0.528 0.262,-0.531 0.291,-0.531C0.317,-0.531 0.343,-0.529 0.37,-0.526C0.397,-0.522 0.421,-0.515 0.443,-0.504C0.465,-0.493 0.483,-0.478 0.497,-0.46C0.511,-0.44 0.518,-0.415 0.518,-0.384L0.518,-0.115C0.518,-0.092 0.519,-0.069 0.522,-0.048C0.525,-0.027 0.529,-0.011 0.536,-0L0.392,-0C0.389,-0.008 0.387,-0.016 0.386,-0.025C0.384,-0.033 0.383,-0.041 0.382,-0.05C0.359,-0.027 0.333,-0.01 0.302,-0.001C0.271,0.008 0.24,0.013 0.208,0.013C0.183,0.013 0.16,0.01 0.139,0.004C0.118,-0.002 0.099,-0.011 0.083,-0.024C0.067,-0.037 0.055,-0.053 0.046,-0.072C0.037,-0.091 0.032,-0.114 0.032,-0.141C0.032,-0.17 0.037,-0.195 0.048,-0.214C0.058,-0.233 0.071,-0.248 0.088,-0.259C0.104,-0.27 0.123,-0.279 0.144,-0.285C0.165,-0.29 0.186,-0.295 0.207,-0.298C0.228,-0.301 0.249,-0.304 0.27,-0.306C0.291,-0.308 0.309,-0.311 0.325,-0.315C0.341,-0.319 0.354,-0.325 0.363,-0.333C0.372,-0.34 0.377,-0.351 0.376,-0.366C0.376,-0.381 0.374,-0.394 0.369,-0.403C0.364,-0.412 0.357,-0.419 0.349,-0.424C0.34,-0.428 0.331,-0.432 0.32,-0.434C0.309,-0.435 0.297,-0.436 0.284,-0.436C0.256,-0.436 0.234,-0.43 0.218,-0.418C0.202,-0.406 0.193,-0.386 0.19,-0.358L0.048,-0.358ZM0.376,-0.253C0.37,-0.248 0.363,-0.243 0.354,-0.241C0.345,-0.238 0.335,-0.235 0.325,-0.233C0.314,-0.231 0.303,-0.229 0.292,-0.228C0.281,-0.227 0.269,-0.225 0.258,-0.223C0.247,-0.221 0.237,-0.218 0.227,-0.215C0.216,-0.212 0.207,-0.207 0.2,-0.202C0.192,-0.196 0.186,-0.189 0.181,-0.18C0.176,-0.171 0.174,-0.16 0.174,-0.147C0.174,-0.134 0.176,-0.124 0.181,-0.115C0.186,-0.106 0.192,-0.099 0.2,-0.095C0.208,-0.09 0.217,-0.086 0.228,-0.084C0.239,-0.082 0.25,-0.081 0.261,-0.081C0.289,-0.081 0.311,-0.086 0.326,-0.095C0.341,-0.104 0.353,-0.116 0.36,-0.129C0.367,-0.141 0.372,-0.155 0.374,-0.168C0.375,-0.181 0.376,-0.192 0.376,-0.2L0.376,-0.253ZM0.473,-0.785L0.31,-0.608L0.211,-0.608L0.317,-0.785L0.473,-0.785Z" style="fill:white;fill-rule:nonzero;"/>
                </g>
                <g transform="matrix(36,0,0,36,542.146,623.572)">
                    <path d="M0.054,-0.517L0.054,-0L0.196,-0L0.196,-0.271C0.196,-0.324 0.205,-0.362 0.222,-0.385C0.239,-0.407 0.267,-0.419 0.306,-0.419C0.34,-0.419 0.364,-0.409 0.377,-0.388C0.39,-0.367 0.397,-0.335 0.397,-0.292L0.397,-0L0.539,-0L0.539,-0.318C0.539,-0.35 0.536,-0.379 0.531,-0.406C0.525,-0.432 0.515,-0.454 0.501,-0.473C0.487,-0.491 0.468,-0.505 0.444,-0.516C0.419,-0.526 0.388,-0.531 0.35,-0.531C0.32,-0.531 0.291,-0.524 0.262,-0.511C0.233,-0.497 0.21,-0.475 0.192,-0.445L0.189,-0.445L0.189,-0.517L0.054,-0.517Z" style="fill:white;fill-rule:nonzero;"/>
                </g>
                <g transform="matrix(36,0,0,36,563.494,623.572)">
                    <path d="M0.2,-0.517L0.2,-0L0.058,-0L0.058,-0.517L0.2,-0.517ZM0.315,-0.785L0.152,-0.608L0.053,-0.608L0.159,-0.785L0.315,-0.785Z" style="fill:white;fill-rule:nonzero;"/>
                </g>
                <g transform="matrix(36,0,0,36,582.79,623.572)">
                    <path d="M0.315,-0.093C0.292,-0.093 0.273,-0.098 0.257,-0.107C0.241,-0.116 0.228,-0.129 0.219,-0.144C0.209,-0.159 0.202,-0.176 0.198,-0.196C0.193,-0.216 0.191,-0.236 0.191,-0.257C0.191,-0.278 0.193,-0.299 0.197,-0.319C0.201,-0.339 0.208,-0.357 0.218,-0.372C0.227,-0.387 0.24,-0.4 0.256,-0.41C0.271,-0.419 0.291,-0.424 0.314,-0.424C0.337,-0.424 0.356,-0.419 0.372,-0.41C0.387,-0.4 0.4,-0.387 0.41,-0.372C0.42,-0.356 0.427,-0.338 0.432,-0.318C0.436,-0.298 0.438,-0.278 0.438,-0.257C0.438,-0.236 0.436,-0.216 0.432,-0.196C0.428,-0.176 0.421,-0.159 0.412,-0.144C0.402,-0.129 0.389,-0.116 0.374,-0.107C0.358,-0.098 0.338,-0.093 0.315,-0.093ZM0.054,-0.517L0.054,0.181L0.196,0.181L0.196,-0.064L0.198,-0.064C0.215,-0.039 0.238,-0.02 0.265,-0.007C0.292,0.007 0.321,0.013 0.353,0.013C0.391,0.013 0.424,0.006 0.453,-0.009C0.481,-0.024 0.505,-0.043 0.524,-0.068C0.543,-0.093 0.557,-0.121 0.566,-0.153C0.575,-0.185 0.58,-0.218 0.58,-0.253C0.58,-0.29 0.575,-0.325 0.566,-0.359C0.557,-0.392 0.542,-0.422 0.523,-0.447C0.504,-0.472 0.479,-0.493 0.45,-0.508C0.421,-0.523 0.386,-0.531 0.345,-0.531C0.313,-0.531 0.284,-0.525 0.257,-0.512C0.23,-0.499 0.208,-0.479 0.191,-0.451L0.189,-0.451L0.189,-0.517L0.054,-0.517Z" style="fill:white;fill-rule:nonzero;"/>
                </g>
                <g transform="matrix(36,0,0,36,604.786,623.572)">
                    <path d="M0.18,-0.258C0.18,-0.279 0.182,-0.299 0.186,-0.319C0.19,-0.339 0.197,-0.357 0.207,-0.372C0.216,-0.387 0.229,-0.4 0.245,-0.41C0.261,-0.419 0.281,-0.424 0.305,-0.424C0.329,-0.424 0.349,-0.419 0.366,-0.41C0.382,-0.4 0.395,-0.387 0.405,-0.372C0.414,-0.357 0.421,-0.339 0.425,-0.319C0.429,-0.299 0.431,-0.279 0.431,-0.258C0.431,-0.237 0.429,-0.217 0.425,-0.198C0.421,-0.178 0.414,-0.16 0.405,-0.145C0.395,-0.129 0.382,-0.116 0.366,-0.107C0.349,-0.098 0.329,-0.093 0.305,-0.093C0.281,-0.093 0.261,-0.098 0.245,-0.107C0.229,-0.116 0.216,-0.129 0.207,-0.145C0.197,-0.16 0.19,-0.178 0.186,-0.198C0.182,-0.217 0.18,-0.237 0.18,-0.258ZM0.038,-0.258C0.038,-0.217 0.044,-0.179 0.057,-0.146C0.07,-0.113 0.088,-0.084 0.111,-0.061C0.134,-0.037 0.162,-0.019 0.195,-0.006C0.228,0.007 0.264,0.013 0.305,0.013C0.346,0.013 0.383,0.007 0.416,-0.006C0.449,-0.019 0.477,-0.037 0.5,-0.061C0.523,-0.084 0.541,-0.113 0.554,-0.146C0.567,-0.179 0.573,-0.217 0.573,-0.258C0.573,-0.299 0.567,-0.337 0.554,-0.371C0.541,-0.404 0.523,-0.433 0.5,-0.457C0.477,-0.48 0.449,-0.499 0.416,-0.512C0.383,-0.525 0.346,-0.531 0.305,-0.531C0.264,-0.531 0.228,-0.525 0.195,-0.512C0.162,-0.499 0.134,-0.48 0.111,-0.457C0.088,-0.433 0.07,-0.404 0.057,-0.371C0.044,-0.337 0.038,-0.299 0.038,-0.258Z" style="fill:white;fill-rule:nonzero;"/>
                </g>
                <g transform="matrix(36,0,0,36,626.782,623.572)">
                    <rect x="0.058" y="-0.714" width="0.142" height="0.714" style="fill:white;fill-rule:nonzero;"/>
                </g>
                <g transform="matrix(36,0,0,36,636.07,623.572)">
                    <path d="M0.2,-0.597L0.2,-0.714L0.058,-0.714L0.058,-0.597L0.2,-0.597ZM0.058,-0.517L0.058,-0L0.2,-0L0.2,-0.517L0.058,-0.517Z" style="fill:white;fill-rule:nonzero;"/>
                </g>
                <g transform="matrix(36,0,0,36,645.358,623.572)">
                    <path d="M0.234,-0.517L0.234,-0.672L0.092,-0.672L0.092,-0.517L0.006,-0.517L0.006,-0.422L0.092,-0.422L0.092,-0.117C0.092,-0.091 0.096,-0.07 0.105,-0.054C0.114,-0.038 0.126,-0.026 0.141,-0.017C0.156,-0.008 0.173,-0.003 0.193,0.001C0.212,0.004 0.233,0.005 0.255,0.005C0.269,0.005 0.283,0.005 0.298,0.004C0.313,0.003 0.326,0.002 0.338,-0L0.338,-0.11C0.331,-0.109 0.324,-0.108 0.317,-0.107C0.31,-0.106 0.302,-0.106 0.294,-0.106C0.27,-0.106 0.254,-0.11 0.246,-0.118C0.238,-0.126 0.234,-0.142 0.234,-0.166L0.234,-0.422L0.338,-0.422L0.338,-0.517L0.234,-0.517Z" style="fill:white;fill-rule:nonzero;"/>
                </g>
                <g transform="matrix(36,0,0,36,658.03,623.572)">
                    <path d="M0.2,-0.597L0.2,-0.714L0.058,-0.714L0.058,-0.597L0.2,-0.597ZM0.058,-0.517L0.058,-0L0.2,-0L0.2,-0.517L0.058,-0.517Z" style="fill:white;fill-rule:nonzero;"/>
                </g>
                <g transform="matrix(36,0,0,36,667.318,623.572)">
                    <path d="M0.067,-0.714L0.067,-0L0.209,-0L0.209,-0.178L0.264,-0.231L0.406,-0L0.578,-0L0.361,-0.327L0.556,-0.517L0.388,-0.517L0.209,-0.331L0.209,-0.714L0.067,-0.714Z" style="fill:white;fill-rule:nonzero;"/>
                </g>
                <g transform="matrix(36,0,0,36,687.982,623.572)">
                    <path d="M0.539,-0L0.404,-0L0.404,-0.072L0.401,-0.072C0.383,-0.042 0.36,-0.02 0.331,-0.007C0.302,0.007 0.273,0.014 0.243,0.014C0.205,0.014 0.174,0.009 0.15,-0.002C0.125,-0.012 0.106,-0.026 0.092,-0.045C0.078,-0.063 0.068,-0.085 0.063,-0.112C0.057,-0.138 0.054,-0.167 0.054,-0.199L0.054,-0.517L0.196,-0.517L0.196,-0.225C0.196,-0.182 0.203,-0.151 0.216,-0.13C0.229,-0.109 0.253,-0.098 0.287,-0.098C0.326,-0.098 0.354,-0.11 0.371,-0.133C0.388,-0.156 0.397,-0.193 0.397,-0.246L0.397,-0.517L0.539,-0.517L0.539,-0ZM0.176,-0.684C0.176,-0.701 0.179,-0.717 0.186,-0.732C0.192,-0.747 0.201,-0.759 0.212,-0.77C0.223,-0.781 0.236,-0.789 0.251,-0.795C0.266,-0.801 0.282,-0.804 0.299,-0.804C0.317,-0.804 0.333,-0.801 0.348,-0.795C0.363,-0.789 0.376,-0.781 0.387,-0.77C0.398,-0.759 0.406,-0.747 0.412,-0.732C0.418,-0.717 0.421,-0.701 0.421,-0.684C0.421,-0.667 0.418,-0.651 0.412,-0.636C0.405,-0.621 0.397,-0.609 0.386,-0.598C0.375,-0.587 0.362,-0.579 0.347,-0.573C0.332,-0.567 0.315,-0.564 0.298,-0.564C0.28,-0.564 0.264,-0.567 0.249,-0.573C0.234,-0.579 0.222,-0.587 0.211,-0.598C0.2,-0.609 0.191,-0.621 0.185,-0.636C0.179,-0.651 0.176,-0.667 0.176,-0.684ZM0.362,-0.684C0.362,-0.703 0.356,-0.719 0.345,-0.732C0.334,-0.745 0.318,-0.751 0.299,-0.751C0.28,-0.751 0.264,-0.745 0.253,-0.732C0.241,-0.719 0.235,-0.703 0.235,-0.684C0.235,-0.665 0.241,-0.649 0.252,-0.636C0.263,-0.623 0.279,-0.617 0.298,-0.617C0.317,-0.617 0.333,-0.623 0.345,-0.636C0.356,-0.649 0.362,-0.665 0.362,-0.684Z" style="fill:white;fill-rule:nonzero;"/>
                </g>
            </g>
        </g>
    </g>
</svg>
