<svg xmlns="http://www.w3.org/2000/svg" xmlns:xlink="http://www.w3.org/1999/xlink" viewBox="0 0 170 96" xmlns:v="https://vecta.io/nano"><path d="M44.4 36.3c.7.3 1.2 1 1.2 1.7l1.7 16.4h4.2c2.4 0 4.2-.9 5.2-2.2 1.1-1.3 1.7-3 1.7-4.8s-.6-3.5-1.7-4.8-2.8-2.2-5.2-2.2h-2.7l-.5-4.1h3.2c3.4 0 6.1 1.3 8 3.5 1.8 2.1 2.7 4.9 2.7 7.7s-.9 5.6-2.7 7.7-4.6 3.5-8 3.5h-5.9 0c-1 0-1.8-.8-1.9-1.9l-1.4-13.9-10.4 11.5h8.7l.5 4.2H27.3c-.8 0-1.5-.5-1.8-1.3s-.1-1.7.4-2.3l16.5-18.3c.6-.5 1.4-.7 2-.4z" fill-rule="evenodd" fill="#6f28ba"/><g fill="#1a1a1a"><path d="M105.9 44.2c-1.5 0-2.8.7-3.6 1.8-.7-1.2-1.9-1.8-3.4-1.8-1.1 0-2.1.4-2.9 1v-.9h-2.9v11H96v-6.7c.5-1 1.2-1.7 2.2-1.7 1.2 0 1.9.8 1.9 2.6v5.8h2.9v-6.7c.5-1.1 1.2-1.7 2.2-1.7 1.2 0 1.9.8 1.9 2.6v5.8h2.9V49c-.1-3.3-1.7-4.8-4.1-4.8zM77.5 55.3h3.1l-5.8-14.5h-.2-2.8L66 55.3h3.1l1.2-3.3h5.9l1.3 3.3zm-6.2-5.6l2-5.4 2 5.4h-4zm40.6-5.4h2.9v11h-2.9v-11zm3.2-3.2c0 1-.7 1.9-1.7 1.9-.9 0-1.7-.8-1.7-1.9 0-1 .7-1.9 1.7-1.9.9 0 1.7.8 1.7 1.9zm8.5 13.7c-.6.5-1.5.7-2.4.7-2.4 0-3.7-1.3-3.7-3.9v-4.8H116v-2.5h1.5v-2.4l2.9-.9v3.3h2.5v2.4h-2.5v4.7c0 1 .5 1.4 1.2 1.4.4 0 .9-.2 1.2-.4l.8 2.4zm5.1-10.6c-1.6 0-3.2.5-4.3 1.3l1.1 2.2c.7-.6 1.8-1 2.9-1 1.6 0 2.3.8 2.3 2.2-.7-.2-1.7-.2-2.3-.2-3.1 0-4.3 1.5-4.3 3.5 0 1.9 1.4 3.3 3.7 3.3 1.3 0 2.3-.4 2.9-1.1v.9h.2 2.7v-6.2c-.1-3.4-1.9-4.9-4.9-4.9zm-.3 9.2c-1 0-1.6-.6-1.6-1.3 0-.8.4-1.3 1.8-1.3 0 0 1.3-.1 2 .2v.8c-.4.9-1.2 1.6-2.2 1.6z"/><use xlink:href="#B"/><use xlink:href="#B" x="54.5"/></g><defs ><path id="B" d="M88.2 40.8v4.3c-.8-.6-1.7-1-2.7-1-2.8 0-5.1 2.5-5.1 5.7 0 3.1 2.3 5.7 5.1 5.7 1 0 1.9-.4 2.7-1v.9h2.9V40l-2.9.8zm-5 9.1c0-2.5 2.5-4 4.9-1.9v3.9c-2.5 2-4.9.3-4.9-2z"/></defs></svg>