<svg xmlns="http://www.w3.org/2000/svg" width="170" height="96" fill="#1b8473" xmlns:v="https://vecta.io/nano"><path d="M48.008 32l6.056 2.169v21.788l8.515-5.039-4.186-2.014-2.636-6.716 13.431 4.83v7.016l-15.123 8.948-6.056-3.435V32zm40.381 16.321c-.739-.793-1.719-1.267-2.939-1.431v-.036c.98-.337 1.755-.884 2.307-1.668.561-.775.837-1.695.837-2.761 0-1.267-.463-2.278-1.381-3.071-.926-.793-2.164-1.185-3.75-1.185h-5.175v18.607h5.299c1.701 0 3.117-.492 4.231-1.476s1.674-2.278 1.674-3.864c-.009-1.257-.374-2.305-1.105-3.116zm-7.98-8.155h2.449c2.325 0 3.482.902 3.482 2.706 0 1.048-.338 1.85-1.006 2.442-.668.574-1.576.856-2.761.856h-2.182v-6.005h.018zm5.807 13.75c-.686.602-1.657.902-2.913.902h-2.895v-6.707h2.449c2.93 0 4.382 1.093 4.382 3.299.018 1.066-.338 1.904-1.024 2.506zm7.056-13.359a1.26 1.26 0 0 1-.944-.392c-.267-.273-.383-.583-.383-.984 0-.392.125-.729.383-1.002a1.24 1.24 0 0 1 .944-.392 1.37 1.37 0 0 1 1.38 1.394c0 .383-.142.702-.401.966-.285.264-.615.41-.98.41zm-1.069 3.062h2.075v13.185h-2.075V43.619zm16.213 13.185h-2.076v-7.481c0-2.825-.926-4.228-2.939-4.228-1.042 0-1.906.392-2.583 1.203s-1.024 1.804-1.024 3.025v7.481h-2.075V43.618h2.075v2.16h.044c.98-1.677 2.386-2.469 4.187-2.469 1.425 0 2.511.474 3.25 1.412.758.939 1.132 2.296 1.132 4.073l.009 8.01zm12.497-13.186v1.841h-.044c-.855-1.44-2.049-2.16-3.794-2.16-1.844 0-3.296.665-4.356 1.996-1.069 1.33-1.594 3.125-1.594 5.385 0 1.996.499 3.581 1.47 4.757.988 1.185 2.289 1.677 3.901 1.677 1.986 0 3.375-.82 4.364-2.524h.044v1.44c0 3.472-1.594 5.185-4.8 5.185-2.156 0-3.563-.966-3.563-.966l-.543 1.822c1.211.62 2.52.92 4.133.92 4.569 0 6.849-2.442 6.849-7.317V43.618h-2.067zm0 7.18c0 1.33-.374 2.406-1.095 3.262-.731.857-1.63 1.267-2.788 1.267-1.149 0-2.075-.447-2.77-1.33s-1.06-1.968-1.06-3.444c0-1.731.357-3.062 1.087-4.009s1.737-1.431 3.019-1.431c1.042 0 1.844.383 2.539 1.121a3.89 3.89 0 0 1 1.051 2.706v1.841l.017.018z"/></svg>