<svg xmlns="http://www.w3.org/2000/svg" width="170" height="96" fill="none" xmlns:v="https://vecta.io/nano"><path d="M36.095 58.958h-4.22V48.134H29V44.61h2.875v-2.508c0-2.971 1.272-5.103 5.48-5.103.89 0 2.288.185 2.288.185v3.272h-1.468c-1.496 0-2.08.468-2.08 1.762v2.391h3.492l-.311 3.524h-3.181v10.824zm9.684-14.629l-.187.004c-3.913 0-5.704 3.028-5.704 7.327 0 5.415 2.322 7.583 5.734 7.583 1.952 0 3.235-.845 4.014-2.423v2.14h4.014V44.612h-4.014v2.206c-.637-1.42-1.955-2.473-3.857-2.49zm1.021 3.39c1.644 0 2.63 1.179 2.63 3.186l.004 2.049c0 1.352-.815 2.934-2.634 2.934-2.797 0-2.722-3.107-2.722-4.142 0-3.481 1.49-4.027 2.722-4.027zm8.472 4.067c0-1.743-.081-7.448 7.143-7.448 2.9 0 4.111.949 4.111.949l-.973 3.106s-1.209-.685-2.785-.685c-2.018 0-3.306 1.204-3.306 3.322l.002 1.519c0 2.035 1.243 3.394 3.308 3.394 1.436 0 2.759-.692 2.759-.692l.971 3.041s-1.107.955-4.066.955c-6.879 0-7.164-5.118-7.164-7.459h0zm34.79-7.454c3.913 0 5.732 3.028 5.732 7.327 0 5.415-2.322 7.583-5.734 7.583-1.952 0-3.395-.845-4.175-2.423v2.14l-3.964-.002V37.436l4.208-.377v9.565c.607-1.673 2.603-2.291 3.932-2.291h0zm-1.18 3.386c-1.644 0-2.752 1.179-2.752 3.186l-.004 2.049c-.002 1.352.768 2.934 2.756 2.934 2.797 0 2.722-3.107 2.722-4.142 0-3.481-1.49-4.027-2.722-4.027zm-15.054-3.375c-4.439 0-6.782 2.49-6.782 6.914v.822c0 5.743 3.291 7.221 7.214 7.221 3.813 0 5.539-1.097 5.539-1.097l-.788-2.922s-2.03.889-4.247.889c-2.298 0-3.287-.603-3.54-2.875h8.911v-2.344c0-4.799-2.63-6.607-6.308-6.607h0zm.107 2.926c1.536 0 2.532.969 2.477 3.217h-5.18c.09-2.366 1.163-3.217 2.703-3.217h0zm30.251-2.946c-4.558 0-6.958 2.643-6.958 7.378 0 6.498 4.136 7.544 6.965 7.544 4.142 0 6.897-2.294 6.897-7.485 0-5.403-3.098-7.437-6.904-7.437zm-.058 3.406c2.005 0 2.799 1.543 2.799 3.3v1.51c0 2.128-1.111 3.359-2.806 3.359-1.585 0-2.699-1.151-2.699-3.359v-1.51c0-2.354 1.325-3.3 2.706-3.3zm15.345-3.406c-4.558 0-6.957 2.643-6.957 7.378 0 6.498 4.136 7.544 6.965 7.544 4.141 0 6.897-2.294 6.897-7.485 0-5.403-3.098-7.437-6.905-7.437zm-.057 3.406c2.004 0 2.798 1.543 2.798 3.3v1.51c0 2.128-1.111 3.359-2.805 3.359-1.585 0-2.699-1.151-2.699-3.359v-1.51c0-2.354 1.325-3.3 2.706-3.3zm8.552 11.227V37.436l4.22-.377v14.425l4.188-6.874h4.457l-4.368 7.119L141 58.958h-4.47l-4.343-7.019v7.019h-4.22z" fill="#1877f2"/></svg>