<svg xmlns="http://www.w3.org/2000/svg" width="170" height="96" fill="none" xmlns:v="https://vecta.io/nano"><path d="M78.425 48.41c0 4.442-3.489 7.715-7.771 7.715s-7.771-3.273-7.771-7.715c0-4.473 3.489-7.715 7.771-7.715s7.771 3.242 7.771 7.715zm-3.402 0c0-2.776-2.022-4.675-4.369-4.675s-4.369 1.899-4.369 4.675c0 2.748 2.022 4.675 4.369 4.675s4.369-1.93 4.369-4.675z" fill="#ea4335"/><path d="M95.191 48.41c0 4.442-3.489 7.715-7.771 7.715s-7.771-3.273-7.771-7.715c0-4.47 3.489-7.715 7.771-7.715s7.771 3.242 7.771 7.715zm-3.402 0c0-2.776-2.022-4.675-4.369-4.675s-4.369 1.899-4.369 4.675c0 2.748 2.022 4.675 4.369 4.675s4.369-1.93 4.369-4.675z" fill="#fbbc05"/><path d="M111.257 41.161v13.85c0 5.697-3.374 8.024-7.363 8.024-3.754 0-6.014-2.501-6.866-4.546l2.962-1.228c.527 1.256 1.819 2.737 3.901 2.737 2.553 0 4.135-1.569 4.135-4.522v-1.109h-.118c-.762.936-2.229 1.753-4.08 1.753-3.873 0-7.422-3.36-7.422-7.684 0-4.355 3.549-7.743 7.422-7.743 1.848 0 3.315.817 4.08 1.725h.118v-1.256h3.231v-.004zm-2.99 7.276c0-2.716-1.819-4.703-4.135-4.703-2.347 0-4.313 1.986-4.313 4.703 0 2.689 1.966 4.647 4.313 4.647 2.316 0 4.135-1.958 4.135-4.647z" fill="#4285f4"/><path d="M116.584 33.043v22.609h-3.318V33.043h3.318z" fill="#34a853"/><path d="M129.517 50.949l2.64 1.753c-.852 1.256-2.906 3.419-6.454 3.419-4.401 0-7.687-3.388-7.687-7.715 0-4.588 3.314-7.715 7.306-7.715 4.02 0 5.987 3.186 6.629 4.908l.353.877-10.356 4.271c.793 1.548 2.026 2.337 3.755 2.337s2.934-.849 3.814-2.136zm-8.127-2.776l6.922-2.863c-.381-.963-1.526-1.635-2.874-1.635-1.729 0-4.136 1.52-4.048 4.497z" fill="#ea4335"/><path d="M50.325 46.404v-3.273H61.4c.108.571.164 1.245.164 1.976 0 2.456-.674 5.492-2.847 7.656-2.113 2.191-4.813 3.36-8.389 3.36-6.629 0-12.203-5.377-12.203-11.979s5.574-11.979 12.203-11.979c3.667 0 6.28 1.433 8.243 3.301l-2.319 2.31c-1.408-1.315-3.315-2.337-5.927-2.337-4.841 0-8.627 3.885-8.627 8.706s3.786 8.706 8.627 8.706c3.14 0 4.928-1.256 6.074-2.396.929-.925 1.54-2.247 1.781-4.052l-7.855.004z" fill="#4285f4"/></svg>