<svg xmlns="http://www.w3.org/2000/svg" viewBox="0 0 170 96" xmlns:v="https://vecta.io/nano"><g fill="#757575"><path d="M75.8 53l2.4 6.3h-4.6l2.2-6.3h0zm-.9-2.1l-5.2 13.7h1.9l1.3-3.7h5.8l1.3 3.7h1.9l-5.2-13.7h-1.8 0zm28.2 13.8h1.8V50.9h-1.8v13.8h0zm-18.3-8.1c.6-.9 1.8-1.6 3-1.6 2.4 0 3.6 1.6 3.6 4v5.8h-1.8v-5.5c0-1.9-1-2.7-2.4-2.7-1.5 0-2.5 1.5-2.5 2.8v5.2h-1.8v-9.5h1.8l.1 1.5h0zm8.1 5.2c0-2.1 1.9-3.3 4.2-3.3 1.3 0 2.2.3 2.5.6v-.3c0-1.5-1.2-2.2-2.4-2.2-1 0-1.9.4-2.2 1.3l-1.6-.7c.3-.9 1.5-2.2 3.9-2.2 2.2 0 4.2 1.3 4.2 4v5.7h-1.6v-1.3h-.2c-.4.7-1.5 1.6-3.1 1.6-2.1 0-3.7-1.2-3.7-3.2m6.7-1.2s-.7-.6-2.2-.6c-1.8 0-2.5 1-2.5 1.8 0 1 1 1.5 1.9 1.5 1.3 0 2.8-1.2 2.8-2.7"/><path d="M107.5 68.9l2.1-4.9-3.7-8.7h1.8l2.8 6.6 2.8-6.6h1.8l-5.8 13.6h-1.8 0zm26.2-10.5c-.4-1.2-1.5-1.9-2.5-1.9-1.5 0-2.8 1.3-2.8 3.3 0 1.9 1.3 3.3 2.8 3.3 1 0 2.1-.7 2.5-1.8l1.5.9c-.7 1.6-2.2 2.7-4 2.7-2.5 0-4.6-2.2-4.6-5.1 0-3 2.1-5.1 4.6-5.1 1.8 0 3.3 1 4 2.7l-1.5 1h0z" fill-rule="evenodd"/><path d="M140.2 65c2.4 0 3.6-1.3 3.6-3 0-3.6-5.2-2.2-5.2-4.3 0-.7.6-1.2 1.6-1.2s2.1.4 2.5 1.2l1-1c-.6-.7-2.2-1.8-3.7-1.8-2.2 0-3.4 1.3-3.4 3 0 3.4 5.4 2.2 5.4 4 0 .9-.6 1.5-1.8 1.5s-1.8-.7-2.4-1.5l-1.3 1.1c.8.8 2.2 2 3.7 2h0zm-17-.3h1.8v-9.6h-1.8v9.6z"/><path d="M123.9 50.5c.7 0 1.2.6 1.2 1.2 0 .7-.6 1.2-1.2 1.2s-1.2-.6-1.2-1.2.6-1.2 1.2-1.2zm-2.5 12.7l.3 1.3h-1.8c-1.6 0-2.4-1.2-2.4-3v-4.6h-1.8v-1.8h1.8v-2.8h1.8v2.8h2.1v1.8h-2.1v4.9c0 1.4 1 1.4 2.1 1.4h0z" fill-rule="evenodd"/><path d="M78.8 35.8V38H84c-.2 1.2-.6 2.1-1.2 2.7-.7.7-1.9 1.6-4 1.6-3.1 0-5.7-2.5-5.7-5.8 0-3.1 2.5-5.8 5.7-5.8 1.8 0 3 .7 3.9 1.5l1.5-1.5c-1.3-1.2-3-2.2-5.4-2.2-4.3 0-8.1 3.6-8.1 7.9s3.7 7.9 8.1 7.9c2.4 0 4.2-.7 5.5-2.2 1.5-1.5 1.9-3.4 1.9-5.1 0-.4 0-1-.2-1.3h-7.3l.1.1zM92.1 34c-2.9 0-5.1 2.1-5.1 5 0 3 2.2 5.1 5.1 5.1 2.8 0 5.1-2.2 5.1-5V39c-.1-2.9-2.3-5-5.1-5zm0 8.2c-1.5 0-2.8-1.3-2.8-3.1s1.3-3.1 2.8-3.1 2.8 1.2 2.8 3.1-1.3 3.1-2.8 3.1h0zm24.4-7.2c-.6-.6-1.5-1.2-2.8-1.2-2.5 0-4.8 2.2-4.8 5.1 0 2.8 2.2 5.1 4.8 5.1 1.2 0 2.2-.6 2.7-1.2h.2v.7c0 1.9-1 3-2.7 3-1.3 0-2.2-1-2.5-1.8l-1.9.7c.6 1.3 2.1 3 4.5 3 2.7 0 4.9-1.5 4.9-5.4v-9.3h-2.1V35h-.3zm-2.5 7.2c-1.5 0-2.7-1.3-2.7-3.1s1.2-3.1 2.7-3.1 2.7 1.3 2.7 3.1-1.2 3.1-2.7 3.1zM103.1 34c-2.8 0-5.1 2.1-5.1 5.1s2.2 5.1 5.1 5.1c2.8 0 5.1-2.2 5.1-5v-.1c.1-3-2.3-5.1-5.1-5.1zm0 8.2c-1.5 0-2.8-1.3-2.8-3.1s1.3-3.1 2.8-3.1 2.8 1.2 2.8 3.1-1.3 3.1-2.8 3.1zm17.3-13.6h2.2v15.5h-2.2V28.6zm8.4 13.6c-1.2 0-1.9-.6-2.5-1.5l6.9-2.8-.3-.6c-.4-1.2-1.8-3.3-4.3-3.3-2.7 0-4.8 2.1-4.8 5.1 0 2.8 2.2 5.1 5 5.1h.1c2.4 0 3.7-1.5 4.3-2.2l-1.8-1.2c-.7.8-1.4 1.4-2.6 1.4h0zm-.1-6.3c.9 0 1.6.4 1.9 1.2L126 39c0-2.2 1.5-3.1 2.7-3.1z"/></g><g transform="matrix(.198617 0 0 .198616 29.128442 -18.08775)"><path d="M138.8 259.6v132c0 14.8 10.2 23 21 23 10 0 21-7 21-23v-131c0-13.5-10-22-21-22s-21 9.4-21 21z" fill="#f9ab00"/><g fill="#e37400"><path d="M83.8 326.6v65c0 14.8 10.2 23 21 23 10 0 21-7 21-23v-64c0-13.5-10-22-21-22s-21 9.4-21 21z"/><circle cx="49.8" cy="393.6" r="21"/></g></g></svg>