<svg xmlns="http://www.w3.org/2000/svg" width="170" height="96" fill="none" xmlns:v="https://vecta.io/nano"><g clip-path="url(#A)" fill="#fff"><path d="M43.551 36.092c-.685.265-1.812 1.69-2.477 3.095-.906 1.955-1.309 3.686-1.309 5.681 0 1.446.08 1.914.544 2.953.302.652.785 1.466 1.087 1.792.685.733 1.953 1.324 2.819 1.344.544 0 .644.082.644.509 0 .285-.181.957-.383 1.527-.886 2.342-2.678 3.665-5.034 3.665-1.671 0-2.879-.55-3.322-1.507-.544-1.161-.423-1.873.503-3.014.624-.733.866-1.222.946-1.894.081-.814.04-.937-.383-1.079-1.148-.428-2.577.652-3.02 2.24-.121.489-.181 1.405-.121 2.057.302 3.34 2.779 5.05 6.886 4.765 2.255-.163 3.423-.611 4.651-1.873 1.289-1.283 1.832-2.729 2.094-5.376.221-2.24.262-10.813.08-13.114-.141-1.548-.141-1.568-.765-1.649-1.43-.224-3.06-.285-3.443-.122zm1.248 2.892c.121.163.161 2.158.101 4.989-.081 4.398-.121 4.745-.463 4.846-.664.224-1.47-.346-1.993-1.425-.463-.916-.503-1.262-.503-3.462 0-2.647.221-3.604 1.047-4.582.523-.652 1.45-.835 1.812-.366zm24.343-2.342c-.06.163-.121.774-.121 1.344a27.6 27.6 0 0 1-.141 2.423l-.121 1.385h-.926c-.906 0-2.376.285-2.577.468-.04.061 0 .285.121.509.201.367.624.529 2.799.977l.443.081-.04 4.846c-.06 4.236-.02 4.989.322 6.089.644 2.158 2.114 3.462 3.604 3.177.745-.142 1.732-1.222 2.396-2.606.302-.672.564-1.038.564-.815 0 .672.946 2.484 1.45 2.831.262.183.967.407 1.55.529 1.732.326 2.738-.407 3.765-2.769l.322-.794.181.59c.221.814 1.309 1.894 2.034 2.036.785.163 1.832-.305 2.376-1.059l.463-.631.423.855c.564 1.1 1.168 1.527 2.618 1.792 1.067.183 1.248.183 1.711-.183.282-.204.765-.835 1.067-1.385l.564-.998v2.423l-1.49 1.486c-1.651 1.629-2.859 3.767-3.443 6.068-.987 3.93.262 5.661 4.108 5.681 1.651.02 1.671.02 2.235-.652.946-1.14 1.087-1.996 1.208-7.168l.101-4.785h.644c.362 0 .765-.122.906-.265.221-.224.181-.346-.222-.672-.262-.204-.705-.387-.987-.387h-.503l.101-3.319c.081-2.545.181-3.462.443-3.971l.342-.672-.665-.265-.664-.285v-1.833c0-1.751-.04-1.873-.564-2.444-.302-.326-.946-.692-1.409-.835-.463-.122-1.269-.428-1.792-.672-1.107-.509-1.691-.407-2.658.448-1.369 1.222-2.054 3.625-2.316 8.044-.161 2.831-.463 3.828-1.228 4.073-.564.183-.946-.183-1.208-1.1-.262-.998-.262-3.299.04-4.439.221-.896.201-.957-.282-1.364-.463-.387-.523-.611-.604-2.118-.121-2.138-.423-2.566-2.295-3.34-3.745-1.548-5.618.163-6.322 5.824-.101.876-.282 1.71-.383 1.833s-.342.855-.503 1.609c-.403 1.71-.966 2.892-1.651 3.319-.483.326-.523.326-.906-.061-.604-.611-.785-2.525-.664-6.781.141-5.335.06-5.03 1.409-5.213.624-.061 1.711-.142 2.416-.142 1.389-.02 1.591-.204.886-.855-.322-.285-.866-.407-2.376-.489l-1.953-.122.04-1.425a33.17 33.17 0 0 1 .161-2.403c.121-.957.101-.978-.544-1.242-1.127-.448-2.134-.55-2.255-.183zm24.182 8.491c.523.468.564.59.544 1.996-.04 2.749-.564 5.844-1.228 7.188-.463.937-1.289 1.731-1.812 1.731-.262 0-.604-.224-.805-.55-.544-.815-.523-6.19.02-7.799.523-1.588 1.087-2.443 1.812-2.769.825-.367.825-.367 1.47.204zm-11.658.428c.544.713.745 2.199.362 2.79-.161.265-.382 1.446-.503 2.647-.302 2.729-.705 4.154-1.43 4.887-.846.835-1.55.774-1.953-.204-.785-1.853-.463-7.209.564-9.224.725-1.446 2.195-1.894 2.96-.896zm12.121 20.526c-.362 2.362-1.228 3.584-2.336 3.319-1.047-.265-1.369-2.179-.785-4.5.443-1.69 1.51-3.91 2.436-4.989l.785-.896.06 2.831c.02 1.568-.04 3.482-.161 4.236zM108.992 43.3c-1.027 1.079-1.631 2.708-1.933 5.315-.282 2.444-1.088 5.661-1.651 6.699-.343.631-.564.835-.947.835-.805 0-1.067-1.12-.946-4.174.08-1.853.221-2.953.564-4.052l.463-1.507-.443-.366c-.282-.224-.967-.407-1.812-.489l-1.651-.163c-.202-.041-.302-.306-.302-.855-.021-1.161-.222-1.385-1.047-1.263-1.228.204-1.228.244-1.128 3.665.081 1.996.02 3.645-.141 4.622-.362 2.158-.342 2.321.06 2.403.544.122 1.067-1.344 1.49-4.236l.383-2.545h1.188l-.081 2.647c-.12 5.193.947 7.84 3.162 7.84.926 0 1.731-.631 2.315-1.833l.504-.998.322.876c.181.468.584 1.1.886 1.385.664.631 2.537 1.1 3.302.794.664-.244 1.53-1.324 2.074-2.525l.423-.998.382.855c.967 2.179 3.181 2.342 4.49.346l.544-.835.121 1.059c.181 1.344.402 1.609 1.51 1.792 1.752.265 1.752.244 2.154-2.81.343-2.749.866-5.05 1.168-5.05.081 0 .181 1.364.222 3.034.06 2.627.12 3.095.443 3.462.785.876 2.738.733 2.738-.204 0-.713.805-3.665 1.47-5.376l.644-1.629.101 2.851c.08 2.525.161 2.973.604 3.849.282.57.745 1.201 1.047 1.425.745.55 2.174.55 2.899 0 1.551-1.161 3.162-6.19 1.994-6.19-.363 0-.604.489-.806 1.527-.463 2.606-2.013 4.093-2.718 2.586-.423-.876-.483-4.378-.101-6.048.604-2.647.625-2.444-.181-3.055a3.24 3.24 0 0 0-1.711-.672l-.947-.082-.523 1.181c-.302.672-.967 2.444-1.51 3.95l-.967 2.749-.06-3.095-.061-3.115-.584-.306c-1.61-.835-2.456-.081-3.402 3.075l-.725 2.423c-.041.102-.081-1.548-.081-3.706l-.221-4.032c-.121-.081-.705-.183-1.289-.244l-1.087-.122-.081 3.849c-.08 3.238-.161 4.052-.523 5.193-.786 2.383-1.792 3.115-2.376 1.71-.342-.835-.383-3.91-.061-5.091.202-.733.182-.835-.281-1.222-.423-.346-.504-.652-.625-2.016-.161-1.812-.463-2.586-1.168-2.892-2.114-.998-2.476-1.1-3.523-1.1-1.087 0-1.188.041-1.973.896zm3.926 1.955c.664.367 1.107 2.668.604 3.177-.101.102-.302 1.161-.403 2.321-.282 2.769-.725 4.337-1.429 5.111-.745.794-1.571.754-1.974-.102-.684-1.466-.644-5.6.081-8.145.604-2.057 1.873-3.034 3.121-2.362zm-62.701-1.262c-.161.285-.584 9.937-.483 11.078.141 1.344.584 1.792 1.752 1.792.503 0 1.027-.081 1.148-.163.141-.081.383-.916.564-1.873.383-1.894.987-3.889 1.43-4.684.262-.468.282-.285.302 1.935 0 2.708.282 3.645 1.208 4.134.664.346 1.933.183 2.658-.367.604-.448.604-.448.886-.041.644.937 3.423 1.487 5.376 1.059 1.47-.305 2.356-1.018 2.356-1.914 0-.876-.302-1.263-2.396-2.973s-2.436-2.159-2.436-3.156c0-1.466 1.792-2.342 2.839-1.405.483.448.906.346 1.49-.346.423-.509.503-.815.463-1.487-.06-.692-.161-.876-.665-1.12-1.127-.55-4.812.448-6.121 1.67-1.047.977-1.289 2.484-.624 3.788.302.631.342.814.121.896-.141.061-.322.509-.403.977-.322 2.057-1.389 3.462-2.114 2.749-.262-.285-.322-.896-.362-3.665-.02-2.545-.101-3.482-.342-3.95-.342-.672-1.128-.977-1.732-.652-.503.265-1.309 1.67-2.034 3.523l-.564 1.466-.02-3.299c0-3.197-.02-3.319-.443-3.604-.624-.387-1.712-.591-1.852-.367zm13.47 9.673c.483.428.906.937.967 1.161.302 1.14-1.349 1.466-2.638.509-.423-.305-.987-.713-1.309-.896-.342-.204-.503-.428-.423-.631.06-.163.222-.815.342-1.446l.221-1.161 1.007.855c.544.448 1.369 1.181 1.832 1.609z"/></g><defs><clipPath id="A"><path fill="#fff" transform="translate(34 36)" d="M0 0h103v35H0z"/></clipPath></defs></svg>