<svg xmlns="http://www.w3.org/2000/svg" viewBox="0 0 170 96" xmlns:v="https://vecta.io/nano"><path d="M67.1 50l-.8 2h-.1c-.1-.5-.3-1.2-.7-2l-3.9-9.8h-3.8v15.6h2.5v-9.6-2.1c0-.4-.1-.7-.1-1h.1c.1.6.3 1 .4 1.3l4.7 11.4h1.8l4.6-11.5c.1-.3.2-.8.3-1.2h.1c-.1 1.1-.1 2.2-.1 2.8v9.9h2.7V40.2h-3.7l-4 9.8zm10.2-5.4h2.6v11.2h-2.6V44.6zm1.3-4.7c-.4 0-.8.2-1.1.4-.3.3-.5.7-.5 1.1s.2.8.5 1.1.7.4 1.1.4.8-.2 1.1-.4c.3-.3.5-.6.5-1.1 0-.4-.2-.8-.5-1.1-.2-.3-.6-.4-1.1-.4zm10.6 4.6c-.5-.1-1-.2-1.5-.2-1.2 0-2.3.3-3.2.8s-1.6 1.2-2.1 2.2c-.5.9-.7 2-.7 3.2 0 1.1.2 2 .7 2.9.5.8 1.1 1.5 2 2 .8.5 1.8.7 2.9.7 1.3 0 2.3-.3 3.2-.7h0V53h-.1c-.4.3-.8.5-1.3.7s-.9.2-1.3.2c-1.1 0-1.9-.3-2.5-1-.6-.6-.9-1.5-.9-2.6s.3-2.1.9-2.7c.6-.7 1.5-1 2.5-1 .8 0 1.7.3 2.5.8l.1.1v-2.6h0c-.3-.1-.7-.3-1.2-.4zm8.7-.1c-.6 0-1.3.2-1.8.6-.4.4-.7.9-1 1.5h0v-2h-2.6v11.2h2.6V50c0-1 .2-1.8.6-2.4s1-.9 1.7-.9c.2 0 .5.1.8.1.3.1.5.2.6.3l.1.1v-2.6h-.1c-.1-.1-.5-.2-.9-.2zm7.1 0c-1.8 0-3.3.5-4.3 1.6-1.1 1.1-1.6 2.5-1.6 4.4 0 1.7.5 3.1 1.5 4.2 1 1 2.4 1.5 4.1 1.5 1.8 0 3.2-.5 4.3-1.6 1-1.1 1.6-2.5 1.6-4.3s-.5-3.2-1.5-4.2c-.9-1.1-2.3-1.6-4.1-1.6zm2.1 8.5c-.5.6-1.3.9-2.2.9s-1.7-.3-2.3-1c-.5-.6-.8-1.5-.8-2.7s.3-2.1.8-2.7 1.3-1 2.2-1 1.7.3 2.2.9.8 1.5.8 2.7c.1 1.4-.2 2.3-.7 2.9zm9.3-3.7c-.8-.3-1.4-.6-1.6-.8s-.3-.5-.3-.8.1-.6.4-.8.6-.3 1.2-.3c.4 0 .9.1 1.4.2.4.1.8.3 1.2.5l.1.1v-2.5h-.1c-.3-.1-.7-.2-1.2-.3s-.9-.1-1.3-.1c-1.3 0-2.3.3-3.1 1-.8.6-1.2 1.5-1.2 2.5 0 .5.1 1 .3 1.4s.4.7.8 1 .9.6 1.6.9c.6.3 1.1.5 1.4.6.3.2.5.3.6.5s.2.4.2.6c0 .7-.6 1.1-1.7 1.1-.4 0-.9-.1-1.5-.3-.5-.2-1.1-.4-1.5-.7l-.1-.1v2.6h.1c.4.2.8.3 1.4.4.5.1 1 .1 1.5.1 1.4 0 2.5-.3 3.3-1 .8-.6 1.2-1.5 1.2-2.5 0-.7-.2-1.4-.6-1.9-.7-.5-1.4-1-2.5-1.4zm10-4.8c-1.8 0-3.3.5-4.3 1.6s-1.6 2.5-1.6 4.4c0 1.7.5 3.1 1.5 4.2 1 1 2.4 1.5 4.1 1.5 1.8 0 3.2-.5 4.3-1.6s1.6-2.5 1.6-4.3-.5-3.2-1.5-4.2c-1-1.1-2.4-1.6-4.1-1.6zm2.1 8.5c-.5.6-1.3.9-2.2.9-1 0-1.7-.3-2.3-1-.5-.6-.8-1.5-.8-2.7s.3-2.1.8-2.7 1.3-1 2.2-1 1.7.3 2.2.9.8 1.5.8 2.7c0 1.4-.2 2.3-.7 2.9zm17.5-6.1v-2.2h-2.6v-3.3h-.1l-2.5.7h-.1v2.5h-4v-1.4c0-.6.2-1.1.4-1.5.3-.3.7-.5 1.2-.5.4 0 .7.1 1.2.3l.1.1v-2.3h-.1c-.4-.1-.8-.2-1.5-.2a4.65 4.65 0 0 0-2.1.5 3.16 3.16 0 0 0-1.4 1.4 4.65 4.65 0 0 0-.5 2.1v1.6h-1.8v2.1h1.8v9h2.6v-9h4v5.7c0 2.4 1.1 3.5 3.3 3.5.4 0 .7-.1 1.1-.1.4-.1.7-.2.8-.3h0v-2.2l-.1.1c-.2.1-.3.2-.5.2-.2.1-.4.1-.5.1-.5 0-.9-.1-1.2-.4-.2-.3-.4-.7-.4-1.4v-5.3h2.9z" opacity=".6" fill="#fff"/><path d="M24,35h12.4v12.4H24V35z" fill="#f25022"/><path d="M37.7,35h12.4v12.4H37.7V35z" fill="#7fba00"/><path d="M24,48.6h12.4V61H24V48.6z" fill="#00a4ef"/><path d="M37.7,48.6h12.4V61H37.7V48.6z" fill="#ffb900"/></svg>