<svg xmlns="http://www.w3.org/2000/svg" width="170" height="96" fill="none" xmlns:v="https://vecta.io/nano"><path d="M67.062 49.975l-.727 2.056h-.061c-.121-.463-.343-1.169-.707-2.016l-3.898-9.775h-3.818v15.58h2.525v-9.614l-.02-2.136-.081-.988h.061c.121.605.263 1.048.364 1.33l4.686 11.368h1.777l4.646-11.468c.101-.262.202-.786.303-1.229h.061l-.121 2.801v9.876h2.687V40.2h-3.676l-3.999 9.775zm10.221-5.381h2.626v11.166h-2.626V44.593zm1.333-4.716c-.444 0-.808.161-1.111.443s-.465.645-.465 1.088c0 .423.162.786.465 1.068s.666.423 1.111.423.828-.161 1.111-.423c.303-.282.465-.645.465-1.068s-.162-.786-.465-1.088c-.263-.282-.646-.443-1.111-.443zm10.604 4.616c-.485-.101-.99-.161-1.475-.161-1.192 0-2.282.262-3.191.786s-1.636 1.25-2.101 2.157c-.485.927-.727 1.995-.727 3.225 0 1.068.242 2.015.707 2.882.465.846 1.111 1.532 1.98 1.995.828.464 1.798.705 2.888.705 1.252 0 2.323-.262 3.171-.746l.02-.02v-2.419l-.101.081c-.384.282-.828.524-1.272.665-.465.161-.889.242-1.252.242-1.05 0-1.879-.302-2.464-.968-.606-.645-.909-1.532-.909-2.64 0-1.149.303-2.056.929-2.721s1.454-1.008 2.464-1.008c.848 0 1.717.282 2.505.847l.101.081v-2.56l-.02-.02c-.343-.141-.727-.302-1.252-.403zm8.665-.081c-.646 0-1.252.202-1.778.625-.444.363-.747.887-1.01 1.512h-.02v-1.955h-2.626v11.166h2.626v-5.704c0-.967.202-1.774.646-2.358.444-.605 1.01-.907 1.697-.907.242 0 .485.06.788.101.283.081.485.161.626.262l.101.081v-2.62l-.061-.02c-.182-.121-.545-.181-.99-.181zm7.151-.06c-1.838 0-3.313.544-4.343 1.612-1.05 1.068-1.555 2.54-1.555 4.394 0 1.733.525 3.144 1.535 4.172 1.01 1.008 2.383 1.532 4.1 1.532 1.798 0 3.232-.544 4.262-1.633 1.05-1.088 1.555-2.54 1.555-4.333 0-1.774-.484-3.184-1.474-4.212-.95-1.028-2.343-1.532-4.08-1.532zm2.1 8.586c-.484.625-1.252.927-2.201.927s-1.717-.302-2.263-.967c-.545-.625-.808-1.532-.808-2.681 0-1.189.283-2.096.808-2.741.546-.645 1.293-.968 2.242-.968.93 0 1.657.302 2.182.927s.808 1.532.808 2.721c-.041 1.209-.263 2.157-.768 2.781zm9.312-3.709c-.828-.343-1.353-.605-1.596-.826-.202-.202-.303-.484-.303-.847 0-.302.121-.605.424-.806s.647-.302 1.152-.302c.444 0 .909.081 1.353.202s.848.302 1.172.544l.101.081v-2.459l-.061-.02c-.303-.121-.707-.242-1.192-.343-.485-.081-.929-.121-1.292-.121-1.253 0-2.283.302-3.091.967-.808.625-1.192 1.471-1.192 2.459 0 .524.081.988.263 1.37s.444.746.808 1.048c.364.282.889.605 1.616.907l1.353.625c.283.161.465.343.606.484.101.161.162.363.162.625 0 .746-.566 1.108-1.717 1.108-.445 0-.909-.081-1.454-.262s-1.051-.443-1.475-.746l-.101-.081v2.56l.061.02c.383.181.848.302 1.414.443.565.101 1.07.181 1.514.181 1.354 0 2.465-.302 3.252-.968a3.08 3.08 0 0 0 1.233-2.539c0-.746-.202-1.411-.647-1.915a8.2 8.2 0 0 0-2.363-1.391zm9.938-4.878c-1.838 0-3.313.544-4.343 1.612s-1.555 2.54-1.555 4.394c0 1.733.525 3.144 1.535 4.172 1.01 1.008 2.383 1.532 4.1 1.532 1.798 0 3.232-.544 4.262-1.633 1.05-1.088 1.555-2.54 1.555-4.333 0-1.774-.484-3.184-1.474-4.212-.95-1.028-2.343-1.532-4.08-1.532zm2.08 8.586c-.485.625-1.252.927-2.202.927-.969 0-1.716-.302-2.262-.967-.545-.625-.808-1.532-.808-2.681 0-1.189.283-2.096.808-2.741.546-.645 1.293-.968 2.242-.968.909 0 1.657.302 2.182.927s.808 1.532.808 2.721c0 1.209-.263 2.157-.768 2.781zm17.512-6.188v-2.157h-2.646v-3.305l-.08.02-2.505.746-.061.02v2.519h-3.959v-1.411c0-.645.162-1.149.445-1.471s.707-.484 1.232-.484c.363 0 .747.081 1.171.262l.101.06v-2.277l-.06-.02c-.364-.121-.849-.201-1.475-.201-.787 0-1.474.181-2.1.484a3.49 3.49 0 0 0-1.434 1.431c-.344.605-.526 1.29-.526 2.076v1.552h-1.838v2.136h1.838v9.029h2.646V46.75h3.959v5.744c0 2.358 1.111 3.547 3.333 3.547.364 0 .747-.06 1.111-.121.384-.081.667-.181.828-.262l.02-.02v-2.157l-.101.081c-.161.101-.303.181-.545.242-.202.06-.384.081-.525.081-.525 0-.889-.121-1.151-.423-.243-.282-.364-.746-.364-1.431V46.75h2.686z" fill="#737373"/><path d="M24 35h12.382v12.355H24V35z" fill="#f25022"/><path d="M37.672 35h12.382v12.355H37.672V35z" fill="#7fba00"/><path d="M24 48.645h12.382V61H24V48.645z" fill="#00a4ef"/><path d="M37.672 48.645h12.382V61H37.672V48.645z" fill="#ffb900"/></svg>