<svg xmlns="http://www.w3.org/2000/svg" width="170" height="96" fill="none" xmlns:v="https://vecta.io/nano"><g clip-path="url(#A)"><path d="M69 55.275l.129.373-.129-.373zm5.09-8.465c.226-2.007.993-3.131 2.438-4.283 2.068-1.56 4.652-.678 4.652-.678v-5.236a10.36 10.36 0 0 1 1.877.119v6.738s-2.583-.883-4.651.678c-1.445 1.151-2.213 2.276-2.438 4.283-.007 1.09.183 2.515 1.061 3.746l-.663-.408c-1.933-1.393-2.285-3.483-2.276-4.961zm19.635-19.877c-1.423-1.673-1.961-3.362-2.155-4.549h1.79s-.357 3.112 2.244 6.172l.036.041a10.49 10.49 0 0 1-1.914-1.664zm8.621 4.744v6.602s-2.284-.096-3.974-.558c-2.36-.645-3.877-1.635-3.877-1.635l-1.132-.755v13.634a14.08 14.08 0 0 1-.784 4.236c-.771 2.069-1.961 3.426-2.18 3.704 0 0-1.447 1.835-4 3.071-2.301 1.115-4.321 1.087-4.925 1.115 0 0-3.493.148-6.635-2.044a13.4 13.4 0 0 1-1.895-1.634l.016.012c3.143 2.192 6.635 2.044 6.635 2.044.605-.028 2.625 0 4.925-1.115 2.55-1.236 4-3.071 4-3.071.216-.278 1.412-1.635 2.18-3.705.589-1.58.784-3.477.784-4.236V33.709c.085.05 1.132.756 1.132.756s1.518.991 3.877 1.635c1.691.462 3.974.558 3.974.558v-5.174c.781.188 1.447.239 1.879.192z" fill="#ee1d52"/><path d="M100.469 31.484v5.172s-2.283-.096-3.974-.557c-2.36-.645-3.878-1.635-3.878-1.635l-1.132-.756v13.636c0 .759-.194 2.656-.784 4.236-.771 2.069-1.961 3.427-2.179 3.705 0 0-1.448 1.835-4 3.071-2.3 1.115-4.321 1.087-4.925 1.115 0 0-3.492.148-6.635-2.044l-.016-.012a12.59 12.59 0 0 1-.936-1.091c-1.003-1.313-1.618-2.865-1.773-3.308-.249-.775-.771-2.623-.7-4.414.126-3.158 1.162-5.097 1.435-5.583a13.07 13.07 0 0 1 2.787-3.502 11.57 11.57 0 0 1 3.311-2.017c1.303-.562 2.697-.863 4.11-.887v5.236s-2.583-.879-4.651.678c-1.445 1.152-2.212 2.276-2.438 4.283-.009 1.477.343 3.568 2.275 4.962l.663.408c.337.471.748.881 1.216 1.214 1.887 1.282 3.468 1.371 5.49.539 1.348-.557 2.363-1.811 2.834-3.201.296-.868.292-1.742.292-2.645V22.383h4.706c.194 1.187.732 2.876 2.155 4.549a10.49 10.49 0 0 0 1.915 1.664c.207.23 1.266 1.367 2.625 2.064a10.06 10.06 0 0 0 2.208.824z" fill="#000"/><g fill="#69c9d0"><path d="M68.359 51.408v.004l.116.34-.116-.344z"/><path d="M77.07 37.5a11.57 11.57 0 0 0-3.311 2.017 13.07 13.07 0 0 0-2.786 3.509c-.274.484-1.309 2.424-1.435 5.583-.071 1.79.451 3.638.7 4.408.157.444.769 1.997 1.772 3.313a12.59 12.59 0 0 0 .936 1.091 13.23 13.23 0 0 1-2.814-2.714c-.995-1.301-1.608-2.837-1.768-3.291v-.015c-.249-.769-.773-2.618-.7-4.411.126-3.158 1.162-5.097 1.435-5.583a13.05 13.05 0 0 1 2.786-3.509c.987-.857 2.106-1.539 3.311-2.017.752-.321 1.535-.557 2.336-.706a11.29 11.29 0 0 1 3.652-.056v1.492c-1.414.024-2.81.325-4.114.887zm14.501-15.117h-4.706v25.704c0 .904 0 1.775-.292 2.645-.475 1.389-1.486 2.644-2.834 3.2-2.023.836-3.604.743-5.49-.539-.468-.332-.88-.74-1.219-1.21 1.607.882 3.045.866 4.827.131 1.347-.557 2.359-1.811 2.833-3.201.296-.868.293-1.742.293-2.645V20.76h6.498s-.073.639.089 1.623zm8.899 7.671v1.43c-.763-.187-1.503-.463-2.204-.824-1.359-.698-2.418-1.834-2.625-2.064a7.29 7.29 0 0 0 .747.442c1.653.849 3.28 1.102 4.083 1.016zm-8.738 41.072a1.88 1.88 0 0 0 .078.543c.003.012.006.025.011.036a2.04 2.04 0 0 0 .718 1.038c.341.258.754.398 1.177.397v2.065c-.977 0-1.677.035-2.745-.612-1.211-.739-1.893-2.09-1.893-3.493 0-1.447.764-2.897 2.059-3.596.941-.507 1.654-.51 2.582-.51v2.064a1.96 1.96 0 0 0-1.404.598 2.07 2.07 0 0 0-.581 1.444l-.001.026z"/></g><path d="M95.719 71.126a1.91 1.91 0 0 1-.078.543c0 .012-.007.024-.011.036a2.04 2.04 0 0 1-.718 1.038c-.341.258-.753.398-1.177.398v2.065c.976 0 1.677.035 2.741-.612 1.215-.739 1.899-2.09 1.899-3.493 0-1.447-.764-2.897-2.059-3.596-.941-.507-1.654-.51-2.581-.51v2.064c.526 0 1.031.215 1.403.598s.581.902.581 1.444v.026z" fill="#ee1d52"/><path d="M63 65.121h7.35l-.679 2.08h-1.926v7.96h-2.363v-7.96H63v-2.08zm19.478 0v2.08h2.381v7.96h2.366v-7.96h1.923l.679-2.08h-7.35zm-10.529 2.37a1.12 1.12 0 0 0 .636-.199 1.17 1.17 0 0 0 .421-.529 1.21 1.21 0 0 0 .065-.681 1.19 1.19 0 0 0-.314-.603c-.16-.165-.364-.277-.587-.322s-.452-.022-.662.067-.388.24-.514.434a1.2 1.2 0 0 0-.193.654c0 .155.03.308.087.451a1.18 1.18 0 0 0 .248.382c.106.109.233.196.372.255a1.12 1.12 0 0 0 .438.089zm-1.146 7.67h2.32v-6.837h-2.32v6.837zm10.666-7.729h-2.714l-2.339 2.406v-4.708h-2.305l-.007 10.032h2.327v-2.614l.724-.678 2.259 3.289h2.488l-3.272-4.81 2.839-2.916zm22.256 2.918l2.837-2.918h-2.713l-2.34 2.406v-4.708h-2.304l-.011 10.032h2.328v-2.614l.731-.678 2.258 3.289H107l-3.275-4.808zm-5.965.748c0 2.267-1.811 4.106-4.045 4.106s-4.045-1.838-4.045-4.106 1.811-4.105 4.045-4.105 4.045 1.839 4.045 4.107v-.002zm-2.06 0a2.08 2.08 0 0 0-.334-1.134c-.218-.336-.528-.597-.891-.752s-.761-.195-1.146-.116-.739.273-1.016.559a2.06 2.06 0 0 0-.543 1.045c-.077.396-.037.806.113 1.179a2.03 2.03 0 0 0 .731.916c.326.224.71.344 1.102.344.526 0 1.03-.215 1.403-.597a2.07 2.07 0 0 0 .582-1.442v-.002z" fill="#000"/></g><defs><clipPath id="A"><path fill="#fff" transform="translate(63 17)" d="M0 0h44v62H0z"/></clipPath></defs></svg>