<svg xmlns="http://www.w3.org/2000/svg" viewBox="0 0 72 72" xmlns:v="https://vecta.io/nano"><path d="M15 7c-4.1 0-7.1 3.6-7 7.6.1 3.8 0 8.7-1.3 12.7-1.2 4-3.3 6.6-6.7 6.9v3.7c3.4.3 5.5 2.9 6.7 6.9S8.1 53.7 8 57.5c-.1 3.9 2.9 7.6 7 7.6h42.1c4.1 0 7.1-3.6 7-7.6-.1-3.8 0-8.7 1.3-12.7 1.2-4 3.3-6.6 6.7-6.9v-3.7c-3.4-.3-5.5-2.9-6.7-6.9s-1.4-8.9-1.3-12.7c.1-3.9-2.9-7.6-7-7.6H15h0zm33.8 35.7c0 5.4-4 8.7-10.7 8.7H26.8c-.3 0-.6-.1-.9-.4-.2-.2-.4-.5-.4-.9V21.8c0-.3.1-.6.4-.9.2-.2.5-.4.9-.4H38c5.5 0 9.2 3 9.2 7.7 0 3.3-2.4 6.2-5.6 6.7v.2c4.4.5 7.2 3.5 7.2 7.6zM36.9 24.5h-6.5v9.2h5.4c4.2 0 6.5-1.7 6.5-4.8.1-2.8-1.9-4.4-5.4-4.4zm-6.4 12.9v10.2h6.7c4.4 0 6.7-1.8 6.7-5.1s-2.4-5-7-5l-6.4-.1h0z" fill-rule="evenodd" fill="#7952b3"/></svg>