<svg xmlns="http://www.w3.org/2000/svg" viewBox="0 0 72 72" xmlns:v="https://vecta.io/nano"><path d="M24,72c6.6,0,12-5.4,12-12V48H24c-6.6,0-12,5.4-12,12S17.4,72,24,72z" fill="#0acf83"/><path d="M12,36c0-6.6,5.4-12,12-12h12v24H24C17.4,48,12,42.6,12,36z" fill="#a259ff"/><path d="M12,12c0-6.6,5.4-12,12-12h12v24H24C17.4,24,12,18.6,12,12z" fill="#f24e1e"/><path d="M36,0h12c6.6,0,12,5.4,12,12s-5.4,12-12,12H36V0z" fill="#ff7262"/><path d="M60,36c0,6.6-5.4,12-12,12s-12-5.4-12-12s5.4-12,12-12S60,29.4,60,36z" fill="#1abcfe"/></svg>