<svg xmlns="http://www.w3.org/2000/svg" viewBox="0 0 72 72" xmlns:v="https://vecta.io/nano"><linearGradient id="A" gradientUnits="userSpaceOnUse" x1="9.814" y1="9.686" x2="40.487" y2="40.121"><stop offset="0" stop-color="#387eb8"/><stop offset="1" stop-color="#366994"/></linearGradient><path d="M34.8 4C19 4 20 10.8 20 10.8v7.1h15V20H14c.1 0-10-1.1-10 14.7C4 50.6 12.8 50 12.8 50H18v-7.4s-.3-8.8 8.7-8.8h14.9s8.4.1 8.4-8.1V12.2S51.2 4 34.8 4zm-8.3 4.7c.4 0 .7.1 1 .2s.6.3.9.6.5.5.6.9c.1.3.2.7.2 1 0 .4-.1.7-.2 1s-.3.6-.6.9-.5.4-.9.6c-.3.1-.7.2-1 .2-.4 0-.7-.1-1-.2s-.6-.3-.9-.6-.5-.5-.6-.9c-.1-.3-.2-.7-.2-1 0-.4.1-.7.2-1s.3-.6.6-.9.5-.4.9-.6c.3-.1.7-.2 1-.2z" fill="url(#A)"/><linearGradient id="B" gradientUnits="userSpaceOnUse" x1="29.607" y1="29.657" x2="65.131" y2="60.621"><stop offset="0" stop-color="#ffe052"/><stop offset="1" stop-color="#ffc331"/></linearGradient><path d="M37.2 68C53 68 52 60.6 52 60.6v-7.7H37v-2.3h21s10.1 1.2 10.1-16C68 17.4 59.2 18 59.2 18H54v8s.3 9.5-8.7 9.5H30.4s-8.4-.1-8.4 8.8v14.8c0 0-1.2 8.9 15.2 8.9h0zm8.3-5.2c-.4 0-.7-.1-1-.2s-.6-.4-.9-.6c-.3-.3-.5-.6-.6-1s-.2-.7-.2-1.1.1-.8.2-1.1c.1-.4.3-.7.6-1s.5-.5.9-.6c.3-.1.7-.2 1-.2.4 0 .7.1 1 .2s.6.4.9.6.5.6.6 1 .2.7.2 1.1-.1.8-.2 1.1c-.1.4-.3.7-.6 1s-.5.5-.9.6c-.3.2-.7.2-1 .2h0z" fill="url(#B)"/></svg>