<svg xmlns="http://www.w3.org/2000/svg" viewBox="0 0 196 76" xmlns:v="https://vecta.io/nano"><path d="M101.9 28.2c0 1.5-1.2 2.6-2.7 2.6s-2.7-1.2-2.7-2.6c0-1.5 1.1-2.6 2.7-2.6 1.5 0 2.7 1.2 2.7 2.6zm-11 5.3v.6s-1.3-1.6-4-1.6c-4.5 0-8 3.4-8 8s3.4 8 8 8c2.7 0 4-1.7 4-1.7v.7c0 .3.2.6.6.6h3.3V32.9h-3.3c-.4 0-.6.3-.6.6zm0 9.8c-.6.9-1.8 1.7-3.3 1.7-2.6 0-4.6-1.6-4.6-4.4s2-4.4 4.6-4.4c1.4 0 2.7.8 3.3 1.7v5.4zm6.3-10.4h3.9v15.3h-3.9V32.9zm58.9-.4c-2.7 0-4 1.6-4 1.6v-8.6h-3.9v22.6h3.3a.65.65 0 0 0 .6-.6v-.7s1.3 1.7 4 1.7c4.5 0 8-3.4 8-8s-3.6-8-8-8zm-.7 12.4c-1.5 0-2.7-.8-3.3-1.7v-5.4c.6-.8 1.9-1.7 3.3-1.7 2.6 0 4.6 1.6 4.6 4.4s-2 4.4-4.6 4.4zm-9.3-5.8v9.1h-3.9v-8.6c0-2.5-.8-3.5-3-3.5-1.2 0-2.4.6-3.2 1.5v10.6h-4V32.9h3.1a.65.65 0 0 1 .6.6v.6c1.1-1.2 2.7-1.6 4.2-1.6 1.7 0 3.2.5 4.3 1.5 1.4 1.1 1.9 2.6 1.9 5.1zm-23.7-6.6c-2.7 0-4 1.6-4 1.6v-8.6h-3.9v22.6h3.3a.65.65 0 0 0 .6-.6v-.7s1.3 1.7 4 1.7c4.5 0 8-3.4 8-8s-3.5-8-8-8zm-.6 12.4c-1.5 0-2.7-.8-3.3-1.7v-5.4c.6-.8 1.9-1.7 3.3-1.7 2.6 0 4.6 1.6 4.6 4.4s-2 4.4-4.6 4.4zm-10.7-12.4c1.2 0 1.8.2 1.8.2v3.6s-3.3-1.1-5.3 1.2v10.7h-3.9V32.9h3.3a.65.65 0 0 1 .6.6v.6c.7-.8 2.3-1.6 3.5-1.6zM70.2 46.8l-.6-1.5c-.3-.7-.7-1.4-.9-2.1h0c-2.8-6.1-5.9-12.3-9.1-18.3l-.1-.2c-.3-.6-.7-1.3-1-1.9-.5-.8-.9-1.6-1.5-2.3-1.3-1.6-3.2-2.5-5.2-2.5-2.1 0-3.9.9-5.3 2.4-.6.7-1.1 1.5-1.5 2.2-.3.6-.6 1.3-1 1.9l-.1.2C40.7 30.8 37.7 37 34.8 43v.1c-.3.7-.6 1.3-.9 2.1a11.64 11.64 0 0 0-.6 1.5c-.5 1.5-.7 2.9-.5 4.4.5 3 2.5 5.6 5.3 6.7a9.6 9.6 0 0 0 3.3.6c.3 0 .7 0 1.1-.1a11.11 11.11 0 0 0 4.1-1.4c1.7-.9 3.3-2.3 5.1-4.2 1.8 1.9 3.4 3.3 5.1 4.2a11.11 11.11 0 0 0 4.1 1.4c.3 0 .7.1 1.1.1 1.1 0 2.3-.2 3.3-.6 2.9-1.1 4.9-3.7 5.3-6.7.3-1.4.1-2.8-.4-4.3zm-18.5 2.1c-2.2-2.8-3.7-5.4-4.1-7.5-.2-.9-.2-1.7-.1-2.5.1-.6.3-1.2.7-1.7.8-1.1 2.1-1.8 3.6-1.8s2.9.6 3.6 1.8c.3.5.6 1.1.7 1.7a7.18 7.18 0 0 1-.1 2.5c-.6 2.1-2.1 4.7-4.3 7.5zm16.4 1.9c-.3 2.1-1.7 3.9-3.7 4.7-1 .4-2.1.5-3.1.4s-2.1-.4-3.1-1.1c-1.5-.8-3-2.1-4.7-3.9 2.7-3.3 4.3-6.3 5-9a10.15 10.15 0 0 0 .2-3.4c-.2-1-.5-1.9-1.1-2.8-1.3-1.8-3.4-2.9-5.8-2.9s-4.5 1.1-5.8 2.9c-.6.8-.9 1.7-1.1 2.8s-.1 2.2.2 3.4c.6 2.7 2.3 5.7 5 9-1.7 1.9-3.2 3.1-4.7 3.9-1.1.6-2.1.9-3.1 1.1-1.1.1-2.2 0-3.1-.4-2-.8-3.4-2.6-3.7-4.7-.1-1 0-2 .4-3.2.1-.4.3-.8.5-1.3.3-.6.6-1.3.9-2v-.1c2.8-6 5.9-12.2 9-18.2l.1-.2c.3-.6.7-1.3 1-1.9s.7-1.3 1.1-1.8c.9-1 2-1.5 3.3-1.5s2.4.5 3.3 1.5c.5.5.8 1.1 1.1 1.8.3.6.7 1.3 1 1.9l.1.2c3.1 6 6.1 12.1 9 18.3h0c.3.7.6 1.4.9 2 .2.5.4.9.5 1.3.4 1.2.5 2.2.4 3.2z" fill="#ed5050"/></svg>