<svg xmlns="http://www.w3.org/2000/svg" viewBox="0 0 196 76" xmlns:v="https://vecta.io/nano"><path d="M99 47.1h9.8v-3.4H99V30h-3.7v17H99zM128.5 30h3.7v17h-3.7V30zm19.4 12L139 31.4c-.6-.8-1.7-1.4-2.8-1.4h-2.5v17h3.7V35.4l9.2 11c.3.3.7.8 1.2.8h3.7V30h-3.7l.1 12h0zm9-2.2h11v-3h-11v-3.7h12.9v-3h-12.9c-1.6 0-3.7 1.6-3.7 3.1v13.9h16.6v-3.4h-12.9v-3.9h0zm-85.6 7.3h4.9L90 33.2v13.9h3.7V30h-3.1c-1.6 0-3.3.9-4.4 1.9L71.3 47.1zm-9.2 0h3.8l16.9-17H79l-16.9 17zm-9 0h3.8l16.9-17H70l-16.9 17zm-8.9 0H48l16.9-17h-3.8l-16.9 17zm-9 0H39l16.9-17h-3.8l-16.9 17zm-8.9 0h3.8L47 30h-3.8L26.3 47.1h0zm87.6-9.4v-4.6h8.3a1.47 1.47 0 0 1 1.5 1.5v1.6a1.54 1.54 0 0 1-1.5 1.5h-8.3zm-3.7-7.7h13.3c2.1 0 3.7 1.6 3.7 3.6v3.5c0 2-1.7 3.6-3.7 3.6h-9.6V47h-3.7V30z" fill-rule="evenodd" fill="#3f7fca"/></svg>