<svg xmlns="http://www.w3.org/2000/svg" viewBox="0 0 196 76" xmlns:v="https://vecta.io/nano"><path d="M48.4 40.8s.9-3.3 10.4-7.9c0 0-.5-4 4-4 0 0 2.6-.1 3.6 1.8 0 0 .2.5.6.5 0 0-.5.7-1.2.7 0 0 .8.2 1.3.8 0 0-.9.1-1.6 3.9 0 0-.6 6.6-9.2 7.9l-.9-2.7s.4-.5 2-1.1M45.7 50.8h-8.1l3.3-9.4h2.6s-.5.2-1 2H48m-5.4-6.9l4.3-12.4h13l1.3 3.9s-4.6-.4-5 4.4l-.9.5-1.9-6.1-2.8 8.9s-.6.3-1.1.9" fill="#e1001a"/><path d="M62.8 33.1c.7 0 1.3-.6 1.3-1.3s-.6-1.3-1.3-1.3-1.3.6-1.3 1.3.6 1.3 1.3 1.3" fill="#fff"/><path d="M69 50.8h-6.6L60.2 44s2.8-.8 4.9-4.3" fill="#e1001a"/><path d="M40.2 39c-2.1-.1-2.1-1.9-2.1-1.9h11.7s1-1.4 7-4.4c0 0-.2-4.2 4.8-4.3 0 0 2.6.1 3.4 1.1h0c-1.1-.6-2.3-.5-2.3-.5-4.5 0-4 4-4 4-9.5 4.6-10.4 7.9-10.4 7.9h9c-1.6.5-2 1.1-2 1.1l2.8 8.9h0H56L53.4 43h-10s.4-1.2 1.4-2H38c0-.2.1-1.9 2.2-2m23.9-7.7c0 .1.1.3.1.4 0 .7-.6 1.3-1.3 1.3s-1.3-.6-1.3-1.3.6-1.3 1.3-1.3c.2 0 .4 0 .5.1l-.7 1.5m4.3.8c-.5-.7-1.3-.8-1.3-.8.7 0 1.2-.7 1.2-.7s.3.2.6.1h.8s1.2 0 2 .5c0 0 .1.1 0 .1 0 0-.6.4-2.1.5 0 .1-.6.1-1.2.3m-9.4 11.6l2-.6 2.2 7.1h-2.1" fill="#00915b"/><g fill="#e1001a"><path d="M80.1 42.3s.3 4.2-3.1 4.1c0 0-2.1-.1-2.1-2.5v-9.3H69v11s-.2 5.7 6.2 5.7c0 0 3.5.2 4.9-2.4l.5 2.1H86V34.6h-5.9m16.7 4.3s2.6-.4 4.5.6l.5-4.2s-5.6-2.6-10.5.7c0 0-3.4 2-3.4 6.8 0 0-.3 4.4 3.4 6.8 0 0 5.1 3.4 10.5.7l-.5-4.2s-2.4.9-4.5.5c0 0-3-.6-3-3.7 0-.1-.3-3.4 3-4m20.9-3.9c-4.4-2.1-7.7 1.5-7.7 1.5V30h-6.1v21h5.9v-8.3c0-3.4 2.8-3.3 2.8-3.3 2.3 0 2.3 2.1 2.3 2.1V51h6V40.1c.1-3.7-3.2-5.1-3.2-5.1m34.5-.7s-4 0-5.4 2.5v-2.2h-5.4V51h5.9v-7.7s-.1-4.1 3.1-4.1c0 0 2.1.1 2.1 2.5V51h5.9V40.1s.4-5.8-6.2-5.8"/><path d="M135.5 35.4c-5.5-2.6-10.6.2-10.6.2v3.9c3.3-1.3 4.9-1.3 4.9-1.3 3.8 0 3.4 2.5 3.4 2.5-10.6-1.1-10.6 5.1-10.6 5.1 0 5.8 5.8 5.5 5.8 5.5 3.1 0 5.1-2.2 5.1-2.2V51h5.1V40c.1-3.2-3.1-4.6-3.1-4.6m-5.2 12.2s-2.1-.1-2.1-1.7c0 0-.2-1.6 2.2-1.9 0 0 1.3-.2 2.8 0 0 0-.6 3.6-2.9 3.6z"/></g></svg>