<svg xmlns="http://www.w3.org/2000/svg" viewBox="0 0 196 76" fill="#28bb4e" xmlns:v="https://vecta.io/nano"><path d="M53.7 25.3c2.5.4 4.9 1.8 6.4 3.9.3.4.6.9.8 1.4l-2.9 2c-.2.1-.3.2-.5.3-.5-1.1-1.2-2.2-2.3-2.8-.8-.5-1.6-.8-2.5-1l1-3.8zm-9 1.1c1.2-.4 2.5.2 3 1.3.4.8.3 1.9-.3 2.6-.7.9-2.1 1.2-3.1.7-.7-.3-1.2-1-1.4-1.7-.1-.6-.1-1.2.2-1.7a3.11 3.11 0 0 1 1.6-1.2zm-5.2 12.9h4.1c.3 1.5.9 2.9 1.9 4.1.8.9 1.8 1.5 2.9 2 1.5.6 3.2.6 4.7.3a6.11 6.11 0 0 0 3.6-2.3c.6-.8 1.1-1.7 1.4-2.7 1.2.3 2.4.8 3.6 1.2 0 .4-.2.8-.3 1.1-.8 2.2-2.4 4-4.4 5.2-1.3.8-2.7 1.2-4.2 1.4-2.9.4-5.9-.2-8.4-1.9-1.3-.9-2.5-2-3.3-3.4-.8-1.5-1.4-3.2-1.6-5zm25.6-3.4c1.8-2.9 5.7-4.2 8.8-2.9 1 .4 1.7 1.2 2.2 2v-2.1h3.8c.1 5.4-.2 10.8.2 16.2h-3.7c0-.8-.1-1.5-.1-2.2-1.9 3.4-6.9 3.3-9.6 1-3.5-2.9-3.9-8.4-1.6-12zm5.7 0c-3.5.9-4.1 5.6-2.5 8.3 1.2 2.2 4.6 2.7 6.3.8 1.7-1.8 1.9-4.8.9-7-.8-1.7-2.9-2.5-4.7-2.1zM99 34.1c2.7-2.3 7-2.2 9.8-.1 2.4 1.9 3 5.1 2.8 8H99.7c.2 1.6 1.1 3.2 2.6 3.8 2.2 1.1 5.1 0 5.9-2.4 1.1.3 2.1.7 3.2 1-.6 1.7-1.7 3.2-3.3 4.1-3.1 1.8-7.4 1.2-9.9-1.3-3.3-3.4-3.1-10 .8-13.1zm1.8 2.9c-.6.6-.7 1.4-1 2.2 2.7 0 5.4.1 8-.1-.3-1-.6-2-1.4-2.7-1.6-1.1-4.3-1-5.6.6zm16.5-3c2.6-2 6.4-2 9.1-.3 2.7 1.8 3.6 5.3 3.2 8.4h-11.8c.2.9.4 1.9 1.1 2.6 1.4 1.8 4.3 2.1 6.1.8.7-.5 1-1.3 1.5-1.9a39.27 39.27 0 0 1 3.2 1c-.6 1.7-1.7 3.2-3.3 4.1-3 1.7-7.2 1.2-9.6-1.2-3.9-3.6-3.6-10.5.5-13.5zm1.5 3.1c-.5.6-.7 1.4-.9 2.2h8c-.2-.9-.4-2-1.2-2.6-1.7-1.5-4.5-1.4-5.9.4zm18.2-2.2c2.1-3.3 7.8-3.3 9.6.3 1.7-3 6-3.7 8.7-1.7 1.5 1.1 2.1 3 2.1 4.8V49h-3.7v-9.6c0-1-.1-2-.8-2.8-1.4-1.4-4.2-1.1-5.1.8-.5.8-.5 1.9-.5 2.8V49h-3.8V38.7c0-1.5-1.2-2.9-2.8-2.9-1.8-.3-3.5 1.2-3.6 3-.1 3.4 0 6.8 0 10.2h-3.8V32.9h3.7v2zm-52.3-2h3.8v2.5c1.1-2.1 3.5-3 5.7-2.7v4c-1.3 0-2.8-.2-3.9.6-1.2.8-1.6 2.3-1.7 3.7v8h-3.8V32.9z"/></svg>