<svg xmlns="http://www.w3.org/2000/svg" viewBox="0 0 196 77" xmlns:v="https://vecta.io/nano"><path d="M60.6 47.8c.4.3.6.8.6 1.2h-.7c-.2-.7-.6-1.1-1.5-1.1-1.1 0-1.8.7-1.8 2.3 0 1.3.6 2.1 1.8 2.1.8 0 1.4-.4 1.6-1.5h.7c-.1 1.2-1 2.1-2.4 2.1-1.5 0-2.4-1-2.4-2.9 0-1.7 1-2.8 2.5-2.8.7 0 1.2.2 1.6.6zm1.6-.4h.7v2c.4-.5.7-.6 1.2-.6.9 0 1.3.4 1.3 1.5v2.5h-.7v-2.5c0-.7-.3-1-.8-1-.6 0-1.1.3-1.1 1.3v2.1h-.7l.1-5.3h0zm4.8 4.3c0-.4.2-.6.9-.7 0 0 .5-.1.8-.1.1 0 .2-.1.3-.1v.5c0 .2 0 .4-.1.5-.1.2-.2.3-.4.3-.4.2-.9.2-1.2 0-.1 0-.1-.1-.2-.2-.1 0-.1-.1-.1-.2zm.6-1.2c-.8.1-1.3.5-1.3 1.2s.5 1.2 1.3 1.2c.3 0 .5-.1.8-.2.2-.1.5-.3.6-.5.1.4.3.6.6.6h.2c.1 0 .1 0 .2-.1v-.5h-.1-.1c-.1 0-.1 0-.2-.1v-.2-2.2c0-.7-.6-1.1-1.6-1.1-.8 0-1.5.3-1.5 1.3h.6c.1-.6.4-.7.9-.7.6 0 .9.2.9.6v.2c-.1.1-.2.2-.3.2l-1 .3zm3.2-1.7h.7v.6c.4-.5.7-.6 1.2-.6s.8.1 1.1.6c.1-.2.3-.4.5-.5s.4-.2.7-.2c.8 0 1.3.4 1.3 1.4v2.6h-.7V50c0-.9-.9-.8-1.4-.4-.2.2-.3.5-.3.9v2.3h-.7v-2.6c0-.7-.2-.9-.7-.9s-1 .3-1 1.3v2.1h-.7v-3.9zm8.2 3.5c-.7 0-1.1-.5-1.1-1.4 0-1.1.4-1.6 1.1-1.6s1.1.5 1.1 1.5-.5 1.5-1.1 1.5zm-1.7 2h.7v-2c.4.5.7.6 1.2.6 1 0 1.7-.8 1.7-2.2 0-1.3-.7-2-1.6-2-.2 0-.5 0-.7.2-.2.1-.4.3-.5.5v-.5h-.7v5.4zm4.3-5.4h.7v3.9h-.7v-3.9zm0-1.5h.7v.8h-.7v-.8zm3.3 4.9c-.8 0-1.2-.6-1.2-1.5s.4-1.6 1.2-1.6c.7 0 1.2.5 1.2 1.4s-.3 1.7-1.2 1.7zm.1-3.6c-1.1 0-1.9.8-1.9 2.2 0 1.2.7 2 1.8 2 1.3 0 1.9-.9 1.9-2.2s-.8-2-1.8-2zm2.6.1h.7v.6c.1-.2.3-.4.6-.5.2-.1.5-.2.7-.2.9 0 1.3.4 1.3 1.5v2.5h-.7v-2.5c0-.6-.3-.9-.8-.9-.4 0-.7.1-.9.4a1.49 1.49 0 0 0-.3 1v2.1h-.7l.1-4h0zm6.1-1.4h.7v5.4h-.7v-5.4zm1.9 1.4h.7v.6c.1-.2.3-.4.6-.5.2-.1.5-.2.7-.2.9 0 1.3.4 1.3 1.5v2.5h-.7v-2.5c0-.6-.3-.9-.8-.9-.4 0-.7.1-.9.4a1.49 1.49 0 0 0-.3 1v2.1h-.7l.1-4h0zm4.5-1.1h.7v1.1h.6v.5h-.6v2.5c0 .1.1.2.1.3h.3.1.1v.5c-.2 0-.3.1-.5.1-.6 0-.8-.3-.8-.8v-2.6h-.5v-.5h.5v-1.1zm2.6 2.8c0-.7.5-1.2 1.1-1.2s1 .3 1.1 1.2h-2.2zm1.1-1.8c-1.1 0-1.9.9-1.9 2.1 0 1.3.8 2 1.8 2 .8 0 1.3-.2 1.6-.9.1-.1.1-.3.2-.5h-.7c-.1.2-.2.4-.4.6-.2.1-.4.2-.7.2-.7 0-1.1-.5-1.1-1.3h2.9c0-.4 0-.7-.1-.9 0-.3-.1-.5-.3-.7s-.4-.4-.6-.5c-.2 0-.4-.1-.7-.1zm2.6.1h.7v.7c.1-.3.6-.8 1.1-.8h.1.2v.7h-.1-.1c-.7 0-1.1.5-1.1 1.1v2.2h-.7l-.1-3.9h0zm2.7 0h.7v.6c.1-.2.3-.4.6-.5.2-.1.5-.2.7-.2.9 0 1.3.4 1.3 1.5v2.5h-.7v-2.5c0-.6-.3-.9-.8-.9-.4 0-.7.1-.9.4a1.49 1.49 0 0 0-.3 1v2.1h-.7l.1-4h0zm4.8 2.9c0-.4.2-.6.9-.7 0 0 .5-.1.8-.1.1 0 .2-.1.3-.1v.5c0 .2 0 .4-.1.5-.1.2-.2.3-.4.3-.4.2-.9.2-1.2 0-.1 0-.1-.1-.2-.2-.1 0-.1-.1-.1-.2zm.6-1.2c-.8.1-1.3.5-1.3 1.2s.5 1.2 1.3 1.2c.3 0 .5-.1.8-.2.2-.1.5-.3.6-.5.1.4.3.6.6.6h.2c.1 0 .1 0 .2-.1v-.5h-.1-.1c-.1 0-.1 0-.2-.1v-.2-2.2c0-.7-.6-1.1-1.6-1.1-.8 0-1.5.3-1.5 1.3h.6c.1-.6.4-.7.9-.7.6 0 .9.2.9.6v.2c-.1.1-.2.2-.3.2l-1 .3zm3.3-2.8h.7v1.1h.6v.5h-.6v2.5c0 .1 0 .2.1.3h.3.1.1v.5c-.2 0-.3.1-.5.1-.6 0-.8-.3-.8-.8v-2.6h-.5v-.5h.5v-1.1zm2.2 1.2h.7v3.9h-.7v-3.9zm0-1.5h.7v.8h-.7v-.8zm3.3 4.9c-.8 0-1.2-.6-1.2-1.5s.4-1.6 1.2-1.6c.7 0 1.2.5 1.2 1.4s-.3 1.7-1.2 1.7zm0-3.6c-1.1 0-1.9.8-1.9 2.2 0 1.2.7 2 1.8 2 1.3 0 1.9-.9 1.9-2.2s-.8-2-1.8-2zm2.8.1h.7v.6c.1-.2.3-.4.6-.5.2-.1.5-.2.7-.2.9 0 1.3.4 1.3 1.5v2.5h-.7v-2.5c0-.6-.3-.9-.8-.9s-.7.1-.9.4a1.49 1.49 0 0 0-.3 1v2.1h-.7v-4zm4.7 2.9c0-.4.2-.6.9-.7 0 0 .5-.1.8-.1.1 0 .2-.1.3-.1v.5c0 .2 0 .4-.1.5-.1.2-.2.3-.4.3-.4.2-.9.2-1.2 0-.1 0-.1-.1-.2-.2 0 0-.1-.1-.1-.2zm.6-1.2c-.8.1-1.3.5-1.3 1.2s.5 1.2 1.3 1.2c.6 0 1.2-.3 1.4-.7.1.4.3.6.6.6h.2c.1 0 .1 0 .2-.1v-.5h-.1-.1c-.1 0-.1 0-.2-.1v-.2-2.2c0-.7-.6-1.1-1.6-1.1-.8 0-1.5.3-1.5 1.3h.6c.1-.6.4-.7.9-.7.6 0 .9.2.9.6v.2c-.1.1-.2.2-.3.2l-1 .3zm3.3-3.1h.7v5.3h-.7v-5.3zm7.2.4c.4.3.6.8.6 1.2h-.7c-.2-.7-.6-1.1-1.5-1.1-1.1 0-1.8.7-1.8 2.3 0 1.3.6 2.1 1.8 2.1.8 0 1.4-.4 1.6-1.5h.7c-.1 1.2-1 2.1-2.4 2.1-1.5 0-2.4-1-2.4-2.9 0-1.7 1-2.8 2.5-2.8.7 0 1.3.2 1.6.6zm3.1 4.5c-.8 0-1.2-.6-1.2-1.5s.4-1.6 1.2-1.6 1.2.5 1.2 1.4-.3 1.7-1.2 1.7zm0-3.6c-1.1 0-1.9.8-1.9 2.2 0 1.2.7 2 1.8 2 1.3 0 1.9-.9 1.9-2.2.1-1.3-.7-2-1.8-2zm2.7.1h.7v.7c.1-.3.6-.8 1.1-.8h.1.2v.7h-.1-.1c-.7 0-1.1.5-1.1 1.1v2.2h-.7l-.1-3.9h0zm4.3 3.5c-.7 0-1.1-.5-1.1-1.4 0-1.1.4-1.6 1.1-1.6s1.1.6 1.1 1.5c0 1-.4 1.5-1.1 1.5zm-1.7 2h.7v-2c.4.5.7.6 1.2.6 1 0 1.7-.8 1.7-2.2 0-1.3-.7-2-1.6-2-.2 0-.5 0-.7.2-.2.1-.4.3-.5.5v-.5h-.7v5.4zm5.9-2c-.8 0-1.2-.6-1.2-1.5s.4-1.6 1.2-1.6 1.2.5 1.2 1.4-.3 1.7-1.2 1.7zm0-3.6c-1.1 0-1.9.8-1.9 2.2 0 1.2.7 2 1.8 2 1.3 0 1.9-.9 1.9-2.2.1-1.3-.8-2-1.8-2zm2.6.1h.7v.7c.1-.3.6-.8 1.1-.8h.1.2v.7h-.1-.1c-.7 0-1.1.5-1.1 1.1v2.2h-.7l-.1-3.9h0zm3 2.9c0-.4.2-.6.9-.7 0 0 .5-.1.8-.1.1 0 .2-.1.3-.1v.5c0 .2 0 .4-.1.5-.1.2-.2.3-.4.3-.4.2-.9.2-1.2 0-.1 0-.1-.1-.2-.2-.1 0-.1-.1-.1-.2zm.6-1.2c-.7.1-1.3.5-1.3 1.2s.5 1.2 1.3 1.2c.3 0 .5-.1.8-.2.2-.1.5-.3.6-.5.1.4.3.6.6.6h.2c.1 0 .1 0 .2-.1v-.5h-.1-.1c-.1 0-.2 0-.2-.1v-.2-2.2c0-.7-.6-1.1-1.6-1.1-.8 0-1.5.3-1.5 1.3h.6c.1-.6.4-.7.9-.7.6 0 .9.2.9.6v.2c-.1.1-.2.2-.3.2l-1 .3zm3.3-2.8h.7v1.1h.6v.5h-.6v2.5c0 .1.1.2.1.3h.3.1.1v.5h-.2-.3c-.6 0-.8-.3-.8-.8v-2.6h-.5v-.5h.5v-1h0zm2.1 1.2h.7v3.9h-.7v-3.9zm0-1.5h.7v.8h-.7v-.8zm3.3 4.9c-.8 0-1.2-.6-1.2-1.5s.4-1.6 1.2-1.6c.7 0 1.1.5 1.1 1.4s-.2 1.7-1.1 1.7zm0-3.6c-1.1 0-1.9.8-1.9 2.2 0 1.2.7 2 1.8 2 1.3 0 1.9-.9 1.9-2.2s-.8-2-1.8-2zm2.7.1h.7v.6c.1-.2.3-.4.6-.5.2-.1.5-.2.7-.2.9 0 1.3.4 1.3 1.5v2.5h-.7v-2.5c0-.6-.3-.9-.8-.9s-.7.1-.9.4a1.49 1.49 0 0 0-.3 1v2.1h-.7l.1-4h0zM73.2 30.7H68c-.3-1.3-.7-2.4-2.2-2.9-.9-.3-2.3-.3-3.3.5-1.5 1.2-1.8 3.7-1.6 4.9.1 1.2.5 2.9 2.2 3.7 1 .5 2.5.6 3.4 0 1.1-.6 1.3-1.6 1.6-2.7h5.3c.2 2.1-1.6 5.3-4.7 6.7-2.7 1.2-6.7.9-9.4-.9-3-2-3.9-5.7-3.7-8.1.2-2.9 1.5-6 4.9-7.7 2.5-1.3 6.5-1.2 8.8.2 2.7 1.7 3.8 3.7 3.9 6.3zm6-6.9v5.8c.8-.5 1.2-.9 2.3-1.2 1.3-.4 3.1-.2 4.3.6 1.7 1.3 1.9 3.6 1.9 4.9v7.3h-4.9v-5.7c0-1.3.1-2.5-.9-3-.5-.3-1.3-.3-1.8-.1-1 .6-.9 1.8-.9 3.2v5.5h-4.9V23.8h4.9zM95 32.1c.7-.3 1.7-.2 2.3.2 1 .6 1.3 1.6 1.2 2.5 0 .8-.4 2-1.4 2.5-.4.2-.7.3-1.1.3s-.8-.1-1.1-.3c-1-.6-1.4-1.5-1.5-2.5-.1-.9.4-2.1 1.6-2.7zm.1-3.9c-1.6-.2-3.6.1-5.1 1.8-1.8 2-1.9 5.3-1.4 7.1.7 2.3 1.9 3.7 4.3 4.4 1.8.5 3.8.1 5.4-1.4v1.2h4.9V28.7h-4.9v1c-1.1-1-1.8-1.3-3.2-1.5zm21.8 1.8c2-1.9 4.3-2.1 6.1-1.4 2.8 1.2 2.8 3 2.8 5.4v7.3h-5v-5.9c0-1.5 0-2.5-.7-3-.3-.1-.6-.2-.8-.2-.3 0-.6.1-.8.2-.8.6-.8 1.4-.8 2.9v5.9h-4.9v-6.1c0-.8.1-2.3-.8-2.9-.2-.1-.5-.2-.8-.2s-.5.1-.8.2c-.9.6-.8 2-.8 3v6h-4.9V28.7h4.8v1.1c1.8-1.7 3.3-1.9 5-1.5.9.2 1.5.6 2.4 1.7zm16.9 2.1c.4-.1.9-.1 1.3 0s.8.3 1.1.6c.8.8.9 2.1.7 3-.1.5-.3.9-.7 1.2-.3.3-.8.6-1.2.7s-.8.1-1.3 0c-.4-.1-.8-.3-1.1-.6-.8-.9-1-2.1-.7-3.1.3-.8.9-1.6 1.9-1.8zm2 9.5c1.4 0 3.5-.8 4.8-2.4 1.5-2 1.6-5.1.9-7.1-.7-1.9-1.9-3.2-3.8-3.8-1.8-.5-3.6-.3-5.6 1.3v-.9h-4.9V46h4.9v-5.8c1.3 1.1 2.3 1.4 3.7 1.4zm6.9-17.8h4.9v4.1h-4.9v-4.1zm0 4.9h4.9v12.5h-4.9V28.7zm12.3 3.2c.4-.1.8-.1 1.2 0s.7.3 1 .5c.8.8.9 2.2.8 3.1-.2.9-.6 1.7-1.6 2-.4.1-.7.1-1.1.1-.4-.1-.7-.2-1-.4-1-.7-1.1-2-1.1-2.8.1-1.1.5-2.2 1.8-2.5zm-3.1-2.9c-2.4 1.3-3.4 3.5-3.5 5.3-.2 1.9.3 4.1 2.6 5.9 2 1.6 5.3 1.9 7.3 1.2 1.1-.4 2-1 2.8-1.8s1.3-1.8 1.6-2.8c.5-1.9.5-4.3-1.4-6.3-2.1-2.2-5.4-2.4-7-2.1-.7-.1-1.7.2-2.4.6zm24.9 12.2H172v-5.5c0-1.4 0-2.9-.9-3.4-.3-.1-.5-.2-.8-.2s-.6.1-.8.2c-1.1.6-1 2.3-1 3.3v5.6h-4.7V28.7h4.7v1c1.8-1.6 4.1-2 5.8-1.3 2.6 1.2 2.6 3.2 2.6 5.4v7.4z" fill="#fff" fill-opacity=".9"/><path d="M20.3 45c-1.9-3.8-1.8-9.3.3-13.1 2.2-4.4 7.1-7.7 12.4-8 1.4-.1 2.9 0 4.4 0v2.6H34c-1.8 0-3.6.3-5.1 1.1-2.4 1.1-4.3 2.8-5.6 5s-1.9 4.8-1.7 7.3c.5 5.1 3.9 9.3 8.8 10.8 5.1 1.5 10.6-.4 13.6-4.2 1.4-1.9 2.4-4.1 2.6-6.6l.1-1.3V23.9h2.6v15.2c-.2 6.2-3.9 11.5-9.7 13.7-5.3 2.1-11.8.8-15.8-3-1.4-1.4-2.6-3-3.5-4.8zm3.7-1.4c-1.8-3.5-1.2-8.6 1.2-11.5 1-1.3 2.4-2.4 3.9-3.1s3.2-1.1 4.9-1.2h3.5v2.6c-2.3.1-4.6-.2-6.5.6-1.5.6-2.8 1.5-3.7 2.8s-1.5 2.7-1.7 4.3c-.2 1.7.2 3.5 1.1 5a9.18 9.18 0 0 0 3.8 3.5c2.9 1.5 6.9.9 9.3-1.2a8.37 8.37 0 0 0 3-6.1V24h2.6v15.3c-.1 4.5-2.8 8.1-6.9 9.8s-9.3.7-12.3-2.3c-.9-1-1.5-2-2.2-3.2zm4-1c-1.3-2.1-1.4-5.2-.1-7.3 1-1.9 3.3-3.6 5.8-3.6h3.9v2.6h-3.1c-1 0-1.9.1-2.7.7-1.5 1-2.5 2.7-2.1 4.7.3 1.8 1.6 3.3 3.5 3.7.9.2 1.9.2 2.7-.1.9-.3 1.7-.9 2.2-1.6.9-1.1.9-2.9.9-4.5V23.9h2.6v14.8c0 2.9-1.4 5.3-4 6.6-2.2 1.2-5.3 1-7.3-.4-1-.6-1.7-1.4-2.3-2.3z" fill="#3f7fca"/></svg>