<svg xmlns="http://www.w3.org/2000/svg" viewBox="0 0 196 76" xmlns:v="https://vecta.io/nano"><path d="M69.8 38v16.2h2.7 2.7V38 21.8h-2.7-2.7V38zm68.3 0v16.2h2.6 2.6v-6.7l.3-7.4c.6-2.2 2.3-3.4 4.6-3.4.8 0 1 0 1.5.3.6.3 1 .7 1.3 1.3.4.9.5 1.5.5 8.9v7h2.7 2.7v-7.6c0-8.4 0-8-.7-9.8-.9-2.3-2.8-3.9-5.3-4.6-1.1-.3-3.3-.3-4.4 0-1 .2-2 .7-2.6 1.2l-.4.3v-5.9-5.9h-2.7-2.7V38h0zM52.3 22.9c-4.4.7-8.1 2.9-10.5 6.4-1.7 2.5-2.6 5.3-2.8 8.5-.3 5.7 2.3 10.9 6.9 13.9 3.6 2.3 8.3 3 12.7 1.9 2.7-.7 5.1-2 7.1-4l.8-.8-.3-.3c-.5-.6-3.1-3.3-3.2-3.3l-.5.5c-1.2 1.4-3.5 2.7-5.9 3.2-1.1.2-3.1.2-4.2 0-4.7-.9-8-4.5-8.4-9.4-.3-3.6.7-6.7 3-8.9 1.8-1.8 4.1-2.8 6.8-2.9 3-.1 6 1 8.4 3.2l.7.6 1.7-1.7 1.7-1.7-.7-.7c-2.2-2.2-5.1-3.7-8.2-4.3-1.1-.3-3.8-.4-5.1-.2zm52.3 5.5v3.9h-2-2v2.6 2.6h2 2v8.3 8.3h2.7 2.7v-8.3-8.3h2 2v-2.6-2.6h-2-2v-3.9-3.9h-2.7-2.7v3.9zm20.1 3.5c-4.6.6-8.2 3.6-9.4 7.9-.8 2.9-.3 6.4 1.2 8.8 1.7 2.8 4.3 4.5 7.7 5.2 1.1.2 3.4.2 4.6 0 2.2-.4 4.3-1.4 5.8-2.8l.7-.7-1.9-1.8-1.9-1.8-.7.7c-1.4 1.4-3.3 2-5.4 1.7-2.7-.3-4.5-1.8-5.3-4.3-.2-.6-.2-.9-.2-2 0-1.2 0-1.4.3-2.1.3-1 1.1-2.1 1.8-2.7 1.5-1.2 3.5-1.7 5.5-1.3 1.2.2 2.1.6 3.1 1.5l.8.7 1.8-1.7 1.8-1.7-.6-.6c-1.2-1.1-3.3-2.2-5-2.7-1.2-.4-3.1-.5-4.7-.3zm-45.4 7.2c0 7.5 0 7.7.6 9.4.8 2.3 2.1 3.9 3.9 4.7 1.4.7 2.7.9 4.6.9 2.4 0 4.1-.5 5.2-1.4l.4-.3v.9.9h2.7 2.7v-11-11h-2.7H94v6.5c0 6.3 0 6.5-.2 7.1-.6 1.9-2.3 3.1-4.7 3.4-1.6.2-3.1-.6-3.8-2-.6-1.2-.6-1-.6-8.3v-6.7H82h-2.6l-.1 6.9h0z" opacity=".9" fill-rule="evenodd" fill="#fff"/><path d="M130.4 42.8a3.8 3.8 0 0 1-7.6 0 3.8 3.8 0 0 1 7.6 0z" fill="#ef4335"/></svg>