<svg xmlns="http://www.w3.org/2000/svg" viewBox="0 0 196 76" xmlns:v="https://vecta.io/nano"><path d="M110.4 23.7l.7-1.8c.4-1 .9-1.8 1.1-1.8s.7.8 1.1 1.8l.7 1.8 1.8.2c2.7.3 2.8.5 1 2l-1.6 1.4.4 1.9c.2 1.1.3 2 .2 2.1s-1-.2-2-.7l-1.8-.9-1.7 1c-.9.5-1.8.9-1.9.7-.1-.1-.1-1.1.2-2.1l.4-1.9-1.6-1.4c-1.8-1.5-1.7-1.8 1-2l2-.3zm13.3.1c.8 0 1-.2 1.7-1.8.4-1 .9-1.8 1.2-1.8.2 0 .8.8 1.2 1.8l.8 1.8 2 .2c1.1.1 2 .4 2 .5 0 .2-.7.9-1.5 1.6l-1.5 1.3.5 1.9c.3 1.1.3 1.9.2 2-.2.1-1.1-.2-2-.7l-1.7-.9-1.8.9c-1 .5-1.9.9-2 .7-.1-.1 0-1.1.2-2.1l.4-1.9-1.4-1.2c-.8-.7-1.4-1.4-1.4-1.6.1-.4 1.6-.7 3.1-.7zm15.3-.1l.8-1.8c.4-1 1-1.8 1.2-1.8s.7.8 1.2 1.8l.8 1.8 2 .2c1.1.1 2 .4 2 .5 0 .2-.7.9-1.5 1.7-1.3 1.2-1.4 1.4-1.2 2.4.7 2.7.7 2.9.2 2.9-.3 0-1.1-.4-1.8-.8-1.6-1-1.7-1-3.3 0-1.5.9-2.5 1.1-2.2.3.1-.3.3-1.2.4-2.1.2-1.5.2-1.6-1.1-2.9-.7-.7-1.4-1.4-1.4-1.6 0-.1.9-.4 2-.5l1.9-.1zm14.3 0l.8-1.8c.4-1 1-1.8 1.2-1.8s.7.8 1.2 1.8l.7 1.8 2 .2c1.1.1 2 .4 2 .6s-.6.9-1.4 1.6l-1.4 1.2.4 1.9c.2 1.1.3 2 .2 2.1s-1-.2-1.9-.8l-1.8-.9-1.7.9c-1 .6-1.8.8-2 .6s-.1-1.1.2-2.1l.5-1.8-1.5-1.3c-.8-.7-1.5-1.4-1.5-1.6s.9-.4 2-.5l2-.1zm14.5 0l.7-1.8c.4-1 .9-1.8 1.2-1.8.2 0 .8.8 1.2 1.8l.7 1.8 1.8.2c2.7.3 2.8.5 1 2l-1.6 1.4.4 1.9c.2 1 .3 2 .2 2.1s-1-.2-2-.7l-1.8-.9-1.7 1c-.9.5-1.8.8-1.9.7s-.1-1.1.2-2.1l.4-1.8L165 26c-.9-.8-1.4-1.5-1.2-1.7s1.1-.4 2.2-.5l1.8-.1z" fill="#ef4335"/><g fill="#fff"><path d="M24.8 27.6h-1.9v3.3h-1.1v-8.1h2.7c.9 0 1.6.2 2.1.6s.7 1 .7 1.8c0 .5-.1.9-.4 1.3s-.6.7-1.1.8l1.9 3.4v.1h-1.1l-1.8-3.2zm-1.9-.9h1.6c.5 0 .9-.1 1.3-.4.3-.3.5-.6.5-1.1s-.2-.9-.4-1.1c-.3-.3-.7-.4-1.3-.4H23v3h-.1zm10.6.4H30V30h4v.9h-5.1v-8.1H34v.9h-4v2.6h3.5v.8zm4.5 2.3l2.3-6.7h1.2l-3 8.1h-.9l-3-8.1h1.2l2.2 6.7zm5.7 1.4h-1.1v-8.1h1.1v8.1zm6.6-3.7h-3.5V30h4.1v.9h-5.1v-8.1h5.1v.9h-4v2.6h3.5l-.1.8h0zm3.6 1.2l.2 1.1.2-1 1.6-5.6h.9l1.6 5.6.2 1 .2-1.1 1.3-5.5h1.1l-2 8.1h-1L56.5 25l-.1-.6-.2.6-1.7 5.9h-1l-2-8.1h1.1l1.3 5.5zm12.9-1.2h-3.5V30h4.1v.9h-5.1v-8.1h5.1v.9h-4v2.6h3.5l-.1.8h0zm1.9 3.7v-8.1H71c.7 0 1.3.2 1.9.5.5.3 1 .8 1.2 1.3.3.6.4 1.2.4 2v.5c0 .8-.1 1.4-.4 2s-.7 1-1.3 1.3c-.5.3-1.2.5-1.9.5h-2.2zm1.1-7.2V30h1.1c.8 0 1.5-.3 1.9-.8.5-.5.7-1.2.7-2.2v-.5c0-.9-.2-1.6-.6-2.1s-1-.8-1.8-.8h-1.3zm15.4 3.5c0 .8-.1 1.5-.4 2.1s-.6 1-1.1 1.3-1.1.5-1.7.5-1.2-.2-1.7-.5-.9-.8-1.1-1.3c-.3-.6-.4-1.3-.4-2v-.6c0-.8.1-1.5.4-2.1s.7-1.1 1.1-1.4c.5-.3 1.1-.5 1.7-.5s1.2.2 1.7.5.9.8 1.1 1.4c.3.6.4 1.3.4 2.1v.5zm-1-.6c0-1-.2-1.7-.6-2.2s-.9-.8-1.6-.8-1.2.3-1.6.8-.6 1.2-.6 2.1v.6c0 .9.2 1.7.6 2.2s.9.8 1.6.8 1.2-.2 1.6-.7.6-1.2.6-2.2v-.6zm8.8 4.3h-1l-4.1-6.2v6.2h-1.1v-8.1h1.1L92 29v-6.3h1v8.1zm24.5 18.8h1.1v.8h-1.1v1.9h-1v-1.9h-3.7v-.6l3.6-5.6h1.1v5.4zm-3.6 0h2.5v-4l-.1.2-2.4 3.8zm5.8 2.2c0-.2.1-.3.2-.4s.3-.2.5-.2.4.1.5.2a.76.76 0 0 1 .2.4c0 .2-.1.3-.2.4s-.3.2-.5.2-.4-.1-.5-.2c-.2-.1-.2-.3-.2-.4zm7.7-5.5c0 .4-.1.8-.3 1.1s-.5.6-.9.7c.4.2.8.4 1 .8.2.3.4.7.4 1.2 0 .7-.2 1.3-.7 1.7s-1.1.6-1.9.6-1.4-.2-1.9-.6-.7-1-.7-1.7a1.92 1.92 0 0 1 .4-1.2c.2-.4.6-.6 1-.8a1.85 1.85 0 0 1-.8-.7c-.2-.3-.3-.7-.3-1.1 0-.7.2-1.2.7-1.6.4-.4 1-.6 1.7-.6s1.3.2 1.7.6.6.9.6 1.6zm-.8 3.8c0-.5-.1-.8-.4-1.1s-.7-.4-1.1-.4-.8.1-1.1.4-.4.7-.4 1.1.1.8.4 1.1.7.4 1.1.4c.5 0 .9-.1 1.1-.4.3-.3.4-.6.4-1.1zm-1.5-5.1c-.4 0-.7.1-1 .4a1.53 1.53 0 0 0-.4 1c0 .4.1.7.4 1 .2.3.6.4 1 .4s.7-.1 1-.4c.2-.3.4-.6.4-1s-.1-.7-.4-1-.6-.4-1-.4zm9.9 4h-1.9v3.3H132v-8.1h2.7c.9 0 1.6.2 2.1.6s.7 1 .7 1.8c0 .5-.1.9-.4 1.3s-.6.7-1.1.8l1.9 3.4v.1h-1.1L135 49zm-1.9-.8h1.6c.5 0 1-.1 1.3-.4s.5-.6.5-1.1-.2-.9-.5-1.1c-.3-.3-.7-.4-1.3-.4h-1.6v3zm10.4 2h-3.4l-.8 2.1h-1.1l3.1-8.1h.9l3.1 8.1h-1.1l-.7-2.1zm-3.1-.9h2.7l-1.4-3.8-1.3 3.8zm10.9-4.2h-2.6v7.2h-1.1v-7.2H145v-.9h6.3v.9h0zm2.4 7.2h-1.1v-8.1h1.1v8.1zm8.1 0h-1.1l-4.1-6.2v6.2h-1.1v-8.1h1.1l4.1 6.3v-6.3h1.1v8.1zm7.9-1.1c-.3.4-.7.7-1.1.9-.5.2-1.1.3-1.7.3-.7 0-1.2-.2-1.8-.5-.5-.3-.9-.8-1.2-1.3-.3-.6-.4-1.2-.4-2v-.7c0-1.2.3-2.2.8-2.8.6-.7 1.4-1 2.4-1 .8 0 1.5.2 2 .6s.8 1 .9 1.8h-1.1c-.2-1.1-.8-1.6-1.9-1.6-.7 0-1.3.3-1.6.8-.4.5-.6 1.2-.6 2.2v.7c0 .9.2 1.6.6 2.2.4.5 1 .8 1.7.8.4 0 .8 0 1.1-.1s.5-.2.7-.4v-1.8h-1.9v-.9h2.9v2.8h.2z" opacity=".9"/><path d="M39.8 45.7v10.1h1.7 1.7V45.7 35.6h-1.7-1.7v10.1zm42.8 0v10.1h1.7H86v-4.2l.2-4.6c.4-1.4 1.4-2.1 2.9-2.1.5 0 .6 0 .9.2a1.56 1.56 0 0 1 .8.8c.3.6.3.9.3 5.6v4.4h1.7 1.7v-4.8c0-5.3 0-5-.4-6.1-.5-1.4-1.7-2.5-3.3-2.9-.7-.2-2.1-.2-2.8 0-.6.2-1.3.5-1.6.7l-.5.2v-3.7-3.7h-1.7-1.7l.1 10.1h0zm-53.8-9.4c-2.8.4-5.1 1.8-6.6 4-1.1 1.5-1.6 3.3-1.7 5.3-.2 3.6 1.4 6.8 4.3 8.7 2.2 1.4 5.2 1.9 8 1.2 1.7-.4 3.2-1.3 4.5-2.5l.5-.5-.2-.2c-.3-.4-2-2-2-2s-.2.1-.3.3c-.7.9-2.2 1.7-3.7 2-.7.1-1.9.1-2.6 0-2.9-.5-5-2.8-5.2-5.9-.2-2.2.5-4.2 1.9-5.6 1.1-1.2 2.6-1.8 4.2-1.8 1.9-.1 3.7.6 5.3 2l.5.4 1.1-1 1.1-1-.5-.5c-1.4-1.4-3.2-2.3-5.2-2.7-.9-.3-2.6-.3-3.4-.2zm32.8 3.4v2.4h-1.2-1.2v1.6 1.6h1.2 1.2v5.2 5.2h1.7H65v-5.2-5.2h1.3 1.3v-1.6-1.6h-1.3H65v-2.4-2.4h-1.7-1.7v2.4zm12.6 2.2c-2.9.4-5.1 2.3-5.9 5-.5 1.8-.2 4 .8 5.5 1.1 1.7 2.7 2.8 4.8 3.3.7.1 2.2.1 2.9 0 1.4-.3 2.7-.9 3.7-1.8l.5-.4-1.2-1.1-1.2-1.1-.4.4c-.9.9-2.1 1.3-3.4 1.1-1.7-.2-2.8-1.2-3.3-2.7-.1-.4-.1-.6-.1-1.3s0-.9.2-1.3c.2-.6.7-1.3 1.1-1.7.9-.7 2.2-1 3.5-.8.8.1 1.3.4 2 .9l.5.4 1.1-1.1 1.1-1.1-.4-.4c-.8-.7-2-1.4-3.1-1.7-1-.1-2.2-.2-3.2-.1zm-28.4 4.5c0 4.7 0 4.8.4 5.9.5 1.4 1.3 2.4 2.5 3 .9.4 1.7.6 2.9.6 1.5 0 2.5-.3 3.2-.9l.2-.2v.6.6h1.7 1.7v-7-6.9h-1.7H55v4.1l-.1 4.4c-.4 1.2-1.4 1.9-3 2.1-1 .1-2-.4-2.4-1.2s-.4-.7-.4-5.2v-4.2h-1.7-1.7l.1 4.3h0z" opacity=".9" fill-rule="evenodd"/></g><path d="M77.7 48.7c0 1.3-1.1 2.4-2.4 2.4S73 50 73 48.7s1.1-2.4 2.4-2.4 2.3 1.1 2.3 2.4z" fill="#ef4335"/></svg>