<svg xmlns="http://www.w3.org/2000/svg" xmlns:xlink="http://www.w3.org/1999/xlink" viewBox="0 0 196 76" xmlns:v="https://vecta.io/nano"><defs><path id="A" d="M28 22.3h140v31.3H28z"/></defs><clipPath id="B"><use xlink:href="#A"/></clipPath><g clip-path="url(#B)"><path d="M160.6 47.7c0-2.1 1.7-3.8 3.7-3.8s3.7 1.7 3.7 3.8-1.7 3.8-3.7 3.8c-2.1 0-3.7-1.7-3.7-3.8z" fill="#86bc24"/><path d="M42.2 37.5c0-2.4-.5-4.2-1.4-5.4s-2.3-1.8-4.1-1.8h-2v14.8h1.5c2.1 0 3.6-.6 4.5-1.9 1.1-1.1 1.5-3.1 1.5-5.7h0zm7.1-.2c0 4.4-1.2 7.8-3.5 10.2s-5.5 3.6-9.7 3.6H28V24.6h8.7c4 0 7.1 1.1 9.3 3.3s3.3 5.3 3.3 9.4h0zm22.4 13.8h6.4V24.5h-6.4v26.6zm15.5-9.9c0 1.7.2 3 .6 3.9s1.1 1.3 2.2 1.3c1 0 1.7-.4 2.1-1.3s.6-2.2.6-3.9-.2-3-.6-3.8c-.4-.9-1.1-1.3-2.1-1.3s-1.7.4-2.1 1.3c-.5.8-.7 2.1-.7 3.8h0zm12.1 0c0 3.2-.8 5.7-2.5 7.5-1.6 1.8-3.9 2.7-6.9 2.7-2.8 0-5.1-.9-6.8-2.8-1.7-1.8-2.5-4.3-2.5-7.5s.8-5.7 2.5-7.5c1.6-1.8 4-2.7 6.9-2.7 1.8 0 3.5.4 4.9 1.2s2.5 2 3.3 3.5c.8 1.7 1.1 3.5 1.1 5.6zm2.6 9.9h6.5V31.3h-6.5v19.8zm0-22.1h6.5v-4.4h-6.5V29zm19.5 17c.9 0 1.9-.2 3.1-.7v5c-.9.4-1.7.7-2.5.8-.8.2-1.7.3-2.8.3-2.2 0-3.7-.6-4.7-1.7s-1.4-2.8-1.4-5.2v-8.1h-2.3v-5.1h2.3v-5l6.5-1.2v6.2h4.1v5.1h-4.1v7.7c.1 1.3.7 1.9 1.8 1.9zm14.9 0c.9 0 1.9-.2 3.1-.7v5c-.9.4-1.7.7-2.5.8-.8.2-1.7.3-2.8.3-2.2 0-3.7-.6-4.7-1.7s-1.4-2.8-1.4-5.2v-8.1h-2.3v-5.1h2.3v-5.1l6.5-1.1v6.2h4.1v5.1h-4.1v7.7c.1 1.3.7 1.9 1.8 1.9h0zm11.3-7.2c.1-1.1.4-1.9.9-2.4s1.1-.8 1.9-.8 1.5.3 2 .9.7 1.3.8 2.3h-5.6zm9.1-5.5c-1.5-1.5-3.7-2.3-6.5-2.3-3 0-5.2.9-6.8 2.7S141 38 141 41.4c0 3.2.9 5.7 2.6 7.5 1.7 1.7 4.1 2.6 7.3 2.6 1.5 0 2.8-.1 3.9-.3s2.1-.6 3.1-1.1l-1-4.4c-.7.3-1.4.5-2.1.7-.9.2-2 .3-3.1.3-1.2 0-2.2-.3-2.9-.9s-1.1-1.5-1.1-2.6H159v-3c0-3.1-.8-5.3-2.3-6.9zm-98.9 5.5c.1-1.1.4-1.9.9-2.4s1.1-.8 1.9-.8 1.5.3 2 .9.7 1.3.8 2.3h-5.6zm9.1-5.5c-1.5-1.5-3.7-2.3-6.5-2.3-3 0-5.2.9-6.8 2.7s-2.4 4.3-2.4 7.7c0 3.2.9 5.7 2.6 7.5 1.7 1.7 4.1 2.6 7.2 2.6 1.5 0 2.8-.1 3.9-.3s2.1-.6 3.1-1.1l-1-4.4c-.7.3-1.4.5-2.1.7-1 .2-2 .3-3.1.3-1.2 0-2.2-.3-2.9-.9s-1.1-1.5-1.1-2.6h11.5v-3c-.1-3.1-.8-5.3-2.4-6.9z" fill="#434a57"/></g></svg>