<svg xmlns="http://www.w3.org/2000/svg" viewBox="0 0 196 76" fill-rule="evenodd" fill="#448c74" xmlns:v="https://vecta.io/nano"><path d="M32.8 46.9V29.7h18.1v4.1H40.4v3.1h8.3v3.9h-8.3v6.1h-7.6zm55.4-12.2c0-.6-.5-.9-1-1.3-.6-.2-1.3-.3-2.1-.3-1.6 0-2.4.5-2.4 1.1 0 2.5 13.4.9 13.4 7.2 0 4.1-4.5 5.9-10.9 5.9-6.2 0-10.2-2.7-10.4-5.8h7.4c.2.6.6 1.1 1.3 1.4a4.99 4.99 0 0 0 2.1.5c1.9 0 3.2-.5 3.2-1.4 0-2.5-13.3-.8-13.3-7.4 0-3.6 4.2-5.5 10.1-5.5 6.4 0 9.3 2.5 9.9 5.5h-7.3zm7.6-5h21.4v4.5h-6.9v12.7h-7.7V34.2h-6.9v-4.5zm22.3 17.2V29.7H137v4.1h-11.2v2.3h9.6v4.1h-9.6v2.7h11.7V47h-19.4z"/><path d="M75.1 38.1c0 5.9-5.3 9.2-12.2 9.2-7.4 0-12.2-3.3-12.2-9.2 0-5.5 5-8.9 12.2-8.9 8.4 0 12.2 4.4 12.2 8.9zm-16.8 0c0 2.2 1 5 4.6 5 3.2 0 4.5-2 4.5-5 0-2.3-1.3-4.9-4.6-4.7-3.3 0-4.5 2.5-4.5 4.7zm87.8 2.8v5.9h-7.5V29.7h10.9c7.8 0 10.2 1.6 10.2 4.9 0 2-1.1 3.8-3.8 4.2 2.4.6 4 1.1 4 4.5 0 2.3-.2 3.1.8 3.1v.5H153c-.3-.3-.5-1.4-.5-3 0-2.3-.5-3-4-3h-2.4 0zm0-3.9h3c2.4 0 3.7-.3 3.7-1.6s-1.4-1.7-3.2-1.7h-3.5V37zm23.9 2.8c2.7 0 4.8-2 4.8-4.7s-2.1-4.7-4.8-4.7c-2.6 0-4.8 2-4.8 4.7s2.2 4.7 4.8 4.7zm0-.9c-1.9 0-3.5-1.6-3.5-3.8s1.6-3.8 3.5-3.8c2.1 0 3.7 1.6 3.7 3.8-.1 2.2-1.7 3.8-3.7 3.8zm-1.8-1.1h1v-2.3h.6l1.4 2.3h1l-1.4-2.3c1 0 1.4-.5 1.4-1.4 0-1.1-.6-1.6-2.1-1.6h-1.9v5.3zm1-4.5h1c.5 0 1.1 0 1.1.6 0 .8-.6.8-1.1.8h-1v-1.4z"/></svg>