<svg xmlns="http://www.w3.org/2000/svg" viewBox="0 0 196 76" xmlns:v="https://vecta.io/nano"><path d="M53.9 34.8c0 2.5-1.2 4.3-4.4 4.3h-1V31h1c3 0 4.4 1.4 4.4 3.8zm-3.2 7.8c5.6 0 9.1-2.9 9.1-7.9 0-5.5-3.8-7.5-10-7.5-2.4 0-5.3.2-7.3.4v19.6h6v-4.7h2.2zm80.6-7.8c0 2.5-1.2 4.3-4.4 4.3h-1V31h1c3 0 4.4 1.4 4.4 3.8zm-3.3 7.8c5.6 0 9.1-2.9 9.1-7.9 0-5.5-3.8-7.5-10-7.5-2.4 0-5.3.2-7.3.4v19.6h6v-4.7h2.2zm17-9.9c0-1.1 1.1-1.6 2.8-1.6 1.9 0 4 .4 5.4 1l-.5-4.3c-1.6-.3-3-.6-5.5-.6-4.9 0-8.2 1.9-8.2 5.9 0 6.9 9.4 5.5 9.4 8.7 0 1.2-.9 1.9-3.1 1.9-2 0-5-.7-6.8-1.6l.7 4.5c1.8.7 4.3 1 6.3 1 5 0 9.1-1.6 9.1-6.6-.1-6.4-9.6-5.2-9.6-8.3zm-29.7-5h-6v19.6h6V27.7zm-24.3 0h-6v19.6h6V27.7zm10.4 15.7V27.7h-6v19.6h10.9l.9-3.9h-5.8zM80.5 27.7h-6v7.8h-6.3v-7.8h-6v19.6h6v-7.7h6.3v7.7h6V27.7z" fill="#1978be"/></svg>