<svg xmlns="http://www.w3.org/2000/svg" viewBox="0 0 196 77" fill="#fff" xmlns:v="https://vecta.io/nano"><path d="M101.2 16.1c-.3 0-.5 1.1-1.1 1.6-.4.4-.9.4-1.2.8-.1.2-.1.5-.2.8-.2.6-1 .6-1 1.3s.6.8 1.2 1.3c.4.4.5.7 1 .9s1.1-.4 1.7-.2c.5.1 1 .3 1.1.8s0 1.2-.6 1.1c-.2 0-1.1-.3-2.2-.2-1.3.1-2.8.6-3 2 .1.8 1.1 1.8 2.1 1.6.7-.1.4-.9.7-1.3.5-.5 3.2 1.7 5.8 1.7 1.1 0 1.9-.3 2.7-1.1.1-.1.2-.2.3-.2a.76.76 0 0 1 .4.2c2.1 1.6 3.6 5 11.1 5 1.1 0 2.3.5 3.3 1.4.9.8 1.4 2.1 1.9 3.4.8 1.9 2.1 3.8 4.2 5.9.1.1 1.8 1.4 1.9 1.5 0 0 .1.3.1.5 0 1.2-.2 4.9 2.5 5 .7 0 .5-.4.5-.8 0-.6-.1-1.3.2-1.9.5-.9-1-1.3-.9-3.2 0-1.4-1.2-1.2-1.8-2.3-.4-.6-.7-1-.6-1.7.1-4.4-.9-7.2-1.5-7.9-.4-.5-.8-.7-.4-1 2.3-1.5 2.8-2.9 2.8-2.9 1.2-2.8 2.3-5.4 3.8-6.5.3-.2 1.1-.8 1.5-1 1.4-.7 2.1-1.1 2.5-1.4.6-.6 1.1-1.9.5-2.7-.8-1-2.1-.2-2.7.1-4.2 2.5-4.8 6.8-6.2 9.3-1.1 2-3 3.5-4.7 3.6-1.3.1-2.6-.2-3.9-.7-3.3-1.4-5.1-3.3-5.5-3.6-.9-.7-7.7-7.4-13.2-7.6 0 0-.7-1.4-.9-1.4-.4-.1-.8.8-1.1.9-.4-.1-.8-1.2-1.1-1.1h0zM76.8 56c-.5 0-1-.4-1-1V37.8h-5.7v19c0 .9.8 1.7 1.7 1.7h9.9c.9 0 1.7-.8 1.7-1.7v-19h-5.7V55c.1.5-.3 1-.9 1zm19.1-18.2h-8.6c-1 0-1.8.8-1.8 1.9v18.8h5.7V41.2c0-.5.4-.9 1-.9.5 0 1 .4 1 .9v17.3h5.7V41.2c0-.5.4-.9 1-.9.5 0 1 .4 1 .9v17.3h5.7V39.7c0-1-.8-1.9-1.8-1.9h-8.9zm-33.3 3.4c0-.6-.5-1-1-1h-1v10.5h1c.5 0 1-.4 1-1v-8.5zm3.8 12.1h-5.7v5.2H55V37.8h11.5c1 0 1.8.8 1.8 1.9v11.7a1.97 1.97 0 0 1-1.9 1.9zm59.4.5c-1.1 0-2.1 1-2.1 2.2s1 2.2 2.1 2.2c1.2 0 2.1-1 2.1-2.2s-.9-2.2-2.1-2.2h0zm2.5 2.2c0 1.4-1.1 2.5-2.5 2.5s-2.5-1.1-2.5-2.5 1.1-2.5 2.5-2.5 2.5 1.1 2.5 2.5z" opacity=".9"/><path d="M125.6 55.9c.4 0 .6-.1.6-.4 0-.2-.2-.4-.6-.4h-.1l.1.8h0zm1.4 1.6h-.7l-.9-1.2v1.2h-.6v-2.9h.6c.8 0 1.2.3 1.2.9 0 .4-.2.7-.6.8h0l1 1.2zm-11.2-6.8v-9.5c0-.5-.4-.9-1-.9-.5 0-1 .4-1 .9v9.5h2zm0 7.8v-5.2h-1.9v5.2h-5.7V39.7c0-1 .8-1.9 1.8-1.9h9.6c1 0 1.8.8 1.8 1.9v18.8h-5.6z" opacity=".9"/></svg>