<svg xmlns="http://www.w3.org/2000/svg" viewBox="0 0 196 76" xmlns:v="https://vecta.io/nano"><path d="M55.2 29.6h-3.7l-8.7 15.1h3.4l1.7-3.1h5.3l.3 3.1H57l-1.8-15.1zM49.3 39l3.2-6h0l.3 6h-3.5zm20-9.4h-7.9l-3.2 15.1h3.4l1.3-5.8H66c1.5 0 2.2.8 2.1 2l-.5 3.8h3.5c-.1-.2-.1-.4-.1-.6l.4-4c.1-.9-.4-2.4-1.5-2.6 1.7-.3 3-1.3 3.4-3.2.3-1.3 0-4.7-4-4.7zm.6 4.6c-.3 1.5-1.3 2.1-2.9 2.1h-3.6l.9-4h3.8c1.9-.1 2 1.1 1.8 1.9zM27.5 29c-5 0-6.8 2.2-7.2 3.9-.7 3.3 1.5 4.4 3.8 5l1.6.4c1.5.4 2.9 1.2 2.6 2.3-.3 1.6-2.3 2-3.8 2-2.1 0-2.9-1.6-2.8-2.7h-3.5c-.3 2.1.3 5.3 5.9 5.3 1.3 0 6.6.3 7.6-5 .5-2.7-1.7-4-3.7-4.5l-3-.8c-.6-.1-1.2-.5-1-1.7.1-1.1 1.5-1.6 2.7-1.6 3.4 0 3.2 2.1 3.2 2.8h3.3c.4-1.8.4-5.4-5.7-5.4zm53.6 13.7c-2.7 0-3.8-2.8-3.2-5.5.9-4.3 3.9-5.1 5.4-5.1 3.3 0 3.4 2 3.4 2.9h3.2c.4-2.5-1.5-5.7-6.1-5.7-3.9 0-8.4 2.5-9.5 7.8-1.1 5.2 2.3 8.3 6.4 8.3 5.1 0 7.1-2.1 8.5-5.4h-3.7c-.7 1.8-1.8 2.7-4.4 2.7zm38.5 2.1h3.2l1.4-6.4h7.2l.6-2.7h-7.2l.7-3.4h8.5l.6-2.7h-11.7l-3.3 15.2zm16-15.2l-.6 2.7h5.2l-2.7 12.5h3.2l2.7-12.5h5.2l.6-2.7c0 0-13.6 0-13.6 0zm-87.8 0H34.2l-.6 2.7h5.2l-2.7 12.5h3.2L42 32.3h5.2l.6-2.7zm101 15.2H164c2.3 0 4.3-1.9 5.1-3.3l2.3-3.8h-18.5l-4.1 7.1zm13.8-15.2c-2.3 0-4.3 1.9-5.1 3.3l-2.3 3.8h18.5l4.1-7.1h-15.2zm-46.1 0h-3.7l-8.7 15.1h3.4l1.7-3.1h5.3l.3 3.1h3.5l-1.8-15.1zm-5.9 9.4l3.2-6h0l.3 6h-3.5zm-9.7-9.4H93l-3.2 15.1h3.4l1.3-5.8h3.1c1.5 0 2.2.8 2.1 2l-.5 3.8h3.5c-.1-.3-.1-.4-.1-.7l.4-4c.1-.9-.4-2.4-1.5-2.6 1.7-.3 3.1-1.3 3.4-3.2.4-1.2.1-4.6-4-4.6zm.7 4.6c-.3 1.5-1.3 2.1-2.9 2.1h-3.6l.9-4h3.8c1.8-.1 1.9 1.1 1.8 1.9z" opacity=".9" fill-rule="evenodd" fill="#fff"/></svg>