<svg xmlns="http://www.w3.org/2000/svg" xmlns:xlink="http://www.w3.org/1999/xlink" viewBox="0 0 196 76" xmlns:v="https://vecta.io/nano"><defs><path id="A" d="M24 24h149v28H24z"/></defs><clipPath id="B"><use xlink:href="#A"/></clipPath><g clip-path="url(#B)"><path d="M32.7 28.3c-3.8 2.4-7.7 4-8.4 4.3l18.6 12.6h0l-.9.7-6.8-4.5c-2.6-1.7-5.4-1.3-7.4-.7-1.9.6-3.2 1.5-3.6 1.7.2.1 14 9.5 14.1 9.6.3-.3 2.3-2.1 6.6-4.6 4.5-2.7 7.2-3.6 7.8-3.8L34.1 30.8h0l.8-.5s2.5 1.6 7 4.7c4.2 2.9 10.1-.6 10.9-1.1-.2-.1-14.3-9.6-14.4-9.7-.3.2-2.9 2.3-5.7 4.1z" fill="#d52b1e"/><path d="M102.3 30.4v4h9.3v.1l-9.6 8.7v3.4h19.5v-4h-9.7l9.8-8.7v-3.4c-.2-.1-19.1-.1-19.3-.1zm-7.8 0v10.3c0 1.5-1.4 2.4-3.7 2.4s-3.7-.9-3.7-2.4V30.4h-6V41c0 2.3.6 3.7 1.9 4.6 1.5 1 3.9 1.5 7.7 1.5s6.2-.5 7.7-1.5c1.3-.9 1.9-2.3 1.9-4.6V30.4h-5.8zm42 0v10.3c0 1.5-1.4 2.4-3.7 2.4s-3.7-.9-3.7-2.4V30.4h-6V41c0 2.3.6 3.7 1.9 4.6 1.5 1 3.9 1.5 7.7 1.5s6.2-.5 7.7-1.5c1.3-.9 1.9-2.3 1.9-4.6V30.4h-5.8zm30.2 0v16.2h6.2V30.4h-6.2zm-9.3 0l-6.8 5.6v-5.6h-6.2v16.2h6.2v-5.7-.1l6.3 5.8h8.4l-9.2-8.3h0v-.1l9.5-7.8h-8.2zm-97.7 4.9c0 1.8.7 3 2.2 3.8 1.4.7 3.5 1.2 7 1.5l.7.1c1.5.1 3.2.2 3.2 1.5 0 .8-.9 1.3-2.6 1.3-.8 0-2-.2-3-1.9h-7.8c0 1.9.7 3.2 2.3 4 1.7 1 4.5 1.5 8.6 1.5 9 0 9.8-4.1 9.8-5.3 0-2.9-2.7-4.6-8.2-5.3l-.9-.1c-2.5-.3-4.5-.5-4.5-1.4 0-.3.1-.6.3-.8.6-.6 1.8-.6 2.3-.6h0c.5 0 2.1.1 3.2 1.8h7.1C79.3 32 75.6 30 69.2 30c-8.6 0-9.5 3.7-9.5 5.3z" fill="#003478"/></g></svg>