<svg xmlns="http://www.w3.org/2000/svg" viewBox="0 0 196 76" fill-rule="evenodd" xmlns:v="https://vecta.io/nano"><path d="M77.2 19.2h9.5L62.5 59.6l-24-40.4h9.7l14.5 24.4c0 0 14.5-24.4 14.5-24.4z" fill="#41b883"/><path d="M68.1 19.2h9.1L62.5 43.6 48.1 19.2H57l5.5 9.3c0 .1 5.6-9.3 5.6-9.3z" fill="#35495e"/><path d="M92.3 27.2c0-.3.1-.5.5-.8.4-.1.7-.3 1.1-.3.5 0 .8.1.9.5l5.4 17.7 5.4-17.7c.1-.4.4-.5.9-.5.4 0 .8.1 1.1.3.4.3.5.4.5.8v.1.1l-6.2 19.8c-.3.5-.8.8-1.6.8s-1.4-.3-1.6-.8l-6.4-19.8c0 0 0-.2 0-.2zm16.1 15.2v-7.7c0-.3.1-.4.4-.7.3-.1.5-.3.9-.3.3 0 .7.1.8.3.3.1.4.4.4.7v7.7c0 .9.4 1.8 1.1 2.4.7.7 1.5 1.1 2.4 1.1s1.8-.4 2.4-1.1c.7-.7 1.1-1.5 1.1-2.4v-7.7c0-.3.1-.4.4-.5s.5-.3.9-.3.7.1.9.3c.3.1.4.4.4.7v7.7c0 1.5-.5 2.8-1.8 4.1-1.2 1.1-2.6 1.8-4.3 1.8-1.6 0-3.1-.5-4.3-1.8-1-1.3-1.7-2.7-1.7-4.3zm14.4 0v-3.1c0-1.5.6-2.9 1.8-3.9 1.2-1.1 2.7-1.6 4.3-1.6s3 .5 4.2 1.6 1.8 2.3 1.8 3.9c0 .5-.1 1.1-.3 1.4-.1.4-.4.5-.7.8-.3.1-.5.3-.8.3H132h-6.8v.9c0 1.1.4 2 1.2 2.6.8.7 1.9.9 3.1.9a5.23 5.23 0 0 0 1.8-.3c.6-.2.9-.4 1.2-.5s.5-.3.7-.3c.3 0 .5.2.7.4.3.3.3.5.3.8 0 .4-.4.9-1.4 1.4-.9.5-2 .7-3.5.7-2 0-3.7-.5-4.9-1.6-1.1-1.3-1.6-2.7-1.6-4.4h0 0zm2.5-2.5h5.7c.5 0 .9 0 1.1-.1.1-.1.3-.4.3-.8 0-.9-.4-1.6-1.1-2.3s-1.5-.9-2.4-.9-1.8.3-2.4.9c-.7.7-1.1 1.4-1.1 2.3l-.1.9h0zm10.7 6.7c0-.4.1-.8.4-1.1s.7-.4 1.1-.4.8.1 1.1.4.4.7.4 1.1-.1.8-.4 1.1-.7.4-1.1.4-.8-.1-1.1-.4c-.1-.3-.4-.7-.4-1.1zm2.3 7c0-.3.1-.5.3-.8.3-.3.4-.3.7-.3.8 0 1.4-.3 1.6-.8.3-.5.4-1.5.4-2.6V34.7c0-.3.1-.4.4-.7.3-.1.5-.3.9-.3s.7.1.9.3c.3.1.4.4.4.7v14.5c0 1.8-.4 3.1-1.1 4.1-.7.9-1.8 1.5-3.1 1.5-1-.1-1.4-.4-1.4-1.2zm2.7-25.2c0-.4.1-.7.4-.9.3-.3.7-.4 1.1-.4s.8.1 1.1.4.4.5.4.9-.1.7-.4.9-.7.4-1.1.4-.8-.1-1.1-.4c-.2 0-.4-.5-.4-.9h0zm4.8 17.5c0-.3.1-.5.3-.8.1-.3.4-.4.7-.4.1 0 .4.1.7.4s.8.4 1.4.7 1.2.4 2 .4c1.1 0 1.8-.1 2.3-.5.4-.4.7-.8.7-1.4 0-.7-.3-1.2-.8-1.6s-1.1-.7-1.9-.8l-2.2-.7c-.7-.3-1.4-.7-1.9-1.2s-.8-1.4-.8-2.2c0-1.1.4-2.2 1.2-3s2.2-1.2 3.8-1.2c1.1 0 2 .1 3 .5.9.3 1.4.7 1.4 1.1 0 .3-.1.5-.3.8-.1.3-.4.4-.7.4-.1 0-.5-.1-1.2-.4s-1.4-.4-2.2-.4c-.9 0-1.6.3-2.2.7-.4.4-.7.9-.7 1.5s.3.9.8 1.4c.5.3 1.1.5 1.9.8.8.1 1.5.4 2.3.7.7.3 1.4.7 1.9 1.4s.8 1.5.8 2.4c0 1.2-.4 2.2-1.4 3-.9.7-2.2 1.1-3.8 1.1-1.4 0-2.6-.3-3.5-.7-1.1-.9-1.6-1.5-1.6-2z" fill="#010101"/></svg>