<?xml version="1.0" encoding="UTF-8" standalone="no"?>
<!DOCTYPE svg PUBLIC "-//W3C//DTD SVG 1.1//EN" "http://www.w3.org/Graphics/SVG/1.1/DTD/svg11.dtd">
<svg width="100%" height="100%" viewBox="0 0 844 341" version="1.1" xmlns="http://www.w3.org/2000/svg" xmlns:xlink="http://www.w3.org/1999/xlink" xml:space="preserve" xmlns:serif="http://www.serif.com/" style="fill-rule:evenodd;clip-rule:evenodd;stroke-linejoin:round;stroke-miterlimit:2;">
    <g>
        <g>
            <g id="F">
                <path d="M843.25,140.951l0,141.237l-128.963,-0l0,-141.237l128.963,-0Z" style="fill:rgb(182,12,11);"/>
                <path d="M766.391,203.607l28.759,0l0,8.274l-20.218,0l0,9.943l15.614,-0l0,8.274l-15.614,-0l0,20.218l-8.541,-0l0,-46.709Z" style="fill:white;fill-rule:nonzero;"/>
            </g>
            <g id="E">
                <clipPath id="_clip1">
                    <path d="M700.65,140.887l-0,141.364l-128.969,-0l-0,-141.364l128.969,0Z"/>
                </clipPath>
                <g clip-path="url(#_clip1)">
                    <path d="M571.681,64.005l64.483,-62.002l64.486,62.002l-128.969,-0Zm128.969,218.246l-128.969,-0l-0,-218.246l128.969,-0l-0,218.246Z" style="fill:rgb(233,77,1);fill-rule:nonzero;"/>
                </g>
                <path d="M622.353,203.607l29.893,0l0,8.274l-21.152,0l-0,9.943l16.415,-0l-0,8.274l-16.415,-0l-0,11.944l21.82,-0l-0,8.274l-30.561,-0l-0,-46.709Z" style="fill:white;fill-rule:nonzero;"/>
                <g id="On---Off" serif:id="On - Off">
                    <path d="M571.678,68.115l64.484,-68.115l64.485,68.115l-128.969,-0Zm128.969,84.397l-128.969,-0l0,-84.397l128.969,-0l0,84.397Z" style="fill:rgb(233,77,1);fill-rule:nonzero;"/>
                </g>
            </g>
            <g id="D">
                <path d="M556.806,140.887l0,141.364l-128.969,-0l0,-141.364l128.969,0Z" style="fill:rgb(255,146,49);"/>
                <path d="M473.438,203.607l17.482,0c4.449,0 8.419,0.934 11.911,2.803c3.492,1.868 6.217,4.559 8.174,8.074c1.957,3.514 2.936,7.673 2.936,12.478c0,4.804 -0.979,8.963 -2.936,12.477c-1.957,3.515 -4.682,6.206 -8.174,8.074c-3.492,1.869 -7.462,2.803 -11.911,2.803l-17.482,-0l-0,-46.709Zm17.482,39.102c4.449,0 7.841,-1.39 10.176,-4.17c2.336,-2.781 3.503,-6.64 3.503,-11.577c0,-4.938 -1.167,-8.797 -3.503,-11.578c-2.335,-2.78 -5.727,-4.17 -10.176,-4.17l-8.941,0l-0,31.495l8.941,0Z" style="fill:white;fill-rule:nonzero;"/>
            </g>
            <g id="C">
                <path d="M410.309,140.887l0,141.364l-128.969,-0l0,-141.364l128.969,0Z" style="fill:rgb(255,200,19);"/>
                <path d="M356.93,250.682c-4.715,0 -8.886,-1.001 -12.511,-3.003c-3.626,-2.001 -6.439,-4.837 -8.441,-8.507c-2.002,-3.67 -3.003,-7.93 -3.003,-12.778c0,-4.805 1.034,-9.042 3.103,-12.712c2.068,-3.67 4.938,-6.517 8.608,-8.541c3.67,-2.024 7.84,-3.036 12.511,-3.036c4.493,0 8.519,0.912 12.077,2.736l-0.934,8.141c-1.913,-0.846 -3.748,-1.502 -5.505,-1.969c-1.757,-0.467 -3.659,-0.701 -5.705,-0.701c-4.76,0 -8.418,1.468 -10.976,4.404c-2.558,2.936 -3.837,6.829 -3.837,11.678c-0,4.848 1.257,8.741 3.77,11.677c2.513,2.936 6.128,4.404 10.843,4.404c2.091,-0 4.015,-0.223 5.772,-0.668c1.757,-0.444 3.636,-1.112 5.638,-2.001l0.934,8.14c-3.87,1.824 -7.985,2.736 -12.344,2.736Z" style="fill:white;fill-rule:nonzero;"/>
            </g>
            <g id="B">
                <path d="M271.599,140.887l-0,141.364l-128.969,-0l-0,-141.364l128.969,0Z" style="fill:rgb(37,191,20);"/>
                <path d="M217.19,224.76c5.916,1.912 8.875,6.005 8.875,12.277c-0,4.182 -1.357,7.44 -4.071,9.776c-2.713,2.335 -6.428,3.503 -11.143,3.503l-19.484,-0l-0,-46.709l17.616,0c8.897,0 13.345,3.759 13.345,11.277c0,4.626 -1.713,7.918 -5.138,9.876Zm-17.282,-2.803l7.807,0c2.091,0 3.648,-0.434 4.671,-1.301c1.023,-0.868 1.534,-2.213 1.534,-4.037c0,-1.913 -0.511,-3.292 -1.534,-4.137c-1.023,-0.845 -2.58,-1.268 -4.671,-1.268l-7.807,0l-0,10.743Zm9.675,20.752c2.491,0 4.393,-0.5 5.705,-1.501c1.313,-1.001 1.969,-2.703 1.969,-5.105c-0,-2.358 -0.679,-4.037 -2.035,-5.038c-1.357,-1.001 -3.237,-1.501 -5.639,-1.501l-9.675,-0l-0,13.145l9.675,0Z" style="fill:white;fill-rule:nonzero;"/>
            </g>
            <g id="A">
                <path d="M128.969,140.887l0,141.364l-128.969,-0l0,-141.364l128.969,0Z" style="fill:rgb(33,147,5);"/>
                <path d="M73.018,239.239l-17.015,0l-3.87,11.077l-8.274,-0l16.615,-46.709l8.074,0l16.615,46.709l-8.274,-0l-3.871,-11.077Zm-2.669,-7.473l-5.805,-16.682l-5.872,16.682l11.677,-0Z" style="fill:white;fill-rule:nonzero;"/>
            </g>
        </g>
    </g>
</svg>
