<?xml version="1.0" encoding="UTF-8" standalone="no"?>
<!DOCTYPE svg PUBLIC "-//W3C//DTD SVG 1.1//EN" "http://www.w3.org/Graphics/SVG/1.1/DTD/svg11.dtd">
<svg width="100%" height="100%" viewBox="0 0 1920 1080" version="1.1" xmlns="http://www.w3.org/2000/svg" xmlns:xlink="http://www.w3.org/1999/xlink" xml:space="preserve" xmlns:serif="http://www.serif.com/" style="fill-rule:evenodd;clip-rule:evenodd;stroke-linecap:round;stroke-linejoin:round;stroke-miterlimit:1.5;">
    <g transform="matrix(8.33333,0,0,8.33333,488.337,498.166)">
        <g>
            <path d="M4.188,0L0.521,-34.208L7.208,-34.208L9.125,-12.625L11.021,-34.208L17.396,-34.208L19.229,-12.625L21.063,-34.208L27.833,-34.208L24.083,0L15.875,0L14.167,-16.479L12.542,0L4.188,0Z" style="fill:rgb(37,39,45);fill-rule:nonzero;"/>
        </g>
    </g>
    <g transform="matrix(8.33333,0,0,8.33333,731.197,498.166)">
        <g>
            <path d="M0.604,0L3.896,-34.208L15.479,-34.208L18.75,0L12.271,0L11.792,-5.542L7.646,-5.542L7.25,0L0.604,0ZM8.167,-10.979L11.271,-10.979L9.75,-28.396L9.438,-28.396L8.167,-10.979Z" style="fill:rgb(37,39,45);fill-rule:nonzero;"/>
        </g>
    </g>
    <g transform="matrix(8.33333,0,0,8.33333,898.744,498.166)">
        <g>
            <path d="M4.458,0L4.458,-27.625L0.396,-27.625L0.396,-34.208L15.375,-34.208L15.375,-27.625L11.313,-27.625L11.313,0L4.458,0Z" style="fill:rgb(37,39,45);fill-rule:nonzero;"/>
        </g>
    </g>
    <g transform="matrix(8.33333,0,0,8.33333,1036.76,498.166)">
        <g>
            <path d="M9.479,0.313C6.979,0.313 4.979,-0.464 3.479,-2.021C1.979,-3.589 1.229,-5.74 1.229,-8.479L1.229,-24.25C1.229,-27.635 1.901,-30.193 3.25,-31.917C4.609,-33.651 6.734,-34.521 9.625,-34.521C12.151,-34.521 14.188,-33.823 15.729,-32.437C17.271,-31.062 18.042,-29.073 18.042,-26.479L18.042,-20.583L11.229,-20.583L11.229,-25.646C11.229,-26.615 11.109,-27.292 10.875,-27.667C10.635,-28.042 10.219,-28.229 9.625,-28.229C9.026,-28.229 8.609,-28.01 8.375,-27.583C8.151,-27.167 8.042,-26.547 8.042,-25.729L8.042,-8.562C8.042,-7.656 8.172,-7 8.438,-6.583C8.698,-6.177 9.094,-5.979 9.625,-5.979C10.693,-5.979 11.229,-6.839 11.229,-8.562L11.229,-14.729L18.125,-14.729L18.125,-8.271C18.125,-2.547 15.24,0.313 9.479,0.313Z" style="fill:rgb(37,39,45);fill-rule:nonzero;"/>
        </g>
    </g>
    <g transform="matrix(8.33333,0,0,8.33333,1200.66,498.166)">
        <g>
            <path d="M1.521,0L1.521,-34.208L8.313,-34.208L8.313,-21.979L11.542,-21.979L11.542,-34.208L18.354,-34.208L18.354,0L11.542,0L11.542,-15.521L8.313,-15.521L8.313,0L1.521,0Z" style="fill:rgb(37,39,45);fill-rule:nonzero;"/>
        </g>
    </g>
    <g transform="matrix(8.33333,0,0,8.33333,1372.85,498.166)">
        <g>
            <path d="M1.521,-34.208L10.958,-34.208C13.385,-34.208 15.214,-33.526 16.438,-32.167C17.656,-30.818 18.281,-28.818 18.313,-26.167L18.396,-10.146C18.422,-6.781 17.839,-4.25 16.646,-2.542C15.448,-0.844 13.469,0 10.708,0L1.521,0L1.521,-34.208ZM9.604,-6.042C10.839,-6.042 11.458,-6.651 11.458,-7.875L11.458,-25.521C11.458,-26.281 11.396,-26.859 11.271,-27.25C11.156,-27.635 10.943,-27.896 10.625,-28.021C10.302,-28.156 9.818,-28.229 9.167,-28.229L8.396,-28.229L8.396,-6.042L9.604,-6.042Z" style="fill:rgb(37,39,45);fill-rule:nonzero;"/>
        </g>
    </g>
    <g transform="matrix(8.33333,0,0,8.33333,1543.06,498.166)">
        <g>
            <path d="M9.667,0.313C6.917,0.313 4.818,-0.526 3.375,-2.208C1.943,-3.885 1.229,-6.255 1.229,-9.312L1.229,-25.604C1.229,-28.547 1.943,-30.771 3.375,-32.271C4.818,-33.771 6.917,-34.521 9.667,-34.521C12.427,-34.521 14.526,-33.771 15.958,-32.271C17.401,-30.771 18.125,-28.547 18.125,-25.604L18.125,-9.312C18.125,-6.229 17.401,-3.854 15.958,-2.187C14.526,-0.521 12.427,0.313 9.667,0.313ZM9.667,-5.979C10.276,-5.979 10.688,-6.24 10.896,-6.771C11.115,-7.297 11.229,-8.042 11.229,-9L11.229,-25.729C11.229,-26.464 11.125,-27.062 10.917,-27.521C10.719,-27.99 10.318,-28.229 9.708,-28.229C8.568,-28.229 8,-27.365 8,-25.646L8,-8.958C8,-7.969 8.115,-7.229 8.354,-6.729C8.604,-6.229 9.042,-5.979 9.667,-5.979Z" style="fill:rgb(37,39,45);fill-rule:nonzero;"/>
        </g>
    </g>
    <g transform="matrix(8.33333,0,0,8.33333,1710.93,498.166)">
        <g>
            <path d="M8.563,0.313C6.089,0.313 4.25,-0.552 3.042,-2.292C1.833,-4.026 1.229,-6.656 1.229,-10.187L1.229,-24.917C1.229,-28.083 1.927,-30.469 3.333,-32.083C4.75,-33.708 6.844,-34.521 9.625,-34.521C11.885,-34.521 13.646,-34.068 14.896,-33.167C16.146,-32.26 17.005,-30.943 17.479,-29.208C17.948,-27.484 18.188,-25.276 18.188,-22.583L11.5,-22.583L11.5,-25.646C11.5,-26.464 11.385,-27.094 11.167,-27.542C10.943,-28 10.542,-28.229 9.958,-28.229C8.651,-28.229 8,-27.38 8,-25.687L8,-9.125C8,-8.083 8.13,-7.297 8.396,-6.771C8.656,-6.24 9.125,-5.979 9.792,-5.979C10.458,-5.979 10.922,-6.24 11.188,-6.771C11.448,-7.297 11.583,-8.083 11.583,-9.125L11.583,-14.021L9.75,-14.021L9.75,-19.896L18.125,-19.896L18.125,0L15.375,0L14.208,-2.875C12.984,-0.75 11.104,0.313 8.563,0.313Z" style="fill:rgb(37,39,45);fill-rule:nonzero;"/>
        </g>
    </g>
    <g transform="matrix(8.33333,0,0,8.33333,488.337,856.499)">
        <g>
            <path d="M0.604,0L3.896,-34.208L15.479,-34.208L18.75,0L12.271,0L11.792,-5.542L7.646,-5.542L7.25,0L0.604,0ZM8.167,-10.979L11.271,-10.979L9.75,-28.396L9.438,-28.396L8.167,-10.979Z" style="fill:rgb(0,128,55);fill-rule:nonzero;"/>
        </g>
    </g>
    <g transform="matrix(8.33333,0,0,8.33333,655.885,856.499)">
        <g>
            <path d="M1.521,0L1.521,-34.208L8.563,-34.208L11.708,-17.833L11.708,-34.208L18.313,-34.208L18.313,0L11.625,0L8.208,-17.125L8.208,0L1.521,0Z" style="fill:rgb(0,128,55);fill-rule:nonzero;"/>
        </g>
    </g>
    <g transform="matrix(8.33333,0,0,8.33333,827.745,856.499)">
        <g>
            <path d="M0.604,0L3.896,-34.208L15.479,-34.208L18.75,0L12.271,0L11.792,-5.542L7.646,-5.542L7.25,0L0.604,0ZM8.167,-10.979L11.271,-10.979L9.75,-28.396L9.438,-28.396L8.167,-10.979Z" style="fill:rgb(0,128,55);fill-rule:nonzero;"/>
        </g>
    </g>
    <g transform="matrix(8.33333,0,0,8.33333,995.293,856.499)">
        <g>
            <path d="M1.521,0L1.521,-34.208L8.354,-34.208L8.354,-5.812L15.417,-5.812L15.417,0L1.521,0Z" style="fill:rgb(0,128,55);fill-rule:nonzero;"/>
        </g>
    </g>
    <g transform="matrix(8.33333,0,0,8.33333,1133.64,856.499)">
        <g>
            <path d="M5.646,0L5.646,-11.271L0.208,-34.208L6.958,-34.208L8.875,-22.604L10.792,-34.208L17.563,-34.208L12.104,-11.271L12.104,0L5.646,0Z" style="fill:rgb(0,128,55);fill-rule:nonzero;"/>
        </g>
    </g>
    <g transform="matrix(8.33333,0,0,8.33333,1288.25,856.499)">
        <g>
            <path d="M4.458,0L4.458,-27.625L0.396,-27.625L0.396,-34.208L15.375,-34.208L15.375,-27.625L11.313,-27.625L11.313,0L4.458,0Z" style="fill:rgb(0,128,55);fill-rule:nonzero;"/>
        </g>
    </g>
    <g transform="matrix(8.33333,0,0,8.33333,1426.27,856.499)">
        <g>
            <rect x="1.188" y="-34.208" width="6.625" height="34.208" style="fill:rgb(0,128,55);fill-rule:nonzero;"/>
        </g>
    </g>
    <g transform="matrix(8.33333,0,0,8.33333,1508.22,856.499)">
        <g>
            <path d="M9.479,0.313C6.979,0.313 4.979,-0.464 3.479,-2.021C1.979,-3.589 1.229,-5.74 1.229,-8.479L1.229,-24.25C1.229,-27.635 1.901,-30.193 3.25,-31.917C4.609,-33.651 6.734,-34.521 9.625,-34.521C12.151,-34.521 14.188,-33.823 15.729,-32.437C17.271,-31.062 18.042,-29.073 18.042,-26.479L18.042,-20.583L11.229,-20.583L11.229,-25.646C11.229,-26.615 11.109,-27.292 10.875,-27.667C10.635,-28.042 10.219,-28.229 9.625,-28.229C9.026,-28.229 8.609,-28.01 8.375,-27.583C8.151,-27.167 8.042,-26.547 8.042,-25.729L8.042,-8.562C8.042,-7.656 8.172,-7 8.438,-6.583C8.698,-6.177 9.094,-5.979 9.625,-5.979C10.693,-5.979 11.229,-6.839 11.229,-8.562L11.229,-14.729L18.125,-14.729L18.125,-8.271C18.125,-2.547 15.24,0.313 9.479,0.313Z" style="fill:rgb(0,128,55);fill-rule:nonzero;"/>
        </g>
    </g>
    <g transform="matrix(8.33333,0,0,8.33333,1672.12,856.499)">
        <g>
            <path d="M9.625,0.313C6.526,0.313 4.281,-0.448 2.896,-1.979C1.521,-3.521 0.833,-6.005 0.833,-9.437L0.833,-12.771L7.563,-12.771L7.563,-8.521C7.563,-6.823 8.104,-5.979 9.188,-5.979C9.797,-5.979 10.219,-6.151 10.458,-6.5C10.708,-6.859 10.833,-7.464 10.833,-8.312C10.833,-9.437 10.698,-10.359 10.438,-11.083C10.172,-11.818 9.833,-12.427 9.417,-12.917C9,-13.401 8.26,-14.167 7.208,-15.208L4.25,-18.146C1.969,-20.38 0.833,-22.854 0.833,-25.562C0.833,-28.479 1.5,-30.698 2.833,-32.229C4.177,-33.755 6.146,-34.521 8.729,-34.521C11.797,-34.521 14.005,-33.698 15.354,-32.062C16.714,-30.437 17.396,-27.88 17.396,-24.396L10.438,-24.396L10.396,-26.75C10.396,-27.208 10.26,-27.568 10,-27.833C9.75,-28.094 9.401,-28.229 8.958,-28.229C8.427,-28.229 8.031,-28.083 7.771,-27.792C7.505,-27.5 7.375,-27.104 7.375,-26.604C7.375,-25.479 8.005,-24.318 9.271,-23.125L13.25,-19.312C14.177,-18.406 14.948,-17.547 15.563,-16.729C16.172,-15.922 16.667,-14.969 17.042,-13.875C17.417,-12.776 17.604,-11.469 17.604,-9.958C17.604,-6.583 16.984,-4.026 15.75,-2.292C14.51,-0.552 12.469,0.313 9.625,0.313Z" style="fill:rgb(0,128,55);fill-rule:nonzero;"/>
        </g>
    </g>
    <g transform="matrix(9.29451,9.29451,-9.29451,9.29451,1028.33,-4761.75)">
        <g transform="matrix(0.112589,1.38778e-17,-1.38778e-17,0.0995682,15.7658,56.7987)">
            <path d="M2005.07,2638.89L2091.91,2812.58L1918.23,2812.58L2005.07,2638.89Z" style="fill:rgb(0,128,55);fill-opacity:0;stroke:rgb(0,128,55);stroke-width:17.9px;"/>
        </g>
        <g transform="matrix(0.136591,1.38778e-17,-3.46945e-17,0.120794,-32.4036,-6.04418)">
            <path d="M2005.07,2638.89L2091.91,2812.58L1918.23,2812.58L2005.07,2638.89Z" style="fill:rgb(0,128,55);fill-opacity:0;stroke:rgb(0,128,55);stroke-width:9.83px;stroke-linejoin:miter;stroke-dasharray:0,9.83,0,9.83;"/>
        </g>
    </g>
</svg>
