<?xml version="1.0" encoding="UTF-8" standalone="no"?>
<!DOCTYPE svg PUBLIC "-//W3C//DTD SVG 1.1//EN" "http://www.w3.org/Graphics/SVG/1.1/DTD/svg11.dtd">
<svg width="100%" height="100%" viewBox="0 0 514 224" version="1.1" xmlns="http://www.w3.org/2000/svg" xmlns:xlink="http://www.w3.org/1999/xlink" xml:space="preserve" xmlns:serif="http://www.serif.com/" style="fill-rule:evenodd;clip-rule:evenodd;stroke-linejoin:round;stroke-miterlimit:2;">
    <rect id="Artboard1" x="0" y="0" width="513.569" height="223.608" style="fill:none;"/>
    <path d="M236.832,199.058C176.68,199.058 117.028,199.104 57.376,199.023C43.932,199.005 31.254,196.459 21.47,189.103C13.545,183.144 7.924,175.843 7.893,167.018C7.754,127.625 7.664,88.231 7.954,48.839C8.025,39.319 14.155,31.699 23.599,25.378C33.754,18.582 45.807,16.659 58.626,16.652C169.598,16.59 280.571,16.583 391.544,16.652C408.775,16.662 422.868,21.729 433.37,32.461C437.296,36.472 442.264,39.898 446.797,43.562C457.81,52.465 468.951,61.277 479.836,70.269C486.973,76.164 494.256,82.021 500.582,88.405C512.193,100.121 510.211,121.104 495.973,131.853C483.187,141.505 471.335,151.875 459.138,161.974C449.08,170.302 439.102,178.686 429.118,187.065C418.839,195.69 405.649,199.02 390.795,199.036C339.641,199.093 288.487,199.058 236.832,199.058ZM420.628,105.407C420.544,106.936 420.665,108.487 420.914,110.035C421.115,111.286 421.441,112.497 421.881,113.661C425.469,126.138 436.655,134.495 449.881,133.764C462.77,133.051 472.363,125.065 475.723,113.661C476.673,111.21 477.125,108.552 477.012,105.752C477.01,105.71 477.008,105.668 477.006,105.626C477.034,104.846 477.036,104.056 477.012,103.257C476.622,90.48 464.155,77.745 451.129,76.964C439.886,76.29 431.573,81.286 424.809,90.138C421.378,94.97 420.429,100.163 420.628,105.407Z"/>
    <g transform="matrix(1.19795,0,0,1.19795,-15.4188,9.97624)">
        <g transform="matrix(70.9544,0,0,70.9544,31.8207,108.996)">
            <path d="M0.041,-0.791L0.384,-0.791L0.384,-0.632L0.247,-0.632L0.247,-0.482L0.375,-0.482L0.375,-0.332L0.247,-0.332L0.247,-0.158L0.397,-0.158L0.397,-0L0.041,-0L0.041,-0.791Z" style="fill:rgb(252,255,0);fill-rule:nonzero;"/>
        </g>
        <g transform="matrix(70.9544,0,0,70.9544,61.3041,108.996)">
            <path d="M0.458,-0.791L0.386,-0.441L0.494,-0L0.304,-0C0.281,-0.079 0.26,-0.175 0.241,-0.288C0.236,-0.238 0.229,-0.185 0.22,-0.129L0.2,-0L0,-0L0.074,-0.441L0,-0.791L0.199,-0.791C0.202,-0.769 0.209,-0.732 0.22,-0.682C0.229,-0.643 0.236,-0.607 0.241,-0.575L0.285,-0.791L0.458,-0.791Z" style="fill:rgb(252,255,0);fill-rule:nonzero;"/>
        </g>
        <g transform="matrix(70.9544,0,0,70.9544,95.5341,108.996)">
            <path d="M0.531,-0.791L0.413,-0.434L0.542,-0L0.33,-0L0.247,-0.339L0.247,-0L0.041,-0L0.041,-0.791L0.247,-0.791L0.247,-0.483L0.338,-0.791L0.531,-0.791Z" style="fill:rgb(252,255,0);fill-rule:nonzero;"/>
        </g>
        <g transform="matrix(70.9544,0,0,70.9544,133.61,108.996)">
            <path d="M0.247,-0.791L0.247,-0.158L0.372,-0.158L0.372,-0L0.041,-0L0.041,-0.791L0.247,-0.791Z" style="fill:rgb(252,255,0);fill-rule:nonzero;"/>
        </g>
        <g transform="matrix(70.9544,0,0,70.9544,160.599,108.996)">
            <path d="M0.508,-0.791L0.508,-0.262C0.508,-0.202 0.506,-0.16 0.502,-0.136C0.499,-0.112 0.487,-0.087 0.468,-0.061C0.449,-0.036 0.423,-0.016 0.392,-0.003C0.36,0.01 0.323,0.017 0.281,0.017C0.234,0.017 0.192,0.009 0.156,-0.007C0.12,-0.022 0.093,-0.043 0.075,-0.068C0.057,-0.093 0.046,-0.119 0.043,-0.147C0.04,-0.175 0.038,-0.234 0.038,-0.323L0.038,-0.791L0.244,-0.791L0.244,-0.198C0.244,-0.163 0.246,-0.141 0.249,-0.132C0.253,-0.122 0.261,-0.117 0.272,-0.117C0.285,-0.117 0.293,-0.122 0.297,-0.133C0.301,-0.144 0.303,-0.169 0.303,-0.208L0.303,-0.791L0.508,-0.791Z" style="fill:rgb(252,255,0);fill-rule:nonzero;"/>
        </g>
        <g transform="matrix(70.9544,0,0,70.9544,199.402,108.996)">
            <path d="M0.385,-0.791L0.385,-0.632L0.231,-0.158L0.385,-0.158L0.385,-0L0.006,-0L0.006,-0.115L0.164,-0.632L0.024,-0.632L0.024,-0.791L0.385,-0.791Z" style="fill:rgb(252,255,0);fill-rule:nonzero;"/>
        </g>
        <g transform="matrix(70.9544,0,0,70.9544,227.569,108.996)">
            <rect x="0.041" y="-0.791" width="0.206" height="0.791" style="fill:rgb(252,255,0);fill-rule:nonzero;"/>
        </g>
        <g transform="matrix(70.9544,0,0,70.9544,248.01,108.996)">
            <path d="M0.529,-0.791L0.425,-0L0.113,-0L-0.006,-0.791L0.211,-0.791C0.236,-0.573 0.254,-0.389 0.265,-0.238C0.275,-0.39 0.287,-0.525 0.298,-0.644L0.313,-0.791L0.529,-0.791Z" style="fill:rgb(252,255,0);fill-rule:nonzero;"/>
        </g>
        <g transform="matrix(70.9544,0,0,70.9544,285.15,108.996)">
            <path d="M0.5,-0.791L0.5,-0L0.32,-0L0.213,-0.359L0.213,-0L0.041,-0L0.041,-0.791L0.213,-0.791L0.328,-0.435L0.328,-0.791L0.5,-0.791Z" style="fill:rgb(252,255,0);fill-rule:nonzero;"/>
        </g>
        <g transform="matrix(70.9544,0,0,70.9544,323.572,108.996)">
            <path d="M0.041,-0.791L0.384,-0.791L0.384,-0.632L0.247,-0.632L0.247,-0.482L0.375,-0.482L0.375,-0.332L0.247,-0.332L0.247,-0.158L0.397,-0.158L0.397,-0L0.041,-0L0.041,-0.791ZM0.218,-0.889L0.272,-0.953L0.405,-0.953L0.287,-0.815L0.149,-0.815L0.024,-0.953L0.161,-0.953L0.218,-0.889Z" style="fill:rgb(252,255,0);fill-rule:nonzero;"/>
        </g>
    </g>
</svg>
