<?xml version="1.0" encoding="UTF-8" standalone="no"?>
<!DOCTYPE svg PUBLIC "-//W3C//DTD SVG 1.1//EN" "http://www.w3.org/Graphics/SVG/1.1/DTD/svg11.dtd">
<svg width="100%" height="100%" viewBox="0 0 514 224" version="1.1" xmlns="http://www.w3.org/2000/svg" xmlns:xlink="http://www.w3.org/1999/xlink" xml:space="preserve" xmlns:serif="http://www.serif.com/" style="fill-rule:evenodd;clip-rule:evenodd;stroke-linejoin:round;stroke-miterlimit:2;">
    <g transform="matrix(1.0941,0,0,1.26568,-1.72054,-19.7703)">
        <g id="Exkluzivne">
            <g>
                <g transform="matrix(1.07807,0,0,1.01623,-2.66406,-12.5634)">
                    <path d="M431.402,89.926l0,47.738c0,13.174 -11.663,23.869 -26.028,23.869l-366.275,0c-14.365,0 -26.028,-10.695 -26.028,-23.869l0,-47.738c0,-13.174 11.663,-23.869 26.028,-23.869l366.275,-0c14.365,-0 26.028,10.695 26.028,23.869Z"/>
                </g>
                <g transform="matrix(1.19795,0,0,1.03555,-0.0990202,18.4839)">
                    <g transform="matrix(70.9544,0,0,70.9544,33.6318,106.12)">
                        <path d="M0.077,-0.7l0.448,0l0,0.124l-0.317,0l0,0.149l0.246,0l0,0.124l-0.246,0l0,0.179l0.327,0l0,0.124l-0.458,0l-0,-0.7Z" style="fill:#ffbf66;fill-rule:nonzero;"/>
                    </g>
                    <g transform="matrix(70.9544,0,0,70.9544,73.9339,106.12)">
                        <path d="M0.176,-0.25l-0.166,-0.25l0.148,0l0.091,0.145l0.084,-0.145l0.148,0l-0.166,0.25l0.166,0.25l-0.148,-0l-0.091,-0.145l-0.084,0.145l-0.148,-0l0.166,-0.25Z" style="fill:#ffbf66;fill-rule:nonzero;"/>
                    </g>
                    <g transform="matrix(70.9544,0,0,70.9544,108.773,106.12)">
                        <path d="M0.057,-0.75l0.124,0l0,0.455l0.155,-0.205l0.14,0l-0.182,0.24l0.186,0.26l-0.14,-0l-0.159,-0.222l0,0.222l-0.124,-0l0,-0.75Z" style="fill:#ffbf66;fill-rule:nonzero;"/>
                    </g>
                    <g transform="matrix(70.9544,0,0,70.9544,143.185,106.12)">
                        <path d="M0.186,0.01c-0.043,0 -0.075,-0.012 -0.096,-0.037c-0.021,-0.024 -0.032,-0.055 -0.032,-0.094l0,-0.629l0.124,0l0,0.578c0,0.027 0.002,0.046 0.005,0.057c0.003,0.011 0.008,0.017 0.016,0.02c0.007,0.002 0.02,0.003 0.039,0.003l-0.011,0.102l-0.045,0Z" style="fill:#ffbf66;fill-rule:nonzero;"/>
                    </g>
                    <g transform="matrix(70.9544,0,0,70.9544,161.492,106.12)">
                        <path d="M0.494,-0.5l0,0.5l-0.116,-0l-0.002,-0.03c-0.015,0.011 -0.033,0.021 -0.053,0.028c-0.02,0.008 -0.039,0.012 -0.058,0.012c-0.074,-0 -0.128,-0.021 -0.162,-0.064c-0.033,-0.043 -0.05,-0.102 -0.05,-0.177l-0,-0.269l0.124,0l0,0.269c-0,0.047 0.008,0.081 0.024,0.103c0.015,0.023 0.04,0.034 0.075,0.034c0.039,-0 0.07,-0.014 0.094,-0.042l0,-0.364l0.124,0Z" style="fill:#ffbf66;fill-rule:nonzero;"/>
                    </g>
                    <g transform="matrix(70.9544,0,0,70.9544,200.658,106.12)">
                        <path d="M0.457,-0.105l0,0.105l-0.439,-0l0.243,-0.395l-0.22,0l-0,-0.105l0.414,0l-0.243,0.395l0.245,-0Z" style="fill:#ffbf66;fill-rule:nonzero;"/>
                    </g>
                    <g transform="matrix(70.9544,0,0,70.9544,234.149,106.12)">
                        <path d="M0.058,-0.5l0.124,0l0,0.5l-0.124,-0l0,-0.5Zm-0.036,-0.149l0.197,-0.112l0,0.115l-0.197,0.076l0,-0.079Z" style="fill:#ffbf66;fill-rule:nonzero;"/>
                    </g>
                    <g transform="matrix(70.9544,0,0,70.9544,251.178,106.12)">
                        <path d="M0.003,-0.5l0.122,0l0.123,0.346l0.123,-0.346l0.122,0l-0.192,0.5l-0.106,-0l-0.192,-0.5Z" style="fill:#ffbf66;fill-rule:nonzero;"/>
                    </g>
                    <g transform="matrix(70.9544,0,0,70.9544,286.371,106.12)">
                        <path d="M0.31,-0.508c0.062,0 0.109,0.021 0.141,0.062c0.032,0.041 0.048,0.097 0.048,0.167l0,0.279l-0.124,-0l0,-0.269c0,-0.047 -0.008,-0.081 -0.023,-0.103c-0.016,-0.023 -0.041,-0.034 -0.076,-0.034c-0.038,0 -0.069,0.014 -0.094,0.043l0,0.363l-0.124,0l0,-0.5l0.116,0l0.002,0.035c0.042,-0.029 0.087,-0.043 0.134,-0.043Z" style="fill:#ffbf66;fill-rule:nonzero;"/>
                    </g>
                    <g transform="matrix(70.9544,0,0,70.9544,325.538,106.12)">
                        <path d="M0.299,0.01c-0.058,0 -0.107,-0.012 -0.149,-0.036c-0.04,-0.023 -0.071,-0.055 -0.092,-0.095c-0.02,-0.039 -0.03,-0.083 -0.03,-0.132c0,-0.047 0.01,-0.089 0.029,-0.128c0.019,-0.039 0.047,-0.07 0.084,-0.093c0.037,-0.023 0.08,-0.034 0.131,-0.034c0.047,0 0.086,0.01 0.118,0.029c0.033,0.019 0.057,0.045 0.074,0.078c0.016,0.033 0.024,0.069 0.024,0.11c-0,0.02 -0.003,0.043 -0.008,0.068l-0.323,-0c0.007,0.044 0.024,0.077 0.052,0.098c0.028,0.022 0.062,0.033 0.101,0.033c0.054,-0 0.104,-0.014 0.15,-0.041l0.006,0.105c-0.021,0.011 -0.046,0.02 -0.075,0.027c-0.028,0.007 -0.059,0.011 -0.092,0.011Zm0.063,-0.317c-0,-0.026 -0.007,-0.049 -0.022,-0.069c-0.015,-0.02 -0.037,-0.03 -0.068,-0.03c-0.031,0 -0.055,0.009 -0.074,0.027c-0.019,0.018 -0.031,0.042 -0.038,0.072l0.202,0Zm-0.213,-0.364l0,-0.079l0.132,0.083l0.132,-0.083l0,0.079l-0.132,0.112l-0.132,-0.112Z" style="fill:#ffbf66;fill-rule:nonzero;"/>
                    </g>
                </g>
            </g>
        </g>
    </g>
</svg>
