<?xml version="1.0" encoding="UTF-8" standalone="no"?>
<!DOCTYPE svg PUBLIC "-//W3C//DTD SVG 1.1//EN" "http://www.w3.org/Graphics/SVG/1.1/DTD/svg11.dtd">
<svg width="100%" height="100%" viewBox="0 0 514 224" version="1.1" xmlns="http://www.w3.org/2000/svg" xmlns:xlink="http://www.w3.org/1999/xlink" xml:space="preserve" xmlns:serif="http://www.serif.com/" style="fill-rule:evenodd;clip-rule:evenodd;stroke-linejoin:round;stroke-miterlimit:2;">
    <g id="Exkluzivne">
        <path d="M236.832,199.058C176.68,199.058 117.028,199.104 57.376,199.023C43.932,199.005 31.254,196.459 21.47,189.103C13.545,183.144 7.924,175.843 7.893,167.018C7.754,127.625 7.664,88.231 7.954,48.839C8.025,39.319 14.155,31.699 23.599,25.378C33.754,18.582 45.807,16.659 58.626,16.652C169.598,16.59 280.571,16.583 391.544,16.652C408.775,16.662 422.868,21.729 433.37,32.461C437.296,36.472 442.264,39.898 446.797,43.562C457.81,52.465 468.951,61.277 479.836,70.269C486.973,76.164 494.256,82.021 500.582,88.405C512.193,100.121 510.211,121.104 495.973,131.853C483.187,141.505 471.335,151.875 459.138,161.974C449.08,170.302 439.102,178.686 429.118,187.065C418.839,195.69 405.649,199.02 390.795,199.036C339.641,199.093 288.487,199.058 236.832,199.058ZM420.628,105.407C420.544,106.936 420.665,108.487 420.914,110.035C421.115,111.286 421.441,112.497 421.881,113.661C425.469,126.138 436.655,134.495 449.881,133.764C462.77,133.051 472.363,125.065 475.723,113.661C476.673,111.21 477.125,108.552 477.012,105.752C477.01,105.71 477.008,105.668 477.006,105.626C477.034,104.846 477.036,104.056 477.012,103.257C476.622,90.48 464.155,77.745 451.129,76.964C439.886,76.29 431.573,81.286 424.809,90.138C421.378,94.97 420.429,100.163 420.628,105.407Z" style="fill:rgb(255,0,0);"/>
        <g transform="matrix(1.19795,0,0,1.19795,-16.639,3.58304)">
            <g transform="matrix(85.98,0,0,85.98,41.7422,120.874)">
                <path d="M0.5,-0.791L0.5,-0L0.32,-0L0.213,-0.359L0.213,-0L0.041,-0L0.041,-0.791L0.213,-0.791L0.328,-0.435L0.328,-0.791L0.5,-0.791Z" style="fill:white;fill-rule:nonzero;"/>
            </g>
            <g transform="matrix(85.98,0,0,85.98,88.3007,120.874)">
                <path d="M0.511,-0.328C0.511,-0.248 0.509,-0.192 0.505,-0.159C0.501,-0.126 0.49,-0.096 0.47,-0.068C0.45,-0.041 0.424,-0.02 0.39,-0.005C0.357,0.009 0.318,0.017 0.273,0.017C0.231,0.017 0.193,0.01 0.159,-0.004C0.125,-0.018 0.098,-0.039 0.078,-0.066C0.057,-0.094 0.045,-0.124 0.041,-0.157C0.037,-0.189 0.035,-0.246 0.035,-0.328L0.035,-0.463C0.035,-0.542 0.037,-0.599 0.041,-0.632C0.045,-0.665 0.056,-0.695 0.076,-0.722C0.096,-0.75 0.122,-0.771 0.156,-0.785C0.189,-0.8 0.228,-0.807 0.273,-0.807C0.315,-0.807 0.353,-0.8 0.387,-0.786C0.421,-0.773 0.448,-0.752 0.468,-0.724C0.489,-0.696 0.501,-0.666 0.505,-0.634C0.509,-0.601 0.511,-0.544 0.511,-0.463L0.511,-0.328ZM0.305,-0.587C0.305,-0.624 0.303,-0.648 0.299,-0.658C0.295,-0.668 0.287,-0.673 0.274,-0.673C0.263,-0.673 0.255,-0.669 0.249,-0.661C0.244,-0.653 0.241,-0.628 0.241,-0.587L0.241,-0.218C0.241,-0.172 0.243,-0.144 0.246,-0.133C0.25,-0.123 0.259,-0.117 0.272,-0.117C0.286,-0.117 0.295,-0.123 0.299,-0.136C0.303,-0.148 0.305,-0.178 0.305,-0.224L0.305,-0.587Z" style="fill:white;fill-rule:nonzero;"/>
            </g>
            <g transform="matrix(85.98,0,0,85.98,135.279,120.874)">
                <path d="M0.529,-0.791L0.425,-0L0.113,-0L-0.006,-0.791L0.211,-0.791C0.236,-0.573 0.254,-0.389 0.265,-0.238C0.275,-0.39 0.287,-0.525 0.298,-0.644L0.313,-0.791L0.529,-0.791Z" style="fill:white;fill-rule:nonzero;"/>
            </g>
            <g transform="matrix(85.98,0,0,85.98,180.284,120.874)">
                <rect x="0.041" y="-0.791" width="0.206" height="0.791" style="fill:white;fill-rule:nonzero;"/>
            </g>
            <g transform="matrix(85.98,0,0,85.98,205.054,120.874)">
                <path d="M0.5,-0.791L0.5,-0L0.32,-0L0.213,-0.359L0.213,-0L0.041,-0L0.041,-0.791L0.213,-0.791L0.328,-0.435L0.328,-0.791L0.5,-0.791Z" style="fill:white;fill-rule:nonzero;"/>
            </g>
            <g transform="matrix(85.98,0,0,85.98,251.612,120.874)">
                <path d="M0.531,-0.791L0.413,-0.434L0.542,-0L0.33,-0L0.247,-0.339L0.247,-0L0.041,-0L0.041,-0.791L0.247,-0.791L0.247,-0.483L0.338,-0.791L0.531,-0.791Z" style="fill:white;fill-rule:nonzero;"/>
            </g>
            <g transform="matrix(85.98,0,0,85.98,299.472,120.874)">
                <path d="M0.396,-0.791L0.514,-0L0.303,-0L0.293,-0.142L0.219,-0.142L0.207,-0L-0.006,-0L0.099,-0.791L0.396,-0.791ZM0.287,-0.282C0.277,-0.372 0.266,-0.482 0.256,-0.614C0.235,-0.463 0.222,-0.352 0.217,-0.282L0.287,-0.282Z" style="fill:white;fill-rule:nonzero;"/>
            </g>
        </g>
    </g>
</svg>
