<svg width="100%" height="100%" viewBox="0 0 4167 600" version="1.1" xmlns="http://www.w3.org/2000/svg" xmlns:xlink="http://www.w3.org/1999/xlink" xml:space="preserve" xmlns:serif="http://www.serif.com/" style="fill-rule:evenodd;clip-rule:evenodd;stroke-linecap:round;stroke-linejoin:round;stroke-miterlimit:1.5;" id="logo">
    <g>
        <g>
            <g>
                <path d="M106.704,490.977l-39.43,-367.864l71.915,-0l20.611,232.099l20.387,-232.099l68.554,-0l19.715,232.099l19.715,-232.099l72.811,-0l-40.326,367.864l-88.269,-0l-18.371,-177.211l-17.474,177.211l-89.838,-0Z" style="fill:#25272d;fill-rule:nonzero;"/>
            </g>
        </g>
    </g>
    <g>
        <g>
            <g>
                <path d="M381.565,490.977l35.397,-367.864l124.563,-0l35.173,367.864l-69.674,-0l-5.153,-59.593l-44.583,-0l-4.257,59.593l-71.466,-0Zm81.324,-118.066l33.381,-0l-16.354,-187.293l-3.361,0l-13.666,187.293Z" style="fill:#25272d;fill-rule:nonzero;"/>
            </g>
        </g>
    </g>
    <g>
        <g>
            <g>
                <path d="M639.22,490.977l0,-297.07l-43.686,0l-0,-70.794l161.08,-0l-0,70.794l-43.687,0l0,297.07l-73.707,-0Z" style="fill:#25272d;fill-rule:nonzero;"/>
            </g>
        </g>
    </g>
    <g>
        <g>
            <g>
                <path d="M871.318,494.337c-26.884,0 -48.391,-8.345 -64.522,-25.092c-16.13,-16.858 -24.195,-39.99 -24.195,-69.45l-0,-169.594c-0,-36.406 7.225,-63.906 21.731,-82.445c14.618,-18.65 37.47,-28.004 68.554,-28.004c27.164,0 49.064,7.505 65.642,22.404c16.579,14.786 24.868,36.181 24.868,64.073l-0,63.402l-73.259,-0l-0,-54.44c-0,-10.418 -1.288,-17.699 -3.809,-21.732c-2.576,-4.032 -7.057,-6.049 -13.442,-6.049c-6.441,0 -10.921,2.353 -13.442,6.946c-2.408,4.48 -3.584,11.145 -3.584,19.939l-0,184.604c-0,9.745 1.4,16.802 4.256,21.283c2.801,4.368 7.057,6.497 12.77,6.497c11.482,-0 17.251,-9.242 17.251,-27.78l-0,-66.314l74.155,-0l0,69.45c0,61.553 -31.029,92.302 -92.974,92.302Z" style="fill:#25272d;fill-rule:nonzero;"/>
            </g>
        </g>
    </g>
    <g>
        <g>
            <g>
                <path d="M997.237,490.977l-0,-367.864l73.035,-0l-0,131.508l34.725,-0l0,-131.508l73.259,-0l0,367.864l-73.259,-0l0,-166.906l-34.725,0l-0,166.906l-73.035,-0Z" style="fill:#25272d;fill-rule:nonzero;"/>
            </g>
        </g>
    </g>
    <g>
        <g>
            <g>
                <path d="M1219.44,123.113l101.487,-0c26.1,-0 45.759,7.337 58.921,21.955c13.106,14.506 19.827,36.014 20.163,64.522l0.896,172.282c0.28,36.181 -5.992,63.402 -18.818,81.772c-12.882,18.259 -34.166,27.333 -63.85,27.333l-98.799,-0l-0,-367.864Zm86.925,302.894c13.274,-0 19.939,-6.553 19.939,-19.715l0,-189.757c0,-8.177 -0.672,-14.394 -2.016,-18.595c-1.232,-4.145 -3.529,-6.945 -6.945,-8.289c-3.473,-1.456 -8.682,-2.241 -15.683,-2.241l-8.289,0l0,238.597l12.994,-0Z" style="fill:#25272d;fill-rule:nonzero;"/>
            </g>
        </g>
    </g>
    <g>
        <g>
            <g>
                <path d="M1526.67,494.337c-29.572,0 -52.143,-9.017 -67.658,-27.108c-15.402,-18.035 -23.075,-43.519 -23.075,-76.396l-0,-175.194c-0,-31.645 7.673,-55.561 23.075,-71.691c15.515,-16.131 38.086,-24.196 67.658,-24.196c29.685,0 52.256,8.065 67.659,24.196c15.514,16.13 23.299,40.046 23.299,71.691l0,175.194c0,33.157 -7.785,58.697 -23.299,76.62c-15.403,17.923 -37.974,26.884 -67.659,26.884Zm0,-67.658c6.553,-0 10.978,-2.801 13.218,-8.513c2.353,-5.657 3.585,-13.667 3.585,-23.972l0,-179.899c0,-7.898 -1.12,-14.339 -3.36,-19.267c-2.129,-5.041 -6.441,-7.618 -12.994,-7.618c-12.266,0 -18.371,9.298 -18.371,27.781l-0,179.451c-0,10.642 1.232,18.595 3.808,23.972c2.689,5.376 7.393,8.065 14.114,8.065Z" style="fill:#25272d;fill-rule:nonzero;"/>
            </g>
        </g>
    </g>
    <g>
        <g>
            <g>
                <path d="M1731.43,494.337c-26.604,0 -46.375,-9.297 -59.369,-28.004c-12.994,-18.651 -19.491,-46.935 -19.491,-84.909l0,-158.392c0,-34.053 7.505,-59.705 22.628,-77.068c15.234,-17.474 37.749,-26.212 67.658,-26.212c24.307,0 43.238,4.873 56.68,14.562c13.442,9.746 22.684,23.916 27.781,42.567c5.04,18.539 7.617,42.286 7.617,71.243l-71.915,-0l-0,-32.933c-0,-8.794 -1.232,-15.571 -3.585,-20.387c-2.408,-4.929 -6.721,-7.394 -12.994,-7.394c-14.058,0 -21.059,9.13 -21.059,27.333l0,178.107c0,11.201 1.4,19.659 4.257,25.316c2.8,5.712 7.841,8.513 15.01,8.513c7.169,-0 12.154,-2.801 15.01,-8.513c2.801,-5.657 4.257,-14.115 4.257,-25.316l-0,-52.648l-19.715,-0l-0,-63.178l90.062,0l-0,213.953l-29.573,-0l-12.546,-30.917c-13.162,22.851 -33.381,34.277 -60.713,34.277Z" style="fill:#25272d;fill-rule:nonzero;"/>
            </g>
        </g>
    </g>
    <g>
        <g>
            <g>
                <path d="M2405.74,490.977l35.397,-367.864l124.563,-0l35.174,367.864l-69.675,-0l-5.153,-59.593l-44.583,-0l-4.256,59.593l-71.467,-0Zm81.324,-118.066l33.381,-0l-16.354,-187.293l-3.361,0l-13.666,187.293Z" style="fill:#008037;fill-rule:nonzero;"/>
            </g>
        </g>
    </g>
    <g>
        <g>
            <g>
                <path d="M2631.81,490.977l-0,-367.864l75.723,-0l33.829,176.09l0,-176.09l71.019,-0l0,367.864l-71.915,-0l-36.741,-184.156l-0,184.156l-71.915,-0Z" style="fill:#008037;fill-rule:nonzero;"/>
            </g>
        </g>
    </g>
    <g>
        <g>
            <g>
                <path d="M2843.72,490.977l35.397,-367.864l124.563,-0l35.174,367.864l-69.675,-0l-5.153,-59.593l-44.582,-0l-4.257,59.593l-71.467,-0Zm81.324,-118.066l33.381,-0l-16.354,-187.293l-3.361,0l-13.666,187.293Z" style="fill:#008037;fill-rule:nonzero;"/>
            </g>
        </g>
    </g>
    <g>
        <g>
            <g>
                <path d="M3069.79,490.977l-0,-367.864l73.483,-0l-0,305.358l75.948,0l-0,62.506l-149.431,-0Z" style="fill:#008037;fill-rule:nonzero;"/>
            </g>
        </g>
    </g>
    <g>
        <g>
            <g>
                <path d="M3292.68,490.977l0,-121.203l-58.473,-246.661l72.587,-0l20.612,124.787l20.611,-124.787l72.811,-0l-58.697,246.661l-0,121.203l-69.451,-0Z" style="fill:#008037;fill-rule:nonzero;"/>
            </g>
        </g>
    </g>
    <g>
        <g>
            <g>
                <path d="M3479.43,490.977l-0,-297.07l-43.687,0l-0,-70.794l161.08,-0l0,70.794l-43.686,0l-0,297.07l-73.707,-0Z" style="fill:#008037;fill-rule:nonzero;"/>
            </g>
        </g>
    </g>
    <g>
        <g>
            <g>
                <rect x="3622.36" y="123.113" width="71.243" height="367.864" style="fill:#008037;fill-rule:nonzero;"/>
            </g>
        </g>
    </g>
    <g>
        <g>
            <g>
                <path d="M3817.28,494.337c-26.884,0 -48.391,-8.345 -64.522,-25.092c-16.13,-16.858 -24.195,-39.99 -24.195,-69.45l-0,-169.594c-0,-36.406 7.225,-63.906 21.731,-82.445c14.618,-18.65 37.47,-28.004 68.555,-28.004c27.164,0 49.063,7.505 65.641,22.404c16.579,14.786 24.868,36.181 24.868,64.073l0,63.402l-73.259,-0l0,-54.44c0,-10.418 -1.288,-17.699 -3.808,-21.732c-2.577,-4.032 -7.058,-6.049 -13.442,-6.049c-6.441,0 -10.922,2.353 -13.443,6.946c-2.408,4.48 -3.584,11.145 -3.584,19.939l-0,184.604c-0,9.745 1.4,16.802 4.257,21.283c2.8,4.368 7.057,6.497 12.77,6.497c11.481,-0 17.25,-9.242 17.25,-27.78l0,-66.314l74.155,-0l0,69.45c0,61.553 -31.028,92.302 -92.974,92.302Z" style="fill:#008037;fill-rule:nonzero;"/>
            </g>
        </g>
    </g>
    <g>
        <g>
            <g>
                <path d="M4030.34,494.337c-33.325,0 -57.464,-8.177 -72.363,-24.644c-14.786,-16.578 -22.179,-43.294 -22.179,-80.204l-0,-35.845l72.363,-0l-0,45.703c-0,18.258 5.825,27.332 17.475,27.332c6.553,-0 11.089,-1.848 13.666,-5.601c2.688,-3.865 4.032,-10.362 4.032,-19.491c0,-12.098 -1.456,-22.011 -4.256,-29.797c-2.857,-7.897 -6.497,-14.45 -10.978,-19.715c-4.481,-5.208 -12.434,-13.442 -23.748,-24.643l-31.812,-31.589c-24.532,-24.028 -36.742,-50.632 -36.742,-79.756c-0,-31.365 7.169,-55.225 21.507,-71.691c14.45,-16.411 35.622,-24.644 63.402,-24.644c32.989,0 56.736,8.85 71.243,26.436c14.618,17.475 21.955,44.975 21.955,82.445l-74.827,-0l-0.448,-25.316c-0,-4.929 -1.457,-8.793 -4.257,-11.65c-2.688,-2.8 -6.441,-4.257 -11.202,-4.257c-5.713,0 -9.969,1.569 -12.77,4.705c-2.856,3.137 -4.256,7.393 -4.256,12.77c-0,12.098 6.777,24.588 20.387,37.414l42.79,40.998c9.97,9.746 18.259,18.987 24.868,27.78c6.553,8.682 11.874,18.931 15.906,30.693c4.033,11.818 6.049,25.876 6.049,42.118c0,36.294 -6.665,63.794 -19.939,82.445c-13.33,18.707 -35.285,28.004 -65.866,28.004Z" style="fill:#008037;fill-rule:nonzero;"/>
            </g>
        </g>
    </g>
    <g>
        <g>
            <path d="M2185.52,235.297l-57.153,205.85l-148.698,-148.698l205.851,-57.152Z" style="fill:#008037;fill-opacity:0;stroke:#008037;stroke-width:21.51px;"/>
            <path d="M2237.11,183.04l-69.336,249.734l-180.398,-180.398l249.734,-69.336Z" style="fill:#008037;fill-opacity:0;stroke:#008037;stroke-width:16.13px;stroke-linejoin:miter;stroke-dasharray:0,16.13,0,16.13;"/>
        </g>
    </g>
</svg>
