<svg xmlns="http://www.w3.org/2000/svg" width="44" height="44" fill="none" xmlns:v="https://vecta.io/nano"><path d="M19.555 24.445l9.167-9.167-9.167 9.167zm15.669 13.059c-1.011 0-1.833-.823-1.833-1.833s.823-1.833 1.833-1.833 1.833.823 1.833 1.833-.823 1.833-1.833 1.833zm0-2.444a.611.611 0 1 0 0 1.222.611.611 0 1 0 0-1.222zM9.969 5.729l1.728-1.728.864.864-1.729 1.728-.864-.864zM5 10.697l1.728-1.729.864.864-1.728 1.728L5 10.697zm.219-5.833L6.083 4l1.728 1.728-.864.864-1.728-1.728z" fill="#fff"/><g clip-path="url(#A)"><path d="M32.46 17.108c1.34 2.311 2.048 4.952 2.048 7.638a15.15 15.15 0 0 1-4.468 10.786C27.159 38.413 23.328 40 19.254 40a15.15 15.15 0 0 1-10.786-4.468A15.15 15.15 0 0 1 4 24.746 15.15 15.15 0 0 1 8.468 13.96c2.881-2.881 6.712-4.468 10.786-4.468 2.685 0 5.326.708 7.638 2.048.269.156.36.5.205.769s-.5.36-.769.205a14.12 14.12 0 0 0-7.074-1.896c-7.791 0-14.129 6.338-14.129 14.129s6.338 14.129 14.129 14.129 14.129-6.338 14.129-14.129a14.12 14.12 0 0 0-1.896-7.073c-.156-.269-.064-.613.205-.769s.613-.064.769.204zm7.376-5.933l-4.773 4.773a.56.56 0 0 1-.543.146l-4.588-1.229-10.279 10.279a.56.56 0 0 1-.796 0 .56.56 0 0 1 0-.795l10.279-10.279-1.229-4.588c-.052-.194.003-.401.146-.543l4.773-4.773c.142-.142.349-.198.543-.146a.56.56 0 0 1 .398.398l1.229 4.588 4.588 1.229c.194.052.346.204.398.398s-.003.401-.146.543zm-1.484-.107l-3.961-1.061c-.194-.052-.346-.204-.398-.398l-1.061-3.961-3.855 3.855 1.145 4.274 4.275 1.145 3.855-3.855zm-19.097 5.798a7.81 7.81 0 0 1 3.351.746c.281.132.616.012.749-.269s.012-.616-.269-.748c-1.203-.566-2.492-.854-3.83-.854-4.965 0-9.004 4.039-9.004 9.004s4.039 9.004 9.004 9.004 9.004-4.039 9.004-9.004c0-1.338-.287-2.627-.854-3.83-.132-.281-.467-.402-.748-.27s-.402.467-.269.749a7.81 7.81 0 0 1 .746 3.351 7.89 7.89 0 0 1-7.879 7.879 7.89 7.89 0 0 1-7.879-7.879 7.89 7.89 0 0 1 7.879-7.879z" fill="#fff"/></g><defs><clipPath id="A"><path fill="#fff" transform="translate(4 4)" d="M0 0h36v36H0z"/></clipPath></defs></svg>