<svg xmlns="http://www.w3.org/2000/svg" width="44" height="44" fill="#fff" xmlns:v="https://vecta.io/nano"><path d="M36.813 8.451l-.172-2.438 1.219-.086.172 2.438-1.219.086zm3.265 2.834l-.086-1.219 2.438-.172.086 1.219-2.438.172zM22.563 37c-.153 0-.297-.072-.389-.195L6.096 15.218a.48.48 0 0 1-.044-.507c.083-.164.25-.267.433-.267h32.007c.183 0 .35.103.433.267a.48.48 0 0 1-.043.506L22.953 36.803c-.091.123-.236.197-.389.197zM7.451 15.414l15.11 20.287 14.971-20.287H7.451z"/><path d="M22.527 37c-.209 0-.395-.134-.461-.333L14.962 15.08c-.049-.148-.023-.31.068-.436s.237-.201.393-.201h14.143c.155 0 .301.074.392.2s.117.287.069.435l-7.038 21.586c-.065.199-.251.334-.46.335zm-6.434-21.586l6.432 19.544 6.372-19.544H16.093z"/><path d="M38.492 15.414H6.485c-.192 0-.365-.113-.443-.288s-.046-.379.083-.522l6.699-7.444c.092-.102.223-.161.361-.161h18.609c.137 0 .269.058.361.161l6.699 7.444c.128.142.16.347.083.522s-.252.288-.443.288zm-30.918-.97h29.83L31.577 7.97H13.4l-5.826 6.474z"/><path d="M22.857 15.414c-.104 0-.208-.033-.296-.101l-9.677-7.444c-.212-.163-.252-.468-.089-.68s.468-.252.68-.089l9.369 7.207 8.634-7.195c.206-.172.512-.144.683.062s.144.512-.062.683l-8.932 7.444c-.09.075-.2.112-.31.112z"/></svg>