<svg xmlns="http://www.w3.org/2000/svg" width="44" height="44" fill="#fff" xmlns:v="https://vecta.io/nano"><path d="M34.224 37.278c-1.011 0-1.833-.823-1.833-1.833s.823-1.833 1.833-1.833 1.833.823 1.833 1.833-.823 1.833-1.833 1.833zm0-2.444a.611.611 0 1 0 0 1.222.611.611 0 1 0 0-1.222zM10.969 6.504l1.728-1.728.864.864-1.729 1.728-.864-.864zM6 11.472l1.728-1.729.864.864-1.728 1.729L6 11.472zm.211-5.833l.864-.864 1.728 1.728-.864.864-1.728-1.728zm13.553 27.105a.49.49 0 0 1-.158-.026c-1.953-.622-3.728-1.702-5.178-3.152a12.82 12.82 0 0 1-3.152-5.178c-.025-.073-.033-.15-.022-.226s.039-.149.084-.211l7.234-10.322c4.622-5.998 12.072-9.208 19.946-8.602.116.009.225.059.307.141s.132.191.141.307c.605 7.873-2.604 15.324-8.584 19.933l-.018.013-10.322 7.233a.48.48 0 0 1-.279.09zm-7.485-8.439a11.84 11.84 0 0 0 7.411 7.411l10.108-7.084c5.608-4.326 8.664-11.276 8.228-18.662-7.395-.438-14.344 2.623-18.669 8.236L12.28 24.305z"/><path d="M37.342 15.331a.56.56 0 0 1-.092-.008c-2.123-.405-4.074-1.44-5.599-2.972-1.531-1.525-2.567-3.476-2.972-5.598-.024-.127.003-.258.076-.365a.49.49 0 0 1 .311-.205.48.48 0 0 1 .365.076c.107.073.18.184.204.311a9.76 9.76 0 0 0 2.704 5.093c1.387 1.393 3.162 2.335 5.093 2.703.119.023.225.089.297.186a.49.49 0 0 1-.061.651c-.089.082-.206.127-.327.127zM26.23 21.585a3.81 3.81 0 0 1-1.454-7.33 3.81 3.81 0 0 1 4.148 6.215 3.8 3.8 0 0 1-2.695 1.115zm0-6.648a2.84 2.84 0 0 0-1.088 5.462 2.84 2.84 0 0 0 3.094-4.629 2.82 2.82 0 0 0-.92-.617c-.344-.143-.714-.216-1.087-.215zm-2.634 24.071h-.029a.48.48 0 0 1-.221-.069c-.067-.041-.124-.096-.164-.163l-3.828-6.264a.49.49 0 0 1-.058-.368c.03-.125.109-.234.219-.301a.49.49 0 0 1 .368-.058c.126.03.234.109.301.219l3.463 5.667 2.622-3.32a7.06 7.06 0 0 0 1.452-5.254l-.32-2.462c-.009-.064-.006-.129.01-.192s.044-.121.083-.173.088-.095.144-.127a.51.51 0 0 1 .182-.062c.064-.009.129-.004.191.013a.49.49 0 0 1 .296.232c.032.057.052.118.059.183l.32 2.462a8.04 8.04 0 0 1-1.654 5.984l-3.055 3.869c-.046.057-.103.103-.169.135s-.138.048-.211.048zM11.742 24.716c-.089 0-.177-.024-.254-.071l-6.263-3.828c-.067-.041-.123-.097-.163-.164s-.064-.143-.069-.221.009-.156.041-.228a.49.49 0 0 1 .142-.183l3.869-3.055a8.04 8.04 0 0 1 5.984-1.654l2.462.32a.48.48 0 0 1 .183.059.49.49 0 0 1 .146.125c.04.051.069.109.086.171s.022.127.013.191a.49.49 0 0 1-.062.182.5.5 0 0 1-.127.144.48.48 0 0 1-.173.083c-.063.016-.128.019-.192.01l-2.462-.32a7.07 7.07 0 0 0-2.773.199c-.902.249-1.745.675-2.481 1.253l-3.322 2.623 5.667 3.463c.091.055.16.139.199.237a.49.49 0 0 1 .015.309c-.029.102-.09.192-.175.256a.49.49 0 0 1-.294.099zm-.334 14.329a.49.49 0 0 1-.27-.082c-.08-.053-.142-.129-.179-.218a.49.49 0 0 1-.028-.281.48.48 0 0 1 .133-.249l4.345-4.345a.51.51 0 0 1 .158-.109c.059-.026.123-.039.188-.04a.49.49 0 0 1 .349.142c.046.045.082.1.106.16a.49.49 0 0 1-.004.377.48.48 0 0 1-.109.158l-4.345 4.345c-.091.091-.215.142-.344.142zM5.44 33.08a.49.49 0 0 1-.449-.3.49.49 0 0 1-.028-.281.48.48 0 0 1 .133-.249l4.345-4.345c.045-.047.099-.084.158-.109s.123-.039.188-.039a.5.5 0 0 1 .348.142c.046.045.082.1.106.16a.49.49 0 0 1-.004.377.49.49 0 0 1-.109.158l-4.345 4.345c-.091.091-.215.142-.344.142zm.296 5.671a.49.49 0 0 1-.27-.082c-.08-.053-.142-.129-.179-.218a.49.49 0 0 1-.028-.281.48.48 0 0 1 .133-.249l4.676-4.676c.092-.089.215-.138.342-.137a.49.49 0 0 1 .483.482.48.48 0 0 1-.137.342L6.08 38.608a.49.49 0 0 1-.344.143z"/></svg>