<?xml version="1.0" encoding="utf-8"?>
<!-- Generator: Adobe Illustrator 23.0.1, SVG Export Plug-In . SVG Version: 6.00 Build 0)  -->
<svg version="1.1" id="Layer_1" xmlns="http://www.w3.org/2000/svg" xmlns:xlink="http://www.w3.org/1999/xlink" x="0px" y="0px"
	 viewBox="0 0 132 41" style="enable-background:new 0 0 132 41;" xml:space="preserve">
<style type="text/css">
	.st0{fill:#448C74;}
</style>
<path class="st0" d="M69.9,10.2c0,1.5-1.2,2.6-2.7,2.6s-2.7-1.2-2.7-2.6c0-1.5,1.1-2.6,2.7-2.6C68.7,7.6,69.9,8.8,69.9,10.2z
	 M58.9,15.5v0.6c0,0-1.3-1.6-4-1.6c-4.5,0-8,3.4-8,8c0,4.6,3.4,8,8,8c2.7,0,4-1.7,4-1.7v0.7c0,0.3,0.2,0.6,0.6,0.6h3.3V14.9h-3.3
	C59.1,14.9,58.9,15.2,58.9,15.5z M58.9,25.3c-0.6,0.9-1.8,1.7-3.3,1.7c-2.6,0-4.6-1.6-4.6-4.4c0-2.8,2-4.4,4.6-4.4
	c1.4,0,2.7,0.8,3.3,1.7V25.3z M65.2,14.9h3.9v15.3h-3.9V14.9z M124.1,14.5c-2.7,0-4,1.6-4,1.6V7.6h-3.9v22.6h3.3
	c0.3,0,0.6-0.3,0.6-0.6v-0.7c0,0,1.3,1.7,4,1.7c4.5,0,8-3.4,8-8S128.5,14.5,124.1,14.5z M123.4,26.9c-1.5,0-2.7-0.8-3.3-1.7v-5.4
	c0.6-0.8,1.9-1.7,3.3-1.7c2.6,0,4.6,1.6,4.6,4.4C128,25.3,126,26.9,123.4,26.9z M114.1,21.1v9.1h-3.9v-8.6c0-2.5-0.8-3.5-3-3.5
	c-1.2,0-2.4,0.6-3.2,1.5v10.6H100V14.9h3.1c0.3,0,0.6,0.3,0.6,0.6v0.6c1.1-1.2,2.7-1.6,4.2-1.6c1.7,0,3.2,0.5,4.3,1.5
	C113.6,17.1,114.1,18.6,114.1,21.1z M90.4,14.5c-2.7,0-4,1.6-4,1.6V7.6h-3.9v22.6h3.3c0.3,0,0.6-0.3,0.6-0.6v-0.7c0,0,1.3,1.7,4,1.7
	c4.5,0,8-3.4,8-8C98.4,17.9,94.9,14.5,90.4,14.5z M89.8,26.9c-1.5,0-2.7-0.8-3.3-1.7v-5.4c0.6-0.8,1.9-1.7,3.3-1.7
	c2.6,0,4.6,1.6,4.6,4.4C94.4,25.3,92.4,26.9,89.8,26.9z M79.1,14.5c1.2,0,1.8,0.2,1.8,0.2v3.6c0,0-3.3-1.1-5.3,1.2v10.7h-3.9V14.9
	H75c0.3,0,0.6,0.3,0.6,0.6v0.6C76.3,15.3,77.9,14.5,79.1,14.5z M38.2,28.8c-0.2-0.5-0.4-1-0.6-1.5c-0.3-0.7-0.7-1.4-0.9-2.1l0,0
	c-2.8-6.1-5.9-12.3-9.1-18.3l-0.1-0.2c-0.3-0.6-0.7-1.3-1-1.9C26,4,25.6,3.2,25,2.5C23.6,0.9,21.8,0,19.7,0c-2.1,0-3.9,0.9-5.3,2.4
	c-0.6,0.7-1.1,1.5-1.5,2.2c-0.3,0.6-0.6,1.3-1,1.9l-0.1,0.2c-3.2,6.1-6.2,12.3-9.1,18.3l0,0.1c-0.3,0.7-0.6,1.3-0.9,2.1
	c-0.2,0.4-0.4,0.9-0.6,1.5c-0.5,1.5-0.7,2.9-0.5,4.4c0.5,3,2.5,5.6,5.3,6.7c1.1,0.4,2.2,0.6,3.3,0.6c0.3,0,0.7,0,1.1-0.1
	c1.4-0.2,2.7-0.6,4.1-1.4c1.7-0.9,3.3-2.3,5.1-4.2c1.8,1.9,3.4,3.3,5.1,4.2c1.4,0.8,2.7,1.2,4.1,1.4c0.3,0,0.7,0.1,1.1,0.1
	c1.1,0,2.3-0.2,3.3-0.6c2.9-1.1,4.9-3.7,5.3-6.7C38.9,31.7,38.7,30.3,38.2,28.8z M19.7,30.9c-2.2-2.8-3.7-5.4-4.1-7.5
	c-0.2-0.9-0.2-1.7-0.1-2.5c0.1-0.6,0.3-1.2,0.7-1.7c0.8-1.1,2.1-1.8,3.6-1.8c1.5,0,2.9,0.6,3.6,1.8c0.3,0.5,0.6,1.1,0.7,1.7
	c0.1,0.7,0.1,1.6-0.1,2.5C23.4,25.5,21.9,28.1,19.7,30.9z M36.1,32.8c-0.3,2.1-1.7,3.9-3.7,4.7c-1,0.4-2.1,0.5-3.1,0.4
	c-1-0.1-2.1-0.4-3.1-1.1c-1.5-0.8-3-2.1-4.7-3.9c2.7-3.3,4.3-6.3,5-9c0.3-1.3,0.3-2.4,0.2-3.4c-0.2-1-0.5-1.9-1.1-2.8
	c-1.3-1.8-3.4-2.9-5.8-2.9s-4.5,1.1-5.8,2.9c-0.6,0.8-0.9,1.7-1.1,2.8c-0.2,1.1-0.1,2.2,0.2,3.4c0.6,2.7,2.3,5.7,5,9
	c-1.7,1.9-3.2,3.1-4.7,3.9c-1.1,0.6-2.1,0.9-3.1,1.1c-1.1,0.1-2.2,0-3.1-0.4c-2-0.8-3.4-2.6-3.7-4.7c-0.1-1,0-2,0.4-3.2
	c0.1-0.4,0.3-0.8,0.5-1.3c0.3-0.6,0.6-1.3,0.9-2l0-0.1c2.8-6,5.9-12.2,9-18.2l0.1-0.2c0.3-0.6,0.7-1.3,1-1.9
	c0.3-0.6,0.7-1.3,1.1-1.8c0.9-1,2-1.5,3.3-1.5c1.3,0,2.4,0.5,3.3,1.5c0.5,0.5,0.8,1.1,1.1,1.8c0.3,0.6,0.7,1.3,1,1.9l0.1,0.2
	c3.1,6,6.1,12.1,9,18.3v0c0.3,0.7,0.6,1.4,0.9,2c0.2,0.5,0.4,0.9,0.5,1.3C36.1,30.8,36.2,31.8,36.1,32.8z"/>
</svg>
