<?xml version="1.0" encoding="utf-8"?>
<!-- Generator: Adobe Illustrator 23.0.1, SVG Export Plug-In . SVG Version: 6.00 Build 0)  -->
<svg version="1.1" id="Layer_1" xmlns="http://www.w3.org/2000/svg" xmlns:xlink="http://www.w3.org/1999/xlink" x="0px" y="0px"
	 viewBox="0 0 144 41" style="enable-background:new 0 0 144 41;" xml:space="preserve">
<style type="text/css">
	.st0{fill-rule:evenodd;clip-rule:evenodd;fill:#fff;opacity:.5;}
</style>
<path class="st0" d="M73,28.6h9.8v-3.4H73V11.5h-3.7v17H73z M102.5,11.5h3.7v17h-3.7V11.5L102.5,11.5z M121.9,23.5L113,12.9
	c-0.6-0.8-1.7-1.4-2.8-1.4h-2.5v17h3.7V16.9l9.2,11c0.3,0.3,0.7,0.8,1.2,0.8h3.7V11.5h-3.7L121.9,23.5L121.9,23.5L121.9,23.5z
	 M130.9,21.3h11v-3h-11v-3.7h12.9v-3h-12.9c-1.6,0-3.7,1.6-3.7,3.1v13.9h16.6v-3.4h-12.9L130.9,21.3L130.9,21.3z M45.3,28.6h4.9
	l13.8-13.9v13.9h3.7v-17h-3.1c-1.6,0-3.3,0.9-4.4,1.9L45.3,28.6z M36.1,28.6h3.8l16.9-17H53L36.1,28.6L36.1,28.6z M27.1,28.6h3.8
	l16.9-17H44L27.1,28.6z M18.2,28.6H22l16.9-17h-3.8L18.2,28.6z M9.2,28.6H13l16.9-17h-3.8L9.2,28.6L9.2,28.6z M0.3,28.6h3.8l16.9-17
	h-3.8L0.3,28.6L0.3,28.6z M87.9,19.2v-4.6h8.3c0.9,0,1.5,0.7,1.5,1.5v1.6c0,0.8-0.7,1.5-1.5,1.5H87.9z M84.2,11.5l13.3,0
	c2.1,0,3.7,1.6,3.7,3.6v3.5c0,2-1.7,3.6-3.7,3.6h-9.6v6.3h-3.7V11.5L84.2,11.5z"/>
</svg>
