<svg xmlns="http://www.w3.org/2000/svg" width="204" height="80" fill="none" xmlns:v="https://vecta.io/nano"><path d="M1.211 34.354l18.385.004 11.179.002V23.265L1.211 34.354z" fill="#ff9d28"/><path d="M30.774 23.265v39.169l13.962-44.408-13.962 5.239z" fill="#68c5ed"/><path d="M30.775 34.36l-11.179-.002 11.179 28.076V34.36z" fill="#044d80"/><path d="M1.211 34.354l21.251 7.208-2.867-7.204-18.385-.004z" fill="#e54747"/><path d="M68.936 52.124c-.162.162-.432.365-.81.608s-.871.487-1.478.73-1.35.452-2.227.629-1.883.264-3.017.264c-2.187 0-4.077-.352-5.669-1.054s-2.909-1.684-3.948-2.941-1.802-2.745-2.288-4.462-.729-3.603-.729-5.659.263-3.955.79-5.699 1.316-3.251 2.369-4.523 2.369-2.265 3.948-2.982 3.435-1.075 5.568-1.075c1.053 0 2.005.095 2.855.284s1.593.413 2.227.669 1.161.527 1.579.811l.952.71c.243.217.452.474.628.771s.263.622.263.974c0 .541-.203 1.082-.607 1.623s-.85 1.041-1.337 1.501l-1.093-.994a7.4 7.4 0 0 0-1.357-.892c-.5-.257-1.067-.473-1.701-.649s-1.343-.264-2.126-.264c-1.377 0-2.531.278-3.462.832a6.65 6.65 0 0 0-2.247 2.17c-.567.892-.972 1.913-1.215 3.063s-.364 2.319-.364 3.509c0 1.271.122 2.488.364 3.651s.661 2.191 1.256 3.083 1.37 1.609 2.328 2.15 2.152.812 3.584.812c.755 0 1.451-.095 2.085-.284s1.194-.419 1.68-.69.911-.553 1.276-.851l.911-.771.567.69a9.76 9.76 0 0 1 .607.852c.189.298.351.595.486.892s.202.568.202.811c0 .352-.068.649-.202.893s-.351.514-.648.811zm20.868-3.111c0 2.15.312 3.714.937 4.693-.489.19-.944.326-1.365.408s-.862.122-1.324.122c-.978 0-1.718-.191-2.22-.571s-.822-.925-.957-1.632c-.598.626-1.385 1.157-2.363 1.592s-2.173.653-3.585.653c-.733 0-1.466-.102-2.2-.305a5.78 5.78 0 0 1-1.996-.996c-.598-.461-1.086-1.078-1.466-1.851s-.57-1.715-.57-2.827c0-1.383.332-2.509.998-3.376a7.11 7.11 0 0 1 2.505-2.055 11.33 11.33 0 0 1 3.259-1.037l3.218-.367.957-.041h.876v-.743c0-1.046-.279-1.789-.835-2.229s-1.46-.661-2.709-.661c-1.168 0-2.207.191-3.117.571s-1.8.816-2.668 1.306c-.381-.462-.686-.972-.917-1.53s-.346-.972-.346-1.245c0-.381.21-.748.632-1.102s.998-.673 1.731-.959 1.575-.517 2.526-.694 1.955-.265 3.015-.265c1.466 0 2.709.15 3.727.449s1.847.762 2.485 1.388 1.093 1.408 1.365 2.347.407 2.034.407 3.285v7.672h0zm-5.215-4.734h-.57a4.07 4.07 0 0 0-.57.041l-2.017.245c-.666.109-1.257.299-1.772.572s-.937.626-1.263 1.061-.489.994-.489 1.673c0 .762.217 1.408.652 1.938s1.167.796 2.2.796a5.14 5.14 0 0 0 1.467-.204c.461-.135.869-.312 1.222-.53s.631-.456.835-.714.305-.496.305-.714v-4.163h0zm15.358-8.039c.433-.517 1.11-1.041 2.03-1.571s2.085-.796 3.493-.796a8.09 8.09 0 0 1 2.863.51c.907.34 1.713.892 2.416 1.653s1.266 1.769 1.686 3.02.63 2.789.63 4.611c0 2.122-.244 3.871-.731 5.244s-1.117 2.463-1.888 3.265-1.632 1.367-2.579 1.693-1.896.49-2.843.49c-.785 0-1.469-.089-2.051-.265s-1.076-.374-1.482-.592-.718-.435-.934-.653l-.406-.449v10.032h-5.54V34.444l.493-.081a6.06 6.06 0 0 1 .575-.061l.78-.02c.903 0 1.669.15 2.298.449s1.027.803 1.191 1.51zm7.333 7.55c0-.816-.068-1.577-.203-2.285s-.357-1.319-.668-1.836a3.26 3.26 0 0 0-1.256-1.204c-.527-.285-1.168-.428-1.924-.428-1.134 0-1.924.218-2.369.653s-.669.912-.669 1.428v8.652c.216.218.6.476 1.154.775s1.195.449 1.924.449c1.378 0 2.391-.544 3.039-1.632s.972-2.612.972-4.571zm10.061 7.02a7.07 7.07 0 0 1-.367-1.714l-.081-1.796V28.363l.611-.082.611-.061.651-.02c.435 0 .87.041 1.304.122s.828.245 1.182.49.637.578.855 1 .326.973.326 1.653v2.897h5.704v4.122h-5.704v8.703c0 1.898.774 2.846 2.322 2.846.38 0 .74-.061 1.08-.184a6.42 6.42 0 0 0 .916-.408 4.91 4.91 0 0 0 .713-.469l.428-.367c.407.599.719 1.117.937 1.555s.326.849.326 1.233c0 .357-.143.708-.428 1.051s-.686.659-1.202.948-1.14.521-1.874.7-1.534.268-2.403.268c-1.685 0-2.995-.327-3.932-.979s-1.595-1.51-1.975-2.571zm24.827-.531c.682 0 1.281-.075 1.799-.225a7.18 7.18 0 0 0 1.39-.551c.409-.217.763-.456 1.063-.714l.818-.715c.327.408.667.932 1.022 1.571s.531 1.163.531 1.571c0 .599-.34 1.143-1.018 1.633-.57.436-1.379.81-2.424 1.122s-2.275.469-3.687.469c-1.277 0-2.533-.163-3.768-.49a8.33 8.33 0 0 1-3.3-1.714c-.964-.816-1.745-1.911-2.343-3.285s-.896-3.108-.896-5.203c0-1.714.265-3.189.794-4.428s1.236-2.265 2.119-3.081 1.881-1.414 2.994-1.796a10.52 10.52 0 0 1 3.423-.571c1.52 0 2.81.239 3.869.714s1.922 1.116 2.587 1.918 1.147 1.721 1.447 2.755.448 2.122.448 3.265v.571l-.021.694-.04.714c-.014.232-.035.415-.061.551h-12.018c.109 1.496.572 2.741 1.389 3.734s2.112 1.489 3.883 1.489zm1.857-8.284c0-1.306-.253-2.367-.758-3.183s-1.414-1.224-2.725-1.224c-1.12 0-2.015.388-2.684 1.163s-1.003 1.857-1.003 3.244h7.17 0zm14.652-5.651c.163-.243.38-.512.652-.81a4.62 4.62 0 0 1 .998-.81c.393-.243.828-.446 1.304-.608s.984-.243 1.528-.243c.325 0 .672.027 1.038.081a3.58 3.58 0 0 1 1.018.304c.313.149.564.351.754.607s.285.573.285.951c0 .594-.149 1.275-.448 2.045s-.597 1.427-.896 1.971c-.462-.381-.924-.673-1.385-.877s-1.005-.306-1.63-.306c-.842 0-1.548.246-2.118.736s-.856 1.078-.856 1.76v13.211h-5.54V34.444l.489-.081a5.96 5.96 0 0 1 .57-.061l.774-.02c.869 0 1.623.169 2.261.506s1.039.856 1.202 1.556zm15.752 0c.163-.243.38-.512.652-.81a4.62 4.62 0 0 1 .998-.81 6.4 6.4 0 0 1 1.304-.608 4.7 4.7 0 0 1 1.527-.243 7.22 7.22 0 0 1 1.039.081 3.58 3.58 0 0 1 1.018.304c.313.149.564.351.754.607s.286.573.286.951c0 .594-.15 1.275-.449 2.045s-.597 1.427-.896 1.971c-.462-.381-.924-.673-1.385-.877s-1.005-.306-1.63-.306c-.842 0-1.548.246-2.118.736s-.855 1.078-.855 1.76v13.211h-5.541V34.444l.489-.081a5.96 5.96 0 0 1 .57-.061l.774-.02c.869 0 1.623.169 2.261.506s1.039.856 1.202 1.556zm26.439 12.67c0 2.15.312 3.714.937 4.693a8.02 8.02 0 0 1-1.364.408c-.422.082-.863.122-1.324.122-.978 0-1.718-.191-2.22-.571s-.822-.925-.958-1.632c-.597.626-1.385 1.157-2.363 1.592s-2.173.653-3.585.653a8.23 8.23 0 0 1-2.2-.305c-.733-.204-1.399-.536-1.996-.996s-1.086-1.078-1.466-1.851-.57-1.715-.57-2.827c0-1.383.332-2.509.998-3.376s1.5-1.553 2.505-2.055 2.091-.846 3.259-1.037l3.218-.367.958-.041h.876v-.743c0-1.046-.279-1.789-.836-2.229s-1.46-.661-2.709-.661c-1.168 0-2.206.191-3.116.571s-1.799.816-2.669 1.306c-.38-.462-.686-.972-.916-1.53s-.346-.972-.346-1.245c0-.381.21-.748.631-1.102s.998-.673 1.731-.959 1.575-.517 2.526-.694 1.956-.265 3.015-.265c1.466 0 2.709.15 3.727.449s1.847.762 2.485 1.388 1.093 1.408 1.365 2.347.407 2.034.407 3.285v7.672zm-5.214-4.734h-.57a4.08 4.08 0 0 0-.571.041l-2.016.245c-.666.109-1.257.299-1.772.572a3.72 3.72 0 0 0-1.263 1.061c-.326.435-.489.994-.489 1.673 0 .762.217 1.408.652 1.938s1.167.796 2.2.796a5.14 5.14 0 0 0 1.466-.204 4.99 4.99 0 0 0 1.222-.53c.353-.218.632-.456.835-.714s.306-.496.306-.714v-4.163h0z" fill="#044d80"/></svg>