<svg xmlns="http://www.w3.org/2000/svg" viewBox="0 0 162 41" fill="#fff" fill-opacity=".5" xmlns:v="https://vecta.io/nano"><path d="M42.8 29.5c.4.3.6.8.6 1.2h-.7c-.2-.7-.6-1.1-1.5-1.1-1.1 0-1.8.7-1.8 2.3 0 1.3.6 2.2 1.8 2.2.8 0 1.4-.5 1.6-1.5h.7c-.1 1.3-1.1 2.1-2.4 2.1-1.5 0-2.5-1.1-2.5-2.9 0-1.7 1-2.8 2.6-2.8.7-.1 1.2.1 1.6.5zm1.6-.5h.7v2c.5-.6.7-.6 1.3-.6.9 0 1.4.4 1.4 1.5v2.6h-.7V32c0-.8-.3-1-.8-1-.6 0-1.1.3-1.1 1.4v2.1h-.7l-.1-5.5h0zm4.9 4.5c0-.4.2-.6.9-.7 0 0 .5-.1.8-.1.1 0 .2-.1.3-.1v.5c0 .2 0 .4-.1.5-.1.2-.3.3-.4.4-.4.2-.9.2-1.2 0l-.2-.2c-.1-.1-.1-.2-.1-.3zm.6-1.2c-.8.1-1.3.5-1.3 1.2s.5 1.2 1.3 1.2c.3 0 .6-.1.8-.2.3-.1.5-.3.7-.5.1.5.3.6.6.6h.2c.1 0 .1 0 .2-.1V34h-.1-.1c-.1 0-.2 0-.2-.1v-.2-2.3c0-.8-.7-1.1-1.6-1.1-.8 0-1.6.3-1.6 1.3h.6c.1-.6.4-.7.9-.7.6 0 1 .2 1 .6v.3c-.1.1-.2.2-.3.2l-1.1.3zm3.3-1.8h.7v.6c.4-.5.8-.7 1.2-.7.5 0 .8.2 1.1.6.1-.2.3-.4.5-.5s.5-.2.7-.2c.8 0 1.3.4 1.3 1.4v2.7H58v-2.8c0-.9-.9-.9-1.4-.4-.2.2-.3.5-.3.9v2.3h-.7v-2.6c0-.7-.2-.9-.7-.9s-1 .3-1 1.4v2.1h-.7v-3.9zm8.4 3.6c-.7 0-1.1-.5-1.1-1.4 0-1.1.4-1.7 1.1-1.7s1.1.6 1.1 1.5c0 1.1-.5 1.6-1.1 1.6zm-1.8 2h.7v-2c.4.5.7.6 1.2.6 1 0 1.7-.8 1.7-2.2 0-1.3-.7-2-1.7-2-.2 0-.5 0-.7.2-.2.1-.4.3-.5.5v-.5h-.7v5.4zm4.5-5.5h.7v4h-.7v-4zm0-1.5h.7v.8h-.7v-.8zm3.4 5c-.8 0-1.2-.6-1.2-1.5s.4-1.6 1.2-1.6 1.2.5 1.2 1.5c0 .8-.3 1.6-1.2 1.6zm0-3.7c-1.2 0-1.9.9-1.9 2.2s.7 2.1 1.8 2.1c1.3 0 1.9-.9 1.9-2.2.1-1.4-.8-2.1-1.8-2.1zm2.7.1h.7v.6c.1-.2.3-.4.6-.5.2-.1.5-.2.7-.2.9 0 1.3.4 1.3 1.5v2.6H73V32c0-.7-.3-1-.8-1-.4 0-.7.1-.9.4a1.49 1.49 0 0 0-.3 1v2.1h-.7l.1-4h0zm6.2-1.4h.8v5.5h-.8v-5.5zm2 1.4h.7v.6c.1-.2.3-.4.6-.5.2-.1.5-.2.7-.2.9 0 1.3.4 1.3 1.5v2.6h-.7V32c0-.7-.3-1-.8-1-.4 0-.7.1-.9.4a1.49 1.49 0 0 0-.3 1v2.1h-.7l.1-4h0zm4.5-1.1h.7v1.1h.7v.6h-.7v2.6c0 .1.1.2.1.3h.3.1.1v.5c-.2 0-.3.1-.5.1-.6 0-.8-.4-.8-.9v-2.6h-.6v-.6h.6v-1.1zm2.7 2.8c0-.7.5-1.2 1.1-1.2.7 0 1 .3 1.1 1.2h-2.2zm1.1-1.7c-1.1 0-1.9.9-1.9 2.2s.8 2.1 1.8 2.1c.8 0 1.3-.2 1.7-.9.1-.1.1-.3.2-.5H88c-.1.2-.2.4-.4.6-.2.1-.4.2-.7.2-.8 0-1.1-.5-1.1-1.3h3c0-.4 0-.7-.1-.9 0-.3-.1-.5-.3-.7s-.4-.4-.6-.5c-.3-.3-.6-.3-.9-.3zm2.7 0h.7v.7c.1-.3.6-.8 1.1-.8h.1.2v.7h-.1-.1c-.7 0-1.1.5-1.1 1.1v2.3h-.7l-.1-4h0zm2.7 0h.7v.6c.1-.2.3-.4.6-.5.2-.1.5-.2.7-.2.9 0 1.3.4 1.3 1.5v2.6H95V32c0-.7-.3-1-.8-1s-.7.1-.9.4a1.49 1.49 0 0 0-.3 1v2.1h-.7v-4h0zm4.9 3c0-.4.2-.6.9-.7 0 0 .5-.1.8-.1.1 0 .2-.1.3-.1v.5c0 .2 0 .4-.1.5-.1.2-.3.3-.4.4-.4.2-.9.2-1.2 0l-.2-.2c-.1-.1-.1-.2-.1-.3zm.6-1.2c-.8.1-1.3.5-1.3 1.2s.5 1.2 1.3 1.2c.3 0 .6-.1.8-.2.3-.1.5-.3.7-.5.1.5.3.6.6.6h.2c.1 0 .1 0 .2-.1V34h-.1-.1c-.1 0-.2 0-.2-.1v-.2-2.3c0-.8-.7-1.1-1.6-1.1-.8 0-1.6.3-1.6 1.3h.6c.1-.6.4-.7.9-.7.6 0 1 .2 1 .6v.3c-.1.1-.2.2-.3.2l-1.1.3zm3.5-2.9h.7v1.1h.7v.6h-.7v2.6c0 .1 0 .2.1.3h.3.1.1v.5c-.2 0-.3.1-.5.1-.6 0-.8-.4-.8-.9v-2.6h-.5v-.6h.5v-1.1zm2.2 1.2h.7v4h-.7v-4zm0-1.5h.7v.8h-.7v-.8zm3.4 5c-.8 0-1.2-.6-1.2-1.5s.4-1.6 1.2-1.6 1.2.5 1.2 1.5c-.1.8-.3 1.6-1.2 1.6zm0-3.7c-1.2 0-1.9.9-1.9 2.2s.7 2.1 1.8 2.1c1.3 0 1.9-.9 1.9-2.2 0-1.4-.8-2.1-1.8-2.1zm2.8.1h.7v.6c.1-.2.3-.4.6-.5.2-.1.5-.2.7-.2.9 0 1.3.4 1.3 1.5v2.6h-.7V32c0-.7-.3-1-.8-1s-.7.1-.9.4a1.49 1.49 0 0 0-.3 1v2.1h-.7v-4zm4.9 3c0-.4.2-.6.9-.7 0 0 .5-.1.8-.1.1 0 .2-.1.3-.1v.5c0 .2 0 .4-.1.5-.1.2-.3.3-.4.4-.4.2-.9.2-1.2 0l-.2-.2c-.1-.1-.1-.2-.1-.3zm.5-1.2c-.8.1-1.3.5-1.3 1.2s.5 1.2 1.3 1.2c.6 0 1.2-.3 1.5-.7.1.5.3.6.6.6h.2c.1 0 .1 0 .2-.1V34h-.1-.1c-.1 0-.2 0-.2-.1v-.2-2.3c0-.8-.7-1.1-1.6-1.1-.8 0-1.6.3-1.6 1.3h.6c.1-.6.4-.7.9-.7.6 0 1 .2 1 .6v.3c-.1.1-.2.2-.3.2l-1.1.3zm3.4-3.2h.7v5.5h-.7v-5.5zm7.4.4c.4.3.6.8.6 1.2h-.7c-.2-.7-.6-1.1-1.5-1.1-1.1 0-1.8.7-1.8 2.3 0 1.3.6 2.2 1.8 2.2.8 0 1.4-.5 1.6-1.5h.7c-.1 1.3-1.1 2.1-2.4 2.1-1.5 0-2.5-1.1-2.5-2.9 0-1.7 1-2.8 2.6-2.8.7-.1 1.2.1 1.6.5zm3.1 4.6c-.8 0-1.2-.6-1.2-1.5s.4-1.6 1.2-1.6 1.2.5 1.2 1.5c0 .8-.2 1.6-1.2 1.6zm.1-3.7c-1.2 0-1.9.9-1.9 2.2s.7 2.1 1.8 2.1c1.3 0 1.9-.9 1.9-2.2 0-1.4-.8-2.1-1.8-2.1zm2.7.1h.7v.7c.1-.3.6-.8 1.1-.8h.1.2v.7h-.1-.1c-.7 0-1.1.5-1.1 1.1v2.3h-.7l-.1-4h0zm4.4 3.6c-.7 0-1.1-.5-1.1-1.4 0-1.1.4-1.7 1.1-1.7s1.1.6 1.1 1.5c0 1.1-.5 1.6-1.1 1.6zm-1.8 2h.7v-2c.4.5.7.6 1.2.6 1 0 1.7-.8 1.7-2.2 0-1.3-.7-2-1.7-2-.2 0-.5 0-.7.2-.2.1-.4.3-.5.5v-.5h-.7v5.4zm6.1-2c-.8 0-1.2-.6-1.2-1.5s.4-1.6 1.2-1.6 1.2.5 1.2 1.5c0 .8-.3 1.6-1.2 1.6zm0-3.7c-1.2 0-1.9.9-1.9 2.2s.7 2.1 1.8 2.1c1.3 0 2-.9 2-2.2 0-1.4-.9-2.1-1.9-2.1zm2.6.1h.7v.7c.1-.3.6-.8 1.1-.8h.1.2v.7h-.1-.1c-.7 0-1.1.5-1.1 1.1v2.3h-.7l-.1-4h0zm3.1 3c0-.4.2-.6.9-.7 0 0 .5-.1.8-.1.1 0 .2-.1.3-.1v.5c0 .2 0 .4-.1.5-.1.2-.3.3-.4.4-.4.2-.9.2-1.2 0-.1 0-.1-.1-.2-.2s-.1-.2-.1-.3zm.6-1.2c-.8.1-1.3.5-1.3 1.2s.5 1.2 1.3 1.2c.3 0 .6-.1.8-.2.3-.1.5-.3.7-.5.1.5.3.6.6.6h.2c.1 0 .1 0 .2-.1V34h-.1-.1c-.1 0-.2 0-.2-.1v-.2-2.3c0-.8-.7-1.1-1.6-1.1-.8 0-1.5.3-1.6 1.3h.6c.1-.6.4-.7.9-.7.6 0 1 .2 1 .6v.3c-.1.1-.2.2-.3.2l-1.1.3zm3.4-2.9h.7v1.1h.7v.6h-.7v2.6c0 .1.1.2.1.3h.3.1.1v.5h-.2-.3c-.6 0-.8-.3-.8-.9V31h-.6v-.6h.6v-1h0zm2.2 1.2h.7v4h-.7v-4zm0-1.5h.7v.8h-.7v-.8zm3.3 5c-.8 0-1.2-.6-1.2-1.5s.4-1.6 1.2-1.6 1.2.5 1.2 1.5c0 .8-.3 1.6-1.2 1.6zm0-3.7c-1.2 0-1.9.9-1.9 2.2s.7 2.1 1.8 2.1c1.3 0 1.9-.9 1.9-2.2 0-1.4-.8-2.1-1.8-2.1zm2.7.1h.7v.6c.1-.2.3-.4.6-.5.2-.1.5-.2.7-.2.9 0 1.3.4 1.3 1.5v2.6h-.7V32c0-.7-.3-1-.8-1s-.7.1-.9.4a1.49 1.49 0 0 0-.3 1v2.1h-.7l.1-4h0zM55.7 12h-5.4c-.3-1.3-.7-2.4-2.3-3-.9-.3-2.4-.3-3.3.5-1.6 1.2-1.8 3.8-1.7 5.1.1 1.2.6 3 2.2 3.8 1 .5 2.5.6 3.5 0 1.1-.6 1.4-1.6 1.6-2.7h5.4c.2 2.1-1.6 5.4-4.8 6.8-2.8 1.2-6.9.9-9.6-.9-3.1-2.1-3.9-5.8-3.7-8.3.2-3 1.5-6.1 5-7.9 2.5-1.3 6.7-1.2 9 .2 2.9 1.7 3.9 3.8 4.1 6.4zm6.1-7.1v5.9c.8-.5 1.2-.9 2.4-1.3 1.3-.4 3.1-.2 4.3.7 1.8 1.3 2 3.7 1.9 5v7.5h-5V17c0-1.3.1-2.5-.9-3.1-.5-.3-1.3-.3-1.8-.1-1 .7-.9 1.9-.9 3.3v5.6h-5V4.9h5zm16.1 8.6c.7-.3 1.7-.2 2.4.2 1 .6 1.3 1.6 1.2 2.6 0 .8-.4 2-1.4 2.6-.4.2-.8.3-1.2.3s-.8-.1-1.2-.3c-1-.6-1.4-1.5-1.5-2.6 0-1 .5-2.2 1.7-2.8zm.2-4c-1.6-.2-3.7.1-5.2 1.8-1.8 2-1.9 5.4-1.4 7.2.7 2.3 2 3.8 4.3 4.4 1.9.5 3.8.1 5.5-1.4v1.2h5V10h-5v1c-1.1-1-1.8-1.3-3.2-1.5zm22.2 1.8c2.1-1.9 4.3-2.2 6.2-1.4 2.8 1.2 2.8 3.1 2.8 5.5v7.4h-5.1v-6c0-1.6 0-2.5-.7-3-.3-.1-.6-.2-.9-.2s-.6.1-.9.2c-.9.6-.8 1.5-.8 3v6h-5v-6.2c0-.9.1-2.4-.9-2.9-.2-.1-.5-.2-.8-.2s-.6.1-.8.2c-.9.6-.8 2.1-.8 3v6.1h-5V10h4.9v1.1c1.8-1.7 3.4-2 5.1-1.5 1.1.2 1.8.6 2.7 1.7zm17.3 2.1c.4-.1.9-.1 1.3 0s.8.3 1.2.6c.8.8 1 2.2.7 3-.1.5-.3.9-.7 1.3-.3.3-.8.6-1.2.7s-.9.1-1.3 0-.8-.3-1.1-.6c-.9-.9-1-2.2-.7-3.1.2-.9.8-1.6 1.8-1.9zm2.1 9.8c1.4 0 3.6-.8 4.9-2.5 1.5-2.1 1.6-5.2.9-7.2s-1.9-3.3-3.9-3.9c-1.8-.5-3.7-.3-5.8 1.3v-1h-5v17.7h5v-5.9c1.4 1.1 2.4 1.5 3.9 1.5zm6.9-18.3h5v4.2h-5V4.9zm0 5.1h5v12.8h-5V10zm12.6 3.2c.4-.1.8-.1 1.2 0s.7.3 1 .5c.8.8 1 2.3.8 3.2s-.6 1.7-1.6 2.1c-.4.1-.8.2-1.1.1s-.7-.2-1.1-.4c-1-.8-1.2-2-1.1-2.9.2-1.2.6-2.2 1.9-2.6zm-3.2-2.9c-2.5 1.3-3.4 3.6-3.6 5.4-.2 2 .3 4.2 2.6 6 2.1 1.6 5.4 1.9 7.5 1.2 1.1-.4 2.1-1 2.8-1.8.8-.8 1.3-1.8 1.6-2.9.5-1.9.5-4.4-1.4-6.4-2.1-2.3-5.5-2.5-7.2-2.2-.5 0-1.5.3-2.3.7zm25.6 12.5h-4.9v-5.6c0-1.5 0-2.9-1-3.4-.3-.1-.6-.2-.9-.2s-.6.1-.9.2c-1.1.7-1 2.3-1 3.4V23h-4.8V10h4.8v1c1.8-1.6 4.2-2 5.9-1.3 2.7 1.2 2.6 3.3 2.6 5.5v7.6zM1.7 26.6c-2-3.9-1.8-9.5.3-13.3 2.3-4.5 7.2-7.9 12.7-8.2 1.4-.1 3 0 4.5 0v2.6h-3.4c-1.9 0-3.7.3-5.2 1.1-2.4 1.1-4.4 2.9-5.8 5.1-1.3 2.3-1.9 4.9-1.7 7.4.5 5.2 4 9.5 9 11C17.3 33.9 23 31.9 26 28c1.5-1.9 2.5-4.2 2.6-6.8l.1-1.3v-15h2.7v15.5c-.2 6.3-4 11.7-9.9 14-5.4 2.1-12.1.8-16.2-3-1.5-1.2-2.8-2.9-3.6-4.8zm3.7-1.4c-1.9-3.6-1.3-8.8 1.3-11.8 1.1-1.3 2.4-2.4 3.9-3.2s3.2-1.2 5-1.2h3.6v2.6c-2.3.1-4.7-.3-6.7.6a9.02 9.02 0 0 0-3.8 2.9c-1 1.3-1.6 2.8-1.7 4.4-.2 1.8.2 3.5 1.1 5.1a9.68 9.68 0 0 0 3.9 3.6c3 1.5 7.1.9 9.5-1.3 1.8-1.6 2.9-3.8 3-6.2V5.1h2.7v15.7c-.1 4.6-2.9 8.3-7 10.1-4.2 1.8-9.5.7-12.5-2.4-1-1-1.6-2.1-2.3-3.3zm4-1c-1.3-2.1-1.5-5.3-.1-7.5 1-2 3.4-3.7 5.9-3.7h4v2.6H16c-1 0-2 .1-2.7.7-1.5 1-2.5 2.7-2.1 4.8.3 1.8 1.6 3.3 3.5 3.8.9.2 1.9.2 2.8-.1s1.7-.9 2.3-1.6c.9-1.2.9-2.9.9-4.6V5.1h2.7v15.1c0 2.9-1.4 5.4-4 6.7-2.2 1.2-5.4 1-7.5-.4-1.1-.6-1.9-1.4-2.5-2.3z"/></svg>