<svg xmlns="http://www.w3.org/2000/svg" width="196" height="80" fill="none" xmlns:v="https://vecta.io/nano"><path fill-rule="evenodd" d="M68.328 40v17h2.842 2.842V40 23H71.17h-2.842v17zm71.82 0v17h2.783 2.783l.039-7.004.265-7.794c.653-2.268 2.412-3.562 4.877-3.587.876-.009 1.045.02 1.571.269.659.311 1.051.704 1.35 1.354.453.983.482 1.545.486 9.359l.003 7.403h2.848H160l-.039-8.001c-.043-8.81-.019-8.458-.712-10.307-.897-2.392-2.933-4.144-5.616-4.833-1.18-.303-3.47-.303-4.65 0-1.013.26-2.118.761-2.738 1.24l-.465.36-.027-6.229-.026-6.229h-2.79-2.789v17zM49.934 24.153c-4.644.704-8.495 3.039-11.011 6.676-1.788 2.585-2.749 5.537-2.903 8.922-.274 6.029 2.416 11.448 7.231 14.566 3.74 2.422 8.766 3.18 13.395 2.021 2.866-.717 5.343-2.11 7.487-4.207l.817-.799-.3-.351c-.548-.64-3.296-3.432-3.363-3.417-.036.008-.258.25-.493.537-1.224 1.501-3.692 2.834-6.158 3.327-1.161.232-3.207.25-4.366.038-4.927-.902-8.363-4.763-8.79-9.877-.311-3.732.787-7.047 3.105-9.377 1.927-1.937 4.287-2.965 7.114-3.099 3.144-.149 6.265 1.02 8.862 3.32l.758.671 1.824-1.76 1.824-1.76-.773-.758c-2.351-2.303-5.381-3.891-8.668-4.543-1.354-.269-4.233-.335-5.591-.129zm54.976 5.727v4.088h-2.066-2.067v2.742 2.742h2.067 2.066v8.774V57h2.842 2.842v-8.774-8.774h2.118 2.119V36.71v-2.742h-2.119-2.118V29.88v-4.088h-2.842-2.842v4.088zm21.133 3.704c-4.841.595-8.639 3.819-9.828 8.343-.805 3.06-.303 6.738 1.263 9.254 1.807 2.906 4.527 4.744 8.104 5.479 1.179.242 3.622.245 4.881.007 2.364-.448 4.542-1.507 6.125-2.979l.78-.725-1.956-1.881-1.955-1.881-.71.692c-1.484 1.445-3.507 2.101-5.627 1.825-2.806-.366-4.77-1.943-5.589-4.487-.207-.639-.241-.95-.235-2.144.006-1.242.038-1.486.288-2.215.354-1.032 1.139-2.178 1.91-2.786 1.538-1.215 3.714-1.735 5.802-1.386 1.29.216 2.206.649 3.295 1.558l.862.719 1.854-1.784 1.855-1.784-.668-.615c-1.303-1.198-3.42-2.355-5.232-2.859-1.553-.432-3.496-.562-5.219-.351zm-47.69 7.55c0 7.867.011 8.045.631 9.834.827 2.387 2.214 4.063 4.123 4.983 1.512.729 2.787.992 4.805.992 2.519 0 4.26-.484 5.438-1.511l.4-.349v.959V57h2.842 2.842V45.484 33.968h-2.847-2.847l.013 6.805c.013 6.593.006 6.825-.198 7.453-.649 1.993-2.422 3.25-4.988 3.536-1.694.189-3.291-.646-3.966-2.073-.618-1.306-.603-1.094-.642-8.717l-.037-7.004h-2.784-2.784v7.166z" fill="#fff"/><path d="M132 45a4 4 0 1 1-8 0 4 4 0 1 1 8 0z" fill="#ef4335"/></svg>