<?xml version="1.0" encoding="utf-8"?>
<!-- Generator: Adobe Illustrator 23.0.1, SVG Export Plug-In . SVG Version: 6.00 Build 0)  -->
<svg version="1.1" id="Layer_1" xmlns="http://www.w3.org/2000/svg" xmlns:xlink="http://www.w3.org/1999/xlink" x="0px" y="0px"
	 viewBox="0 0 146 41" style="enable-background:new 0 0 146 41;" xml:space="preserve">
<style type="text/css">
	.st0{fill-rule:evenodd;clip-rule:evenodd;fill:#858C97;}
</style>
<path class="st0" d="M0.2,29.1V11.5h18.5v4.2H8v3.2h8.5v4H8v6.2C8,29.1,0.2,29.1,0.2,29.1z M56.9,16.6c0-0.6-0.5-1-1-1.3
	c-0.7-0.2-1.3-0.3-2.1-0.3c-1.6,0-2.5,0.5-2.5,1.1c0,2.6,13.7,1,13.7,7.4c0,4.2-4.6,6.1-11.1,6.1c-6.4,0-10.5-2.7-10.6-5.9h7.5
	c0.2,0.6,0.7,1.1,1.3,1.4c0.7,0.3,1.5,0.5,2.1,0.5c2,0,3.3-0.5,3.3-1.4c0-2.6-13.6-0.8-13.6-7.5c0-3.7,4.2-5.6,10.3-5.6
	c6.5,0,9.5,2.6,10.1,5.6h-7.4V16.6z M64.6,11.5h21.9v4.6h-7v13h-7.8v-13h-7L64.6,11.5L64.6,11.5z M87.5,29.1V11.5h19.3v4.2H95.3V18
	h9.8v4.2h-9.8v2.7h11.9v4.2C107.2,29.1,87.5,29.1,87.5,29.1z"/>
<path class="st0" d="M43.5,20.1c0,6.1-5.4,9.4-12.4,9.4c-7.5,0-12.4-3.4-12.4-9.4c0-5.6,5.1-9.1,12.4-9.1
	C39.6,11,43.5,15.5,43.5,20.1z M26.3,20.1c0,2.2,1,5.1,4.7,5.1c3.3,0,4.6-2.1,4.6-5.1c0-2.4-1.3-5-4.7-4.8
	C27.5,15.3,26.3,17.9,26.3,20.1z M116.1,23v6.1h-7.7V11.5h11.1c8,0,10.5,1.6,10.5,5c0,2.1-1.1,3.8-3.9,4.3c2.5,0.6,4.1,1.1,4.1,4.6
	c0,2.4-0.2,3.2,0.8,3.2v0.5h-7.8c-0.3-0.3-0.5-1.4-0.5-3c0-2.4-0.5-3-4.1-3L116.1,23L116.1,23z M116.1,19h3.1c2.5,0,3.8-0.3,3.8-1.6
	c0-1.3-1.5-1.8-3.3-1.8h-3.6V19z"/>
<path class="st0" d="M140.4,21.9c2.8,0,4.9-2.1,4.9-4.8s-2.1-4.8-4.9-4.8c-2.6,0-4.9,2.1-4.9,4.8S137.8,21.9,140.4,21.9z
	 M140.4,20.9c-2,0-3.6-1.6-3.6-3.8s1.6-3.8,3.6-3.8c2.1,0,3.8,1.6,3.8,3.8S142.5,20.9,140.4,20.9z M138.6,19.8h1v-2.4h0.7l1.5,2.4h1
	l-1.5-2.4c1,0,1.5-0.5,1.5-1.4c0-1.1-0.7-1.6-2.1-1.6h-2L138.6,19.8L138.6,19.8z M139.6,15.2h1c0.5,0,1.1,0,1.1,0.6
	c0,0.8-0.7,0.8-1.1,0.8h-1V15.2z"/>
</svg>
