<svg xmlns="http://www.w3.org/2000/svg" viewBox="0 0 131 41" fill-rule="evenodd" fill="#858C97" xmlns:v="https://vecta.io/nano"><path d="M112 18.3h8.3v-8.2H112v8.2h0zm0 9.8h8.3v-8.2H112v8.2h0zm10-9.8h8.3v-8.2H122v8.2h0zm5.1 1.6H122v2.8l5.1-2.8zm.6 8.2H122V24l5.7 4.1zm2.5 0v-8.2l-6.5 3.5 6.5 4.7h0zM114.7 6.8c0 .1 0 0 0 0-.1-.2-.2-.3-.3-.4-.2-.2-.4-.2-.7-.3-.3 0-.6 0-.9.4-.3.3-.3.6-.3.9a1.93 1.93 0 0 0 .3 1c.1.1.3.3.4.3.2.1.4.1.6.1h.1.1 0 .1 0v-.7c0-.1-.1-.2-.2-.2h-.1s-.1 0-.1-.1c0 0 0-.1.1-.1h.1.2.6.2c.1 0 0 .1 0 .1-.1 0-.2 0-.2.1V8v.6l.1.1c-.1 0-.2.1-.4.1h-.1-.3-.6-.2c-.2 0-.4-.1-.6-.2l-.3-.3c-.3-.1-.3-.3-.4-.7 0-.3 0-.6.2-.9.1-.1.2-.3.3-.4l.6-.3c.2-.1.4-.1.6-.1h.4.1.1.1.1.2c.1 0 .1.1.1.1v.1.1.2c.1.3.1.3 0 .4h0 0 0zm1.7 2.1h-.4-.2-.1-.2-.1-.1 0c-.1 0 0-.2 0-.1.1 0 .3 0 .3-.2v-.1-2c0-.1 0-.2-.1-.3h-.2s-.1 0-.1-.1c0 0 0-.1.1-.1h.3.2.1.1.4.2.2c.1 0 .3.1.5.1.1.1.2.2.2.3.1.2.1.6-.2.8-.1.1-.2.2-.4.2.3.4.5.8.8 1.1 0 .1.1.1.2.1h.2v.1h-.4-.2-.1-.1l-.1-.1-.1-.1c-.1-.1-.1-.2-.2-.3s-.2-.3-.3-.4-.1-.2-.1-.2 0-.1-.1-.1h-.3v.9c0 .1 0 .2.1.3h.2s.1 0 .1.1c0 0 0 .1-.1.1.2 0 .1 0 0 0h0zm-.1-2.7v1.2h.3.1c.1 0 .3 0 .4-.2.1-.1.1-.2.1-.4s0-.4-.2-.5c-.1-.1-.2-.1-.3-.1h-.1-.1-.2 0zm1.9 1.3a1.58 1.58 0 0 1 .5-1.2c.3-.2.7-.4 1-.4s.6 0 .9.2c.2.1.3.2.5.4.3.3.3.7.3 1s-.1.7-.5 1.1c-.4.3-.8.4-1.3.4-.3 0-.7-.1-1-.4s-.4-.6-.4-.9v-.2h0zm.7.5c.1.2.1.3.3.5.2.3.5.3.7.3s.4 0 .6-.2c.1-.1.2-.2.3-.4 0-.1 0-.1.1-.2 0-.2.1-.4 0-.6 0-.3-.1-.7-.4-1s-.7-.3-1-.3c-.2.1-.3.2-.4.3s-.2.3-.2.5-.1.4 0 .6c-.1.3-.1.4 0 .5h0zm3.9-2h0l.1.1h-.2c-.1.1-.1.2-.1.3v1.4.1.2c0 .2.1.3.2.4.2.2.3.2.5.2s.4 0 .6-.2.2-.3.3-.5v-.1-.1-1.5s0-.2-.1-.2h-.2-.1s0-.1.1-.1h.1.3.1.1.3c.1 0 .1.1 0 .1s-.2 0-.3.1v.2 1.3.2c0 .1 0 .2-.1.3-.1.2-.1.3-.3.5-.2.1-.4.2-.5.2h-.8c-.2 0-.4-.1-.6-.3-.1-.1-.2-.2-.2-.4V8 6.4s0-.2-.1-.3h-.1-.1V6h.3.2.1.2.3 0zm3.7 1.7c-.1 0-.1-.1 0-.1h.2c.1 0 .1 0 .2-.1.1 0 .1-.1.1-.1v-.5c0-.1 0-.3-.1-.4s-.2-.3-.4-.3h-.2-.1v2.3c0 .1 0 .2.1.3h.2.1v.1h-.2-.3-.1 0-.2-.1-.3 0c-.1 0 0-.1 0-.1.1 0 .1 0 .2-.1s.1-.2.1-.3v-2c0-.1 0-.2-.1-.3h-.1s-.1 0-.1-.1v-.1h.2.3.3.1.2.1c.1 0 .3 0 .5.1a.76.76 0 0 1 .4.2c.2.2.2.5.1.8-.1.1-.2.3-.3.3-.2.1-.3.2-.5.2h0c-.1.2-.2.2-.3.2h0zm1.5 1.1c.1 0 .2-.1.2-.2V6.4s0-.2-.1-.2h-.2v-.1h.2.6.3.1.3.3.1.1v.2.3.1s-.1.1-.1 0v-.2c0-.2-.2-.3-.3-.3h-.2-.6v1.1h.6s.1 0 .2-.1.1-.1.1-.2.1-.1.1 0v.2.1.3.3.1c0 .1-.1.1-.1 0v-.2c0-.1-.1-.2-.2-.2h-.6v1c0 .1 0 .2.1.2h.1.2.1 0 .4c.1 0 .2 0 .3-.1s.1-.2.2-.3v-.1h.1v.1s0 .2-.1.3v.2c0 .1 0 0 0 0h0-.2-.2-.3-.2-.1-.3-.4-.2-.3-.1 0c-.1 0 0-.1 0-.1s.1 0 .1 0h0zM95.8 24.2c.2 0 .3-.1.5.1 0 0 0 .1.1.1v.1c0 .1 0 .2.1.3 0 .1.1.2.1.3s.1.3.2.5c.2.4.4.8.7 1.1.3.4.7.7 1.2 1 .1.1.2.1.3.2.2.1.5.2.7.2.6.1 1.3.2 1.9.1l1.1-.3c.1 0 .2-.1.3-.2s.2-.1.3-.2.3-.2.4-.3c.2-.2.3-.4.5-.6.1-.2.2-.4.2-.6.1-.6.1-1.3-.2-1.9-.1-.3-.4-.6-.6-.9-.1-.1-.3-.3-.5-.4-.2-.2-.5-.3-.7-.5-.2-.1-.3-.2-.4-.2-.1-.1-.1-.1-.2-.1 0 0-.1 0-.2-.1l-.6-.3c-.2-.1-.3-.1-.4-.2l-.5-.2-.3-.2h-.2l-.2-.1c-.1 0-.2-.1-.3-.1s-.1 0-.1-.1c0 0-.1 0-.2-.1s-.4-.2-.6-.4c-.2-.1-.4-.3-.5-.4s-.3-.2-.4-.3c-.3-.3-.5-.6-.7-1-.1-.1-.1-.2-.2-.4-.1-.1-.1-.3-.2-.4-.2-.5-.3-1-.3-1.5-.1-.8.1-1.6.4-2.4.1-.3.2-.5.4-.8a2.36 2.36 0 0 1 .8-.9c.5-.5 1.1-.8 1.8-1.1.2-.1.4-.1.6-.2.7-.2 1.4-.3 2.1-.3h.9.2c.2 0 .4 0 .6.1h.2.4.4.3l1 .1h.2.1c.1 0 .3.2.3.3h0v.1.2.4c0 .2 0 .6.1 1 0 .4.1.9.1 1.2v.3.2c0 .1-.1.1-.2.1s-.2.1-.3.1-.1 0-.2-.1l-.1-.1v-.1-.1l-.3-.9-.6-.9c-.5-.5-1-.8-1.5-.9-.2-.1-.4-.1-.7-.1-.7-.1-1.4 0-2 .3-.1 0-.2.1-.3.1-.3.1-.6.4-.8.6-.4.4-.5.8-.6 1.2-.1.3-.1.7-.1 1 0 .4.1.7.2 1.1.1.3.3.6.5.8l.2.2c.1.1.2.2.3.2.3.2.7.5 1.1.7.1.1.3.1.4.2s.2.1.3.2l.4.2c.2.1.3.1.4.2.2.1.4.2.6.2.1 0 .2.1.3.1 0 0 .1 0 .2.1.1 0 .2.1.3.1.3.2.6.3 1 .5.2.1.5.3.8.5.1.1.3.2.4.3a6.57 6.57 0 0 1 1.2 1.7 4.75 4.75 0 0 1 0 3.7c-.2.7-.7 1.3-1.2 1.7-.3.2-.5.5-.8.6-.2.1-.3.2-.5.3-.4.2-.8.4-1.3.5-.2.1-.5.1-.8.2-.6.1-1.2.2-1.9.2-.6 0-1.2-.1-1.8-.2-.3-.1-.6-.1-1-.2s-.8-.3-1-.4c-.3-.1-.4-.1-.5-.2l-.2-.1h-.1l-.1-.1-.1-.1v-.1l-.1-.5c0-.2 0-.4-.1-.5v-.2c0-.2-.1-.4-.1-.6s-.1-.5-.1-.8v-.4-.3-.1c0-.1 0-.2.1-.2-.5.2-.4.1-.3.1h0zm-42.1 4.7h-.1-.3-.2-.9l-.2.1c-.1 0-.1 0-.2-.1-.1 0-.1-.1-.1-.1v-.2c0-.1 0-.1.1-.2.1-.2.3-.1.4-.1h.1c.1 0 .4 0 .6-.1.1 0 .2 0 .2-.1.2-.1.5-.2.7-.3l.4-.4c.2-.3.3-.6.4-.9 0-.1 0-.2.1-.3a.9.9 0 0 1 .1-.5v-.1-.2-.4-11c0-.3-.1-.6-.2-.9s-.3-.5-.5-.7c-.1-.1-.3-.2-.4-.3-.2-.1-.3-.2-.5-.2-.1-.1-.3-.1-.5-.1h-.2-.1c-.2 0-.3 0-.5-.1-.1-.1-.1-.3-.1-.5 0-.1.1-.1.1-.2h.2.4c.6 0 1.1 0 1.7.1h.3.2.3.3.2.7l1.1-.1h.1.1.1s.1 0 .1.1L70.6 24l.1-.1v-9.8c0-.2 0-.4-.1-.7 0-.1 0-.2-.1-.2 0-.1-.1-.1-.1-.2-.1-.2-.2-.4-.4-.6s-.4-.3-.7-.4c-.2-.1-.4-.1-.7-.2h-.4-.2-.3c-.1 0-.1 0-.2-.1l-.1-.1v-.2c0-.1 0-.1.1-.2s.2-.1.2-.1h.1.5l2.3.1h.6.1.2.2.2.1.4.6.4.6.3.2.1c.1 0 .1 0 .2.1.1 0 .1.1.1.1 0 .1.1.1 0 .2 0 .1 0 .1-.1.2-.1.2-.3.1-.5.1h-.4c-.2 0-.4 0-.6.1-.3.1-.6.2-.8.5-.1.1-.2.3-.3.4-.1.2-.2.4-.3.7 0 .2-.1.4-.1.6v.4.6 11.9.2.2.5c0 .4 0 .7.1 1.1v.1c0 .1 0 .2-.1.3s-.2.1-.3.1h-.6c-.1 0-.1 0-.2-.1l-14.5-15v11.1.3.1.1.1c0 .1.1.4.1.6 0 .1.1.3.1.4.1.2.2.4.4.5s.3.2.5.3c.3.1.5.2.8.2h.2.1.1.2.4c.1 0 .2.1.2.2v.2c0 .1 0 .1-.1.2l-.1.1H59h-.1-.5-.8-.3-.4-.7-.4-1-1.1 0zm-10.9 0h-.3-.3-.4-.4-.3-.1-.2c-.1 0-.1 0-.2-.1l-.1-.1c-.1-.1-.1-.3.1-.4.1-.1.3-.1.4-.1h.5.1.1c.2 0 .5-.1.7-.2.3-.2.5-.4.6-.7v-.2-.2-13.7c0-.2-.1-.4-.1-.6a.78.78 0 0 0-.4-.4c-.2-.1-.3-.2-.5-.2-.1 0-.3-.1-.4-.1h-.1-.2-.4c-.1 0-.3 0-.4-.1 0-.1-.1-.1-.1-.2v-.2c0-.1.1-.1.2-.2h.2.5.8.3.4.5.2.2.2.2 1.1.3.3.6 1.3.6.2.3.1.1c.1 0 .1 0 .2.1l.1.1v.2c0 .1 0 .1-.1.2-.1.2-.3.1-.4.1h-.2-.1-.1-.3c-.2 0-.4.1-.6.2 0 0-.1 0-.1.1-.2.1-.4.3-.5.5-.1.1-.1.3-.1.4v.3V27v.2c0 .2.1.5.4.8.2.2.4.3.6.3.1 0 .3.1.4.1h.1.1.2.5l.1.1s.1.1.1.2 0 .2-.1.4c-.1.1-.1.1-.2.1h-.4-.2-.4-.5-.3-.3-.5-.5-.4-.5-1.1c-.1-.3-.6-.3-1.1-.3h0zm-29-1.9l-6.4-6.7c-.1-.2-.2-.3 0-.5l6.4-5.9c.1-.1.2-.2.3-.2l.3-.3.2-.2c.1-.1.1-.1.1-.2.1-.1.2-.2.2-.4a.47.47 0 0 0-.1-.6c-.1-.1-.2-.1-.4-.2h-.2-.1-.5-.1-.1-.2c-.1 0-.2-.1-.3-.2 0-.1-.1-.1 0-.2 0-.1 0-.2.1-.2l.1-.1h.2.2.5.4 1 .6.3.2.2.1.3.4.4.5 1.1.5.3.3.1.1c.1 0 .3.1.3.2.1.1.1.3 0 .4 0 .1-.1.1-.1.1s-.1.1-.2.1h-.3-.1-.5c-.4.1-.8.1-1.1.3-.2.1-.4.1-.6.2l-.6.3c-.2.1-.5.3-.7.4s-.3.2-.5.3c-.1.1-.3.2-.4.3l-.1.1c-.1.1-.2.2-.3.2l-4.9 4.4 8.2 8.6.1.1s.1 0 .1.1l.1.1.1.1.1.1c.2.1.4.3.6.4l.8.3h.2.1.1c.1 0 .2.1.3.2v.2.2c0 .1-.1.1-.1.1-.1 0-.1.1-.2 0H21h-.2-.2-.3-.2-.3-.6-.3-.2-.2-.2-1.1-.3-.2-.2-.6-1.3-.3-.3-.6-.5-.1-.2l-.1-.1c0-.1-.1-.1-.1-.2v-.2c0-.1.1-.1.1-.1s.1-.1.2-.1h.1.5.2.2c.1 0 .2 0 .3-.1s.1-.2 0-.4c.2-.3 0-.5-.2-.7h0zm25.6 1.1l-.1.3-.1.3v.1c0 .1-.1.1-.1.1s-.1.1-.2.1h-.1-.1-.6c-1.5 0-3 0-4.5-.1H33h-.8-1.6H29h-.7-1-1.8-.6-.7c-.1 0-.1 0-.2-.1-.1 0-.1-.1-.1-.1v-.2c0-.1 0-.1.1-.2.1-.2.3-.1.4-.1h.3.2.1.2c.3 0 .6-.1.9-.4.1-.1.2-.2.3-.4s.1-.4.2-.6v-.2-.2V13c0-.1 0-.3-.1-.4-.1-.2-.1-.4-.3-.6-.1-.1-.3-.2-.5-.3-.3-.1-.5-.1-.8-.2h-.1-.1-.5c-.1 0-.2-.1-.2-.2v-.2c0-.1 0-.1.1-.2s.2-.1.2-.1h.1.6 1 1.6.7.2.2.3.3.2.2.6.7.8.3.2.1.1.1c.1 0 .1 0 .2.1l.1.1v.2c0 .1 0 .1-.1.2l-.1.1h-.2-.7-.2-.1-.1c-.1 0-.3 0-.4.1-.1 0-.2.1-.3.1a.78.78 0 0 0-.4.4c-.1.1-.1.3-.1.4v.4 13.5c0 .3.1.6.4.9.1.1.1.1.2.1.1.1.2.1.3.2.1 0 .1 0 .2.1.1 0 .2 0 .4.1h.1.2.2.1.2.1.3.4.7.7.3.2.3.3c.2 0 .3-.1.5-.1s.3-.1.5-.1a5.3 5.3 0 0 0 1.5-.8c.3-.3.6-.6.8-1 .1-.1.1-.3.2-.4s.1-.2.1-.2l.1-.2v-.1c0-.1.1-.2.2-.3h.3c.1 0 .2.1.2.1l.1.2v.1c0 .1-.1.3-.1.4l-.1.4-.1.2-.2.7-.1.2c-.2.5-.2.9-.3 1.2h0z"/><path d="M3.6 11h.3.8.2.3.3.3 1.1 1.5.6.4.3.1c.1 0 .1 0 .2.1.1 0 .1.1.1.1v.2c0 .1 0 .1-.1.2-.2.2-.4.1-.6.1h-.5c-.3 0-.7.1-1 .2-.2.1-.4.2-.5.3s-.2.2-.2.3c-.2.2-.2.3-.2.4v.2 13.6c0 .1 0 .4.1.6s.3.4.5.5c0 0 .1 0 .1.1 0 0 .1 0 .2.1.1 0 .3.1.5.1h.3.3.2.1.5c.1 0 .2.2.2.3s0 .2-.1.4c-.1.1-.1.1-.2.1h-.1-.3c-.9 0-1.8 0-2.7-.1h-.4-1.8H3h-.8-.7-.3-.3-.1c-.1 0-.1 0-.2-.1-.1 0-.1-.1-.1-.1v-.2c0-.1 0-.1.1-.2.1-.2.3-.1.4-.1h.1.5.1.3c.1 0 .2 0 .2-.1l.6-.3c.1-.3.2-.5.2-.8v-.2-13.6c0-.2 0-.3-.1-.5s-.2-.4-.3-.5c-.2-.2-.4-.3-.7-.3h-.2-.2-.2-.1H1 .5s-.1 0-.1-.1l-.1-.1v-.2c0-.1 0-.1.1-.2l.1-.1h.1.1.6.9.3c.4-.1.8-.1 1.1-.1h0zm38.2-5.7L45.6 9l3.8-3.8-3.8-3.8-3.8 3.9h0zM75 24.8c.8 1.4 2.1 2.6 3.6 3.4s3.2 1.2 5 1.2c1.7 0 3.5-.4 5-1.2s2.7-2 3.6-3.5a11.03 11.03 0 0 0 1.3-5.1c0-1.7-.4-3.4-1.3-4.7-.9-1.4-2.2-2.4-3.5-3.1s-2.7-1-3.9-1.1-2.3-.1-3.2.1-1.8.5-2.7.9c-.9.5-1.7 1.1-2.4 1.8-.8.8-1.4 1.8-1.9 2.8-.5 1.3-.8 2.6-.8 4-.1 1.4.3 3.1 1.2 4.5h0zm2.4-5.5c0-1.4.2-2.6.6-3.7s1-2.2 1.9-2.9 2.2-1.1 3.5-1.1c1.2 0 2.5.4 3.4 1.2 1 .8 1.7 2 2.2 3.2s.7 2.6.7 3.9c0 1.2-.1 2.4-.3 3.5-.2.9-.4 1.5-.7 2a6.42 6.42 0 0 1-1 1.3c-.4.4-.8.6-1.2.9-.5.2-.9.4-1.5.5s-1.3.2-2.1 0-1.8-.5-2.6-1.3-1.6-2-2-3.3c-.7-1.4-.9-2.9-.9-4.2h0zM.8 33.6v5h2.8v-.7H1.5v-1.7h2.1v-.7H1.5v-1.3h2.1v-.7H.8zm5.8-.2v5.2h.7V35l3.7 3.8v-5.3h-.7v3.6l-3.7-3.7zm7.3.2v.7h1.2v4.3h.7v-4.3H17v-.7h-3.1zm6.7.6c.5 0 .8 0 1 .1.3.1.5.4.5.7s-.2.6-.5.8c-.2.1-.5.1-1 .1v-1.7h0zm-.6-.6v5h.7v-2.1h.2l1.4 2.1h.7l-1.5-2.1c.4-.1.6-.2.8-.4.3-.3.5-.6.5-1.1 0-.8-.8-1.4-1.8-1.4h-1 0zm5.9 0v5h2.8v-.7h-2.1v-1.7h2.1v-.7h-2.1v-1.3h2.1v-.7h-2.8zm6.5.6c.5 0 .8 0 1 .1.3.1.5.4.5.7 0 .6-.5.9-1.5.9v-1.7h0zm-.7-.6v5h.7v-2.1c.6 0 .9-.1 1.3-.2.6-.3 1-.7 1-1.3 0-.9-.8-1.4-1.9-1.4h-1.1 0 0zm6.6.6c.5 0 .8 0 1 .1.3.1.5.4.5.7s-.2.6-.5.8c-.2.1-.5.1-1 .1v-1.7h0 0zm-.7-.6v5h.7v-2.1h.2l1.4 2.1h.8l-1.5-2.1c.4-.1.6-.2.8-.4.3-.3.5-.6.5-1.1 0-.8-.8-1.4-1.8-1.4h-1.1 0zm6 0v5h.7v-5h-.7zm6.9.6c-.2-.3-.3-.4-.6-.5-.3-.2-.6-.2-1-.2-.8 0-1.5.6-1.5 1.3 0 .3.1.6.4.9s.5.4 1 .6l.8.4c.2.2.3.4.3.6 0 .5-.4.8-.9.8s-.9-.3-1.2-.8l-.7.2c.2.4.3.6.5.8.4.4.8.6 1.4.6.9 0 1.6-.7 1.6-1.5 0-.4-.1-.8-.4-1.1-.4-.3-.5-.4-1.1-.7s-.9-.5-.9-.8c0-.4.3-.6.8-.6.4 0 .6.1.9.5l.6-.5h0zm3.1-.6v5h2.8v-.7h-2.1v-1.7h2.1v-.7h-2.1v-1.3h2.1v-.7h-2.8zm12.1.7h.3c.6 0 1 .1 1.2.2.7.3 1.1.9 1.1 1.7 0 .7-.4 1.4-1.1 1.6-.4.2-.7.2-1.6.2h0l.1-3.7h0 0zm-.7-.7v5h1.2a4.44 4.44 0 0 0 1.3-.2c.4-.2.8-.5 1.1-.9s.4-.9.4-1.4c0-.7-.3-1.3-.7-1.8-.5-.5-1.2-.7-2.1-.7H65zm7 0v5h2.8v-.7h-2.1v-1.7h2.1v-.7h-2.1v-1.3h2.1v-.7H72zm12.2.6c.5 0 .8 0 1 .1.3.1.5.4.5.7 0 .6-.5.9-1.5.9v-1.7h0zm-.7-.6v5h.7v-2.1c.6 0 .9-.1 1.3-.2.6-.3 1-.7 1-1.3 0-.9-.8-1.4-1.9-1.4h-1.1 0 0zm6.6.6c.5 0 .8 0 1 .1.3.1.5.4.5.7s-.2.6-.5.8c-.2.1-.5.1-1 .1v-1.7h0zm-.7-.6v5h.7v-2.1h.2l1.4 2.1h.8L91 36.5c.4-.1.6-.2.8-.4.3-.3.5-.6.5-1.1 0-.8-.8-1.4-1.8-1.4h-1.1 0zm8.5.5c1.2 0 2.1.9 2.1 2s-.9 2-2 2c-1.2 0-2.1-.9-2.1-2s.9-2 2-2zm.1-.7c-1.6 0-2.8 1.2-2.8 2.6 0 1.5 1.2 2.7 2.8 2.7s2.8-1.2 2.8-2.7c-.1-1.4-1.3-2.6-2.8-2.6h0zm6.4.8c.5 0 .8 0 1 .1.3.1.5.4.5.7 0 .6-.5.9-1.5.9v-1.7h0zm-.7-.6v5h.7v-2.1c.6 0 .9-.1 1.3-.2.6-.3 1-.7 1-1.3 0-.9-.8-1.4-1.9-1.4h-1.1 0 0zm6.5.6c.5 0 .8 0 1 .1.3.1.5.4.5.7s-.2.6-.5.8c-.2.1-.5.1-1 .1v-1.7h0 0zm-.6-.6v5h.7v-2.1h.2l1.4 2.1h.8l-1.5-2.1c.4-.1.6-.2.8-.4.3-.3.5-.6.5-1.1 0-.8-.8-1.4-1.8-1.4h-1.1 0zm5.9 0v5h2.8v-.7h-2.1v-1.7h2.1v-.7h-2.1v-1.3h2.1v-.7h-2.8zm5.8 0v.7h1.2v4.3h.7v-4.3h1.2v-.7h-3.1zm6 0v5h2.8v-.7H128v-1.7h2.1v-.7H128v-1.3h2.1v-.7h-2.8z"/></svg>