<svg xmlns="http://www.w3.org/2000/svg" width="196" height="80" fill="none" xmlns:v="https://vecta.io/nano"><path d="M45.848 40.797c0 12.59-10.264 22.797-22.924 22.797S0 53.387 0 40.797 10.263 18 22.924 18s22.924 10.206 22.924 22.797z" fill="#da552f"/><path d="M25.98 40.797h-6.495v-6.839h6.495c.451 0 .899.088 1.316.26a3.44 3.44 0 0 1 1.116.741 3.42 3.42 0 0 1 .745 1.109c.173.415.262.86.262 1.309s-.089.894-.262 1.309a3.42 3.42 0 0 1-.745 1.109 3.44 3.44 0 0 1-1.116.741c-.417.172-.864.26-1.316.26m0-11.399H14.901v22.797h4.585v-6.839h6.495c4.431 0 8.023-3.572 8.023-7.979s-3.592-7.979-8.023-7.979" fill="#fff"/><path d="M69.931 38.011c0-1.255-.969-2.015-2.228-2.015h-3.375v4.006h3.376c1.259 0 2.228-.76 2.228-1.991h-.001zm-8.8 10.385V33.198h7.021c3.265 0 5.041 2.194 5.041 4.813 0 2.596-1.799 4.789-5.041 4.789h-3.824v5.596h-3.196-.001zm14.008 0v-11.08h2.856v1.455c.788-.94 2.117-1.723 3.468-1.723v2.775c-.204-.044-.451-.066-.788-.066-.946 0-2.207.536-2.68 1.232v7.408h-2.857.001zm15.939-5.685c0-1.679-.992-3.133-2.793-3.133-1.779 0-2.767 1.455-2.767 3.134 0 1.7.989 3.155 2.767 3.155 1.8 0 2.792-1.455 2.792-3.156m-8.531 0c0-3.066 2.161-5.663 5.74-5.663 3.602 0 5.762 2.596 5.762 5.663s-2.161 5.685-5.762 5.685c-3.579 0-5.74-2.619-5.74-5.685zm21.12 1.925v-3.827c-.473-.717-1.507-1.231-2.454-1.231-1.641 0-2.767 1.276-2.767 3.134 0 1.879 1.126 3.155 2.767 3.155.947 0 1.981-.515 2.454-1.232v.001zm0 3.76V46.74c-.856 1.074-2.025 1.656-3.354 1.656-2.723 0-4.816-2.058-4.816-5.685 0-3.513 2.049-5.663 4.816-5.663 1.283 0 2.498.538 3.354 1.656v-5.506h2.881v15.198h-2.881zm13.062 0v-1.634c-.742.806-2.047 1.634-3.826 1.634-2.385 0-3.51-1.298-3.51-3.402v-7.677h2.857v6.559c0 1.5.788 1.992 2.003 1.992 1.102 0 1.981-.604 2.476-1.232v-7.319h2.858v11.08h-2.858zm5.005-5.685c0-3.312 2.43-5.663 5.762-5.663 2.228 0 3.578.963 4.299 1.948l-1.869 1.745c-.517-.761-1.305-1.163-2.295-1.163-1.733 0-2.948 1.254-2.948 3.134s1.215 3.155 2.948 3.155c.99 0 1.778-.447 2.295-1.187l1.869 1.746c-.721.985-2.071 1.969-4.299 1.969-3.332 0-5.762-2.35-5.762-5.685zm12.519 2.709v-5.618h-1.8v-2.485h1.8v-2.955h2.859v2.955h2.204v2.485h-2.204v4.857c0 .694.358 1.209.989 1.209.427 0 .834-.157.99-.335l.609 2.17c-.427.382-1.193.695-2.387.695-2.003 0-3.06-1.029-3.06-2.977m23.372 2.977v-6.559h-7.09v6.559h-3.194V33.198h3.194v5.864h7.09v-5.863h3.219v15.197h-3.219zm13.447 0v-1.634c-.742.806-2.047 1.634-3.826 1.634-2.385 0-3.51-1.298-3.51-3.402v-7.677h2.857v6.559c0 1.5.788 1.992 2.004 1.992 1.102 0 1.981-.604 2.475-1.232v-7.319h2.859v11.08h-2.859zm13.037 0v-6.803c0-1.5-.786-2.015-2.003-2.015-1.125 0-1.979.627-2.475 1.254v7.565h-2.857V37.316h2.857v1.388c.698-.805 2.048-1.656 3.804-1.656 2.408 0 3.556 1.343 3.556 3.446v7.902h-2.881-.001zm6.287-2.977v-5.618h-1.798v-2.485h1.799v-2.955h2.859v2.955h2.205v2.485h-2.205v4.857c0 .694.36 1.209.99 1.209.427 0 .834-.157.991-.335l.607 2.17c-.427.382-1.194.695-2.386.695-2.003 0-3.061-1.029-3.061-2.977" fill="#da552f"/></svg>