<?xml version="1.0" encoding="utf-8"?>
<!-- Generator: Adobe Illustrator 23.0.1, SVG Export Plug-In . SVG Version: 6.00 Build 0)  -->
<svg version="1.1" id="Layer_1" xmlns="http://www.w3.org/2000/svg" xmlns:xlink="http://www.w3.org/1999/xlink" x="0px" y="0px"
	 viewBox="0 0 160 41" style="enable-background:new 0 0 160 41;" xml:space="preserve">
<style type="text/css">
	.st0{fill-rule:evenodd;clip-rule:evenodd;fill:#fff;opacity:.5;}
</style>
<path class="st0" d="M37.2,12.6h-3.7l-8.7,15.1h3.4l1.7-3.1h5.3l0.3,3.1H39L37.2,12.6z M31.3,22l3.2-6h0l0.3,6H31.3z M51.3,12.6
	h-7.9l-3.2,15.1h3.4l1.3-5.8h3.1c1.5,0,2.2,0.8,2.1,2l-0.5,3.8h3.5C53,27.5,53,27.3,53,27.1l0.4-4c0.1-0.9-0.4-2.4-1.5-2.6
	c1.7-0.3,3-1.3,3.4-3.2C55.6,16,55.3,12.6,51.3,12.6z M51.9,17.2c-0.3,1.5-1.3,2.1-2.9,2.1h-3.6l0.9-4h3.8
	C52,15.2,52.1,16.4,51.9,17.2z M9.5,12c-5,0-6.8,2.2-7.2,3.9c-0.7,3.3,1.5,4.4,3.8,5l1.6,0.4c1.5,0.4,2.9,1.2,2.6,2.3
	c-0.3,1.6-2.3,2-3.8,2c-2.1,0-2.9-1.6-2.8-2.7H0.2c-0.3,2.1,0.3,5.3,5.9,5.3c1.3,0,6.6,0.3,7.6-5c0.5-2.7-1.7-4-3.7-4.5L7,17.9
	c-0.6-0.1-1.2-0.5-1-1.7c0.1-1.1,1.5-1.6,2.7-1.6c3.4,0,3.2,2.1,3.2,2.8h3.3C15.6,15.6,15.6,12,9.5,12z M63.1,25.7
	c-2.7,0-3.8-2.8-3.2-5.5c0.9-4.3,3.9-5.1,5.4-5.1c3.3,0,3.4,2,3.4,2.9h3.2c0.4-2.5-1.5-5.7-6.1-5.7c-3.9,0-8.4,2.5-9.5,7.8
	c-1.1,5.2,2.3,8.3,6.4,8.3c5.1,0,7.1-2.1,8.5-5.4h-3.7C66.8,24.8,65.7,25.7,63.1,25.7z M101.6,27.8h3.2l1.4-6.4h7.2l0.6-2.7h-7.2
	l0.7-3.4h8.5l0.6-2.7h-11.7L101.6,27.8z M117.6,12.6l-0.6,2.7h5.2l-2.7,12.5h3.2l2.7-12.5h5.2l0.6-2.7H117.6z M29.8,12.6H16.2
	l-0.6,2.7h5.2l-2.7,12.5h3.2L24,15.3h5.2L29.8,12.6z M130.8,27.8h15.2c2.3,0,4.3-1.9,5.1-3.3l2.3-3.8h-18.5L130.8,27.8z M144.6,12.6
	c-2.3,0-4.3,1.9-5.1,3.3l-2.3,3.8h18.5l4.1-7.1H144.6z M98.5,12.6h-3.7l-8.7,15.1h3.4l1.7-3.1h5.3l0.3,3.1h3.5L98.5,12.6z M92.6,22
	l3.2-6h0l0.3,6H92.6z M82.9,12.6H75l-3.2,15.1h3.4l1.3-5.8h3.1c1.5,0,2.2,0.8,2.1,2l-0.5,3.8h3.5c-0.1-0.3-0.1-0.4-0.1-0.7l0.4-4
	c0.1-0.9-0.4-2.4-1.5-2.6c1.7-0.3,3-1.3,3.4-3.2C87.3,16,87,12.6,82.9,12.6z M83.6,17.2c-0.3,1.5-1.3,2.1-2.9,2.1h-3.6l0.9-4h3.8
	C83.6,15.2,83.7,16.4,83.6,17.2z"/>
</svg>
