<?xml version="1.0" standalone="no"?>
<!DOCTYPE svg PUBLIC "-//W3C//DTD SVG 20010904//EN"
 "http://www.w3.org/TR/2001/REC-SVG-20010904/DTD/svg10.dtd">
<svg version="1.0" xmlns="http://www.w3.org/2000/svg"
 width="512.000000pt" height="512.000000pt" viewBox="0 0 512.000000 512.000000"
 preserveAspectRatio="xMidYMid meet">
<metadata>
Created by potrace 1.14, written by Peter Selinger 2001-2017
</metadata>
<g transform="translate(0.000000,512.000000) scale(0.100000,-0.100000)"
fill="#000000" stroke="none">
<path d="M2538 4676 c-1 -2 -32 -6 -68 -10 -188 -18 -406 -130 -529 -272 -40
-46 -121 -168 -121 -182 0 -6 -4 -12 -8 -14 -4 -1 -21 -29 -37 -60 -17 -31
-147 -267 -290 -523 -326 -586 -310 -556 -356 -643 -57 -107 -48 -180 30 -226
30 -17 59 -18 449 -18 229 0 422 1 429 1 7 1 17 20 24 43 32 122 129 250 237
315 246 147 548 75 705 -167 227 -349 0 -821 -408 -847 -228 -15 -445 132
-523 354 l-18 50 -45 -2 c-79 -5 -193 -19 -314 -40 -16 -3 -77 -17 -135 -31
-395 -98 -757 -297 -1016 -559 -86 -87 -111 -121 -167 -221 -150 -273 -171
-498 -71 -766 128 -341 498 -499 828 -353 63 28 132 72 169 108 52 51 265 207
283 207 3 0 25 13 48 28 115 78 483 230 621 258 11 2 54 10 95 19 41 8 95 17
120 20 54 6 237 7 265 1 11 -2 47 -7 80 -10 231 -26 554 -150 777 -300 97 -65
122 -85 212 -168 75 -70 165 -126 248 -155 103 -36 255 -41 359 -12 203 56
353 194 428 393 12 32 24 72 26 89 18 111 21 138 20 192 -3 128 -27 235 -74
340 -11 22 -117 216 -236 430 -120 215 -233 419 -253 455 -20 36 -46 83 -58
105 -13 22 -31 56 -42 75 -11 19 -85 152 -164 295 -159 285 -180 322 -228 409
-17 32 -45 81 -61 108 -16 27 -29 50 -29 52 0 2 -24 46 -53 97 -29 52 -70 125
-90 162 -21 37 -46 82 -56 100 -10 18 -33 59 -51 92 -18 33 -73 131 -122 219
-126 226 -170 285 -285 377 -127 101 -286 165 -438 175 -44 3 -85 7 -92 9 -6
2 -13 2 -15 1z"/>
</g>
</svg>
