<svg xmlns="http://www.w3.org/2000/svg" width="184" height="333" fill="none" xmlns:v="https://vecta.io/nano"><path opacity=".1" fill-rule="evenodd" d="M-9.425 159.621c2.444-39.613 22.682-74.605 57.105-90.7.395-.219.736-.323 1.121-.555l.286-.101h.055l.17-.104.334-.128c25.937-11.466 54.989-10.137 81.542 1.211h.106l1.455.68.229.104c.443.209.896.437 1.394.646l.279.128 1.339.656h.171c.504.337.947.545 1.448.774l.171.101c2.011.993 3.974 1.988 5.923 3.095l.287.209c.327.128.671.347.998.579.229.091.45.209.672.299.276.232.569.347.841.579.273.091.505.313.778.437.276.209.565.323.841.555.222.091.498.323.723.437.276.209.562.323.835.542.279.104.504.333.78.542.294.138.515.347.791.437.273.232.556.347.828.579l.737.542c.272.104.555.336.828.545.286.114.511.347.736.437a7.8 7.8 0 0 0 .893.68c.221.209.443.313.668.451.279.209.555.437.9.646.221.232.433.336.654.545.344.229.62.451.958.68.163.209.385.31.555.437.501.437 1.009.75 1.51 1.198l-50.081 23.507c-7.59-1.534-15.367-2.308-23.298-2.308-28.111 0-54.992 9.918-76.127 28.24l-.221.229c-.392.337-.774.774-1.118 1.087l-.106.128-.515.309-.668.68c-.279.313-.61.545-.89.75l-.065.138-.327.299c-.276.233-.562.576-.791.788l-.157.101-.337.333-.334.346-.614.646-.791.787-.45.438-.498.541-.334.337-.273.333-.791.774-.106.208-.341.347-.504.545c-.222.242-.395.451-.62.774H.108c-.273.346-.562.656-.893.992l-.613.784-.62.75-.334.333c-.222.233-.392.438-.549.67l-.065.114-.334.438-.17.208c-.17.232-.327.438-.549.67l-.293.343c-.327.437-.603.878-.947 1.191v.128c-1.428 1.887-2.825 3.872-4.165 5.861zM37.796.715c11.963 15.796 18.439 37.543 17.88 61.258-2.515.888-4.969 1.867-7.484 2.967l-.515.232-.327.101c-.392.232-.791.346-1.169.555-37.729 17.663-57.395 56.06-59.184 96.009-14.594-22.744-19.069-55.415-9.618-88.379C-12.455 38.029 11.141 11.222 37.796.715zm-53.71 162.886c-12.181-6.857-22.024-16.775-28.05-29.59-11.854-25.142-5.648-54.711 13.357-77.777l5.818 12.468c-.395 1.221-.794 2.55-1.121 3.751-4.918 17.111-6.493 35.188-3.858 52.75 1.946 13.461 6.421 26.912 13.855 38.398zm6.489 9.827c2.444 39.598 22.682 74.581 57.105 90.686.395.219.736.333 1.121.542l.286.138h.055l.17.091.334.114c25.937 11.476 54.989 10.147 81.542-1.221h.106c.511-.209.961-.438 1.455-.646l.229-.114c.443-.233.896-.438 1.394-.569l.279-.219 1.339-.669h.171c.504-.209.947-.542 1.448-.764h.171l5.923-3.21.287-.1a44.01 44.01 0 0 0 .998-.66c.229-.091.45-.229.672-.323.276-.209.569-.343.841-.552.273-.104.505-.336.778-.437s.565-.347.841-.555c.222-.115.498-.323.723-.437.276-.233.562-.334.835-.566.279-.104.504-.313.78-.437.294-.222.515-.451.791-.545.273-.209.556-.343.828-.555l.737-.552c.272-.114.555-.323.828-.555.286-.114.511-.323.736-.451.273-.208.549-.437.893-.656.221-.091.443-.323.668-.437a10.64 10.64 0 0 1 .9-.67c.221-.208.433-.309.654-.541.344-.219.62-.451.958-.657.163-.232.385-.323.555-.437.501-.437 1.009-.787 1.51-1.225l-50.081-23.506c-7.59 1.557-15.367 2.445-23.298 2.445-28.111 0-54.992-10.052-76.127-28.375l-.221-.208c-.392-.323-.774-.764-1.118-1.11l-.106-.115-.515-.323-.668-.646c-.279-.229-.61-.575-.89-.784l-.065-.114-.327-.323c-.276-.232-.562-.555-.791-.787l-.157-.091-.337-.347-.334-.309-.614-.683-.791-.774-.45-.451-.498-.531-.334-.347-.273-.313-.791-.773-.106-.233-.341-.323-.504-.565c-.222-.208-.395-.451-.62-.75H.108c-.273-.347-.562-.683-.893-1.016l-.613-.764-.62-.774-.334-.333c-.222-.208-.392-.437-.549-.646l-.065-.138-.334-.437-.17-.209c-.17-.208-.327-.437-.549-.645l-.293-.347c-.327-.437-.603-.878-.947-1.221v-.094c-1.428-1.881-2.825-3.89-4.165-5.851zm47.221 158.869c11.963-15.759 18.439-37.51 17.88-61.222-2.515-.891-4.969-1.894-7.484-2.991l-.515-.232-.327-.101c-.392-.208-.791-.323-1.169-.555-37.729-17.666-57.395-56.05-59.184-95.881-14.594 22.629-19.069 55.29-9.618 88.284 10.167 35.397 33.762 62.214 60.418 72.698zm-53.71-162.856c-12.181 6.836-22.024 16.755-28.05 29.566-11.854 25.169-5.648 54.738 13.357 77.804l5.818-12.481c-.395-1.198-.794-2.54-1.121-3.752-4.918-17.097-6.493-35.198-3.858-52.736 1.946-13.451 6.421-26.817 13.855-38.401zM184 166.571l-1.789 2.874c-.051.104-.171.336-.28.437a111.85 111.85 0 0 1-50.081 42.707c-11.063 4.734-15.483 6.164-27.828 4.525-13.135-1.665-23.306-7.502-30.463-15.563 2.566.555 5.197.783 7.883.783 20.065 0 36.332-15.997 36.332-35.763 0-19.856-16.267-35.861-36.332-35.861-2.686 0-5.317.209-7.883.788 7.157-8.058 17.328-13.922 30.463-15.564 12.345-1.665 16.765-.104 27.828 4.525 20.743 8.933 38.173 23.941 50.081 42.694.113.114.229.323.28.451a73.42 73.42 0 0 1 1.789 2.967zm-69.699 0c0 17.872-14.696 32.44-32.859 32.44-4.022 0-7.883-.784-11.462-2.1-6.094-8.808-9.103-19.651-9.103-30.34 0-10.806 3.013-21.612 9.103-30.454 3.579-1.315 7.437-1.975 11.462-1.975 18.166-.003 32.859 14.44 32.859 32.429zm-56.89 0c0-25.054 15.426-49.991 46.168-54.065l-16.431-1.211c-28.282 0-54.099 10.379-73.833 27.581l-.222.222c-.385.219-.777.669-1.118.992h-.109l-.443.451-.341.333-.279.209-.051.114c-.276.232-.562.438-.842.764h-.051l-.17.232-.17.115c-.279.322-.556.555-.832.787v.091h-.065-.055v.114h-.051l-.228.232-.222.209h-.051l-.055.101h-.065l-.051.127-.443.438h-.058v.104h-.116l-.157.209h-.065l-.106.242h-.055l-.065.091H6.73h-.058v.114h-.048-.065l-.334.438h-.055l-.286.336h-.051v.101h-.055-.051v.128h-.072-.048v.104h-.058l-.055.104h-.065l-.055.101h-.051l-.276.347-.116.091-.334.346v.101h-.065-.055v.128H4.43h-.055v.091H4.31h-.055v.114h-.058-.048v.101l-.293.232-.106.209-.276.333h-.065-.055c-.17.232-.392.555-.556.787h-.116a10.55 10.55 0 0 0-.777.983h-.051-.065v.1h-.051l-.392.556h-.051-.055v.114h-.051l-.072.114-.378.438-.116.101-.276.336v.114H.292c-.17.233-.337.438-.508.67h-.051v.104h-.055-.058v.101h-.058-.051v.105h-.058v.127h-.048-.072v.105h-.051v.101h-.055c-.17.232-.341.437-.498.669h-.065v.114h-.051-.055v.101h-.058v.105h-.065c-.327.437-.603.773-.89 1.224h-.058a126.36 126.36 0 0 0-5.474 7.94h.007c-.279.438-.562.878-.784 1.329h.007-.065v.101h-.058l-.273.438v.104h-.055v.128h-.065v.101l-.279.336h-.051l-.055.114h-.065-.055-.106l-.065.091h-.055-.051-.055-.065v.115h.065.055.051.055l.065.114h.106.055.065l.055.114h.051l.279.333v.105h.065v.101h.055v.104l.273.437h.058v.128h.065c.218.451.498.888.774 1.329h.007a116.91 116.91 0 0 0 5.467 7.92h.058c.286.437.562.901.89 1.224h.065v.115h.058v.114h.055.051v.115h.065c.157.323.327.437.498.646l.055.127h.051v.101h.072.048v.105h.058v.101h.051.058v.127h.058l.055.101h.051c.17.209.341.438.508.646h.058v.138l.276.31.116.128.378.413.072.138h.051v.091h.055.051l.392.555h.051v.091h.065.051c.228.347.504.68.777 1.016h.116c.164.323.385.555.556.764h.055.065l.276.336.106.229.293.313h.048.058v.128h.055.065v.104h.055.051v.115h.051l.065.09.334.347.116.091.276.346h.051l.055.101h.065v.128h.055.058v.104h.048.072v.105h.051.055v.101h.051l.286.333h.055l.334.437h.065.048v.114h.058.051v.128h.065.055v.101l.106.105h.065l.157.228h.116v.105h.058l.443.437.051.114h.065l.055.091h.051l.222.232.228.209h.051v.138h.055.065v.101c.276.208.549.545.832.774l.17.114.17.208h.051c.279.323.566.569.842.764l.051.115.279.232.341.323.443.437h.109c.341.437.729.774 1.118 1.11l.222.209c19.737 17.121 45.555 27.487 73.833 27.487l16.431-1.225c-30.739-4.003-46.175-28.943-46.168-53.877z" fill="#fff"/></svg>