<svg xmlns="http://www.w3.org/2000/svg" width="148" height="80" fill="none" xmlns:v="https://vecta.io/nano"><g clip-path="url(#A)" fill="#576071"><path fill-rule="evenodd" d="M43.531 49.725V31.515h2.342L57.002 46.17V31.515h2.226v18.211h-2.341l-11.129-14.8v14.8h-2.226zm33.82-.723c-1.474.549-3.064.838-4.741.838-6.591 0-9.886-3.151-9.886-9.481 0-5.984 3.18-8.99 9.539-8.99 1.821 0 3.526.26 5.088.752v2.023a13.23 13.23 0 0 0-4.827-.896c-4.972 0-7.458 2.37-7.458 7.053 0 5.059 2.457 7.573 7.342 7.573.78 0 1.648-.116 2.602-.318v-6.099h2.341v7.544h0zm3.758-6.301V31.515h2.341v11.187c0 3.498 1.734 5.261 5.232 5.261 3.469 0 5.232-1.763 5.232-5.261V31.515h2.341v11.187c0 4.77-2.515 7.169-7.573 7.169s-7.573-2.399-7.573-7.169h0zm21.68-11.187v16.303h9.539v1.908h-11.88V31.515h2.341 0zm12.921 18.211h-2.457l9.048-20.61 9.047 20.61h-2.601l-2.342-5.723h-6.012l.636-1.908h4.596l-3.411-8.238-6.504 15.87h0zm18.153 0V31.515h7.776c3.469 0 5.203 1.445 5.203 4.365 0 2.37-1.705 4.134-5.087 5.261l6.243 8.585h-3.093l-5.781-8.181v-1.532c3.469-.549 5.232-1.879 5.232-4.018 0-1.677-.954-2.515-2.89-2.515h-5.204v16.245h-2.399 0z"/><path d="M22.635 41.199l-3.931-8.209-3.44 8.209h7.371z"/><path fill-rule="evenodd" d="M18.645 20.01L0 26.658l2.862 24.657 15.783 8.759L34.688 51.2l3.093-24.657-19.136-6.533zM7.055 50.536l11.62-25.842 12.112 25.9-4.134-.087-2.544-5.897H13.732l-2.341 5.839-4.336.087z"/></g><defs><clipPath id="A"><path fill="#fff" transform="translate(0 20)" d="M0 0h148v40.197H0z"/></clipPath></defs></svg>