<svg xmlns="http://www.w3.org/2000/svg" width="148" height="80" fill="none" xmlns:v="https://vecta.io/nano"><g clip-path="url(#A)" fill="#fff"><path fill-rule="evenodd" d="M7.663 25C5.558 25 4 26.895 4.07 28.95c.067 1.974-.02 4.532-.646 6.617-.628 2.091-1.69 3.416-3.424 3.587v1.92c1.734.17 2.796 1.495 3.424 3.587.626 2.085.713 4.642.646 6.617-.07 2.055 1.488 3.95 3.594 3.95h21.572c2.105 0 3.663-1.895 3.593-3.95-.067-1.974.02-4.532.646-6.617.628-2.092 1.687-3.417 3.422-3.587v-1.92c-1.734-.17-2.793-1.495-3.422-3.587-.626-2.085-.713-4.642-.646-6.617.07-2.055-1.488-3.95-3.593-3.95H7.663h0zm17.351 18.607c0 2.83-2.052 4.546-5.458 4.546h-5.798c-.166 0-.325-.068-.442-.188s-.183-.284-.183-.455V32.718c0-.171.066-.334.183-.455s.276-.188.442-.188h5.765c2.84 0 4.704 1.582 4.704 4.011 0 1.705-1.254 3.231-2.851 3.499v.089c2.175.245 3.639 1.794 3.639 3.934zm-6.091-9.494h-3.306v4.802h2.785c2.153 0 3.339-.891 3.339-2.485 0-1.493-1.021-2.318-2.818-2.318zm-3.306 6.708v5.292h3.428c2.241 0 3.428-.925 3.428-2.663s-1.22-2.63-3.572-2.63h-3.283 0z" fill-opacity=".7"/><path d="M45.61 32.213c.084-.015.153-.039.222-.039l8.505.046c.966.013 1.854.354 2.648.919 1.812 1.289 1.979 4.972-.508 6.293l-.424.227c.473.217.938.362 1.328.621 1.496.994 2.105 3.217 1.435 5.17-.584 1.704-1.972 2.408-3.585 2.782-.53.123-1.085.187-1.629.191l-7.991.009V32.213zm2.835 13.842l5.796-.016c1.201-.038 2.069-1.326 1.997-2.578-.071-1.234-.831-2.284-2.006-2.339l-5.691-.083c-.028 0-.057.041-.096.072v4.945zm.007-7.13l5.152-.021c1.246-.063 1.949-1.059 1.902-2.421-.041-1.206-.753-1.931-2.035-1.964l-4.823-.026c-.066 0-.131.035-.197.054v4.379zm87.857-2.228h2.363v1.267l.879-.682c1.811-1.554 6.106-1.363 7.576 1.766 1.265 2.694 1.21 5.402-.498 7.91-.945 1.389-2.41 1.885-4.069 1.796-1.441-.078-2.71-.531-3.708-1.865v5.906h-2.543V36.697zm2.4 5.931l.33 1.767c.367 1.279 1.486 2.225 2.645 2.307 1.55.109 2.663-.463 3.224-1.838.712-1.746.687-3.508-.354-5.14-1.228-1.925-4.17-1.765-5.21.252-.428.83-.638 1.704-.635 2.651zm-4.075 4.124l-.012 1.461c-.007.12-.158.324-.256.332-.737.061-1.486.169-2.214.093-.642-.067-.995-.611-1.193-1.239-1.523 1.24-3.269 1.508-5.127 1.278-1.553-.192-2.84-1.468-2.951-2.884-.153-1.952.597-3.223 2.35-3.686 1.229-.324 2.51-.455 3.767-.674l.911-.178c.572-.156.985-.473 1.027-1.124.043-.673-.218-1.198-.851-1.452-1.079-.434-2.179-.424-3.242.074-.485.227-.773.684-1.027 1.459h-2.491a3.42 3.42 0 0 1 .963-2.42c.834-.888 1.92-1.236 3.089-1.359 1.225-.128 2.442-.122 3.632.279 1.599.539 2.365 1.595 2.363 3.284l-.001 5.381c0 1.273 0 1.273 1.263 1.377zm-3.85-4.047l-2.212.389c-.746.156-1.506.291-2.217.551-.697.255-.934.907-.91 1.606.021.669.478 1.044 1.067 1.249 1.01.353 2.022.309 2.985-.141.69-.323 1.215-.85 1.277-1.656.051-.671.01-1.35.01-1.998zm-64.099-6.346c3.907-.046 6.198 2.818 5.956 6.717-.084 1.355-.448 2.622-1.34 3.693-.961 1.154-2.198 1.762-3.681 1.927-1.238.138-2.442.057-3.589-.464-1.709-.776-2.684-2.129-3.094-3.933-.281-1.236-.269-2.467.046-3.69.695-2.698 2.773-4.239 5.701-4.25zm-3.401 6.223l.317 1.714c.41 1.414 1.526 2.348 2.802 2.41 1.577.076 2.681-.587 3.267-2.056.572-1.434.573-2.902-.054-4.319-.93-2.099-3.463-2.636-5.094-1.076-.93.89-1.17 2.072-1.238 3.327zm16.955-6.222c3.524-.006 5.921 2.369 5.966 5.901.019 1.491-.224 2.913-1.099 4.163-1.253 1.788-3.063 2.414-5.147 2.319-.768-.035-1.564-.206-2.279-.486-1.68-.66-2.682-1.958-3.127-3.696-.391-1.526-.347-3.043.15-4.535.762-2.288 2.854-3.662 5.537-3.666zm3.377 5.905c-.057-.313-.113-.918-.282-1.491-.429-1.455-1.564-2.338-2.993-2.401-1.346-.059-2.557.735-3.079 2.125-.615 1.637-.57 3.268.357 4.794.965 1.589 3.153 1.937 4.588.752 1.095-.905 1.363-2.154 1.409-3.779zm21.786-2.304c-.804 0-1.587.007-2.369-.008-.097-.002-.247-.098-.278-.185-.44-1.222-1.475-1.368-2.546-1.374-.444-.003-.916.105-1.328.278-.879.368-.976 1.363-.153 1.839.571.33 1.242.508 1.886.689l2.758.685c2.316.7 3.221 3.022 1.925 4.936-.622.918-1.553 1.415-2.619 1.672-1.576.38-3.146.408-4.686-.148-1.648-.596-2.519-1.791-2.647-3.6h2.515c.715 1.867 2.736 2.594 4.629 1.64.438-.221.73-.535.76-1.051.031-.552-.182-1.026-.677-1.211-.883-.329-1.805-.555-2.711-.821l-2.249-.666c-1.397-.553-2.004-1.505-1.996-2.956.008-1.266.747-2.35 2.059-2.826 1.806-.655 3.648-.736 5.462-.026 1.226.48 1.957 1.428 2.261 2.703.027.118.003.248.003.429zm-13.655-3.295h2.328v1.904h-2.281l-.037.547.001 5.764a7.96 7.96 0 0 0 .046.767c.05.508.332.81.844.838.469.026.94.005 1.436.005v1.903c-1.063.263-2.144.249-3.19.016-1.218-.271-1.713-1.109-1.724-2.696l-.005-6.478V38.6h-1.933v-1.925h1.907v-3.525h2.609v3.515zm21.771 11.801c-1.002 0-1.95.031-2.895-.009-.916-.039-1.621-.646-1.821-1.553-.114-.517-.175-1.044-.181-1.574l-.008-6.095v-.642h-1.927v-1.9h1.898v-3.54h2.614v3.482h2.317v1.913h-2.223c-.027.172-.062.292-.062.411l.005 6.204c.008 1.094.294 1.357 1.378 1.349h.905v1.952zm4.348-11.761v2.003c1.003-1.704 2.392-2.592 4.444-2.289v2.471c-.975-.146-1.915-.173-2.747.426-1.092.785-1.473 1.932-1.501 3.196l-.011 5.91h-2.559V36.704h2.374z" fill-opacity=".7"/></g><defs><clipPath id="A"><path fill="#fff" d="M0 0h148v80H0z"/></clipPath></defs></svg>