<svg xmlns="http://www.w3.org/2000/svg" width="148" height="80" fill="none" xmlns:v="https://vecta.io/nano"><g clip-path="url(#A)" fill="#fff"><path d="M19.05 28.834c-.744-.413-2.877-.157-5.438.635-4.483 3.064-8.266 7.578-8.53 14.828-.048.173-.49-.024-.578-.077-1.211-2.32-1.69-4.763-.679-8.288.188-.314-.428-.7-.538-.59-.222.223-1.147 1.208-1.761 2.273C-1.519 42.897.472 49.665 5.8 52.627s12.052 1.053 15.017-4.275c3.431-6.149.245-18.395-1.766-19.518h0zm19.064 2.952c-6.315 0-10.899 4.695-10.899 11.164 0 6.521 4.572 11.076 11.119 11.076 3.307 0 5.925-1.034 8.007-3.163.622-.671.689-1.319.689-1.566 0-1.054-.784-1.82-1.864-1.82-.545 0-1 .206-1.523.689-1.179 1.098-2.732 2.221-5.309 2.221-3.584 0-6.498-2.691-6.682-6.146h14.263c1.551 0 2.304-.726 2.304-2.216 0-.439 0-.756-.088-1.381-.768-5.546-4.513-8.857-10.017-8.857h0zm0 3.463c3.425 0 5.622 2.182 5.757 5.705H31.657c.321-3.26 3.077-5.705 6.457-5.705zm23.725-3.463c-2.869 0-5.709 1.65-6.819 3.941V34.31c0-2.193-1.7-2.304-2.04-2.304-1.007 0-2.084.605-2.084 2.304v17.101c0 2.278 1.81 2.393 2.172 2.393s2.173-.115 2.173-2.393v-9.167c0-3.988 2.26-6.774 5.496-6.774 3.134 0 4.658 2.057 4.658 6.289v9.653c0 2.278 1.81 2.393 2.173 2.393s2.172-.115 2.172-2.393V40.394c0-4.161-2.076-8.607-7.902-8.607v-.001zm27.561.221c-1.004 0-1.732.586-2.166 1.738L81.29 48.692l-5.899-14.948c-.462-1.169-1.185-1.738-2.21-1.738-1.198 0-2.173.935-2.173 2.084 0 .284.032.653.273 1.229l6.831 16.13c.814 1.946 2.153 2.354 3.133 2.354s2.319-.408 3.135-2.353l6.876-16.22c.235-.569.271-.987.271-1.184 0-1.163-.916-2.04-2.128-2.04h0zm12.629-.221c-2.779 0-5.367.774-7.287 2.178-.651.449-.968 1.01-.968 1.714 0 .97.741 1.731 1.688 1.731.41 0 .868-.163 1.289-.458 1.651-1.1 3.201-1.613 4.88-1.613 3.212 0 5.056 1.634 5.056 4.483v.472c-7.211.008-14.545.879-14.545 7.152 0 4.515 3.858 6.537 7.682 6.537 3.046 0 5.478-1.207 7.038-3.492v1.099c0 1.636 1.099 2.216 2.041 2.216.199 0 1.952-.062 1.952-2.216V40.083c0-5.197-3.301-8.299-8.827-8.299v.001zm3.745 11.705h.914v1.001c0 3.661-2.331 6.026-5.937 6.026-.979 0-4.174-.228-4.174-3.162 0-3.464 5.249-3.865 9.197-3.865h0zm16.398-7.536c1.901 0 1.998-1.479 1.998-1.776 0-.88-.525-1.82-1.998-1.82h-3.909v-3.954c0-1.766-1.145-2.393-2.128-2.393-.362 0-2.172.115-2.172 2.393V47.18c0 4.333 2.138 6.623 6.182 6.623 1.047 0 2.067-.185 2.733-.496.765-.382 1.203-1.009 1.203-1.72a1.67 1.67 0 0 0-1.732-1.732c-.194 0-.47.048-.774.136-.372.093-.624.129-.9.129-1.646 0-2.412-1.074-2.412-3.381V35.952h3.909v.002zm14.366-4.169c-6.572 0-11.339 4.658-11.339 11.075 0 3.124 1.155 5.972 3.252 8.017 2.08 2.029 4.952 3.147 8.087 3.147 6.49 0 11.384-4.8 11.384-11.164 0-6.417-4.789-11.075-11.384-11.075h0 0zm0 18.555c-4.507 0-6.863-3.763-6.863-7.481 0-5.108 3.558-7.435 6.863-7.435s6.863 2.326 6.863 7.435c0 5.14-3.558 7.481-6.863 7.481z" fill-opacity=".7"/></g><defs><clipPath id="A"><path fill="#fff" transform="translate(0 26)" d="M0 0h148v28.061H0z"/></clipPath></defs></svg>