<svg xmlns="http://www.w3.org/2000/svg" width="148" height="80" fill="none" xmlns:v="https://vecta.io/nano"><g clip-path="url(#A)"><path fill-rule="evenodd" d="M56.389 28.858v19.296h7.032v3.328H52.645V28.858h3.744zm20.248 9.599v-2.035h3.548v15.061h-3.549v-2.037c-.477.754-1.155 1.347-2.035 1.778s-1.762.646-2.652.646c-1.15 0-2.203-.21-3.158-.63-.929-.402-1.766-.99-2.458-1.729a8.03 8.03 0 0 1-1.594-2.521c-.384-.967-.577-1.998-.57-3.038a8.13 8.13 0 0 1 .57-3.022c.367-.938.908-1.799 1.594-2.536a7.39 7.39 0 0 1 2.458-1.73c.954-.42 2.007-.631 3.158-.631.89 0 1.774.216 2.653.648s1.557 1.023 2.035 1.777zm-.326 7.337c.218-.589.329-1.213.326-1.842 0-.648-.109-1.261-.326-1.843a4.67 4.67 0 0 0-.911-1.519 4.41 4.41 0 0 0-1.416-1.034c-.554-.258-1.167-.388-1.84-.388s-1.281.13-1.823.388a4.46 4.46 0 0 0-1.399 1.034 4.44 4.44 0 0 0-.895 1.519 5.46 5.46 0 0 0-.309 1.843c0 .647.103 1.261.309 1.842a4.43 4.43 0 0 0 .895 1.52 4.45 4.45 0 0 0 1.399 1.034c.542.259 1.15.388 1.823.388s1.287-.129 1.84-.387a4.4 4.4 0 0 0 1.416-1.034 4.66 4.66 0 0 0 .911-1.52zm6.673 5.688V36.421h9.636v3.466h-6.088v11.594h-3.548zm22.495-13.025v-2.035h3.548v15.061h-3.549v-2.037c-.478.754-1.155 1.347-2.035 1.778s-1.763.646-2.652.646c-1.152 0-2.204-.21-3.158-.63-.929-.402-1.766-.99-2.458-1.729a8.03 8.03 0 0 1-1.594-2.521c-.384-.967-.577-1.998-.57-3.038 0-1.055.189-2.063.57-3.022.367-.938.908-1.799 1.594-2.536a7.39 7.39 0 0 1 2.458-1.73c.954-.42 2.006-.631 3.158-.631.889 0 1.774.216 2.653.648s1.556 1.023 2.035 1.777zm-.327 7.337c.219-.589.329-1.213.326-1.842a5.23 5.23 0 0 0-.326-1.843c-.204-.56-.513-1.075-.911-1.519-.398-.436-.88-.788-1.416-1.034-.553-.258-1.166-.388-1.839-.388s-1.281.13-1.823.388a4.46 4.46 0 0 0-1.399 1.034 4.44 4.44 0 0 0-.896 1.519 5.46 5.46 0 0 0-.309 1.843c0 .647.103 1.261.309 1.842a4.43 4.43 0 0 0 .896 1.52 4.45 4.45 0 0 0 1.399 1.034c.542.259 1.15.388 1.823.388s1.286-.129 1.839-.387a4.41 4.41 0 0 0 1.416-1.034 4.65 4.65 0 0 0 .911-1.52zm18.099-9.373h3.594l-5.824 15.061h-4.458l-5.824-15.061h3.594l4.459 11.533 4.459-11.533zm11.332-.387c4.832 0 8.127 4.251 7.508 9.227h-11.771c0 1.299 1.321 3.811 4.459 3.811 2.699 0 4.507-2.357 4.508-2.359l2.397 1.842c-2.143 2.272-3.898 3.316-6.646 3.316-4.911 0-8.238-3.084-8.238-7.918 0-4.373 3.439-7.918 7.783-7.918zm-4.254 6.609h8.504c-.026-.29-.487-3.811-4.277-3.811s-4.199 3.521-4.227 3.811zm14.073 8.839V28.858h3.549v22.624h-3.549zm-102.554-22.8a.67.67 0 0 1 .023.175v9.186a.67.67 0 0 1-.339.581l-7.765 4.439v8.798a.67.67 0 0 1-.339.58L17.22 61.707c-.037.022-.078.034-.118.049-.016.005-.03.014-.045.019-.114.03-.233.03-.346 0-.018-.005-.035-.015-.053-.022-.038-.013-.076-.025-.111-.045L.338 52.443a.67.67 0 0 1-.247-.245.67.67 0 0 1-.091-.337V24.303a.67.67 0 0 1 .024-.175c.005-.02.017-.038.024-.056.013-.035.025-.071.044-.104.013-.022.031-.04.045-.059.02-.027.037-.056.061-.079s.045-.034.066-.05.046-.04.074-.056l.001-.001 8.105-4.633a.68.68 0 0 1 .673 0l8.105 4.633h.002c.027.017.049.039.074.057s.046.031.066.05.04.052.061.078c.015.02.034.038.046.06.018.033.03.069.044.104.007.018.018.036.024.056.015.057.023.116.023.175v17.213l6.754-3.861v-8.798a.67.67 0 0 1 .023-.175c.006-.02.017-.037.024-.056.013-.035.024-.072.043-.104.013-.022.031-.039.046-.059.02-.027.037-.056.061-.078s.044-.034.066-.05.047-.042.075-.057v-.001l8.105-4.632a.68.68 0 0 1 .674 0l8.104 4.633h.001c.029.017.05.039.076.057s.046.032.066.05.04.052.06.078c.015.02.034.038.046.06.019.033.03.069.044.104.008.019.018.036.023.056zm-1.327 8.973v-7.639l-2.836 1.621-3.917 2.239v7.639l6.752-3.861h.001zm-8.104 13.819v-7.644l-3.855 2.185-11.003 6.235v7.715l14.858-8.493v.002zM1.351 25.462v26.011l14.857 8.493v-7.714l-7.762-4.361-.002-.002h-.003c-.027-.015-.048-.037-.072-.056s-.045-.03-.065-.049l-.002-.002c-.022-.021-.037-.047-.056-.071s-.037-.041-.05-.065v-.002c-.015-.025-.024-.056-.035-.084s-.025-.048-.032-.075v-.001c-.009-.032-.01-.066-.014-.098-.003-.025-.01-.05-.01-.076V29.322l-3.916-2.238-2.837-1.621zm7.429-5.018l-6.75 3.86 6.75 3.858 6.751-3.859-6.751-3.859zm3.512 24.082l3.917-2.239V25.462l-2.836 1.621-3.918 2.239v16.824l2.836-1.621zm20.801-19.528l-6.751 3.858 6.751 3.859 6.75-3.859-6.75-3.858zm-.675 8.878l-3.918-2.239-2.835-1.621v7.639l3.917 2.239 2.836 1.621v-7.64.001zM16.882 51.09l9.902-5.612 4.95-2.805-6.746-3.856-7.768 4.44-7.079 4.047 6.741 3.787z" fill="#fff" fill-opacity=".7"/></g><defs><clipPath id="A"><path fill="#fff" transform="translate(0 19)" d="M0 0h148v42.886H0z"/></clipPath></defs></svg>