<svg xmlns="http://www.w3.org/2000/svg" width="148" height="80" fill="#576071" xmlns:v="https://vecta.io/nano"><path d="M14.165 39.179l.249-.069a48 48 0 0 0 5.441-1.995c1.797-.705 3.484-1.665 5.008-2.851 1.618-1.287 2.835-3.008 3.51-4.961a4.45 4.45 0 0 0 .318-1.006c-2.434 3.325-12.085 3.672-12.085 3.672l2.278-2.087c-6.63.021-13.087 2.114-18.469 5.985 3.645.39 7.073 1.922 9.795 4.377 1.307-.405 2.643-.694 3.955-1.058v-.006zm15.133-.335c-6.14-.285-12.284.498-18.157 2.313a17.49 17.49 0 0 1 3.053 4.354c4.863-2.706 11.605-6.176 15.104-6.65v-.017zm-14.491 8.055c.577 1.484.947 3.041 1.099 4.626l8.483-8.72-9.581 4.094zm4.452 4.273v-.093c-.002-.037-.014-.073-.035-.104-.009-.014-.022-.026-.038-.034s-.032-.012-.049-.012h.087c.023-.015.041-.036.053-.06s.018-.051.016-.079c.004-.036-.004-.073-.023-.104s-.047-.056-.081-.069c-.059-.011-.12-.011-.179 0h-.249v.653h.127v-.237h.093c.04-.01.082-.01.121 0 .019.016.034.036.044.06s.012.049.008.073v.098h.127l-.023-.093zm-.376-.509h.081c.044-.01.089-.01.133 0 .014.01.026.022.034.038s.012.032.012.049-.004.034-.012.049-.02.028-.034.038h-.214v-.173z"/><path d="M19.419 50.473a.58.58 0 0 0-.815 0c-.116.108-.184.258-.189.416a.6.6 0 0 0 .16.428c.108.116.258.184.416.189a.6.6 0 0 0 .428-.16.58.58 0 0 0 0-.815v-.058zm-.422.971a.48.48 0 0 1-.188-.036.47.47 0 0 1-.159-.108.5.5 0 0 1-.141-.347c0-.13.05-.254.141-.347a.5.5 0 0 1 .158-.106c.059-.025.122-.037.186-.037s.127.013.186.037a.47.47 0 0 1 .158.106.5.5 0 0 1 0 .694c-.045.047-.099.083-.159.108a.47.47 0 0 1-.188.036m61.837-8.338c-1.031 0-2.019-.409-2.748-1.138s-1.138-1.717-1.138-2.748.409-2.019 1.138-2.748 1.717-1.138 2.748-1.138 2.019.409 2.748 1.138 1.138 1.717 1.138 2.748-.409 2.019-1.138 2.748-1.717 1.138-2.748 1.138zm0-12.01c-1.225.014-2.431.307-3.527.855a8.09 8.09 0 0 0-4.307 5.611 8.11 8.11 0 0 0 .085 3.628c.302 1.187.871 2.291 1.661 3.226s1.784 1.68 2.904 2.176a8.1 8.1 0 0 0 3.563.689c1.224-.043 2.423-.363 3.506-.937v.983a3.89 3.89 0 0 1-3.886 3.886c-.561 0-1.1.223-1.496.62a2.12 2.12 0 0 0 0 2.993c.397.397.935.62 1.496.62a8.13 8.13 0 0 0 5.716-2.379c1.517-1.516 2.372-3.571 2.38-5.716v-8.095c-.008-2.145-.863-4.199-2.38-5.716a8.12 8.12 0 0 0-5.716-2.379v-.064zm-40.002 12.01a3.89 3.89 0 0 1-2.16-.652 3.88 3.88 0 0 1-1.434-1.742c-.295-.71-.373-1.491-.224-2.245a3.89 3.89 0 0 1 1.06-1.991 3.88 3.88 0 0 1 1.988-1.066c.754-.151 1.535-.075 2.245.218a3.89 3.89 0 0 1 1.746 1.428 3.88 3.88 0 0 1 .658 2.158 3.87 3.87 0 0 1-.294 1.487 3.9 3.9 0 0 1-.84 1.262 3.89 3.89 0 0 1-1.259.844c-.471.196-.976.297-1.486.298zm0-12.01c-2.145.008-4.199.863-5.716 2.38a8.12 8.12 0 0 0-2.379 5.716v11.565c0 .278.055.553.161.81a2.11 2.11 0 0 0 .459.687 2.12 2.12 0 0 0 2.307.459 2.11 2.11 0 0 0 .687-.459c.197-.197.352-.43.459-.687s.161-.532.161-.81v-4.429a8.08 8.08 0 0 0 3.505.931 8.1 8.1 0 0 0 3.56-.692c1.119-.497 2.111-1.242 2.9-2.177s1.357-2.039 1.659-3.225a8.09 8.09 0 0 0 .084-3.626c-.247-1.2-.762-2.327-1.508-3.299a8.09 8.09 0 0 0-2.797-2.309 8.11 8.11 0 0 0-3.524-.857l-.017.023zm22.771 0c-2.145.008-4.199.863-5.716 2.38a8.12 8.12 0 0 0-2.379 5.716v6.002c0 .561.223 1.1.62 1.496a2.12 2.12 0 0 0 1.497.62c.562 0 1.099-.223 1.496-.62s.62-.935.62-1.496V39.22a3.88 3.88 0 1 1 7.76 0v6.002a2.12 2.12 0 0 0 .578 1.567c.197.208.436.374.7.488s.548.172.835.172.571-.058.835-.172a2.12 2.12 0 0 0 1.278-2.055V39.22a8.13 8.13 0 0 0-2.379-5.716 8.12 8.12 0 0 0-5.716-2.379l-.029-.029zm51.706 11.941c-1.031 0-2.019-.409-2.748-1.138s-1.138-1.717-1.138-2.748.409-2.019 1.138-2.748 1.717-1.138 2.748-1.138a3.88 3.88 0 0 1 2.747 1.138 3.89 3.89 0 0 1 1.138 2.748c0 1.031-.409 2.019-1.138 2.748s-1.717 1.138-2.747 1.138zm0-12.01a8.1 8.1 0 0 0-4.498 1.364 8.09 8.09 0 0 0-2.981 3.633c-.613 1.479-.774 3.107-.461 4.677a8.1 8.1 0 0 0 11.038 5.9 8.1 8.1 0 0 0 4.997-7.479c0-2.147-.853-4.206-2.371-5.724s-3.577-2.371-5.724-2.371zM98.065 43.106c-.769 0-1.52-.228-2.159-.655s-1.137-1.034-1.431-1.744-.371-1.491-.221-2.245a3.89 3.89 0 0 1 1.063-1.99 3.88 3.88 0 0 1 1.99-1.063c.754-.15 1.535-.073 2.245.221s1.317.792 1.744 1.431.655 1.39.655 2.159c0 1.031-.409 2.019-1.138 2.748s-1.717 1.138-2.748 1.138zm5.997-17.561c-.562 0-1.1.223-1.497.62s-.62.935-.62 1.497v4.429c-1.557-.847-3.349-1.16-5.1-.89a8.1 8.1 0 0 0-4.597 2.383c-1.23 1.276-2.007 2.921-2.212 4.682a8.09 8.09 0 0 0 1.078 5.064c.904 1.524 2.283 2.71 3.926 3.375a8.09 8.09 0 0 0 5.168.306 8.1 8.1 0 0 0 4.297-2.889 8.09 8.09 0 0 0 1.667-4.902V27.655a2.12 2.12 0 0 0-.62-1.497c-.397-.397-.935-.62-1.496-.62l.006.006zm-52.001 5.551c-.561 0-1.1.223-1.496.62a2.12 2.12 0 0 0-.62 1.496v12.004c0 .561.223 1.1.62 1.496a2.12 2.12 0 0 0 2.993 0c.397-.397.62-.935.62-1.496V33.218c0-.561-.223-1.1-.62-1.496a2.12 2.12 0 0 0-1.497-.62v-.006zm-2.116-3.435c0 .278.055.553.161.81a2.11 2.11 0 0 0 .459.687c.197.197.43.352.687.459s.532.161.81.161.553-.055.81-.161a2.11 2.11 0 0 0 .687-.459 2.12 2.12 0 0 0 0-2.993c-.397-.397-.935-.62-1.497-.62a2.11 2.11 0 0 0-1.496.62 2.12 2.12 0 0 0-.62 1.497zm85.579 19.608c.561 0 1.099-.223 1.496-.62s.62-.935.62-1.496V36.15c0-.235.093-.46.259-.626s.391-.259.626-.259a3.89 3.89 0 0 1 3.88 3.886v5.967c0 .561.222 1.1.619 1.497a2.12 2.12 0 0 0 1.497.62c.561 0 1.099-.223 1.496-.62s.62-.935.62-1.497v-5.967c-.007-2.145-.863-4.199-2.379-5.716a8.12 8.12 0 0 0-5.716-2.379 7.97 7.97 0 0 0-3.001.578c-.954-.385-1.973-.581-3.001-.578a8.13 8.13 0 0 0-5.714 2.381c-1.517 1.516-2.372 3.57-2.381 5.714v5.967c0 .561.222 1.1.619 1.497a2.12 2.12 0 0 0 1.497.62c.561 0 1.099-.223 1.496-.62s.62-.935.62-1.497v-5.967c.006-1.026.418-2.009 1.146-2.733a3.89 3.89 0 0 1 2.74-1.13c.235 0 .46.093.626.259a.89.89 0 0 1 .259.626v8.945c-.001.278.053.553.159.81a2.12 2.12 0 0 0 .456.688c.196.197.429.354.686.461s.531.163.809.163"/></svg>