<svg xmlns="http://www.w3.org/2000/svg" width="148" height="80" fill="#fff" xmlns:v="https://vecta.io/nano"><path d="M72.068 42.327h-5.632v9.692h-3.178V28.061h7.937c2.701 0 4.775.615 6.225 1.843 1.46 1.228 2.19 3.016 2.19 5.363 0 1.492-.406 2.792-1.218 3.9-.801 1.108-1.921 1.936-3.359 2.484l5.632 10.169v.198h-3.392l-5.204-9.692zm-5.632-2.583h4.858c1.57 0 2.816-.406 3.738-1.218.933-.812 1.4-1.898 1.4-3.258 0-1.481-.445-2.616-1.334-3.406-.878-.79-2.152-1.19-3.82-1.201h-4.841v9.083zm24.536 12.605c-2.416 0-4.381-.79-5.895-2.37-1.515-1.591-2.272-3.714-2.272-6.368v-.56c0-1.766.335-3.34 1.004-4.722.681-1.394 1.625-2.48 2.832-3.258 1.219-.79 2.536-1.185 3.952-1.185 2.317 0 4.117.762 5.401 2.287s1.927 3.708 1.927 6.549v1.267H85.85c.044 1.756.554 3.176 1.531 4.262.988 1.074 2.24 1.612 3.755 1.612 1.076 0 1.987-.219 2.733-.658s1.4-1.02 1.96-1.744l1.861 1.448c-1.493 2.292-3.732 3.439-6.718 3.439zm-.379-15.961a4.05 4.05 0 0 0-3.096 1.349c-.834.889-1.35 2.14-1.548 3.752h8.925v-.23c-.088-1.546-.505-2.743-1.251-3.588-.747-.855-1.757-1.283-3.03-1.283zm21.868 15.632c-.176-.351-.319-.976-.428-1.876-1.417 1.47-3.107 2.206-5.072 2.206-1.757 0-3.2-.494-4.331-1.481a4.85 4.85 0 0 1-1.679-3.785c0-1.853.702-3.291 2.107-4.311 1.416-1.032 3.404-1.547 5.961-1.547h2.965v-1.398c0-1.064-.319-1.909-.955-2.534-.637-.636-1.576-.954-2.817-.954-1.087 0-1.997.274-2.733.823s-1.103 1.212-1.103 1.991h-3.063c0-.888.313-1.744.938-2.567.637-.833 1.494-1.491 2.57-1.974 1.086-.482 2.277-.724 3.572-.724 2.054 0 3.662.515 4.825 1.547 1.164 1.02 1.767 2.43 1.812 4.228v8.195c0 1.635.208 2.934.626 3.9v.264h-3.195zm-5.055-2.32c.955 0 1.86-.247 2.717-.741s1.476-1.135 1.861-1.925V43.38h-2.389c-3.732 0-5.598 1.091-5.598 3.274 0 .954.318 1.701.955 2.238s1.455.807 2.454.807zm19.546.164c1.086 0 2.036-.329 2.849-.988s1.262-1.481 1.349-2.468h2.883c-.055 1.02-.407 1.991-1.054 2.913s-1.516 1.657-2.602 2.205c-1.076.549-2.218.823-3.425.823-2.426 0-4.359-.807-5.797-2.419-1.427-1.624-2.14-3.84-2.14-6.648v-.51c0-1.733.318-3.275.955-4.624s1.547-2.397 2.733-3.143c1.197-.746 2.607-1.119 4.232-1.119 1.998 0 3.656.598 4.973 1.794 1.328 1.195 2.036 2.748 2.125 4.656h-2.883c-.087-1.152-.526-2.095-1.317-2.83-.779-.746-1.745-1.119-2.898-1.119-1.548 0-2.75.559-3.606 1.678-.845 1.108-1.268 2.715-1.268 4.821v.576c0 2.051.423 3.631 1.268 4.739s2.053 1.662 3.623 1.662zm14.639-19.959v4.311h3.326v2.353h-3.326v11.041c0 .713.148 1.25.445 1.612.296.351.801.527 1.515.527.35 0 .834-.066 1.448-.198v2.468c-.801.219-1.58.33-2.338.33-1.361 0-2.388-.412-3.08-1.235s-1.036-1.991-1.036-3.505V36.568H135.3v-2.353h3.245v-4.311h3.046z" fill-opacity=".7"/><path fill-rule="evenodd" d="M28.866 40c0 2.431-1.957 4.401-4.366 4.401s-4.366-1.97-4.366-4.401 1.957-4.401 4.366-4.401 4.366 1.97 4.366 4.401zM49 40c0 1.65-.877 3.108-2.193 4.305s-3.165 2.226-5.358 3.07l-2.72.902.585 2.821c.369 2.335.407 4.458.038 6.204s-1.182 3.237-2.606 4.062-3.108.787-4.798.237-3.495-1.644-5.319-3.134l-2.136-1.919-2.135 1.919c-1.818 1.49-3.629 2.584-5.319 3.134s-3.375.589-4.798-.237-2.231-2.315-2.606-4.062c-.369-1.746-.33-3.876.038-6.204l.585-2.821-2.72-.902c-2.193-.844-4.036-1.874-5.358-3.07C.877 43.109 0 41.65 0 40s.877-3.108 2.193-4.305 3.165-2.226 5.358-3.07l2.72-.902-.585-2.821c-.369-2.335-.407-4.458-.038-6.204s1.182-3.236 2.606-4.062 3.108-.787 4.798-.237 3.496 1.644 5.319 3.134l2.136 1.919 2.135-1.919c1.818-1.49 3.629-2.584 5.319-3.134s3.375-.588 4.798.237 2.231 2.315 2.606 4.062c.369 1.746.331 3.876-.038 6.204l-.585 2.821 2.72.902c2.193.844 4.036 1.874 5.358 3.07C48.123 36.892 49 38.35 49 40zM25.987 24.988a51.02 51.02 0 0 1 4.15 5.187c2.32.218 4.519.563 6.533 1.023l.547-2.635c.35-2.181.356-4.017.057-5.418s-.871-2.239-1.589-2.654-1.722-.499-3.076-.058-2.93 1.369-4.633 2.763l-1.989 1.791zM33.41 40l-2.085-3.966-2.371-3.799-4.455-.166-4.455.166-2.371 3.806-2.084 3.966 2.084 3.966 2.371 3.799 4.455.166 4.455-.166 2.371-3.799L33.41 40zm-.242 5.04l-1.481 2.456 4.398-.761c-.419-1.356-.934-2.763-1.544-4.215l-1.373 2.52zm-5.815 4.976l-2.854.064c-.966 0-1.919-.026-2.854-.064L24.5 53.47l2.854-3.454zM15.831 45.04l-1.373-2.52-1.544 4.215 4.398.761-1.481-2.456zm0-10.08l1.481-2.456-4.398.761c.42 1.356.934 2.77 1.544 4.215l1.373-2.52zm5.815-4.976l2.854-.064 2.854.064L24.5 26.53l-2.854 3.454zm12.895 7.496l1.544-4.215-4.398-.761 1.481 2.456 1.373 2.52zm-22.212-6.281c2.015-.46 4.214-.806 6.533-1.023a51.02 51.02 0 0 1 4.15-5.187l-1.989-1.791c-1.703-1.394-3.279-2.322-4.633-2.757-1.354-.441-2.358-.364-3.076.058-.718.416-1.29 1.254-1.589 2.654s-.286 3.236.057 5.418l.547 2.629zm-1.481 15.012c.61-1.989 1.411-4.074 2.39-6.211-.972-2.136-1.773-4.221-2.39-6.211l-2.536.838c-2.046.787-3.635 1.701-4.69 2.661S2.135 39.162 2.135 40s.439 1.753 1.487 2.712c1.055.959 2.637 1.868 4.69 2.661l2.536.838zm12.164 8.801a51.01 51.01 0 0 1-4.15-5.187c-2.32-.217-4.519-.563-6.533-1.023l-.546 2.635c-.35 2.181-.356 4.017-.057 5.418s.871 2.239 1.589 2.654 1.722.499 3.076.057 2.93-1.369 4.633-2.757l1.989-1.797zm13.658-6.211c-2.015.46-4.214.806-6.533 1.023a51.01 51.01 0 0 1-4.15 5.187l1.989 1.791c1.703 1.394 3.279 2.322 4.633 2.757 1.354.441 2.358.364 3.076-.058.718-.416 1.29-1.254 1.589-2.654s.286-3.236-.057-5.418l-.547-2.629zM46.871 40c0-.831-.438-1.753-1.487-2.712-1.055-.959-2.638-1.868-4.69-2.661l-2.536-.838c-.61 1.989-1.411 4.074-2.39 6.211.972 2.136 1.773 4.221 2.39 6.211l2.536-.838c2.046-.787 3.635-1.701 4.69-2.661 1.049-.959 1.487-1.881 1.487-2.712z" fill-opacity=".7"/></svg>