<svg xmlns="http://www.w3.org/2000/svg" width="148" height="80" fill="#576071" xmlns:v="https://vecta.io/nano"><path d="M27.675 37.483c.411-.628.894-1.328 1.642-1.57.531-.169 1.159.024 1.473.459.773 1.159.893 2.632.652 3.96-.242 1.183-.7 2.367-1.618 3.163-.411.362-.942.7-1.521.604-.555-.097-.893-.604-1.111-1.062-.821-1.763-.531-3.912.483-5.554zm12.483.181c.429-.691.909-1.465 1.716-1.75.531-.169 1.159.024 1.449.435.7 1.014.893 2.294.749 3.477-.145 1.28-.555 2.584-1.497 3.502-.435.411-.966.797-1.57.773-.555-.024-.966-.483-1.183-.966-.845-1.715-.604-3.815.314-5.433l.023-.037z"/><path d="M5.432 27.631c-1.763 0-3.453 1.159-4.129 2.777-.314.7-.386 1.473-.386 2.222l.012 7.477.012 7.495c.024 2.294 2.028 4.347 4.323 4.419l8.227.004 10.947.02 5.207 2.877 3.462 1.928-.978-2.415-.978-2.415 4.854.005 9.708-.005c2.294-.048 4.298-2.125 4.322-4.419v-15.31c.024-1.304-.531-2.608-1.497-3.477a4.6 4.6 0 0 0-3.163-1.183H5.432zm18.065 3.501c-.555-.893-1.956-1.135-2.68-.362-.395.483-.631 1.066-.87 1.658l-.072.177c-1.183 3.067-1.642 6.375-2.004 9.635-.845-2.149-1.425-4.419-1.86-6.689-.097-.507-.241-1.062-.604-1.449-.459-.483-1.232-.507-1.763-.169-.386.241-.652.652-.869 1.063l-4.347 8.283c-.869-3.453-1.473-6.955-2.004-10.48-.072-.459-.169-.966-.531-1.28-.507-.459-1.304-.41-1.908-.193-.749.29-1.063 1.207-.893 1.956l.104.631c.713 4.331 1.428 8.678 2.649 12.892.072.2.137.408.203.618.244.777.497 1.583 1.125 2.134.531.411 1.232.048 1.642-.362.966-.966 1.618-2.198 2.222-3.405l2.656-5.313c.893 3.019 2.125 6.037 4.298 8.38.483.531 1.183 1.038 1.932.869.797-.193 1.159-1.087 1.111-1.835-.145-2.922.242-5.844.7-8.718.386-2.197.821-4.443 1.835-6.472a1.65 1.65 0 0 0-.072-1.57zm9.828 2.922c-1.063-1.183-2.753-1.715-4.323-1.521a4.73 4.73 0 0 0-2.56 1.183c-2.487 2.294-3.477 5.965-2.898 9.273.29 1.449.99 2.898 2.246 3.767 1.57 1.038 3.743 1.159 5.361.169 1.111-.652 1.884-1.739 2.487-2.849 1.063-1.956 1.473-4.274 1.207-6.472-.169-1.28-.652-2.56-1.521-3.55zm12.46-.097c-1.062-1.135-2.729-1.618-4.25-1.425-1.038.121-2.029.652-2.849 1.376-2.511 2.608-3.429 6.665-2.342 10.118.41 1.135 1.111 2.197 2.149 2.825 1.546.918 3.622 1.014 5.168.072 1.159-.676 1.956-1.787 2.56-2.922 1.014-1.884 1.401-4.105 1.183-6.23-.145-1.401-.652-2.777-1.618-3.815zm12.509-.965a9.2 9.2 0 0 1 4.057.048v3.26c-1.087-.266-2.318-.507-3.357 0-1.256.628-1.956 2.053-1.956 3.405-.073 1.352.386 2.874 1.594 3.646 1.111.724 2.536.58 3.743.242v3.26c-1.618.459-3.381.41-4.95-.169-1.883-.7-3.381-2.342-3.96-4.274a9.04 9.04 0 0 1-.145-4.54c.555-2.391 2.584-4.347 4.975-4.878zm9.804-.169c1.642-.193 3.429.072 4.757 1.111 1.28.99 1.908 2.608 2.149 4.154.217 1.715.169 3.502-.362 5.144-.459 1.401-1.401 2.705-2.753 3.357-1.377.652-2.994.7-4.468.362-1.352-.314-2.56-1.207-3.236-2.439-.942-1.642-1.111-3.598-1.038-5.458.072-1.594.483-3.26 1.545-4.492.869-.99 2.125-1.594 3.405-1.739zm.507 3.115c-.7.169-1.111.869-1.28 1.521-.338 1.304-.29 2.656-.193 3.984.097.724.169 1.497.676 2.077.676.773 2.053.676 2.656-.121.41-.507.531-1.159.604-1.787.145-1.111.169-2.246 0-3.357-.121-.676-.314-1.376-.797-1.884-.435-.435-1.087-.58-1.666-.435zm64.404-2.898c1.4-.362 2.874-.314 4.274-.024l.024 3.284c-1.062-.266-2.246-.507-3.284-.048-1.207.555-1.932 1.835-2.028 3.115-.145 1.449.241 3.091 1.521 3.936 1.111.773 2.56.628 3.791.266l-.024 3.284c-1.714.435-3.598.386-5.216-.314-1.787-.773-3.187-2.415-3.695-4.298-.386-1.449-.434-2.994-.072-4.467.531-2.27 2.439-4.129 4.709-4.733zm-55.855.097h4.661l1.57 7.583 1.642-7.583h4.781l1.835 13.668h-3.646l-.99-9.37-2.27 9.37H82.25l-2.391-9.394-.942 9.394h-3.502l1.739-13.668zm16.711 0h4.661l1.57 7.583 1.642-7.583h4.757l1.835 13.668h-3.646l-.99-9.37-2.27 9.37h-2.487l-2.391-9.394-.942 9.394h-3.502l1.763-13.668zm15.527.048l7.486-.024v2.922h-3.767v2.511h3.26v2.825h-3.26v2.511h3.791v2.922h-7.486l-.024-13.668zm8.548-.048h4.685c1.473.048 3.043.41 4.129 1.449.991.918 1.329 2.439.942 3.719-.314 1.038-1.086 1.884-2.052 2.342l2.946 6.158h-3.888l-3.043-6.279v6.279h-3.695l-.024-13.668zm3.695 2.632v3.26c.676-.048 1.401-.072 1.956-.483.652-.483.58-1.473.169-2.101-.507-.604-1.401-.604-2.125-.676zm16.711-2.608h7.461v2.922h-3.791v2.511h3.26v2.825h-3.26v2.511h3.816v2.922h-7.486V33.161z" fill-rule="evenodd"/></svg>