<svg xmlns="http://www.w3.org/2000/svg" width="86" height="48" fill="none" xmlns:v="https://vecta.io/nano"><g clip-path="url(#A)"><path d="M1.517 33h7.457c3.92 0 6.009-2.046 6.009-4.824 0-2.582-1.85-4.142-3.835-4.236v-.17c1.815-.409 3.153-1.696 3.153-3.75 0-2.616-1.943-4.474-5.795-4.474H1.517V33zm3.69-3.017v-4.636h3.094c1.773 0 2.872 1.023 2.872 2.463 0 1.313-.895 2.173-2.957 2.173H5.207zm0-7.134v-4.321h2.804c1.636 0 2.565.844 2.565 2.105 0 1.381-1.125 2.216-2.634 2.216H5.207zm28.217 1.423c0-5.71-3.545-8.966-8.173-8.966-4.653 0-8.173 3.256-8.173 8.966 0 5.685 3.52 8.966 8.173 8.966 4.628 0 8.173-3.256 8.173-8.966zm-3.741 0c0 3.699-1.756 5.702-4.432 5.702-2.685 0-4.432-2.003-4.432-5.702s1.747-5.702 4.432-5.702c2.676 0 4.432 2.003 4.432 5.702zm21.799 0c0-5.523-3.239-8.966-7.704-8.966s-7.705 3.443-7.705 8.966 3.239 8.966 7.705 8.966 7.704-3.443 7.704-8.966zm-2.045 0c0 4.534-2.489 6.989-5.659 6.989s-5.659-2.455-5.659-6.989 2.489-6.989 5.659-6.989 5.659 2.455 5.659 6.989zm15.145-4.364h2.045c-.094-2.633-2.523-4.602-5.898-4.602-3.341 0-5.966 1.943-5.966 4.875 0 2.352 1.705 3.75 4.432 4.534l2.148.614c1.841.511 3.477 1.159 3.477 2.898 0 1.909-1.841 3.17-4.261 3.17-2.079 0-3.92-.92-4.091-2.898h-2.182c.205 2.864 2.523 4.807 6.273 4.807 4.023 0 6.307-2.216 6.307-5.045 0-3.273-3.102-4.33-4.909-4.807l-1.773-.477c-1.295-.341-3.375-1.023-3.375-2.898 0-1.67 1.534-2.898 3.852-2.898 2.114 0 3.716 1.006 3.921 2.727zm4.805-2.489h5.489V33h2.114V17.421h5.489v-1.875H69.386v1.875z" fill="#ed5050"/></g><defs><clipPath id="A"><path fill="#fff" d="M0 0h86v48H0z"/></clipPath></defs></svg>