<svg xmlns="http://www.w3.org/2000/svg" width="124" height="48" fill="none" xmlns:v="https://vecta.io/nano"><path d="M31.882 30.151a1.4 1.4 0 0 1 .467.906h-.538c-.116-.506-.462-.826-1.113-.826-.791 0-1.323.54-1.323 1.674 0 .929.44 1.565 1.307 1.565.613 0 1.01-.331 1.161-1.086h.538c-.105.924-.767 1.562-1.761 1.562-1.083 0-1.804-.773-1.804-2.134 0-1.226.732-2.055 1.88-2.055.508-.003.905.13 1.186.395zm1.186-.305h.497v1.488c.327-.405.537-.463.916-.463.659 0 .994.299.994 1.11v1.859h-.497v-1.827c0-.546-.186-.707-.597-.707s-.818.222-.818.996v1.539h-.497v-3.993h.003zm3.554 3.231c0-.283.168-.434.651-.503l.581-.101a.87.87 0 0 0 .235-.103v.389c.006.136-.031.271-.106.386s-.184.205-.312.257c-.303.14-.654.175-.889-.003-.052-.037-.093-.086-.121-.142s-.041-.118-.039-.181zm.424-.89c-.559.066-.929.36-.929.898 0 .492.386.858.934.858.203.001.404-.043.588-.127a1.37 1.37 0 0 0 .476-.362c.046.331.195.448.457.448l.167-.008c.041-.005.097-.021.176-.042v-.358l-.089.013-.073.003c-.065 0-.111-.016-.132-.048s-.032-.069-.032-.119v-1.658c0-.553-.481-.813-1.169-.813-.594 0-1.126.241-1.142.961h.465c.051-.41.265-.537.667-.537.44 0 .694.14.694.469 0 .079-.011.143-.032.185-.038.077-.113.127-.227.14l-.797.098zm2.415-1.255h.486v.413c.316-.387.548-.477.872-.477.37 0 .608.111.789.458.097-.145.231-.263.388-.343s.332-.12.509-.115c.616 0 .932.302.932 1.038v1.93h-.513v-2.015c0-.657-.675-.625-1.024-.315-.143.13-.211.344-.211.643v1.69h-.5v-1.899c0-.498-.151-.636-.492-.636-.381 0-.743.246-.743.996v1.539h-.494v-2.908zm6.066 2.587c-.521 0-.808-.379-.808-1.025 0-.802.281-1.2.808-1.2.521 0 .808.408.808 1.078 0 .765-.343 1.147-.808 1.147zM44.236 35h.497v-1.478c.3.358.505.421.856.421.732 0 1.253-.577 1.253-1.613 0-.932-.529-1.459-1.202-1.459-.181-.005-.36.035-.521.117a1.06 1.06 0 0 0-.398.349v-.384h-.486V35zm3.238-4.046h.497v2.886h-.497v-2.886zm0-1.086h.497v.559h-.497v-.559zm2.463 3.652c-.6 0-.862-.463-.862-1.08 0-.641.262-1.163.867-1.163.554 0 .854.365.854 1.059 0 .601-.203 1.184-.859 1.184zm.016-2.669c-.843 0-1.386.625-1.386 1.599 0 .922.516 1.494 1.318 1.494.962 0 1.415-.681 1.415-1.618.003-.969-.594-1.475-1.348-1.475zm1.966.082h.486v.41c.108-.149.252-.27.418-.353a1.17 1.17 0 0 1 .538-.121c.643 0 .962.275.962 1.107v1.862h-.497v-1.83c0-.474-.186-.702-.565-.702-.321 0-.486.087-.651.275-.167.193-.197.36-.197.736v1.523h-.497v-2.908h.003zm4.508-1.075h.548v3.983h-.548v-3.983zm1.442 1.075h.486v.41c.108-.149.252-.27.418-.353a1.17 1.17 0 0 1 .538-.121c.638 0 .962.273.962 1.107v1.862h-.497v-1.83c0-.474-.186-.702-.565-.702-.321 0-.486.087-.651.275-.167.193-.197.36-.197.736v1.523h-.497v-2.908h.003zm3.29-.805h.497v.805h.475v.402h-.475v1.888c0 .101.038.167.105.204.062.025.128.036.194.032l.076-.003a.69.69 0 0 0 .097-.008v.392c-.122.029-.247.044-.373.042-.465 0-.597-.257-.597-.628v-1.917h-.4v-.405h.4v-.805zm1.907 2.036c.022-.506.362-.869.813-.869.481 0 .759.249.813.869h-1.626zm.84-1.292c-.824 0-1.388.641-1.388 1.573 0 .945.578 1.499 1.31 1.499.583 0 .943-.172 1.199-.651a.98.98 0 0 0 .127-.352h-.486c-.044.172-.148.324-.293.429s-.323.159-.504.151c-.548 0-.797-.381-.818-.972h2.142c0-.289-.013-.501-.043-.636a1.14 1.14 0 0 0-.206-.527 1.17 1.17 0 0 0-.436-.368 1.35 1.35 0 0 0-.602-.146zm1.977.061h.486v.503c.078-.199.416-.567.81-.567l.049.003.113.008v.516a.47.47 0 0 0-.081-.008l-.084-.003c-.51 0-.794.368-.794.781v1.671h-.497v-2.905h-.003zm1.964 0h.486v.41a1.15 1.15 0 0 1 .419-.352c.166-.083.351-.124.537-.122.643 0 .962.275.962 1.107v1.862h-.497v-1.83c0-.477-.192-.702-.562-.702-.329 0-.492.087-.651.275-.17.193-.2.358-.2.736v1.523h-.497v-2.908h.003zm3.554 2.145c0-.283.167-.434.651-.503l.581-.101a.87.87 0 0 0 .235-.103v.389a.66.66 0 0 1-.106.386c-.075.115-.184.205-.312.257-.302.14-.654.175-.889-.003-.052-.037-.093-.086-.121-.142s-.041-.118-.038-.181zm.424-.89c-.559.066-.932.36-.932.898 0 .492.386.858.935.858.203.001.404-.043.588-.127a1.37 1.37 0 0 0 .476-.362c.054.331.194.448.456.448l.167-.008a1.47 1.47 0 0 0 .176-.042v-.358l-.089.013-.073.003c-.065 0-.111-.016-.132-.048s-.032-.069-.032-.119v-1.658c0-.551-.478-.813-1.169-.813-.594 0-1.126.241-1.143.961h.465c.054-.418.27-.537.667-.537.44 0 .694.14.694.469 0 .079-.011.143-.032.185-.038.077-.113.127-.23.14l-.791.098zm2.506-2.06h.5v.805h.475v.402h-.475v1.888c0 .101.035.167.105.204a.47.47 0 0 0 .192.029l.078-.003.097-.008v.392c-.123.03-.249.044-.375.042-.465 0-.597-.257-.597-.628v-1.915h-.397v-.405h.397v-.805zm1.585.826h.497v2.886h-.497v-2.886zm0-1.086h.497v.559h-.497v-.559zm2.463 3.652c-.6 0-.862-.463-.862-1.08 0-.641.262-1.163.867-1.163.554 0 .853.365.853 1.059.003.601-.203 1.184-.859 1.184zm.016-2.669c-.843 0-1.386.625-1.386 1.599 0 .922.516 1.494 1.318 1.494.962 0 1.415-.681 1.415-1.618.003-.969-.594-1.475-1.348-1.475zm2.023.082h.486v.41a1.15 1.15 0 0 1 .419-.352c.166-.083.351-.124.537-.122.64 0 .962.27.962 1.107v1.862h-.494v-1.83c0-.477-.192-.702-.562-.702-.335 0-.492.09-.651.275-.17.193-.2.358-.2.736v1.523h-.497v-2.908zm3.554 2.145c0-.283.167-.434.651-.503l.581-.101c.083-.023.162-.058.235-.103v.389c.006.136-.031.271-.106.386s-.184.205-.312.257c-.297.14-.654.175-.889-.003-.052-.037-.093-.086-.121-.142s-.041-.118-.038-.181zm.427-.89c-.559.066-.932.36-.932.898 0 .492.386.858.934.858.459 0 .862-.225 1.064-.49.046.331.194.448.459.448l.165-.008c.041-.005.1-.021.176-.042v-.358l-.086.013-.076.003c-.065 0-.111-.016-.132-.048s-.032-.069-.032-.119v-1.658c0-.551-.478-.813-1.169-.813-.594 0-1.126.241-1.142.961h.465c.049-.413.265-.537.667-.537.44 0 .694.14.694.469 0 .079-.011.143-.03.185-.041.077-.116.127-.23.14l-.794.098zm2.412-2.32h.497v3.972h-.497v-3.972zm5.388.283a1.4 1.4 0 0 1 .467.906h-.538c-.116-.506-.462-.826-1.113-.826-.791 0-1.323.543-1.323 1.674 0 .929.44 1.565 1.307 1.565.613 0 1.01-.331 1.161-1.086h.537c-.105.924-.767 1.562-1.761 1.562-1.083 0-1.804-.773-1.804-2.134 0-1.226.732-2.055 1.88-2.055.508-.003.905.13 1.186.395zm2.285 3.368c-.6 0-.859-.463-.859-1.08 0-.641.265-1.163.864-1.163.559 0 .853.365.853 1.059 0 .601-.2 1.184-.859 1.184zm.016-2.669c-.843 0-1.383.625-1.383 1.599 0 .919.511 1.494 1.315 1.494.964 0 1.415-.683 1.415-1.618.003-.969-.594-1.475-1.348-1.475zm1.966.082h.486v.503c.078-.199.416-.567.81-.567l.049.003.113.008v.516a.47.47 0 0 0-.084-.008l-.081-.003c-.511 0-.794.368-.794.781v1.671h-.497v-2.905h-.003zm3.214 2.587c-.527 0-.808-.379-.808-1.025 0-.802.281-1.2.808-1.2.518 0 .807.41.807 1.078 0 .768-.346 1.147-.807 1.147zM98.389 35h.497v-1.478c.292.358.502.421.856.421.732 0 1.253-.577 1.253-1.613 0-.935-.529-1.459-1.205-1.459a1.08 1.08 0 0 0-.519.117 1.06 1.06 0 0 0-.396.349v-.384h-.486V35zm4.394-1.48c-.599 0-.859-.463-.859-1.08 0-.641.265-1.163.865-1.163.561 0 .853.368.853 1.059.003.601-.2 1.184-.859 1.184zm.016-2.669c-.842 0-1.383.625-1.383 1.599 0 .922.514 1.494 1.316 1.494.961 0 1.415-.681 1.415-1.618.003-.969-.594-1.475-1.348-1.475zm1.91.082h.486v.503c.078-.196.413-.567.81-.567l.049.003.116.008v.516a.51.51 0 0 0-.084-.008l-.083-.003c-.508 0-.792.368-.792.781v1.671h-.499v-2.905h-.003zm2.236 2.145c0-.281.157-.434.654-.503l.581-.101a.86.86 0 0 0 .232-.103v.389c.006.136-.03.271-.105.386s-.183.205-.311.258c-.303.14-.654.175-.889-.003-.052-.036-.094-.085-.123-.141a.38.38 0 0 1-.039-.182zm.427-.89c-.554.066-.932.36-.932.898 0 .492.386.858.935.858a1.4 1.4 0 0 0 .589-.127c.185-.085.348-.209.478-.362.045.334.191.448.456.448a1.36 1.36 0 0 0 .165-.008c.043-.005.1-.021.175-.042v-.358l-.086.013-.073.003c-.068 0-.113-.016-.135-.048s-.032-.069-.032-.119v-1.658c0-.551-.481-.813-1.167-.813-.6 0-1.124.241-1.145.961h.464c.051-.413.267-.537.667-.537.451 0 .694.146.694.469a.44.44 0 0 1-.029.185c-.041.077-.117.127-.23.14l-.794.098zm2.452-2.06h.495v.805h.478v.402h-.478v1.888c0 .101.037.167.108.204.061.023.126.033.191.029l.079-.003c.032 0 .065-.003.097-.008v.392a.96.96 0 0 1-.178.032 1.17 1.17 0 0 1-.197.013c-.462 0-.595-.254-.595-.628v-1.917h-.405v-.405h.403v-.805h.002zm1.583.826h.497v2.886h-.497v-2.886zm0-1.086h.497v.559h-.497v-.559zm2.407 3.652c-.603 0-.862-.461-.862-1.08 0-.644.262-1.163.867-1.163.554 0 .851.365.851 1.059.003.601-.203 1.184-.856 1.184zm.013-2.669c-.84 0-1.383.625-1.383 1.599 0 .919.508 1.494 1.318 1.494.967 0 1.413-.686 1.413-1.618.003-.969-.592-1.475-1.348-1.475zm1.969.082h.486v.41a1.15 1.15 0 0 1 .419-.352 1.17 1.17 0 0 1 .537-.122c.641 0 .962.273.962 1.107v1.862h-.497v-1.83c0-.477-.192-.702-.562-.702-.335 0-.491.09-.651.275-.167.193-.197.36-.197.736v1.523h-.5v-2.908h.003zM41.254 17.488h-3.9c-.222-.977-.524-1.756-1.656-2.153-.659-.23-1.707-.199-2.431.349-1.132.861-1.315 2.781-1.215 3.676.084.879.405 2.153 1.604 2.733.729.381 1.826.413 2.533-.018.81-.445.997-1.192 1.183-1.97h3.9c.138 1.541-1.197 3.959-3.514 4.971-2.026.877-4.999.678-6.974-.665-2.247-1.504-2.858-4.221-2.72-6.043.116-2.185 1.096-4.422 3.649-5.712 1.823-.929 4.848-.861 6.552.148 2.093 1.223 2.852 2.73 2.987 4.685zm4.443-5.166v4.287c.575-.395.894-.662 1.707-.911.945-.281 2.263-.164 3.157.482 1.286.943 1.418 2.683 1.386 3.66v5.45h-3.649v-4.224c0-.93.067-1.822-.64-2.219-.373-.217-.962-.249-1.299-.053-.743.482-.675 1.361-.675 2.386v4.107h-3.617V12.321h3.63zm11.687 6.226c.492-.23 1.234-.164 1.742.164.727.466.929 1.194.894 1.891-.016.596-.286 1.456-1.048 1.886-.264.131-.556.2-.852.2s-.588-.068-.852-.2c-.729-.429-1.051-1.125-1.08-1.886-.035-.728.303-1.658 1.197-2.055zm.119-2.931c-1.183-.18-2.701.101-3.768 1.324-1.318 1.475-1.402 3.911-1.013 5.249.521 1.692 1.434 2.749 3.157 3.231 1.353.397 2.787.066 3.989-1.012v.879h3.663v-9.29h-3.598v.744c-.913-.776-1.399-.974-2.431-1.125zm16.146 1.324c1.488-1.388 3.157-1.589 4.492-1.027 2.045.861 2.063 2.238 2.063 3.975v5.4h-3.681v-4.388c0-1.144.032-1.838-.524-2.203a1.29 1.29 0 0 0-1.251.016c-.624.416-.591 1.059-.591 2.187v4.388h-3.633v-4.518c0-.63.084-1.721-.624-2.14-.174-.101-.372-.154-.574-.154s-.4.053-.574.154c-.675.416-.61 1.491-.61 2.203v4.457h-3.598v-9.292h3.546v.813c1.299-1.226 2.466-1.425 3.716-1.125.678.164 1.134.429 1.842 1.255zm12.532 1.557a2.03 2.03 0 0 1 .968.026 2 2 0 0 1 .841.472c.608.596.691 1.589.508 2.217a1.92 1.92 0 0 1-.497.913c-.247.254-.561.438-.907.53-.305.088-.629.095-.938.019s-.591-.232-.818-.451c-.624-.646-.727-1.573-.54-2.285.2-.712.624-1.242 1.383-1.441zm1.488 7.089c1.032.016 2.617-.564 3.546-1.806 1.113-1.507 1.183-3.776.659-5.249-.492-1.441-1.404-2.383-2.839-2.799-1.318-.366-2.704-.199-4.189.959v-.696h-3.598v12.883h3.6V24.59c1.013.731 1.737.98 2.82.996zm5.067-13.264h3.633v3.032h-3.633v-3.032zm0 3.676h3.633v9.292h-3.633v-9.292zm9.153 2.336a1.82 1.82 0 0 1 .861.001 1.8 1.8 0 0 1 .76.396c.61.564.694 1.639.575 2.301-.135.646-.456 1.226-1.183 1.507-.265.086-.547.11-.822.069s-.539-.144-.766-.302c-.727-.546-.843-1.488-.794-2.103.07-.826.373-1.605 1.369-1.87zm-2.331-2.137a4.78 4.78 0 0 0-2.585 3.909c-.135 1.443.203 3.048 1.909 4.359 1.518 1.192 3.9 1.374 5.44.861.785-.263 1.492-.712 2.057-1.308a4.91 4.91 0 0 0 1.184-2.106c.372-1.374.337-3.196-1.048-4.687-1.537-1.639-4-1.787-5.202-1.589-.47.064-1.199.265-1.756.561zm18.529 9.094h-3.547v-4.107c0-1.059-.016-2.137-.694-2.5a1.33 1.33 0 0 0-1.25-.019c-.811.482-.711 1.674-.711 2.436v4.189h-3.511v-9.292h3.495v.763c1.318-1.176 3.057-1.488 4.308-.929 1.945.895 1.91 2.402 1.91 4.009v5.45z" fill="#fff" fill-opacity=".9"/><path d="M2.017 28.544c-1.452-2.817-1.333-6.877.253-9.616 1.692-3.235 5.34-5.685 9.398-5.895 1.066-.063 2.215-.016 3.328-.031v1.896s-1.728-.005-2.551 0c-1.386.005-2.708.242-3.888.796-1.791.783-3.283 2.074-4.273 3.698s-1.428 3.499-1.254 5.369c.372 3.736 2.926 6.814 6.692 7.956 3.871 1.126 8.045-.26 10.31-3.112 1.097-1.384 1.851-3.009 1.951-4.879l.058-.932V13.002h1.998l-.036 11.194c-.119 4.572-2.956 8.452-7.351 10.083-4.022 1.513-8.94.58-11.966-2.19-1.127-1.002-2.034-2.207-2.67-3.545zm2.798-1.15c-1.385-2.589-.93-6.279.928-8.435a8.42 8.42 0 0 1 2.917-2.275 8.9 8.9 0 0 1 3.671-.855h2.667v1.888c-1.707.044-3.479-.18-4.93.443-1.115.424-2.084 1.132-2.799 2.045a5.96 5.96 0 0 0-1.253 3.129c-.123 1.266.167 2.537.831 3.643s1.67 1.992 2.882 2.54c2.21 1.07 5.252.641 7.058-.896 1.349-1.117 2.161-2.693 2.23-4.44L19.044 13h1.993l-.027 11.198c-.099 3.258-2.144 5.94-5.2 7.188-3.108 1.276-6.992.495-9.271-1.708-.76-.672-1.25-1.422-1.723-2.284zm2.99-.879c-.974-1.514-1.092-3.771-.099-5.303.771-1.39 2.5-2.6 4.342-2.616h2.945v1.864s-1.619-.01-2.352 0c-.746.028-1.452.103-2.023.515-1.128.708-1.853 1.941-1.581 3.362.217 1.28 1.21 2.353 2.607 2.701a3.8 3.8 0 0 0 2.071-.092c.665-.222 1.246-.625 1.667-1.156.689-.819.656-2.065.656-3.239V13h1.995l-.027 10.691c-.017 2.067-1.027 3.805-2.978 4.75-1.63.857-3.991.698-5.506-.265a5.76 5.76 0 0 1-1.718-1.66z" fill="#8166e9"/></svg>