<svg xmlns="http://www.w3.org/2000/svg" viewBox="0 0 92 48" xmlns:v="https://vecta.io/nano"><path d="M26.9 24v11h1.8 1.8V24 13h-1.8-1.8v11zm46.5 0v11h1.8H77v-4.5l.2-5c.4-1.5 1.6-2.3 3.2-2.3.6 0 .7 0 1 .2a1.96 1.96 0 0 1 .9.9c.3.6.3 1 .3 6.1v4.8h1.8 1.8V30c0-5.7 0-5.5-.5-6.7a5.14 5.14 0 0 0-3.6-3.1 7.58 7.58 0 0 0-3 0c-.7.2-1.4.5-1.8.8l-.3.1v-4-4h-1.8-1.8V24zM15 13.7c-3 .5-5.5 2-7.1 4.3-1.2 1.7-1.8 3.6-1.9 5.8-.2 3.9 1.6 7.4 4.7 9.4 2.4 1.6 5.7 2.1 8.7 1.3 1.9-.5 3.5-1.4 4.8-2.7l.5-.5-.2-.2c-.4-.4-2.1-2.2-2.2-2.2l-.3.3c-.8 1-2.4 1.8-4 2.2-.8.2-2.1.2-2.8 0-3.2-.6-5.4-3.1-5.7-6.4-.2-2.4.5-4.6 2-6.1 1.2-1.3 2.8-1.9 4.6-2 2-.1 4.1.7 5.7 2.1l.5.4 1.2-1.1 1.2-1.1-.5-.5c-1.5-1.5-3.5-2.5-5.6-2.9-.8-.1-2.7-.2-3.6-.1zm35.6 3.8v2.6h-1.3H48v1.8 1.8h1.3 1.3v5.7V35h1.8 1.8v-5.7-5.7h1.4H57v-1.8V20h-1.4-1.4v-2.6-2.6h-1.8-1.8v2.7zm13.7 2.3c-3.1.4-5.6 2.5-6.4 5.4-.5 2-.2 4.4.8 6 1.2 1.9 2.9 3.1 5.2 3.5.8.2 2.3.2 3.2 0 1.5-.3 2.9-1 4-1.9l.5-.5-1.3-1.2-1.2-1.1-.5.4c-1 .9-2.3 1.4-3.6 1.2-1.8-.2-3.1-1.3-3.6-2.9-.1-.4-.2-.6-.2-1.4s0-1 .2-1.4c.2-.7.7-1.4 1.2-1.8 1-.8 2.4-1.1 3.8-.9.8.1 1.4.4 2.1 1l.6.5 1.2-1.2 1.2-1.2-.5-.4c-.8-.8-2.2-1.5-3.4-1.8-1-.3-2.2-.4-3.3-.3zm-30.9 4.9c0 5.1 0 5.2.4 6.4.5 1.5 1.4 2.6 2.7 3.2 1 .5 1.8.6 3.1.6 1.6 0 2.8-.3 3.5-1l.3-.2v.6.7h1.8H47v-7.5V20h-1.8-1.8v4.4c0 4.3 0 4.4-.1 4.8-.4 1.3-1.6 2.1-3.2 2.3-1.1.1-2.1-.4-2.6-1.3-.4-.8-.4-.7-.4-5.6v-4.5h-1.8-1.8v4.6z" fill-rule="evenodd" fill="#fff" fill-opacity=".9"/><path d="M68.1 27.2a2.65 2.65 0 0 1-2.6 2.6 2.65 2.65 0 0 1-2.6-2.6 2.65 2.65 0 0 1 2.6-2.6c1.5 0 2.6 1.2 2.6 2.6z" fill="#ef4335"/></svg>