<svg xmlns="http://www.w3.org/2000/svg" width="95" height="48" fill="none" xmlns:v="https://vecta.io/nano"><g clip-path="url(#A)"><path d="M89.969 30.785c0-1.482 1.129-2.685 2.518-2.685s2.517 1.202 2.517 2.685-1.127 2.684-2.517 2.684-2.518-1.202-2.518-2.684z" fill="#86bc24"/><path d="M9.664 23.676c0-1.7-.308-2.962-.924-3.784s-1.552-1.231-2.809-1.231H4.594v10.398h1.023c1.396 0 2.419-.441 3.07-1.327s.977-2.236.977-4.056h0zm4.768-.177c0 3.098-.781 5.485-2.343 7.161S8.331 33.174 5.5 33.174H0V14.611h5.884c2.729 0 4.836.762 6.321 2.285s2.226 3.724 2.226 6.603h0zm15.235 9.675h4.377V14.533h-4.376v18.641zm10.525-6.953c0 1.188.146 2.095.436 2.718a1.5 1.5 0 0 0 1.466.935 1.46 1.46 0 0 0 1.439-.935c.28-.623.419-1.53.419-2.718 0-1.182-.141-2.074-.425-2.676s-.769-.906-1.456-.906a1.49 1.49 0 0 0-1.443.899c-.291.599-.436 1.493-.436 2.683h0zm8.214 0c0 2.264-.556 4.031-1.673 5.297s-2.677 1.901-4.684 1.901c-1.925 0-3.457-.648-4.594-1.944s-1.708-3.047-1.708-5.254c0-2.258.557-4.012 1.674-5.262s2.681-1.876 4.696-1.876c1.245 0 2.347.29 3.301.869s1.693 1.407 2.211 2.487.777 2.34.777 3.782zm1.738 6.953h4.377V19.327h-4.377v13.846zm0-15.521h4.377v-3.12h-4.377v3.12zm13.246 11.99c.591 0 1.295-.16 2.116-.478v3.484c-.59.276-1.151.474-1.684.592s-1.159.178-1.875.178c-1.469 0-2.529-.394-3.179-1.18s-.973-1.993-.973-3.622v-5.708H56.26v-3.579h1.533v-3.536l4.411-.818v4.354h2.793v3.58h-2.793v5.389c0 .896.396 1.345 1.185 1.345zm10.13 0c.591 0 1.295-.16 2.116-.478v3.484c-.589.276-1.151.474-1.684.592s-1.158.178-1.875.178c-1.469 0-2.529-.394-3.178-1.18s-.974-1.993-.974-3.622v-5.708H66.39v-3.579h1.534v-3.59l4.41-.764v4.354h2.794v3.58h-2.794v5.389c0 .896.396 1.345 1.186 1.345h0zm7.639-5.108c.06-.758.263-1.314.61-1.669s.778-.531 1.293-.531c.561 0 1.007.199 1.338.6s.506.932.52 1.6h-3.76zm6.172-3.819c-1.04-1.087-2.516-1.632-4.426-1.632-2.007 0-3.552.625-4.634 1.876s-1.623 3.045-1.623 5.383c0 2.264.585 4.011 1.752 5.236s2.808 1.839 4.92 1.839c1.014 0 1.887-.074 2.618-.221a7.27 7.27 0 0 0 2.114-.787l-.673-3.12c-.496.216-.968.382-1.414.492-.644.159-1.351.239-2.12.239-.844 0-1.51-.22-1.998-.659s-.748-1.048-.778-1.822h7.823v-2.126c0-2.045-.52-3.612-1.561-4.699zm-67.09 3.819c.06-.758.263-1.314.61-1.669s.778-.531 1.293-.531c.559 0 1.005.199 1.337.6s.506.932.521 1.6H20.24zm6.173-3.819c-1.041-1.087-2.517-1.632-4.427-1.632-2.008 0-3.552.625-4.634 1.876s-1.624 3.045-1.624 5.383c0 2.264.584 4.011 1.753 5.236s2.807 1.839 4.919 1.839c1.014 0 1.887-.074 2.618-.221s1.431-.408 2.114-.787l-.673-3.12c-.496.216-.968.382-1.413.492-.645.159-1.351.239-2.121.239-.843 0-1.51-.22-1.998-.659s-.748-1.048-.778-1.822h7.823v-2.126c0-2.045-.52-3.612-1.561-4.699z" fill="#fff" fill-opacity=".9"/></g><defs><clipPath id="A"><path fill="#fff" transform="translate(0 13)" d="M0 0h95v22H0z"/></clipPath></defs></svg>