<svg xmlns="http://www.w3.org/2000/svg" width="124" height="48" fill="#edcb50" fill-rule="evenodd" xmlns:v="https://vecta.io/nano"><path d="M0 29.732V18.619h11.665v2.627H4.956v2.02h5.367v2.525H4.956v3.94H0zm35.821-7.88c0-.404-.31-.606-.62-.808-.413-.101-.826-.203-1.342-.203-1.032 0-1.548.303-1.548.707 0 1.617 8.671.606 8.671 4.648 0 2.627-2.891 3.839-7.02 3.839-4.026 0-6.606-1.718-6.71-3.738H32c.104.404.413.707.826.909a3.24 3.24 0 0 0 1.342.303c1.239 0 2.065-.303 2.065-.91 0-1.617-8.568-.506-8.568-4.749 0-2.324 2.684-3.536 6.504-3.536 4.128 0 5.987 1.617 6.4 3.536h-4.748zm4.851-3.233h13.834v2.93h-4.439v8.183h-4.955v-8.183h-4.44v-2.93zm14.453 11.113V18.619h12.181v2.627H60.08v1.515h6.193v2.627H60.08v1.717h7.536v2.627H55.125z"/><path d="M27.355 24.075c0 3.84-3.407 5.961-7.845 5.961-4.749 0-7.846-2.121-7.846-5.961 0-3.536 3.2-5.759 7.846-5.759 5.368 0 7.845 2.829 7.845 5.759zm-10.839 0c0 1.415.62 3.234 2.994 3.234 2.065 0 2.89-1.314 2.89-3.234 0-1.515-.826-3.131-2.994-3.031-2.167 0-2.891 1.617-2.891 3.031zm56.674 1.819v3.839h-4.853V18.619h7.02c5.059 0 6.607 1.01 6.607 3.132 0 1.314-.723 2.425-2.478 2.728 1.548.405 2.58.707 2.58 2.93 0 1.515-.102 2.021.517 2.021v.303h-4.955c-.207-.202-.309-.908-.309-1.919 0-1.515-.31-1.919-2.581-1.919H73.19h0zm0-2.526h1.961c1.548 0 2.375-.202 2.375-1.011s-.929-1.111-2.065-1.111H73.19v2.122zm15.384 1.818c1.755 0 3.097-1.313 3.097-3.031s-1.342-3.031-3.097-3.031c-1.652 0-3.098 1.313-3.098 3.031s1.446 3.031 3.098 3.031zm0-.606c-1.239 0-2.271-1.011-2.271-2.425s1.032-2.425 2.271-2.425c1.341 0 2.374 1.011 2.374 2.425s-1.033 2.425-2.374 2.425zm-1.136-.707h.619v-1.515h.413l.929 1.515h.619l-.929-1.515c.619 0 .929-.303.929-.909 0-.707-.413-1.01-1.342-1.01h-1.238v3.435zm.619-2.93h.619c.31 0 .723 0 .723.404 0 .505-.412.505-.723.505h-.619v-.909z"/></svg>