<svg xmlns="http://www.w3.org/2000/svg" width="196" height="56" fill="#fff" xmlns:v="https://vecta.io/nano"><path d="M51.776 32.45l3.293-9.98-1.62-.388c0-.573.162-.859.486-.859l2.133.083 1.539-.083c.324.037.486.314.486.832l-1.323.416-4.319 12.309h-1.674l-4.454-12.281L45 22.054c0-.555.171-.832.513-.832l1.971.083 2.106-.083c.306 0 .459.286.459.859l-1.62.388 3.347 9.98zm19.428-9.981l-1.728-.388c0-.573.162-.859.486-.859l2.241.083 2.186-.083c.306 0 .459.277.459.832l-1.728.416v11.061l1.728.388c0 .573-.153.859-.459.859l-2.186-.166-2.241.166c-.324 0-.486-.286-.486-.859l1.728-.388V22.469zm25.474-1.247l2.537.083 1.836-.083c.306.037.459.323.459.859l-1.539.416-.081 12.281h-1.215l-8.368-10.673.108 4.713.108 4.713c.45.111 1.161.24 2.133.388 0 .573-.162.859-.486.859l-2.484-.166-2.025.166c-.324 0-.486-.286-.486-.859l1.782-.416-.081-11.006-1.701-.388c0-.591.162-.887.486-.887l2.834.083 8.017 10.424-.162-9.232-2.133-.388c0-.591.153-.887.459-.887zm25.859 1.275l-3.078.055v10.895l2.187.471c0 .573-.153.859-.459.859l-2.619-.166-2.672.166c-.342 0-.513-.286-.513-.859l2.187-.471V22.553l-3.051-.055-.27 1.941c0 .277-.36.416-1.079.416l-.27-3.271c.036-.24.306-.36.809-.36l4.859.111 4.778-.111c.504 0 .774.12.81.36l-.27 3.271c-.719 0-1.079-.139-1.079-.416l-.27-1.941zm13.93 11.034l1.809.388c0 .573-.162.859-.486.859a149.72 149.72 0 0 1-2.348-.083l-1.863.083c-.306 0-.459-.277-.459-.832l1.566-.416 4.562-12.309h1.755l4.616 12.281 1.565.444c0 .554-.162.832-.486.832-.306 0-1.025-.028-2.159-.083l-2.349.083c-.324 0-.486-.286-.486-.859l1.836-.388-1.08-3.077-5.021.277-.972 2.8zm3.483-10.174l-2.052 5.933h4.13l-2.078-5.933zm29.196 9.148l.216.804C167.76 34.436 166.005 35 164.098 35s-3.465-.601-4.67-1.802c-1.188-1.22-1.782-2.948-1.782-5.184 0-2.255.648-3.983 1.944-5.184 1.295-1.22 2.852-1.83 4.67-1.83 1.835 0 3.41.407 4.724 1.22l-.567 3.05c-.756 0-1.134-.148-1.134-.444V22.83a9.37 9.37 0 0 0-2.753-.388c-.972 0-1.926.139-2.862.416-.576.425-1.044 1.1-1.403 2.024-.342.906-.513 1.931-.513 3.077 0 1.848.423 3.262 1.268 4.242.864.979 1.98 1.469 3.348 1.469s2.447-.314 3.239-.943l-.297-3.742-2.051-.111-1.62-.083v-1.137h5.507v4.851zm21.936 2.273l-6.667-.166-2.241.166c-.324 0-.486-.286-.486-.859l1.728-.388V22.469l-1.728-.388c0-.573.162-.859.486-.859l2.241.083 6.532-.083c.36 0 .585.037.675.111.09.055.135.148.135.277l-.486 2.939c-.738 0-1.107-.139-1.107-.416v-1.608l-4.94.055.243 4.602h4.994v1.137l-5.021.305-.216 4.796h5.183l.459-1.58c.054-.203.153-.333.297-.388.162-.055.441-.083.837-.083l-.162 3.077c-.036.222-.288.333-.756.333z" fill-opacity=".7"/><path d="M14.877 30.793l-3.064 2.358a5.1 5.1 0 0 1-7.141-.924l-3.109-4.033 4.033-3.107a5.1 5.1 0 0 1 7.141.924l1.064 1.382.681.883-.884.68-.884.683-2.264 1.746a2.87 2.87 0 0 1-4.01-.521l-1.745-2.265 2.265-1.743c1.247-.962 3.049-.729 4.01.519l.383.496-.884.683c-2.486 2.58-2.813 1.417-4.208.249l1.064 1.382a1.75 1.75 0 0 0 2.445.315l1.049-.809.332-.255.884-.68.884-.683-1.064-1.379c-1.338-1.736-3.841-2.062-5.576-.724l-3.15 2.426 2.428 3.151c1.337 1.733 3.84 2.059 5.575.721l2.88-2.219.269-.208.884-.68.884-.683-.681-.883-.681-.886-1.064-1.379c-2.09-2.712-5.995-3.219-8.706-1.13L0 27.991l3.79 4.919a6.22 6.22 0 0 0 7.943 1.629c-1.119 2.781-.1 5.728 2.085 7.724a7.33 7.33 0 0 1 1.33-10.271l1.363-1.05.902-.693 1.768-1.363.681.883.392.51 1.038 1.343 2.36 3.063a5.1 5.1 0 0 1-.925 7.14l-4.032 3.109-3.109-4.033a5.1 5.1 0 0 1 .925-7.14l1.381-1.064.884-.68.681.883.681.883 1.745 2.265a2.87 2.87 0 0 1-.519 4.011l-2.265 1.743-1.745-2.265c-.961-1.248-.729-3.05.519-4.009l.497-.384.681.886c2.582 2.484 1.419 2.813.25 4.206l1.381-1.064c.76-.584.902-1.683.316-2.443l-.808-1.05-.255-.332-.681-.883-.681-.886-1.381 1.064c-1.735 1.338-2.059 3.841-.722 5.577l2.427 3.148 3.15-2.427a3.98 3.98 0 0 0 .722-5.575l-2.219-2.879-.208-.271-.681-.883-.681-.883-.884.68-.884.683-1.381 1.064c-2.712 2.089-3.217 5.993-1.128 8.706l3.79 4.916 4.917-3.789a6.22 6.22 0 0 0 1.631-7.943c2.781 1.118 5.729.101 7.725-2.084-3.2 2.465-7.806 1.867-10.272-1.33l-1.051-1.366-.694-.899-1.364-1.768.884-.68.509-.392 1.346-1.039 3.063-2.358a5.1 5.1 0 0 1 7.141.924l3.108 4.03-4.033 3.109a5.1 5.1 0 0 1-7.141-.924l-1.065-1.382-.68-.883.884-.683.884-.681 2.264-1.746a2.87 2.87 0 0 1 4.01.521l1.746 2.265-2.264 1.744c-1.248.963-3.049.729-4.011-.518l-.383-.497.884-.683c2.487-2.58 2.814-1.417 4.208-.249l-1.064-1.382a1.75 1.75 0 0 0-2.445-.316l-1.049.806-.333.258-.884.68-.884.683 1.064 1.379c1.338 1.736 3.841 2.06 5.575.724l3.15-2.427-2.427-3.151c-1.337-1.733-3.84-2.059-5.575-.721l-2.88 2.219-.269.208-.884.68-.884.683.681.883.681.886 1.064 1.379a6.22 6.22 0 0 0 8.707 1.127L37 28.006l-3.79-4.916c-1.9-2.465-5.304-3.107-7.943-1.629 1.119-2.783.1-5.728-2.085-7.724a7.33 7.33 0 0 1-1.33 10.271l-1.363 1.05-.902.693-1.768 1.363-.681-.883-.392-.51-1.037-1.346-2.36-3.062a5.1 5.1 0 0 1 .925-7.14l4.032-3.107 3.109 4.034a5.1 5.1 0 0 1-.925 7.14l-1.381 1.064-.884.68-.681-.883-.681-.886-1.745-2.262a2.87 2.87 0 0 1 .519-4.011l2.265-1.744 1.745 2.265c.961 1.248.728 3.047-.519 4.008l-.497.384-.681-.886c-2.581-2.487-1.418-2.813-.25-4.206l-1.382 1.064c-.76.584-.902 1.683-.316 2.443l.808 1.05.256.332.681.883.681.886 1.382-1.067a3.98 3.98 0 0 0 .722-5.575l-2.426-3.148-3.15 2.426c-1.735 1.335-2.059 3.839-.722 5.575l2.22 2.879.208.269.681.886.681.883.884-.68.884-.683 1.381-1.064c2.712-2.089 3.217-5.994 1.128-8.706L18.508 9.5l-4.917 3.789a6.22 6.22 0 0 0-1.631 7.944c-2.782-1.118-5.729-.102-7.725 2.084 3.199-2.465 7.806-1.867 10.272 1.33l1.051 1.366.694.899 1.363 1.768-.884.681-.509.392-1.344 1.04zM7.798 37.87a.7.7 0 0 0-.969-.121.67.67 0 0 0-.121.951.7.7 0 0 0 .968.118c.301-.228.356-.655.122-.948zm21.013.394a.67.67 0 0 0-.122.95.7.7 0 0 0 .969.118.67.67 0 0 0 .121-.95.7.7 0 0 0-.968-.118zM7.355 16.2a.67.67 0 0 0-.122.951.7.7 0 0 0 .967.118.67.67 0 0 0 .122-.951.7.7 0 0 0-.967-.118zm22.949.633a.7.7 0 0 0-.968-.118c-.3.227-.355.655-.121.948a.7.7 0 0 0 .968.121.67.67 0 0 0 .121-.951z" fill-opacity=".7" fill-rule="evenodd"/></svg>