<svg xmlns="http://www.w3.org/2000/svg" viewBox="0 0 90 48" fill-rule="evenodd" xmlns:v="https://vecta.io/nano"><path d="M29.4 10.5h7L18.6 40.3.8 10.5H8l10.7 18 10.7-18z" fill="#41b883"/><path d="M22.7 10.5h6.7l-10.8 18-10.7-18h6.6l4.1 6.9 4.1-6.9z" fill="#35495e"/><path d="M40.6 16.4c0-.2.1-.4.4-.6.3-.1.5-.2.8-.2.4 0 .6.1.7.4l4 13.1 4-13.1c.1-.3.3-.4.7-.4.3 0 .6.1.8.2.3.2.4.3.4.6v.1.1l-4.6 14.6c-.2.4-.6.6-1.2.6s-1-.2-1.2-.6l-4.7-14.6c-.1-.1-.1-.2-.1-.2h0zm11.9 11.2v-5.7c0-.2.1-.3.3-.5.2-.1.4-.2.7-.2.2 0 .5.1.6.2a.55.55 0 0 1 .3.5v5.7c0 .7.3 1.3.8 1.8s1.1.8 1.8.8 1.3-.3 1.8-.8.8-1.1.8-1.8v-5.7c0-.2.1-.3.3-.4s.4-.2.7-.2.5.1.7.2a.55.55 0 0 1 .3.5v5.7c0 1.1-.4 2.1-1.3 3-.9.8-1.9 1.3-3.2 1.3-1.2 0-2.3-.4-3.2-1.3s-1.4-1.9-1.4-3.1h0zm10.6 0v-2.3a3.74 3.74 0 0 1 1.3-2.9c.9-.8 2-1.2 3.2-1.2s2.2.4 3.1 1.2 1.3 1.7 1.3 2.9c0 .4-.1.8-.2 1-.1.3-.3.4-.5.6-.2.1-.4.2-.6.2h-.8-5v.7c0 .8.3 1.5.9 1.9.6.5 1.4.7 2.3.7.5 0 .9-.1 1.3-.2s.7-.3.9-.4.4-.2.5-.2a.55.55 0 0 1 .5.3c.2.2.2.4.2.6 0 .3-.3.7-1 1-.7.4-1.5.5-2.6.5-1.5 0-2.7-.4-3.6-1.2-.8-.9-1.2-1.9-1.2-3.2h0zm1.9-1.8h4.2c.4 0 .7 0 .8-.1s.2-.3.2-.6c0-.7-.3-1.2-.8-1.7s-1.1-.7-1.8-.7-1.3.2-1.8.7-.8 1-.8 1.7v.7zm7.9 4.9c0-.3.1-.6.3-.8s.5-.3.8-.3.6.1.8.3.3.5.3.8-.1.6-.3.8-.5.3-.8.3-.6-.1-.8-.3c-.1-.2-.3-.5-.3-.8zm1.7 5.2c0-.2.1-.4.2-.6.2-.2.3-.2.5-.2.6 0 1-.2 1.2-.6s.3-1.1.3-1.9V21.9c0-.2.1-.3.3-.5.2-.1.4-.2.7-.2s.5.1.7.2a.55.55 0 0 1 .3.5v10.7c0 1.3-.3 2.3-.8 3s-1.3 1.1-2.3 1.1c-.8 0-1.1-.2-1.1-.8h0zm2-18.6c0-.3.1-.5.3-.7s.5-.3.8-.3.6.1.8.3.3.4.3.7-.1.5-.3.7-.5.3-.8.3-.6-.1-.8-.3c-.2-.1-.3-.4-.3-.7h0zm3.5 12.9c0-.2.1-.4.2-.6a.55.55 0 0 1 .5-.3c.1 0 .3.1.5.3s.6.3 1 .5.9.3 1.5.3c.8 0 1.3-.1 1.7-.4.3-.3.5-.6.5-1 0-.5-.2-.9-.6-1.2s-.8-.5-1.4-.6a9.83 9.83 0 0 1-1.6-.5c-.5-.2-1-.5-1.4-.9s-.6-1-.6-1.6c0-.8.3-1.6.9-2.2s1.6-.9 2.8-.9c.8 0 1.5.1 2.2.4.7.2 1 .5 1 .8 0 .2-.1.4-.2.6a.55.55 0 0 1-.5.3c-.1 0-.4-.1-.9-.3s-1-.3-1.6-.3c-.7 0-1.2.2-1.6.5-.3.3-.5.7-.5 1.1s.2.7.6 1c.4.2.8.4 1.4.6.6.1 1.1.3 1.7.5.5.2 1 .5 1.4 1s.6 1.1.6 1.8c0 .9-.3 1.6-1 2.2-.7.5-1.6.8-2.8.8-1 0-1.9-.2-2.6-.5-.8-.6-1.2-1-1.2-1.4h0z" opacity=".9" fill="#fff"/></svg>