<svg xmlns="http://www.w3.org/2000/svg" width="145" height="125" viewBox="377.5 387.5 145 125"><path fill="#FFF" d="M386.962 417.96h121.072v86.106H386.962z"/><g fill="#004563"><path d="M462.26 494.82h2.01l-.967-3.159zm-44.107-2.478c0-.585-.417-.976-1.035-.976h-.614v1.919h.614c.571 0 1.035-.422 1.035-.943zm25.964-.948h-.408v2.396h.288c.975 0 1.411-.612 1.411-1.22 0-.567-.404-1.176-1.291-1.176zm-27.266 3.153h-.348v2.517h.614c.82 0 1.235-.422 1.235-1.251.001-.833-.758-1.266-1.501-1.266zm64.09-3.294a2.96 2.96 0 0 0 0 5.918 2.958 2.958 0 1 0 0-5.918zm-61.545-40.466c0-1.498-.352-3.988-2.485-3.988-3.988 0-7.261 8.042-8.752 14.736 6.541-.068 11.165-5.694 11.237-10.748zm-17.364 40.607h-.455v2.639h.291c.716 0 1.479-.349 1.479-1.316 0-.792-.528-1.323-1.315-1.323z"/><path d="M378.055 387.923v125h145v-125h-145zm23.822 107.38h-.3v2.304c0 .042.004.083.012.112h.168v.516l-.261.064h-1.406v-.516l.16-.04a.597.597 0 0 0 .016-.138v-6.785a.88.88 0 0 0-.008-.113h-.167v-.582h2.017c1.476 0 2.589 1.112 2.589 2.59 0 1.498-1.186 2.588-2.82 2.588zm10.766-4.596h-.164c-.003.032-.007.07-.007.113v4.605c0 1.9-1.135 3.037-3.033 3.037-1.875 0-3.038-1.163-3.038-3.037v-4.605c0-.043-.008-.081-.013-.113h-.164v-.582h1.662v.582h-.164c-.003.032-.008.07-.008.113v4.703c0 1.016.708 1.724 1.723 1.724.855 0 1.718-.534 1.718-1.724v-4.703a.894.894 0 0 0-.008-.113h-.164v-.582h1.658v.582h.002zm4.455 7.592h-2.082v-.516l.16-.04a.6.6 0 0 0 .017-.138v-6.785a.472.472 0 0 0-.012-.113h-.164v-.582h2.082c1.347 0 2.402.94 2.402 2.141 0 .748-.336 1.352-.896 1.677.667.37 1.104 1.108 1.104 1.966-.001 1.404-1.077 2.39-2.611 2.39zm8.644 0h-3.836v-.516l.16-.04c.004-.03.012-.077.012-.138v-6.785a.894.894 0 0 0-.008-.113h-.164v-.582h1.658v.582h-.159a.468.468 0 0 0-.013.113v6.21h1.653a.646.646 0 0 0 .116-.01v-.168h.517l.062.258.002 1.189zm3.217-7.592h-.168c-.007.032-.007.07-.007.113v6.785c0 .042 0 .083.007.112h.168v.516l-.26.064h-1.403v-.516l.16-.04a.571.571 0 0 0 .014-.138v-6.786c0-.043-.005-.08-.009-.112h-.164v-.582h1.663l-.001.584zm7.5.928h-.563l-.027-.223c-.013-.008-.224-.137-.771-.137-1.73 0-3.033 1.264-3.033 2.938 0 1.681 1.338 2.945 3.104 2.945.612 0 .711-.102.715-.104l.053-.194.523.019v1.391l-.194.047a4.68 4.68 0 0 1-1.068.104c-2.577 0-4.448-1.771-4.448-4.206 0-2.344 1.882-4.178 4.285-4.178.463 0 .86.028 1.211.084l.216.035v1.479h-.003zm11.13 6.599l-.255.064h-1.455v-.258c0-.158-.012-.181-.02-.197l-1.254-2.084c-.32-.543-.484-.765-.835-.765h-.061v2.61c0 .045.004.083.008.112h.164v.516l-.259.064h-1.403v-.516l.16-.04a.411.411 0 0 0 .017-.138v-6.786a.877.877 0 0 0-.008-.112h-.168v-.582h1.811c1.851 0 2.698 1.247 2.698 2.403 0 .781-.424 1.683-1.363 2.104.176.184.354.43.579.794l1.259 2.046c.044.074.14.192.196.246h.19l-.001.519zm5.499-6.664h-.515l-.041-.16a.507.507 0 0 0-.14-.017h-1.654v1.886h1.654a.508.508 0 0 0 .115-.014v-.165h.518l.062.258v1.364h-.515l-.041-.16a.606.606 0 0 0-.14-.016h-1.654v2.483h1.654a.692.692 0 0 0 .115-.01v-.168h.517l.062.258v1.188h-3.84v-.516l.161-.04a.66.66 0 0 0 .011-.138v-6.785c0-.043 0-.082-.007-.113h-.165v-.582h3.84v1.445h.003zm6.266 6.729h-3.841v-.516l.159-.04a.489.489 0 0 0 .018-.138v-6.785c0-.043-.009-.081-.013-.113h-.164v-.582h1.662v.582h-.162c-.004.032-.009.07-.009.113v6.21h1.654a.724.724 0 0 0 .115-.01v-.168h.516l.063.258.002 1.189zm7.445-.065l-.259.064h-1.499v-.516l.128-.031c0-.012-.004-.021-.008-.033l-.517-1.684h-2.78l-.556 1.684h.119v.516l-.257.064h-1.462v-.516l.173-.044a.467.467 0 0 0 .107-.192l2.248-6.776a.294.294 0 0 0 .021-.1l-.076-.021v-.526h2.289v.526l-.079.021c.004.029.014.066.023.104l2.105 6.772a.917.917 0 0 0 .08.17h.195v.517h.005zm4.648-6.664h-.517l-.04-.16a.507.507 0 0 0-.14-.017h-.998v6.213c0 .045.004.083.009.112h.163v.516l-.256.064h-1.407v-.516l.164-.04c.005-.032.017-.084.017-.138v-6.213h-1.004a.545.545 0 0 0-.111.011v.166h-.587v-1.444h4.707v1.446zm3.456-.863h-.168a.91.91 0 0 0-.007.113v6.785c0 .045.003.083.007.112h.168v.516l-.254.064h-1.412v-.516l.16-.04a.55.55 0 0 0 .017-.138v-6.786a.877.877 0 0 0-.008-.112h-.169v-.582h1.666v.584zm6.038 7.756a4.255 4.255 0 0 1-4.252-4.25c0-1.205.488-2.319 1.376-3.133a4.214 4.214 0 0 1 2.876-1.12 4.256 4.256 0 0 1 4.253 4.253 4.255 4.255 0 0 1-4.253 4.25zm12.748-7.756h-.167a.423.423 0 0 0-.013.113v7.479h-1.489v-.258a.365.365 0 0 0-.053-.146l-3.501-5.906v5.618c0 .042.009.083.013.112h.168v.516l-.261.064h-1.406v-.516l.16-.04a.408.408 0 0 0 .016-.138v-6.785a.894.894 0 0 0-.008-.113h-.168v-.582h2.166v.338l-.049.104c.023-.038.032.021.156.231l2.944 4.965v-4.945a.877.877 0 0 0-.008-.112h-.171v-.582h1.669l.002.583zm3.642 7.736c-.56 0-1.043-.1-1.347-.188l-.192-.051v-1.461h.517l.062.259a.204.204 0 0 0-.016-.081s.191.271.859.271c.804 0 1.303-.391 1.303-1.023 0-.615-.571-1.156-1.176-1.728-.711-.674-1.52-1.436-1.52-2.498 0-1.205.836-1.984 2.131-1.984.491 0 .871.05 1.275.167l.185.055v1.435h-.517l-.064-.259c.013.006-.208-.153-.821-.155-.509 0-.837.276-.837.711 0 .466.517.962 1.062 1.483.764.731 1.628 1.555 1.628 2.721.002 1.371-1.038 2.326-2.532 2.326zm5.651-47.729h-4.054c.212-.782.353-1.425.353-1.99 0-1.71-1.067-2.422-2.63-2.422-5.979 0-9.819 11.604-9.819 19.294 0 3.483.783 7.613 5.124 7.613 3.84 0 7.187-1.778 9.959-4.201 0 6.195-5.264 10.253-14.227 10.253-4.272 0-7.825-1.728-9.473-5.854-2.885 3.114-6.15 5.854-9.162 5.854-5.551 0-8.823-2.421-8.823-7.76 0-1.141.144-2.278.428-3.632l2.701-12.811a8.54 8.54 0 0 0 .216-1.851c0-2.563-1.352-4.202-3.273-4.202-1.562 0-2.773.429-4.129 1.281.216.852.356 1.64.356 2.493 0 .499-.068.996-.142 1.491l-5.267 24.987h-10.314l5.122-24.201a8.8 8.8 0 0 0 .217-1.851c0-2.563-1.355-4.202-3.277-4.202-1.706 0-2.913.502-4.34 1.494l-6.115 28.76h-10.245l1.702-8.035c-3.964 4.568-9.199 8.035-15.573 8.035-6.831 0-10.531-5.194-10.531-11.318 0-9.04 3.844-24.915 16.792-24.915 5.835 0 9.108 2.421 9.108 7.406 0 8.682-9.323 13.665-16.078 14.521-.139 1.136-.215 2.206-.215 3.062 0 4.699 3.06 6.119 5.83 6.119 3.489 0 9.462-4.128 11.952-9.396h.088l4.464-21.071h10.247l-.785 3.774c2.848-2.065 6.12-3.774 9.175-3.774 2.634 0 5.48 1.925 7.047 4.699 3.127-2.493 6.897-4.699 10.386-4.699 3.912 0 8.177 4.128 8.177 8.971 0 .569-.068 1.066-.142 1.633l-2.917 13.598c-.212.856-.354 1.779-.354 2.637 0 1.636.64 2.915 2.917 2.915 1.387 0 2.803-1.003 4.084-2.378a18.351 18.351 0 0 1-.315-3.458c0-10.392 4.484-24.13 18.282-24.13 3.842 0 7.824.999 7.824 4.911.004.783-.067 1.424-.351 2.35z"/></g></svg>