<?xml version="1.0" encoding="UTF-8" standalone="no"?>
<!DOCTYPE svg PUBLIC "-//W3C//DTD SVG 1.1//EN" "http://www.w3.org/Graphics/SVG/1.1/DTD/svg11.dtd">
<svg width="1920px" height="1080px" version="1.1" xmlns="http://www.w3.org/2000/svg" xmlns:xlink="http://www.w3.org/1999/xlink" xml:space="preserve" xmlns:serif="http://www.serif.com/" style="fill-rule:evenodd;clip-rule:evenodd;stroke-linejoin:round;stroke-miterlimit:2;">
    <g id="GFR">
        <g transform="matrix(4.16667,0,0,4.16667,-281.473,-2186.13)">
            <rect x="255.326" y="572.872" width="83.816" height="83.815" style="fill:rgb(170,29,75);"/>
        </g>
        <g transform="matrix(4.16667,0,0,4.16667,-281.473,-2197.35)">
            <path d="M273.723,608.966C273.723,595.673 273.723,593.287 273.554,590.56C273.384,587.662 272.551,586.79 270.064,586.176C269.38,586.007 267.905,585.836 267.031,585.708C266.371,585.612 266.31,585.276 266.31,584.936C266.31,584.422 266.737,584.255 267.674,584.255C269.633,584.255 271.936,584.255 273.81,584.338L277.302,584.508C279.008,584.595 298.155,584.508 300.116,584.422C301.734,584.338 303.097,584.338 303.865,584.084C304.375,583.913 304.718,583.573 305.056,583.573C305.4,583.573 305.569,583.913 305.569,584.338C305.569,584.936 305.262,585.916 305.005,588.3C304.92,589.153 304.575,593.452 304.491,594.484C304.359,596.07 303.991,596.494 303.567,596.45C302.932,596.387 302.903,595.588 302.869,594.169C302.851,593.329 302.561,591.564 301.99,590.485C301.453,589.473 299.945,588.003 296.622,587.918L281.65,587.662C281.14,587.662 280.883,587.918 280.883,588.599L280.883,612.12C280.883,612.632 280.968,612.887 281.479,612.887L292.387,612.8C293.838,612.8 295.032,612.817 296.224,612.716C297.683,612.593 298.917,611.736 299.735,610.04C300.42,608.624 300.676,608.265 301.214,608.459C301.863,608.697 301.542,609.479 301.505,609.904C301.466,610.376 301.081,612.972 300.824,615.783C300.652,617.488 300.482,620.897 300.482,621.494C300.482,622.26 300.482,623.114 299.886,623.114C299.462,623.114 299.261,622.783 299.205,622.36C299.08,621.426 298.884,619.954 298.613,619.304C298.127,618.135 296.989,616.552 294.347,616.211C292.217,615.954 282.927,615.954 281.479,615.954C281.053,615.954 280.883,616.125 280.883,616.723L280.883,623.966C280.883,632.145 280.883,638.879 281.309,642.458C281.564,644.929 282.186,646.612 284.744,646.952C285.938,647.124 287.289,647.119 288.116,647.189C288.996,647.264 289.15,647.742 289.15,647.997C289.15,648.423 288.722,648.679 287.786,648.679C283.099,648.679 277.729,648.423 277.302,648.423C276.877,648.423 270.702,648.64 268.146,648.64C267.21,648.64 266.764,648.441 266.764,647.931C266.764,647.676 267.102,647.3 267.607,647.223C268.387,647.103 269.961,647.094 270.72,646.888C272.418,646.424 272.991,644.597 273.301,642.458C273.812,638.89 273.723,632.145 273.723,623.966" style="fill:white;fill-rule:nonzero;"/>
        </g>
        <g transform="matrix(4.16667,0,0,4.16667,-281.473,-1961.11)">
            <path d="M318.326,587.777C318.326,586.798 318.702,585.696 319.459,584.769C320.215,583.841 321.352,583.09 323.013,583.09C324.332,583.09 325.325,583.66 326.168,584.427C327.009,585.195 327.699,586.354 327.699,587.717C327.699,589.08 327.193,590.02 326.362,590.915C325.531,591.81 324.378,592.465 322.929,592.465C321.654,592.465 320.493,592.091 319.474,590.99C318.736,590.194 318.352,589.22 318.326,587.777" style="fill:white;fill-rule:nonzero;"/>
        </g>
        <g transform="matrix(4.16667,0,0,4.16667,-281.473,-1563.98)">
            <path d="M77.884,536.376C77.884,529.42 77.884,528.172 77.795,526.744C77.705,525.228 77.349,524.515 75.876,524.203C75.52,524.114 74.762,524.069 74.361,524.069C74.182,524.069 74.004,523.98 74.004,523.802C74.004,523.534 74.227,523.444 74.717,523.444C75.743,523.444 76.948,523.444 77.928,523.489L79.756,523.579C80.648,523.623 89.7,523.579 90.726,523.534C91.573,523.489 92.286,523.489 92.687,523.355C92.955,523.266 93.133,523.087 93.312,523.087C93.49,523.087 93.58,523.266 93.58,523.489C93.58,523.802 93.356,524.337 93.222,525.585C93.178,526.031 93.089,527.994 93,528.528C92.955,528.751 92.866,529.018 92.643,529.018C92.42,529.018 92.331,528.795 92.331,528.483C92.331,528.127 92.197,527.368 91.93,526.789C91.662,526.209 90.637,525.407 88.897,525.362L82.03,525.228C81.762,525.228 81.629,525.362 81.629,525.719L81.629,538.026C81.629,538.294 81.673,538.427 81.941,538.427L87.648,538.383C88.407,538.383 89.031,538.383 89.656,538.338C90.726,538.249 91.305,538.115 91.707,537.536C91.885,537.313 92.019,537.09 92.197,537.09C92.375,537.09 92.42,537.223 92.42,537.446C92.42,537.714 92.197,538.472 92.063,539.943C91.974,540.836 91.885,542.619 91.885,542.931C91.885,543.332 91.885,543.778 91.573,543.778C91.35,543.778 91.261,543.6 91.261,543.377C91.216,542.931 91.172,542.307 90.993,541.772C90.77,541.148 90.057,540.344 88.675,540.166C87.559,540.032 82.7,540.032 81.941,540.032C81.718,540.032 81.629,540.121 81.629,540.433L81.629,544.224C81.629,548.505 81.629,552.027 81.852,553.901C81.985,555.194 82.254,556.174 83.591,556.353C84.216,556.442 85.196,556.531 85.598,556.531C85.865,556.531 85.954,556.665 85.954,556.799C85.954,557.021 85.731,557.155 85.241,557.155C82.789,557.155 79.979,557.021 79.756,557.021C79.533,557.021 76.725,557.155 75.386,557.155C74.896,557.155 74.673,557.066 74.673,556.799C74.673,556.665 74.762,556.531 75.03,556.531C75.431,556.531 75.966,556.442 76.367,556.353C77.26,556.174 77.483,555.194 77.661,553.901C77.884,552.027 77.884,548.505 77.884,544.224" style="fill:rgb(170,29,75);fill-rule:nonzero;"/>
        </g>
        <g transform="matrix(4.16667,0,0,4.16667,-281.473,-1562.49)">
            <path d="M108.022,543.868C108.022,548.149 108.022,551.671 108.245,553.544C108.378,554.837 108.646,555.818 109.985,555.996C110.609,556.085 111.59,556.175 111.991,556.175C112.258,556.175 112.347,556.308 112.347,556.442C112.347,556.665 112.125,556.799 111.634,556.799C109.181,556.799 106.372,556.665 106.149,556.665C105.926,556.665 103.117,556.799 101.779,556.799C101.289,556.799 101.066,556.709 101.066,556.442C101.066,556.308 101.155,556.174 101.423,556.174C101.824,556.175 102.359,556.085 102.76,555.996C103.652,555.818 103.875,554.837 104.053,553.544C104.277,551.671 104.277,548.149 104.277,543.868L104.277,536.02C104.277,529.064 104.277,527.814 104.187,526.388C104.098,524.872 103.652,524.114 102.671,523.891C102.18,523.757 101.601,523.713 101.289,523.713C101.11,523.713 100.932,523.624 100.932,523.445C100.932,523.178 101.155,523.087 101.645,523.087C103.117,523.087 105.926,523.222 106.149,523.222C106.372,523.222 109.181,523.087 110.52,523.087C111.009,523.087 111.232,523.178 111.232,523.445C111.232,523.624 111.054,523.713 110.875,523.713C110.564,523.713 110.297,523.757 109.761,523.847C108.557,524.069 108.2,524.827 108.111,526.388C108.022,527.814 108.022,529.064 108.022,536.02" style="fill:rgb(128,128,128);fill-rule:nonzero;"/>
        </g>
        <g transform="matrix(4.16667,0,0,4.16667,-281.473,-1563.79)">
            <path d="M126.158,551.047C126.247,554.702 126.693,555.863 127.897,556.219C128.744,556.442 129.725,556.487 130.126,556.487C130.349,556.487 130.483,556.576 130.483,556.754C130.483,557.022 130.216,557.111 129.681,557.111C127.138,557.111 125.355,556.977 124.954,556.977C124.553,556.977 122.68,557.111 120.673,557.111C120.227,557.111 119.959,557.066 119.959,556.754C119.959,556.576 120.093,556.487 120.316,556.487C120.673,556.487 121.475,556.442 122.145,556.219C123.26,555.907 123.483,554.613 123.483,550.556L123.527,525.006C123.527,523.266 123.661,522.776 124.018,522.776C124.374,522.776 125.132,523.757 125.578,524.202C126.247,524.961 132.891,532.14 139.759,539.497C144.172,544.224 149.033,549.664 150.46,551.136L149.969,528.483C149.925,525.585 149.612,524.603 148.23,524.247C147.428,524.068 146.403,524.024 146.045,524.024C145.733,524.024 145.688,523.89 145.688,523.713C145.688,523.444 146.045,523.4 146.581,523.4C148.587,523.4 150.727,523.534 151.217,523.534C151.708,523.534 153.18,523.4 155.008,523.4C155.499,523.4 155.811,523.444 155.811,523.713C155.811,523.89 155.632,524.024 155.32,524.024C155.097,524.024 154.785,524.024 154.25,524.158C152.779,524.47 152.601,525.452 152.601,528.127L152.511,554.256C152.511,557.2 152.422,557.423 152.11,557.423C151.752,557.423 151.217,556.933 148.855,554.569C148.364,554.123 141.943,547.568 137.216,542.486C132.044,536.911 127.005,531.293 125.578,529.687" style="fill:rgb(128,128,128);fill-rule:nonzero;"/>
        </g>
        <g transform="matrix(4.16667,0,0,4.16667,-281.473,-1565.09)">
            <path d="M178.232,542.663C178.455,542.663 178.455,542.529 178.41,542.35L174.173,530.311C173.951,529.642 173.728,529.642 173.505,530.311L169.581,542.35C169.492,542.573 169.581,542.663 169.715,542.663L178.232,542.663ZM173.594,524.826C174.129,523.355 174.308,523.087 174.576,523.087C174.843,523.087 175.022,523.31 175.556,524.693C176.225,526.387 183.226,544.803 185.946,551.58C187.552,555.549 188.844,556.263 189.781,556.53C190.449,556.753 191.118,556.798 191.565,556.798C191.833,556.798 192.01,556.842 192.01,557.065C192.01,557.333 191.61,557.422 191.118,557.422C190.449,557.422 187.195,557.422 184.118,557.332C183.27,557.288 182.78,557.288 182.78,557.02C182.78,556.842 182.914,556.753 183.092,556.708C183.36,556.619 183.627,556.218 183.36,555.505L179.212,544.535C179.123,544.357 179.034,544.268 178.811,544.268L169.225,544.268C169.002,544.268 168.868,544.401 168.779,544.624L166.103,552.518C165.702,553.631 165.479,554.702 165.479,555.505C165.479,556.396 166.415,556.798 167.174,556.798L167.619,556.798C167.931,556.798 168.064,556.887 168.064,557.065C168.064,557.333 167.797,557.422 167.396,557.422C166.326,557.422 164.409,557.288 163.918,557.288C163.428,557.288 160.975,557.422 158.879,557.422C158.3,557.422 158.032,557.332 158.032,557.065C158.032,556.887 158.211,556.797 158.433,556.797C158.746,556.798 159.37,556.753 159.726,556.708C161.778,556.441 162.669,554.747 163.472,552.518" style="fill:rgb(128,128,128);fill-rule:nonzero;"/>
        </g>
        <g transform="matrix(4.16667,0,0,4.16667,-281.473,-1565.09)">
            <path d="M449.401,542.663C449.625,542.663 449.625,542.529 449.58,542.35L445.344,530.311C445.122,529.642 444.898,529.642 444.676,530.311L440.752,542.35C440.663,542.573 440.752,542.663 440.885,542.663L449.401,542.663ZM444.766,524.826C445.301,523.355 445.479,523.087 445.746,523.087C446.014,523.087 446.192,523.31 446.726,524.693C447.396,526.387 454.396,544.803 457.116,551.58C458.722,555.549 460.014,556.263 460.951,556.53C461.621,556.753 462.289,556.798 462.735,556.798C463.002,556.798 463.18,556.842 463.18,557.065C463.18,557.333 462.78,557.422 462.289,557.422C461.621,557.422 458.366,557.422 455.287,557.332C454.441,557.288 453.95,557.288 453.95,557.02C453.95,556.842 454.085,556.753 454.263,556.708C454.53,556.619 454.798,556.218 454.53,555.505L450.384,544.535C450.295,544.357 450.206,544.268 449.982,544.268L440.395,544.268C440.172,544.268 440.039,544.401 439.95,544.624L437.273,552.518C436.872,553.631 436.648,554.702 436.648,555.505C436.648,556.396 437.586,556.798 438.345,556.798L438.79,556.798C439.102,556.798 439.236,556.887 439.236,557.065C439.236,557.333 438.969,557.422 438.566,557.422C437.497,557.422 435.548,557.334 435.058,557.334L430.083,557.334C429.502,557.334 429.202,557.333 429.202,557.065C429.202,556.887 429.38,556.798 429.604,556.798C429.917,556.798 430.541,556.753 430.897,556.708C432.948,556.441 433.84,554.747 434.642,552.518" style="fill:rgb(128,128,128);fill-rule:nonzero;"/>
        </g>
        <g transform="matrix(4.16667,0,0,4.16667,-281.473,-1565.09)">
            <path d="M508.823,542.663C509.047,542.663 509.047,542.529 509.001,542.35L504.766,530.311C504.542,529.642 504.32,529.642 504.096,530.311L500.174,542.35C500.085,542.573 500.174,542.663 500.306,542.663L508.823,542.663ZM504.185,524.826C504.72,523.355 504.901,523.087 505.168,523.087C505.436,523.087 505.614,523.31 506.148,524.693C506.816,526.387 513.817,544.803 516.538,551.58C518.142,555.549 519.436,556.263 520.373,556.53C521.041,556.753 521.711,556.798 522.156,556.798C522.424,556.798 522.601,556.842 522.601,557.065C522.601,557.333 522.202,557.422 521.711,557.422C521.041,557.422 517.785,557.422 514.709,557.332C513.863,557.288 513.371,557.288 513.371,557.02C513.371,556.842 513.506,556.753 513.685,556.708C513.952,556.619 514.22,556.218 513.952,555.505L509.804,544.535C509.715,544.357 509.626,544.268 509.404,544.268L499.817,544.268C499.593,544.268 499.46,544.401 499.371,544.624L496.694,552.518C496.294,553.631 496.07,554.702 496.07,555.505C496.07,556.396 497.007,556.798 497.764,556.798L498.21,556.798C498.523,556.798 498.656,556.887 498.656,557.065C498.656,557.333 498.388,557.422 497.988,557.422C496.918,557.422 495.001,557.288 494.51,557.288C494.02,557.288 491.567,557.422 489.472,557.422C488.891,557.422 488.624,557.332 488.624,557.065C488.624,556.887 488.802,556.797 489.026,556.797C489.337,556.798 489.96,556.753 490.317,556.708C492.37,556.441 493.261,554.747 494.064,552.518" style="fill:rgb(128,128,128);fill-rule:nonzero;"/>
        </g>
        <g transform="matrix(4.16667,0,0,4.16667,-281.473,-1563.79)">
            <path d="M199.585,551.047C199.674,554.702 200.12,555.863 201.325,556.219C202.172,556.442 203.152,556.487 203.554,556.487C203.777,556.487 203.91,556.576 203.91,556.754C203.91,557.022 203.643,557.111 203.108,557.111C200.565,557.111 198.782,556.977 198.381,556.977C197.98,556.977 196.107,557.111 194.1,557.111C193.654,557.111 193.387,557.066 193.387,556.754C193.387,556.576 193.52,556.487 193.743,556.487C194.1,556.487 194.902,556.442 195.572,556.219C196.687,555.907 196.91,554.613 196.91,550.556L196.954,525.006C196.954,523.266 197.088,522.776 197.445,522.776C197.801,522.776 198.559,523.757 199.005,524.202C199.674,524.961 206.318,532.14 213.186,539.497C217.599,544.224 222.46,549.664 223.887,551.136L223.396,528.483C223.352,525.585 223.04,524.603 221.658,524.247C220.855,524.068 219.83,524.024 219.472,524.024C219.16,524.024 219.115,523.89 219.115,523.713C219.115,523.444 219.472,523.4 220.008,523.4C222.014,523.4 224.154,523.534 224.645,523.534C225.135,523.534 226.607,523.4 228.435,523.4C228.926,523.4 229.238,523.444 229.238,523.713C229.238,523.89 229.059,524.024 228.747,524.024C228.524,524.024 228.212,524.024 227.677,524.158C226.206,524.47 226.028,525.452 226.028,528.127L225.939,554.256C225.939,557.2 225.849,557.423 225.537,557.423C225.18,557.423 224.645,556.933 222.282,554.569C221.791,554.123 215.37,547.568 210.643,542.486C205.471,536.911 200.432,531.293 199.005,529.687" style="fill:rgb(128,128,128);fill-rule:nonzero;"/>
        </g>
        <g transform="matrix(4.16667,0,0,4.16667,-281.473,-1562.49)">
            <path d="M240.244,552.606C235.919,548.726 234.849,543.643 234.849,539.407C234.849,536.42 235.874,531.203 239.843,527.235C242.518,524.559 246.576,522.463 253.444,522.463C255.226,522.463 257.724,522.597 259.909,522.998C261.603,523.31 263.03,523.578 264.457,523.667C264.948,523.712 265.037,523.889 265.037,524.156C265.037,524.513 264.903,525.05 264.814,526.655C264.725,528.126 264.725,530.58 264.68,531.247C264.636,531.917 264.546,532.185 264.279,532.185C263.967,532.185 263.922,531.873 263.922,531.247C263.922,529.509 263.209,527.681 262.05,526.7C260.488,525.361 257.055,524.156 253.131,524.156C247.2,524.156 244.436,525.895 242.876,527.413C239.62,530.535 238.862,534.502 238.862,539.05C238.862,547.567 245.417,555.37 254.959,555.37C258.304,555.37 260.934,554.971 262.718,553.141C263.655,552.16 264.234,550.198 264.368,549.396C264.457,548.905 264.546,548.726 264.814,548.726C265.037,548.726 265.126,549.039 265.126,549.396C265.126,549.708 264.591,553.587 264.145,555.103C263.878,555.951 263.788,556.04 262.986,556.397C261.202,557.11 257.813,557.422 254.959,557.422C248.27,557.422 243.766,555.771 240.244,552.606" style="fill:rgb(128,128,128);fill-rule:nonzero;"/>
        </g>
        <g transform="matrix(4.16667,0,0,4.16667,-281.473,-1563.79)">
            <path d="M277.024,551.047C277.114,554.702 277.559,555.863 278.764,556.219C279.611,556.442 280.591,556.487 280.993,556.487C281.216,556.487 281.35,556.576 281.35,556.754C281.35,557.022 281.082,557.111 280.546,557.111C278.006,557.111 276.222,556.977 275.821,556.977C275.419,556.977 273.547,557.111 271.539,557.111C271.094,557.111 270.826,557.066 270.826,556.754C270.826,556.576 270.96,556.487 271.183,556.487C271.539,556.487 272.343,556.442 273.012,556.219C274.126,555.907 274.348,554.613 274.348,550.556L274.393,525.006C274.393,523.266 274.527,522.776 274.883,522.776C275.241,522.776 275.999,523.757 276.445,524.202C277.114,524.961 283.758,532.14 290.625,539.497C295.04,544.224 299.9,549.664 301.326,551.136L300.837,528.483C300.791,525.585 300.478,524.603 299.097,524.247C298.296,524.068 297.269,524.024 296.912,524.024C296.599,524.024 296.556,523.89 296.556,523.713C296.556,523.444 296.912,523.4 297.448,523.4C299.454,523.4 301.594,523.534 302.085,523.534C302.575,523.534 304.047,523.4 305.875,523.4C306.364,523.4 306.677,523.444 306.677,523.713C306.677,523.89 306.499,524.024 306.186,524.024C305.964,524.024 305.651,524.024 305.116,524.158C303.647,524.47 303.466,525.452 303.466,528.127L303.377,554.256C303.377,557.2 303.288,557.423 302.977,557.423C302.62,557.423 302.085,556.933 299.721,554.569C299.23,554.123 292.81,547.568 288.083,542.486C282.91,536.911 277.871,531.293 276.445,529.687" style="fill:rgb(128,128,128);fill-rule:nonzero;"/>
        </g>
        <g transform="matrix(4.16667,0,0,4.16667,-281.473,-1599.2)">
            <path d="M263.274,525.267C262.925,525.484 261.994,526.036 261.885,526.115C261.674,526.269 261.418,526.399 260.641,526.813C260.328,526.986 256.034,529.225 254.247,530.013C254.016,530.133 253.892,530.161 253.778,530.093C253.627,530 253.62,529.841 253.666,529.763C253.714,529.687 253.659,528.981 253.952,528.807C255.344,527.978 257.831,526.84 259.757,525.648C260.408,525.246 260.825,524.894 260.935,524.819C261.248,524.605 262.278,523.84 262.395,524.04C262.908,524.92 263.672,525.018 263.274,525.267M246.777,523.486C247.003,523.087 247.233,523.207 247.327,523.36C247.397,523.474 247.659,523.988 248.218,524.509C250.009,526.174 253.215,528.02 254.516,528.949C254.794,529.144 254.236,529.668 254.284,529.745C254.329,529.822 254.285,529.996 254.118,530.061C253.903,530.143 253.57,530.176 253.115,530.013C251.276,529.352 247.034,526.986 246.719,526.813C245.944,526.399 245.69,526.241 245.574,526.05C245.504,525.937 245.534,525.815 245.685,525.462C245.901,524.962 246.27,524.371 246.777,523.486M329.921,525.834C330.145,526.235 329.921,526.37 329.743,526.37C329.61,526.37 329.164,526.281 328.405,526.37C326.22,526.593 321.555,529.312 320.085,529.936C319.772,530.07 319.505,530.159 319.415,530.159C319.326,530.159 319.193,530.07 319.193,529.892C319.193,529.758 319.283,529.669 319.505,529.535C321.109,528.42 326.8,524.229 327.111,524.05C327.87,523.604 328.138,523.471 328.36,523.471C328.494,523.471 328.583,523.56 328.805,523.872C329.119,524.318 329.432,524.942 329.921,525.834M322.849,552.678C322.849,556.958 322.849,560.481 323.071,562.353C323.205,563.647 323.472,564.628 324.81,564.807C325.434,564.896 326.415,564.985 326.817,564.985C327.085,564.985 327.174,565.119 327.174,565.252C327.174,565.475 326.952,565.609 326.46,565.609C324.007,565.609 321.199,565.475 320.975,565.475C320.753,565.475 317.943,565.609 316.607,565.609C316.115,565.609 315.893,565.52 315.893,565.252C315.893,565.119 315.982,564.985 316.25,564.985C316.65,564.985 317.185,564.896 317.587,564.807C318.478,564.628 318.702,563.647 318.88,562.353C319.102,560.481 319.102,556.958 319.102,552.678L319.102,544.83C319.102,537.873 319.102,536.625 319.013,535.198C318.924,533.682 318.478,532.923 317.498,532.7C317.007,532.567 316.428,532.522 316.115,532.522C315.937,532.522 315.758,532.433 315.758,532.255C315.758,531.988 315.982,531.898 316.472,531.898C317.943,531.898 320.753,532.033 320.975,532.033C321.199,532.033 324.007,531.898 325.345,531.898C325.836,531.898 326.058,531.988 326.058,532.255C326.058,532.433 325.88,532.522 325.701,532.522C325.39,532.522 325.123,532.567 324.588,532.656C323.383,532.879 323.028,533.638 322.938,535.198C322.849,536.625 322.849,537.873 322.849,544.83" style="fill:rgb(128,128,128);fill-rule:nonzero;"/>
        </g>
        <g transform="matrix(4.16667,0,0,4.16667,-281.473,-1562.49)">
            <path d="M349.293,556.219C348.669,555.907 348.624,555.729 348.624,554.524C348.624,552.295 348.802,550.511 348.848,549.798C348.891,549.308 348.98,549.085 349.204,549.085C349.472,549.085 349.515,549.218 349.515,549.575C349.515,549.976 349.515,550.601 349.65,551.225C350.318,554.524 353.261,555.773 356.249,555.773C360.53,555.773 362.625,552.696 362.625,549.843C362.625,546.765 361.333,544.982 357.498,541.817L355.49,540.166C350.763,536.287 349.693,533.522 349.693,530.49C349.693,525.719 353.261,522.463 358.923,522.463C360.663,522.463 361.957,522.642 363.072,522.909C363.918,523.088 364.274,523.132 364.631,523.132C364.988,523.132 365.077,523.222 365.077,523.445C365.077,523.667 364.898,525.139 364.898,528.171C364.898,528.886 364.809,529.196 364.587,529.196C364.32,529.196 364.274,528.974 364.231,528.617C364.185,528.082 363.918,526.878 363.65,526.388C363.383,525.897 362.179,524.024 358.077,524.024C355.001,524.024 352.591,525.942 352.591,529.196C352.591,531.739 353.751,533.344 358.032,536.689L359.28,537.669C364.542,541.817 365.792,544.581 365.792,548.147C365.792,549.976 365.077,553.366 362.001,555.55C360.085,556.888 357.675,557.423 355.268,557.423C353.172,557.423 351.12,557.111 349.293,556.219" style="fill:rgb(170,29,75);fill-rule:nonzero;"/>
        </g>
        <g transform="matrix(4.16667,0,0,4.16667,-281.473,-1562.49)">
            <path d="M377.558,536.02C377.558,529.064 377.558,527.816 377.469,526.388C377.38,524.872 377.023,524.159 375.551,523.847C375.194,523.757 374.438,523.713 374.036,523.713C373.858,523.713 373.679,523.624 373.679,523.445C373.679,523.178 373.903,523.087 374.393,523.087C376.399,523.087 379.074,523.222 379.43,523.222C380.412,523.222 382.998,523.087 385.049,523.087C390.624,523.087 392.63,524.961 393.343,525.63C394.324,526.566 395.573,528.572 395.573,530.936C395.573,537.268 390.935,541.548 384.603,541.548C384.381,541.548 383.89,541.548 383.668,541.505C383.444,541.505 383.176,541.415 383.176,541.193C383.176,540.836 383.444,540.791 384.381,540.791C388.706,540.791 392.095,537.625 392.095,533.522C392.095,532.051 391.96,529.064 389.597,526.655C387.233,524.248 384.514,524.426 383.49,524.426C382.731,524.426 381.972,524.515 381.571,524.694C381.304,524.783 381.215,525.095 381.215,525.541L381.215,543.867C381.215,548.149 381.215,551.671 381.437,553.544C381.571,554.837 381.839,555.818 383.176,555.996C383.801,556.085 384.781,556.175 385.184,556.175C385.451,556.175 385.54,556.308 385.54,556.442C385.54,556.665 385.318,556.799 384.827,556.799C382.374,556.799 379.565,556.665 379.341,556.665C379.208,556.665 376.399,556.799 375.061,556.799C374.571,556.799 374.349,556.709 374.349,556.442C374.349,556.308 374.438,556.174 374.705,556.174C375.105,556.175 375.64,556.085 376.042,555.996C376.934,555.818 377.158,554.837 377.336,553.544C377.558,551.671 377.558,548.149 377.558,543.868" style="fill:rgb(128,128,128);fill-rule:nonzero;"/>
        </g>
        <g transform="matrix(4.16667,0,0,4.16667,-281.473,-1559.89)">
            <path d="M476.667,550.734C479.255,544.759 485.229,529.197 486.21,525.987C486.434,525.318 486.612,524.694 486.612,524.292C486.612,523.936 486.477,523.489 486.031,523.267C485.496,523.089 484.828,523.089 484.338,523.089C484.071,523.089 483.847,523.044 483.847,522.821C483.847,522.554 484.114,522.463 484.828,522.463C486.612,522.463 488.663,522.598 489.198,522.598C489.465,522.598 491.383,522.463 492.676,522.463C493.166,522.463 493.433,522.554 493.433,522.777C493.433,523 493.255,523.089 492.898,523.089C492.587,523.089 491.604,523.089 490.758,523.623C490.179,524.025 489.511,524.783 488.306,527.815C487.815,529.063 485.586,534.414 483.312,539.899C480.591,546.409 478.585,551.225 477.559,553.41C476.31,556.085 476.132,556.799 475.686,556.799C475.151,556.799 474.929,556.175 474.081,554.035L463.155,526.7C462.175,524.203 461.508,523.712 459.946,523.267C459.276,523.089 458.52,523.089 458.252,523.089C457.985,523.089 457.895,522.955 457.895,522.777C457.895,522.508 458.341,522.463 459.055,522.463C461.195,522.463 463.736,522.598 464.271,522.598C464.717,522.598 466.724,522.463 468.418,522.463C469.222,522.463 469.622,522.554 469.622,522.777C469.622,523 469.489,523.089 469.176,523.089C468.685,523.089 467.883,523.133 467.483,523.312C466.991,523.533 466.902,523.89 466.902,524.203C466.902,524.783 467.437,526.165 468.107,527.904" style="fill:rgb(128,128,128);fill-rule:nonzero;"/>
        </g>
        <g transform="matrix(4.16667,0,0,4.16667,-281.473,-1563.15)">
            <path d="M408.934,539.978C408.934,540.201 409.023,540.379 409.247,540.513C409.914,540.914 411.966,541.226 413.928,541.226C414.998,541.226 416.248,541.093 417.272,540.379C418.833,539.309 419.992,536.902 419.992,533.513C419.992,527.939 417.05,524.594 412.277,524.594C410.941,524.594 409.736,524.729 409.29,524.862C409.068,524.951 408.934,525.13 408.934,525.397L408.934,539.978ZM405.368,536.099C405.368,529.142 405.368,527.894 405.279,526.467C405.19,524.951 404.833,524.237 403.361,523.925C403.004,523.836 402.245,523.791 401.845,523.791C401.665,523.791 401.486,523.702 401.486,523.525C401.486,523.257 401.71,523.167 402.202,523.167C404.207,523.167 407.016,523.302 407.239,523.302C407.731,523.302 411.119,523.167 412.501,523.167C415.311,523.167 418.298,523.436 420.662,525.13C421.778,525.932 423.738,528.117 423.738,531.194C423.738,534.493 422.356,537.794 418.342,541.494C422,546.176 425.032,550.145 427.618,552.909C430.025,555.452 431.943,555.942 433.058,556.12C433.905,556.254 434.53,556.254 434.797,556.254C435.019,556.254 435.197,556.388 435.197,556.522C435.197,556.789 434.93,556.878 434.127,556.878L430.962,556.878C428.465,556.878 427.351,556.655 426.192,556.031C424.273,555.006 422.712,552.82 420.171,549.476C418.298,547.023 416.203,544.036 415.311,542.876C415.133,542.699 414.998,542.61 414.731,542.61L409.247,542.52C409.023,542.52 408.934,542.654 408.934,542.876L408.934,543.947C408.934,548.227 408.934,551.75 409.158,553.623C409.29,554.917 409.558,555.897 410.898,556.076C411.522,556.165 412.501,556.254 412.902,556.254C413.171,556.254 413.26,556.388 413.26,556.522C413.26,556.745 413.036,556.878 412.545,556.878C410.093,556.878 407.283,556.745 407.061,556.745C407.016,556.745 404.207,556.878 402.869,556.878C402.38,556.878 402.156,556.789 402.156,556.521C402.156,556.388 402.245,556.254 402.513,556.254C402.915,556.254 403.45,556.165 403.85,556.076C404.744,555.897 404.966,554.917 405.144,553.623C405.368,551.75 405.368,548.227 405.368,543.947" style="fill:rgb(128,128,128);fill-rule:nonzero;"/>
        </g>
        <g transform="matrix(4.16667,0,0,4.16667,-281.473,-1747.4)">
            <path d="M455.406,561.403C455.628,561.804 455.406,561.937 455.228,561.937C455.093,561.937 454.647,561.848 453.888,561.937C451.706,562.16 447.766,564.377 446.296,565.002C445.983,565.136 445.716,565.225 445.627,565.225C445.537,565.225 445.405,565.136 445.405,564.957C445.405,564.824 445.494,564.735 445.716,564.601C447.321,563.485 452.284,559.797 452.597,559.619C453.353,559.173 453.621,559.04 453.845,559.04C453.977,559.04 454.067,559.129 454.291,559.441C454.604,559.887 454.915,560.511 455.406,561.403" style="fill:rgb(128,128,128);fill-rule:nonzero;"/>
        </g>
    </g>
</svg>
