<?xml version="1.0" encoding="UTF-8" standalone="no"?>
<!DOCTYPE svg PUBLIC "-//W3C//DTD SVG 1.1//EN" "http://www.w3.org/Graphics/SVG/1.1/DTD/svg11.dtd">
<svg width="1920px" height="1080px" version="1.1" xmlns="http://www.w3.org/2000/svg" xmlns:xlink="http://www.w3.org/1999/xlink" xml:space="preserve" xmlns:serif="http://www.serif.com/" style="fill-rule:evenodd;clip-rule:evenodd;stroke-linejoin:round;stroke-miterlimit:2;">
    <g transform="matrix(12.303,0,0,12.303,-79.564,-19.6485)">
        <g id="MPO">
            <g transform="matrix(1,0,0,1,15.0142,57.4462)">
                <path d="M0,5.837L-3.653,-2.602L-5.692,8.025L-4.547,8.025L-3.252,1.224L-3.226,1.224L0,8.439L3.241,1.224L3.268,1.224L4.561,8.025L5.708,8.025L3.667,-2.602L0,5.837Z" style="fill:rgb(0,74,141);fill-rule:nonzero;"/>
            </g>
            <g transform="matrix(-1,0,0,1,45.712,30.3235)">
                <rect x="22.296" y="25.092" width="1.12" height="10.055" style="fill:rgb(0,74,141);"/>
            </g>
            <g transform="matrix(1,0,0,1,25.79,65.9242)">
                <path d="M0,-10.934L7.841,-2.72L7.841,-10.506L8.96,-10.506L8.96,0L1.12,-8.202L1.12,-0.454L0,-0.454L0,-10.934Z" style="fill:rgb(0,74,141);fill-rule:nonzero;"/>
            </g>
            <g transform="matrix(-1,0,0,1,75.394,30.3235)">
                <rect x="37.137" y="25.092" width="1.12" height="10.055" style="fill:rgb(0,74,141);"/>
            </g>
            <g transform="matrix(1,0,0,1,45.1245,63.512)">
                <path d="M0,-6.135C-0.399,-6.828 -0.88,-7.229 -1.733,-7.229C-2.626,-7.229 -3.4,-6.589 -3.4,-5.668C-3.4,-4.802 -2.506,-4.403 -1.827,-4.094L-1.16,-3.801C0.146,-3.229 1.254,-2.574 1.254,-0.975C1.254,0.785 -0.16,2.133 -1.906,2.133C-3.52,2.133 -4.72,1.092 -5.04,-0.468L-3.946,-0.776C-3.8,0.252 -3.013,1.092 -1.934,1.092C-0.853,1.092 0.133,0.265 0.133,-0.867C0.133,-2.041 -0.786,-2.442 -1.72,-2.867L-2.333,-3.135C-3.506,-3.667 -4.52,-4.268 -4.52,-5.709C-4.52,-7.268 -3.2,-8.268 -1.707,-8.268C-0.586,-8.268 0.361,-7.696 0.894,-6.707L0,-6.135Z" style="fill:rgb(0,74,141);fill-rule:nonzero;"/>
            </g>
            <g transform="matrix(1,0,0,1,50.2852,55.4177)">
                <path d="M0,10.053L-1.12,10.053L-1.12,1.039L-3.546,1.039L-3.546,0L2.454,0L2.454,1.039L0,1.039L0,10.053Z" style="fill:rgb(0,74,141);fill-rule:nonzero;"/>
            </g>
            <g transform="matrix(1,0,0,1,54.1523,65.471)">
                <path d="M0,-10.055L5.213,-10.055L5.213,-9.014L1.12,-9.014L1.12,-6.028L5.093,-6.028L5.093,-4.987L1.12,-4.987L1.12,-1.041L5.213,-1.041L5.213,0L0,0L0,-10.055Z" style="fill:rgb(0,74,141);fill-rule:nonzero;"/>
            </g>
            <g transform="matrix(1,0,0,1,62.6602,55.4177)">
                <path d="M0,10.053L-1.121,10.053L-1.121,0L0.333,0C2.24,0 4.013,0.506 4.013,2.774C4.013,4.319 3.04,5.412 1.493,5.545L4.693,10.053L3.319,10.053L0.28,5.639L0,5.639L0,10.053ZM0,4.653L0.347,4.653C1.613,4.653 2.894,4.412 2.894,2.852C2.894,1.199 1.68,1.039 0.333,1.039L0,1.039L0,4.653Z" style="fill:rgb(0,74,141);fill-rule:nonzero;"/>
            </g>
            <g transform="matrix(1,0,0,1,73.5942,63.512)">
                <path d="M0,-6.135C-0.4,-6.828 -0.88,-7.229 -1.733,-7.229C-2.627,-7.229 -3.401,-6.589 -3.401,-5.668C-3.401,-4.802 -2.506,-4.403 -1.827,-4.094L-1.16,-3.801C0.146,-3.229 1.253,-2.574 1.253,-0.975C1.253,0.785 -0.161,2.133 -1.907,2.133C-3.521,2.133 -4.72,1.092 -5.041,-0.468L-3.948,-0.776C-3.8,0.252 -3.014,1.092 -1.934,1.092C-0.853,1.092 0.133,0.265 0.133,-0.867C0.133,-2.041 -0.787,-2.442 -1.72,-2.867L-2.333,-3.135C-3.507,-3.667 -4.521,-4.268 -4.521,-5.709C-4.521,-7.268 -3.201,-8.268 -1.707,-8.268C-0.587,-8.268 0.359,-7.696 0.894,-6.707L0,-6.135Z" style="fill:rgb(0,74,141);fill-rule:nonzero;"/>
            </g>
            <g transform="matrix(1,0,0,1,78.7554,55.4177)">
                <path d="M0,10.053L-1.121,10.053L-1.121,1.039L-3.548,1.039L-3.548,0L2.453,0L2.453,1.039L0,1.039L0,10.053Z" style="fill:rgb(0,74,141);fill-rule:nonzero;"/>
            </g>
            <g transform="matrix(1,0,0,1,85.1025,58.404)">
                <path d="M0,4.68L2.865,-2.986L4.08,-2.986L0,7.666L-4.08,-2.986L-2.867,-2.986L0,4.68Z" style="fill:rgb(0,74,141);fill-rule:nonzero;"/>
            </g>
            <g transform="matrix(1,0,0,1,100.183,60.432)">
                <path d="M0,0.025C0,2.919 -2.373,5.213 -5.238,5.213C-8.107,5.213 -10.48,2.919 -10.48,0.025C-10.48,-2.856 -8.107,-5.188 -5.238,-5.188C-2.373,-5.188 0,-2.856 0,0.025M-9.359,0.011C-9.359,2.278 -7.52,4.171 -5.238,4.171C-2.959,4.171 -1.119,2.278 -1.119,0.011C-1.119,-2.269 -2.934,-4.149 -5.238,-4.149C-7.547,-4.149 -9.359,-2.269 -9.359,0.011" style="fill:rgb(0,74,141);fill-rule:nonzero;"/>
            </g>
            <g transform="matrix(1,0,0,1,11.1748,70.4538)">
                <path d="M0,10.054L-1.12,10.054L-1.12,0L0.533,0C1.399,0 2.294,0.027 3.027,0.534C3.774,1.054 4.161,1.935 4.161,2.825C4.161,3.64 3.827,4.466 3.2,4.988C2.52,5.547 1.653,5.654 0.813,5.654L0,5.654L0,10.054ZM0,4.615L0.747,4.615C1.987,4.615 3.041,4.24 3.041,2.8C3.041,1.16 1.719,1.04 0.414,1.04L0,1.04L0,4.615Z" style="fill:rgb(0,74,141);fill-rule:nonzero;"/>
            </g>
            <g transform="matrix(1,0,0,1,18.1484,70.4538)">
                <path d="M0,10.054L-1.12,10.054L-1.12,0L0.333,0C2.241,0 4.014,0.506 4.014,2.774C4.014,4.32 3.04,5.413 1.493,5.547L4.693,10.054L3.32,10.054L0.28,5.64L0,5.64L0,10.054ZM0,4.654L0.347,4.654C1.614,4.654 2.893,4.413 2.893,2.853C2.893,1.2 1.68,1.04 0.333,1.04L0,1.04L0,4.654Z" style="fill:rgb(0,74,141);fill-rule:nonzero;"/>
            </g>
            <g transform="matrix(1,0,0,1,25.2827,72.0674)">
                <path d="M0,4.374C0,5.12 -0.026,5.974 0.441,6.614C0.88,7.228 1.733,7.574 2.467,7.574C3.188,7.574 3.974,7.24 4.441,6.681C4.973,6.04 4.933,5.16 4.933,4.374L4.933,-1.613L6.053,-1.613L6.053,4.681C6.053,5.774 5.974,6.64 5.173,7.468C4.48,8.214 3.48,8.614 2.467,8.614C1.52,8.614 0.546,8.255 -0.134,7.587C-1.014,6.747 -1.12,5.828 -1.12,4.681L-1.12,-1.613L0,-1.613L0,4.374ZM3.667,-3.079C3.667,-2.427 3.16,-1.907 2.506,-1.907C1.854,-1.907 1.333,-2.427 1.333,-3.079C1.333,-3.72 1.854,-4.24 2.506,-4.24C3.147,-4.24 3.667,-3.72 3.667,-3.079M1.934,-3.079C1.934,-2.772 2.2,-2.507 2.506,-2.507C2.813,-2.507 3.066,-2.772 3.066,-3.079C3.066,-3.387 2.813,-3.64 2.506,-3.64C2.2,-3.64 1.934,-3.387 1.934,-3.079" style="fill:rgb(0,74,141);fill-rule:nonzero;"/>
            </g>
            <g transform="matrix(1,0,0,1,38.2173,72.4813)">
                <path d="M0,5.841L-3.653,-2.6L-5.694,8.027L-4.547,8.027L-3.254,1.226L-3.227,1.226L0,8.441L3.24,1.226L3.268,1.226L4.561,8.027L5.708,8.027L3.667,-2.6L0,5.841Z" style="fill:rgb(0,74,141);fill-rule:nonzero;"/>
            </g>
            <g transform="matrix(1,0,0,1,43.8979,80.5081)">
                <path d="M0,-10.054L1.293,-10.054L3.853,-5.573L6.414,-10.054L7.707,-10.054L4.414,-4.321L4.414,0L3.293,0L3.293,-4.321L0,-10.054Z" style="fill:rgb(0,74,141);fill-rule:nonzero;"/>
            </g>
            <g transform="matrix(1,0,0,1,56.8726,78.5491)">
                <path d="M0,-6.135C-0.4,-6.828 -0.881,-7.229 -1.734,-7.229C-2.627,-7.229 -3.4,-6.588 -3.4,-5.668C-3.4,-4.801 -2.507,-4.401 -1.827,-4.095L-1.16,-3.801C0.146,-3.229 1.253,-2.574 1.253,-0.975C1.253,0.785 -0.161,2.133 -1.907,2.133C-3.521,2.133 -4.721,1.093 -5.041,-0.467L-3.947,-0.776C-3.8,0.252 -3.013,1.093 -1.933,1.093C-0.854,1.093 0.134,0.265 0.134,-0.867C0.134,-2.041 -0.787,-2.442 -1.72,-2.867L-2.334,-3.135C-3.507,-3.668 -4.521,-4.268 -4.521,-5.707C-4.521,-7.268 -3.201,-8.268 -1.707,-8.268C-0.587,-8.268 0.36,-7.696 0.893,-6.708L0,-6.135Z" style="fill:rgb(0,74,141);fill-rule:nonzero;"/>
            </g>
            <g transform="matrix(1,0,0,1,61.1533,71.4948)">
                <path d="M0,7.972L2.773,7.972L2.773,9.013L-1.121,9.013L-1.121,-1.041L0,-1.041L0,7.972Z" style="fill:rgb(0,74,141);fill-rule:nonzero;"/>
            </g>
            <g transform="matrix(1,0,0,1,66.061,74.6944)">
                <path d="M0,1.747C0,2.493 -0.028,3.347 0.439,3.987C0.88,4.601 1.733,4.947 2.466,4.947C3.186,4.947 3.973,4.613 4.439,4.054C4.972,3.413 4.932,2.533 4.932,1.747L4.932,-4.24L6.053,-4.24L6.053,2.054C6.053,3.147 5.973,4.013 5.173,4.841C4.479,5.587 3.479,5.987 2.466,5.987C1.519,5.987 0.546,5.628 -0.134,4.96C-1.015,4.12 -1.121,3.201 -1.121,2.054L-1.121,-4.24L0,-4.24L0,1.747Z" style="fill:rgb(0,74,141);fill-rule:nonzero;"/>
            </g>
            <g transform="matrix(1,0,0,1,80.248,72.8263)">
                <path d="M0,4.828L-1.214,7.682L-2.44,7.682L2.2,-2.854L6.72,7.682L5.48,7.682L4.294,4.828L0,4.828ZM2.174,-0.238L0.454,3.789L3.854,3.789L2.174,-0.238Z" style="fill:rgb(0,74,141);fill-rule:nonzero;"/>
            </g>
            <g transform="matrix(1,0,0,1,102.677,75.4691)">
                <path d="M0,0.025C0,2.918 -2.373,5.213 -5.24,5.213C-8.105,5.213 -10.48,2.918 -10.48,0.025C-10.48,-2.855 -8.105,-5.188 -5.24,-5.188C-2.373,-5.188 0,-2.855 0,0.025M-9.359,0.011C-9.359,2.279 -7.52,4.172 -5.24,4.172C-2.959,4.172 -1.119,2.279 -1.119,0.011C-1.119,-2.269 -2.934,-4.149 -5.24,-4.149C-7.547,-4.149 -9.359,-2.269 -9.359,0.011" style="fill:rgb(0,74,141);fill-rule:nonzero;"/>
            </g>
            <g transform="matrix(1,0,0,1,104.466,80.5081)">
                <path d="M0,-10.054L1.652,-10.054C3.48,-10.054 5.012,-9.387 5.012,-7.334C5.012,-6.521 4.707,-5.828 4.025,-5.373C5.225,-5.08 5.932,-4 5.932,-2.801C5.932,-0.801 4.318,0 2.332,0L0,0L0,-10.054ZM1.119,-5.627L1.545,-5.627C2.813,-5.627 3.893,-5.774 3.893,-7.334C3.893,-8.854 2.932,-9.014 1.559,-9.014L1.119,-9.014L1.119,-5.627ZM1.119,-1.041L2.238,-1.041C3.492,-1.041 4.813,-1.346 4.813,-2.881C4.813,-4.44 3.318,-4.667 2.092,-4.667L1.119,-4.667L1.119,-1.041Z" style="fill:rgb(0,74,141);fill-rule:nonzero;"/>
            </g>
            <g transform="matrix(1,0,0,1,119.972,78.3083)">
                <path d="M0,-5.654C-0.799,-6.481 -1.906,-6.988 -3.066,-6.988C-5.307,-6.988 -7.119,-5.041 -7.119,-2.828C-7.119,-0.613 -5.293,1.333 -3.039,1.333C-1.906,1.333 -0.799,0.8 0,-0L0,1.385C-0.865,2.014 -1.932,2.373 -3,2.373C-5.84,2.373 -8.24,0.067 -8.24,-2.787C-8.24,-5.668 -5.881,-8.027 -3,-8.027C-1.879,-8.027 -0.893,-7.708 0,-7.042L0,-5.654Z" style="fill:rgb(0,74,141);fill-rule:nonzero;"/>
            </g>
            <g transform="matrix(1,0,0,1,128.12,76.4282)">
                <path d="M0,-1.894L0,-5.974L1.119,-5.974L1.119,4.08L0,4.08L0,-0.854L-5.148,-0.854L-5.148,4.08L-6.268,4.08L-6.268,-5.974L-5.148,-5.974L-5.148,-1.894L0,-1.894Z" style="fill:rgb(0,74,141);fill-rule:nonzero;"/>
            </g>
            <g transform="matrix(1,0,0,1,141.427,75.4691)">
                <path d="M0,0.025C0,2.918 -2.373,5.213 -5.24,5.213C-8.105,5.213 -10.479,2.918 -10.479,0.025C-10.479,-2.855 -8.105,-5.188 -5.24,-5.188C-2.373,-5.188 0,-2.855 0,0.025M-9.359,0.011C-9.359,2.279 -7.52,4.172 -5.24,4.172C-2.959,4.172 -1.119,2.279 -1.119,0.011C-1.119,-2.269 -2.934,-4.149 -5.24,-4.149C-7.545,-4.149 -9.359,-2.269 -9.359,0.011" style="fill:rgb(0,74,141);fill-rule:nonzero;"/>
            </g>
            <g transform="matrix(1,0,0,1,143.216,80.5081)">
                <path d="M0,-10.054L1.893,-10.054C3.4,-10.054 4.627,-9.854 5.813,-8.841C6.959,-7.854 7.48,-6.507 7.48,-5.014C7.48,-3.547 6.947,-2.254 5.84,-1.266C4.641,-0.2 3.439,0 1.865,0L0,0L0,-10.054ZM1.934,-1.041C3.16,-1.041 4.186,-1.213 5.107,-2.08C5.934,-2.854 6.361,-3.907 6.361,-5.028C6.361,-6.174 5.92,-7.281 5.053,-8.04C4.133,-8.854 3.121,-9.014 1.934,-9.014L1.119,-9.014L1.119,-1.041L1.934,-1.041Z" style="fill:rgb(0,74,141);fill-rule:nonzero;"/>
            </g>
            <g transform="matrix(1,0,0,1,153.616,74.6954)">
                <path d="M0,1.746C0,2.492 -0.027,3.346 0.439,3.986C0.879,4.6 1.732,4.946 2.467,4.946C3.188,4.946 3.973,4.612 4.441,4.053C4.973,3.412 4.934,2.532 4.934,1.746L4.934,-4.24L6.055,-4.24L6.055,2.053C6.055,3.146 5.975,4.012 5.174,4.84C4.48,5.586 3.48,5.986 2.467,5.986C1.52,5.986 0.547,5.627 -0.133,4.959C-1.014,4.119 -1.121,3.2 -1.121,2.053L-1.121,-4.24L0,-4.24L0,1.746Z" style="fill:rgb(0,74,141);fill-rule:nonzero;"/>
            </g>
            <g transform="matrix(0.703428,-0.710767,-0.710767,-0.703428,86.8173,26.6309)">
                <path d="M-16.948,-7.072C-10.132,-0.023 -8.256,11.269 -9.159,19.407C-10.211,28.907 -12.787,34.892 -16.948,40.618C-13.284,35.039 -10.216,29.097 -9.403,18.491C-8.89,11.817 -9.33,2.163 -16.948,-7.072" style="fill:rgb(0,150,215);fill-rule:nonzero;"/>
            </g>
            <g transform="matrix(1,0,0,1,17.7305,36.2243)">
                <path d="M0,-13.006C-2.206,-10.229 -4.208,-6.549 -5.666,-2.74C-7.32,1.582 -7.855,6.019 -7.718,10.137L-7.329,10.137C-7.357,6.285 -6.818,2.383 -5.628,-1.223C-2.48,-10.756 3.083,-17.817 12.973,-23.143C7.543,-20.205 3.508,-17.235 0,-13.006" style="fill:rgb(181,17,26);fill-rule:nonzero;"/>
            </g>
            <g transform="matrix(1,0,0,1,68.7715,13.1756)">
                <path d="M0,6.527C-1.547,5.275 -4.844,3.085 -15.04,1.242C-25.395,-0.629 -34.512,-0.353 -36.433,-0.723L-37.127,-0.449C-35.626,0.164 -29.784,-0.256 -22.325,0.649C-14.87,1.552 -3.569,3.393 0.752,7.25L0,6.527Z" style="fill:rgb(228,27,35);fill-rule:nonzero;"/>
            </g>
            <g transform="matrix(1,0,0,1,75.7041,22.3796)">
                <path d="M0,6.326C-1.743,4.282 -8.005,1.886 -28.721,1.272C-49.756,0.648 -56.301,1.743 -58.172,1.119C-58.172,1.119 -57.694,0.51 -57.53,0.345C-57.527,0.817 -44.291,0 -34.262,0.215C-24.493,0.424 -4.196,1.053 -0.554,5.356C-0.3,5.766 0,6.326 0,6.326" style="fill:rgb(35,31,32);fill-rule:nonzero;"/>
            </g>
            <g transform="matrix(1,0,0,1,57.2314,12.3867)">
                <path d="M0,0.043C-0.058,0.017 -0.101,0 -0.101,0C-0.101,0 -0.061,0.017 0,0.043" style="fill:rgb(181,17,26);fill-rule:nonzero;"/>
            </g>
            <g transform="matrix(1,0,0,1,58.1318,45.9795)">
                <path d="M0,-33.167C-0.21,-33.259 -0.692,-33.464 -0.9,-33.55C-0.664,-33.446 -0.064,-33.137 -0.064,-32.657C-0.064,-30.122 -8.26,-26.542 -24.696,-16.993C-36.467,-10.151 -43.894,-4.332 -46.592,0.383L-45.779,0.383C-40.815,-6.845 -26.775,-14.688 -17.611,-19.938C-4.837,-27.257 0.818,-30.218 0.818,-32.224C0.818,-32.698 0.269,-33.05 0,-33.167" style="fill:rgb(181,17,26);fill-rule:nonzero;"/>
            </g>
            <g transform="matrix(1,0,0,1,26.0112,11.2757)">
                <path d="M0,34.655C0,34.799 0.004,34.942 0.005,35.086L0.983,35.086C0.958,34.251 0.94,33.417 0.94,32.581C0.94,16.665 5.768,2.537 11.535,-0.431C11.535,-0.431 11.236,-0.418 10.941,-0.244C5.309,3.067 0,14.492 0,34.655" style="fill:rgb(185,225,248);fill-rule:nonzero;"/>
            </g>
            <g transform="matrix(1,0,0,1,13.4204,19.8174)">
                <path d="M0,18.751C-0.636,21.239 -1.026,23.867 -1.145,26.544L-0.625,26.544C-0.39,23.04 0.274,18.897 1.744,14.56C4.766,5.826 11.637,-4.295 20.236,-7.793C10.971,-4.092 3.118,6.577 0,18.751" style="fill:rgb(20,181,234);fill-rule:nonzero;"/>
            </g>
            <g transform="matrix(1,0,0,1,33.6563,11.4029)">
                <path d="M0,0.621C0.588,0.386 1.182,0.177 1.781,0C1.179,0.174 0.585,0.383 0,0.621" style="fill:rgb(20,181,234);fill-rule:nonzero;"/>
            </g>
            <g transform="matrix(1,0,0,1,56.6201,19.8016)">
                <path d="M0,-7.597C-2.313,-8.103 -8.251,-7.471 -15.902,-6.111C-23.615,-4.741 -33.703,-1.786 -36.352,0.705C-34.823,-0.925 -31.83,-3.17 -18.972,-5.945C-8.403,-8.225 -2.557,-8.302 -0.984,-7.926C-0.534,-7.797 0,-7.597 0,-7.597" style="fill:rgb(20,181,234);fill-rule:nonzero;"/>
            </g>
            <g transform="matrix(1,0,0,1,61.4727,46.3616)">
                <path d="M0,-31.989C4.083,-29.579 7.502,-25.927 7.502,-18.965C7.502,-13.628 5.553,-7.693 1.441,0L2.615,0C5.896,-6.347 8.274,-12.639 8.274,-17.742C8.274,-23.941 6.172,-28.664 0,-31.989" style="fill:rgb(0,150,215);fill-rule:nonzero;"/>
            </g>
            <g transform="matrix(1,0,0,1,11.6494,34.3773)">
                <path d="M0,0.4C0.071,0.166 0.126,0 0.126,0C0.126,0 0.053,0.145 0,0.4" style="fill:rgb(35,31,32);fill-rule:nonzero;"/>
            </g>
            <g transform="matrix(1,0,0,1,12.71,43.2476)">
                <path d="M0,-5.356C-1.206,-6.707 -1.184,-7.883 -1.061,-8.47C-1.16,-8.138 -1.296,-7.666 -1.365,-7.298C-1.419,-5.74 -0.939,-3.558 5.133,-0.596C7.836,0.723 11.148,1.945 14.79,3.114L18.686,3.114C9.276,0.307 2.849,-2.166 0,-5.356" style="fill:rgb(35,31,32);fill-rule:nonzero;"/>
            </g>
            <g transform="matrix(1,0,0,1,27.1235,46.3626)">
                <path d="M0,-31.304C0,-31.304 -1.233,-30.585 -2.129,-29.891C-4.729,-27.879 -8.219,-23.948 -8.219,-18.117C-8.219,-14.124 -6.996,-8.326 -1.628,0L0.282,0C-4.699,-7.334 -7.162,-13.657 -7.162,-18.97C-7.162,-25.469 -3.297,-29.374 0,-31.304" style="fill:rgb(0,150,215);fill-rule:nonzero;"/>
            </g>
            <g transform="matrix(1,0,0,1,65.2446,46.3617)">
                <path d="M0,-29.579C0.513,-29.164 1.204,-28.503 1.204,-27.566C1.204,-24.037 -6.278,-18.646 -21.858,-8.908C-27.284,-5.515 -31.746,-2.578 -35.404,0L-33.29,0C-30.088,-2.215 -26.315,-4.688 -21.858,-7.464C0.347,-21.295 1.937,-24.692 1.937,-27.04C1.937,-28.108 1.151,-28.842 0,-29.579" style="fill:rgb(0,74,141);fill-rule:nonzero;"/>
            </g>
            <g transform="matrix(1,0,0,1,37.6484,29.4203)">
                <path d="M0,-18.598C0.651,-18.674 0.988,-18.588 2.222,-18.329C5.52,-17.642 14.64,-15.606 23.378,-11.769C29.965,-8.876 36.376,-4.417 38.497,0.125C37.287,-2.489 33.581,-8.641 19.091,-13.947C10.041,-17.261 3.762,-18.325 0.736,-18.723C0.736,-18.723 0.161,-18.652 0,-18.598" style="fill:rgb(181,17,26);fill-rule:nonzero;"/>
            </g>
            <g transform="matrix(1,0,0,1,41.6152,45.9737)">
                <path d="M0,-35.752C2.151,-35.814 8.679,-33.445 17.334,-24.473C23.958,-17.608 29.897,-8.956 32.396,0.389L33.389,0.389C32.045,-5.165 29.307,-10.992 24.813,-17.225C17.642,-27.173 5.681,-36.141 0,-35.752" style="fill:rgb(0,150,215);fill-rule:nonzero;"/>
            </g>
            <g transform="matrix(1,0,0,1,33.9307,39.2837)">
                <path d="M0,-21.75C-2.421,-16.354 -5.76,-5.517 -6.338,7.078L-3.386,7.078C-2.888,-3.201 -0.542,-13.432 1.156,-19.26C2.817,-24.969 4.655,-28.74 5.777,-28.828C5.593,-28.809 5.176,-28.776 4.928,-28.688C3.389,-28.032 1.567,-25.239 0,-21.75" style="fill:rgb(35,31,32);fill-rule:nonzero;"/>
            </g>
            <g transform="matrix(1,0,0,1,69.5698,21.9944)">
                <path d="M0,-1.509C-1.646,-2.887 -7.324,-3.281 -19.887,-2.674C-30.646,-2.155 -50.032,0.605 -52.905,2.687C-52.905,2.687 -52.435,2.06 -52.181,1.766C-47.304,-0.842 -27.595,-2.854 -23.181,-3.191C-15.549,-3.772 -3.4,-4.196 -0.677,-2.209C-0.312,-1.908 0,-1.509 0,-1.509" style="fill:rgb(35,31,32);fill-rule:nonzero;"/>
            </g>
            <g transform="matrix(1,0,0,1,38.0039,39.7772)">
                <path d="M0,-22.37C-1.455,-25.177 -1.561,-26.615 -1.561,-27.266C-1.561,-27.653 -1.41,-28.703 -0.355,-28.955C-1.889,-28.632 -2.676,-27.699 -2.676,-26.295C-2.676,-24.286 -2.103,-21.898 1.953,-14.752C4.992,-9.394 10.199,-1.656 14.852,6.585L17.742,6.585C15.929,3.311 13.733,-0.327 11.079,-4.398C9.33,-7.08 2.922,-16.731 0,-22.37" style="fill:rgb(228,27,35);fill-rule:nonzero;"/>
            </g>
            <g transform="matrix(1,0,0,1,43.228,34.3215)">
                <path d="M0,0.281C-23.48,-5.938 -25.481,-8.52 -25.481,-10.385C-25.481,-10.697 -25.428,-11.061 -24.889,-11.759C-25.158,-11.523 -25.696,-10.823 -25.696,-10.823C-25.889,-10.501 -26.102,-10.027 -26.102,-9.627C-26.102,-6.649 -21.352,-4.332 0.012,1.502C14.38,5.427 24.39,8.782 30.121,12.04L32.16,12.04C25.916,7.587 13.141,3.762 0,0.281" style="fill:rgb(20,181,234);fill-rule:nonzero;"/>
            </g>
            <g transform="matrix(1,0,0,1,53.9351,44.2208)">
                <path d="M0,-32.108C-4.015,-33.855 -7.933,-34.249 -9.589,-34.152C-1.518,-33.851 7.135,-28.104 13.725,-20.004C19.176,-13.304 22.438,-5.454 23.386,2.141L24.646,2.141C23.627,-11.351 13.713,-26.137 0,-32.108" style="fill:rgb(0,74,141);fill-rule:nonzero;"/>
            </g>
            <g transform="matrix(1,0,0,1,47.3657,46.3612)">
                <path d="M0,-36.201C1.203,-36.016 3.535,-35.636 3.535,-33.022C3.535,-30.869 2.039,-27.027 -9.717,-11.811C-13.197,-7.306 -15.931,-3.402 -18.085,0L-16.65,0C-14.524,-3.282 -12.091,-6.704 -9.454,-10.222C0.123,-22.983 4.291,-28.911 4.291,-32.888C4.291,-35.439 1.63,-36.079 0,-36.201" style="fill:rgb(35,31,32);fill-rule:nonzero;"/>
            </g>
            <g transform="matrix(1,0,0,1,75.8682,44.7537)">
                <path d="M0,-10.409C-1.461,-9.566 -6.089,-7.675 -19.064,-3.836C-24.151,-2.333 -30.935,-0.323 -37.402,1.609L-25.595,1.609C-19.508,-0.195 -13.212,-2.104 -10.183,-3.168C-5.029,-4.975 -0.917,-6.347 0.891,-7.457C2.049,-8.167 2.682,-8.575 2.633,-9.286C2.354,-10.231 1.693,-12.018 1.693,-12.018C1.729,-11.403 1.311,-11.163 0,-10.409" style="fill:rgb(20,181,234);fill-rule:nonzero;"/>
            </g>
        </g>
    </g>
</svg>
