<?xml version="1.0" encoding="UTF-8" standalone="no"?>
<!DOCTYPE svg PUBLIC "-//W3C//DTD SVG 1.1//EN" "http://www.w3.org/Graphics/SVG/1.1/DTD/svg11.dtd">
<svg width="1920px" height="1080px" version="1.1" xmlns="http://www.w3.org/2000/svg" xmlns:xlink="http://www.w3.org/1999/xlink" xml:space="preserve" xmlns:serif="http://www.serif.com/" style="fill-rule:evenodd;clip-rule:evenodd;stroke-linejoin:round;stroke-miterlimit:2;">
    <g transform="matrix(1,0,0,1,-137.575,2.84217e-14)">
        <g id="OperatorICT">
            <g>
                <g transform="matrix(576,0,0,576,499.338,497.691)">
                    <path d="M0.18,-0.258C0.18,-0.279 0.182,-0.299 0.186,-0.319C0.19,-0.339 0.197,-0.357 0.207,-0.372C0.216,-0.387 0.229,-0.4 0.245,-0.41C0.261,-0.419 0.281,-0.424 0.305,-0.424C0.329,-0.424 0.349,-0.419 0.366,-0.41C0.382,-0.4 0.395,-0.387 0.405,-0.372C0.414,-0.357 0.421,-0.339 0.425,-0.319C0.429,-0.299 0.431,-0.279 0.431,-0.258C0.431,-0.237 0.429,-0.217 0.425,-0.198C0.421,-0.178 0.414,-0.16 0.405,-0.145C0.395,-0.129 0.382,-0.116 0.366,-0.107C0.349,-0.098 0.329,-0.093 0.305,-0.093C0.281,-0.093 0.261,-0.098 0.245,-0.107C0.229,-0.116 0.216,-0.129 0.207,-0.145C0.197,-0.16 0.19,-0.178 0.186,-0.198C0.182,-0.217 0.18,-0.237 0.18,-0.258ZM0.038,-0.258C0.038,-0.217 0.044,-0.179 0.057,-0.146C0.07,-0.113 0.088,-0.084 0.111,-0.061C0.134,-0.037 0.162,-0.019 0.195,-0.006C0.228,0.007 0.264,0.013 0.305,0.013C0.346,0.013 0.383,0.007 0.416,-0.006C0.449,-0.019 0.477,-0.037 0.5,-0.061C0.523,-0.084 0.541,-0.113 0.554,-0.146C0.567,-0.179 0.573,-0.217 0.573,-0.258C0.573,-0.299 0.567,-0.337 0.554,-0.371C0.541,-0.404 0.523,-0.433 0.5,-0.457C0.477,-0.48 0.449,-0.499 0.416,-0.512C0.383,-0.525 0.346,-0.531 0.305,-0.531C0.264,-0.531 0.228,-0.525 0.195,-0.512C0.162,-0.499 0.134,-0.48 0.111,-0.457C0.088,-0.433 0.07,-0.404 0.057,-0.371C0.044,-0.337 0.038,-0.299 0.038,-0.258Z" style="fill-rule:nonzero;"/>
                </g>
                <g transform="matrix(576,0,0,576,851.274,497.691)">
                    <path d="M0.2,-0.597L0.2,-0.714L0.058,-0.714L0.058,-0.597L0.2,-0.597ZM0.058,-0.517L0.058,-0L0.2,-0L0.2,-0.517L0.058,-0.517Z" style="fill-rule:nonzero;"/>
                </g>
                <g transform="matrix(576,0,0,576,999.882,497.691)">
                    <path d="M0.406,-0.335L0.545,-0.335C0.543,-0.368 0.535,-0.397 0.521,-0.422C0.507,-0.446 0.489,-0.466 0.467,-0.483C0.444,-0.499 0.419,-0.511 0.391,-0.519C0.362,-0.527 0.333,-0.531 0.302,-0.531C0.26,-0.531 0.223,-0.524 0.19,-0.51C0.157,-0.496 0.13,-0.476 0.107,-0.452C0.084,-0.427 0.067,-0.397 0.056,-0.363C0.044,-0.328 0.038,-0.291 0.038,-0.251C0.038,-0.212 0.044,-0.177 0.057,-0.145C0.07,-0.112 0.087,-0.084 0.11,-0.061C0.133,-0.038 0.16,-0.02 0.193,-0.007C0.225,0.007 0.26,0.013 0.299,0.013C0.368,0.013 0.424,-0.005 0.468,-0.041C0.512,-0.077 0.539,-0.129 0.548,-0.198L0.411,-0.198C0.406,-0.166 0.395,-0.14 0.377,-0.122C0.358,-0.102 0.332,-0.093 0.298,-0.093C0.276,-0.093 0.257,-0.098 0.242,-0.108C0.227,-0.118 0.215,-0.131 0.206,-0.147C0.197,-0.162 0.19,-0.18 0.186,-0.199C0.182,-0.218 0.18,-0.237 0.18,-0.256C0.18,-0.275 0.182,-0.295 0.186,-0.315C0.19,-0.334 0.197,-0.352 0.207,-0.369C0.216,-0.385 0.229,-0.398 0.244,-0.409C0.259,-0.419 0.278,-0.424 0.301,-0.424C0.362,-0.424 0.397,-0.394 0.406,-0.335Z" style="fill-rule:nonzero;"/>
                </g>
                <g transform="matrix(576,0,0,576,1330.51,497.691)">
                    <path d="M0.234,-0.517L0.234,-0.672L0.092,-0.672L0.092,-0.517L0.006,-0.517L0.006,-0.422L0.092,-0.422L0.092,-0.117C0.092,-0.091 0.096,-0.07 0.105,-0.054C0.114,-0.038 0.126,-0.026 0.141,-0.017C0.156,-0.008 0.173,-0.003 0.193,0.001C0.212,0.004 0.233,0.005 0.255,0.005C0.269,0.005 0.283,0.005 0.298,0.004C0.313,0.003 0.326,0.002 0.338,-0L0.338,-0.11C0.331,-0.109 0.324,-0.108 0.317,-0.107C0.31,-0.106 0.302,-0.106 0.294,-0.106C0.27,-0.106 0.254,-0.11 0.246,-0.118C0.238,-0.126 0.234,-0.142 0.234,-0.166L0.234,-0.422L0.338,-0.422L0.338,-0.517L0.234,-0.517Z" style="fill-rule:nonzero;"/>
                </g>
                <g transform="matrix(576,0,0,576,1533.26,497.691)">
                    <rect x="0.06" y="-0.154" width="0.157" height="0.154" style="fill-rule:nonzero;"/>
                </g>
                <g transform="matrix(128,0,0,128,620.906,892.827)">
                    <path d="M0.102,-0.357C0.102,-0.396 0.107,-0.435 0.118,-0.472C0.128,-0.509 0.144,-0.543 0.166,-0.573C0.187,-0.602 0.215,-0.626 0.249,-0.644C0.283,-0.662 0.324,-0.671 0.371,-0.671C0.418,-0.671 0.459,-0.662 0.493,-0.644C0.526,-0.626 0.554,-0.602 0.576,-0.573C0.597,-0.543 0.613,-0.509 0.624,-0.472C0.634,-0.435 0.639,-0.396 0.639,-0.357C0.639,-0.318 0.634,-0.28 0.624,-0.243C0.613,-0.205 0.597,-0.171 0.576,-0.142C0.554,-0.112 0.526,-0.088 0.493,-0.07C0.459,-0.052 0.418,-0.043 0.371,-0.043C0.324,-0.043 0.283,-0.052 0.249,-0.07C0.215,-0.088 0.187,-0.112 0.166,-0.142C0.144,-0.171 0.128,-0.205 0.118,-0.243C0.107,-0.28 0.102,-0.318 0.102,-0.357ZM0.034,-0.357C0.034,-0.308 0.041,-0.261 0.055,-0.216C0.069,-0.171 0.09,-0.132 0.118,-0.098C0.146,-0.064 0.181,-0.037 0.224,-0.017C0.266,0.004 0.315,0.014 0.371,0.014C0.427,0.014 0.476,0.004 0.518,-0.017C0.56,-0.037 0.595,-0.064 0.623,-0.098C0.651,-0.132 0.672,-0.171 0.686,-0.216C0.7,-0.261 0.707,-0.308 0.707,-0.357C0.707,-0.406 0.7,-0.453 0.686,-0.498C0.672,-0.543 0.651,-0.582 0.623,-0.617C0.595,-0.651 0.56,-0.678 0.518,-0.699C0.476,-0.719 0.427,-0.729 0.371,-0.729C0.315,-0.729 0.266,-0.719 0.224,-0.699C0.181,-0.678 0.146,-0.651 0.118,-0.617C0.09,-0.582 0.069,-0.543 0.055,-0.498C0.041,-0.453 0.034,-0.406 0.034,-0.357Z" style="fill-rule:nonzero;"/>
                </g>
                <g transform="matrix(128,0,0,128,715.754,892.827)">
                    <path d="M0.06,-0.516L0.06,0.19L0.123,0.19L0.123,-0.098L0.125,-0.098C0.132,-0.079 0.141,-0.063 0.154,-0.049C0.166,-0.035 0.18,-0.023 0.196,-0.014C0.212,-0.005 0.229,0.002 0.248,0.007C0.267,0.012 0.285,0.014 0.304,0.014C0.343,0.014 0.378,0.007 0.407,-0.008C0.436,-0.022 0.46,-0.042 0.479,-0.067C0.498,-0.092 0.513,-0.121 0.522,-0.154C0.531,-0.187 0.536,-0.221 0.536,-0.258C0.536,-0.295 0.531,-0.329 0.522,-0.363C0.513,-0.396 0.498,-0.425 0.479,-0.45C0.46,-0.474 0.436,-0.494 0.407,-0.509C0.378,-0.524 0.343,-0.531 0.304,-0.531C0.262,-0.531 0.225,-0.521 0.192,-0.502C0.159,-0.482 0.135,-0.454 0.12,-0.418L0.118,-0.418L0.118,-0.516L0.06,-0.516ZM0.473,-0.258C0.473,-0.231 0.47,-0.205 0.464,-0.179C0.457,-0.152 0.447,-0.129 0.434,-0.108C0.42,-0.087 0.402,-0.07 0.381,-0.058C0.36,-0.045 0.334,-0.038 0.304,-0.038C0.271,-0.038 0.243,-0.045 0.22,-0.058C0.197,-0.07 0.178,-0.087 0.164,-0.108C0.149,-0.129 0.139,-0.152 0.133,-0.179C0.126,-0.205 0.123,-0.231 0.123,-0.258C0.123,-0.287 0.126,-0.315 0.132,-0.342C0.137,-0.369 0.147,-0.392 0.161,-0.412C0.175,-0.432 0.194,-0.448 0.217,-0.46C0.24,-0.472 0.269,-0.478 0.304,-0.478C0.334,-0.478 0.36,-0.472 0.381,-0.459C0.402,-0.446 0.42,-0.429 0.434,-0.408C0.447,-0.387 0.457,-0.364 0.464,-0.338C0.47,-0.311 0.473,-0.285 0.473,-0.258Z" style="fill-rule:nonzero;"/>
                </g>
                <g transform="matrix(128,0,0,128,789.226,892.827)">
                    <path d="M0.431,-0.294L0.097,-0.294C0.1,-0.317 0.105,-0.34 0.114,-0.363C0.122,-0.385 0.133,-0.405 0.147,-0.422C0.161,-0.439 0.178,-0.452 0.198,-0.463C0.218,-0.473 0.241,-0.478 0.267,-0.478C0.292,-0.478 0.315,-0.473 0.335,-0.463C0.355,-0.452 0.372,-0.439 0.386,-0.422C0.4,-0.405 0.411,-0.385 0.419,-0.363C0.426,-0.341 0.43,-0.318 0.431,-0.294ZM0.097,-0.241L0.494,-0.241C0.495,-0.277 0.492,-0.313 0.484,-0.348C0.476,-0.383 0.463,-0.413 0.445,-0.441C0.426,-0.467 0.402,-0.489 0.373,-0.506C0.344,-0.523 0.308,-0.531 0.267,-0.531C0.226,-0.531 0.191,-0.523 0.162,-0.508C0.132,-0.492 0.108,-0.471 0.089,-0.446C0.07,-0.42 0.056,-0.391 0.048,-0.358C0.039,-0.325 0.034,-0.292 0.034,-0.258C0.034,-0.221 0.039,-0.187 0.048,-0.154C0.056,-0.121 0.07,-0.092 0.089,-0.067C0.108,-0.042 0.132,-0.022 0.162,-0.008C0.191,0.007 0.226,0.014 0.267,0.014C0.332,0.014 0.383,-0.002 0.419,-0.034C0.454,-0.066 0.479,-0.111 0.492,-0.17L0.429,-0.17C0.419,-0.13 0.401,-0.098 0.375,-0.074C0.349,-0.05 0.313,-0.038 0.267,-0.038C0.237,-0.038 0.211,-0.044 0.19,-0.057C0.169,-0.07 0.151,-0.086 0.137,-0.105C0.123,-0.124 0.113,-0.146 0.107,-0.171C0.1,-0.195 0.097,-0.218 0.097,-0.241Z" style="fill-rule:nonzero;"/>
                </g>
                <g transform="matrix(128,0,0,128,855.658,892.827)">
                    <path d="M0.06,-0.516L0.06,-0L0.123,-0L0.123,-0.275C0.123,-0.302 0.128,-0.328 0.137,-0.351C0.146,-0.374 0.16,-0.393 0.177,-0.41C0.194,-0.427 0.214,-0.44 0.237,-0.449C0.26,-0.458 0.286,-0.461 0.315,-0.46L0.315,-0.523C0.268,-0.525 0.228,-0.515 0.195,-0.492C0.161,-0.469 0.136,-0.437 0.12,-0.395L0.118,-0.395L0.118,-0.516L0.06,-0.516Z" style="fill-rule:nonzero;"/>
                </g>
                <g transform="matrix(128,0,0,128,895.978,892.827)">
                    <path d="M0.251,-0.588L0.383,-0.729L0.305,-0.729L0.2,-0.588L0.251,-0.588ZM0.054,-0.358L0.117,-0.358C0.118,-0.4 0.132,-0.431 0.157,-0.45C0.182,-0.468 0.215,-0.478 0.255,-0.478C0.274,-0.478 0.291,-0.476 0.308,-0.474C0.324,-0.471 0.338,-0.465 0.351,-0.457C0.363,-0.449 0.373,-0.438 0.38,-0.425C0.387,-0.411 0.39,-0.393 0.39,-0.372C0.39,-0.358 0.388,-0.347 0.385,-0.338C0.381,-0.329 0.376,-0.323 0.369,-0.318C0.362,-0.313 0.354,-0.309 0.344,-0.307C0.334,-0.305 0.322,-0.303 0.309,-0.302C0.275,-0.298 0.242,-0.294 0.209,-0.29C0.175,-0.285 0.146,-0.278 0.12,-0.267C0.093,-0.256 0.072,-0.241 0.056,-0.221C0.04,-0.2 0.032,-0.172 0.032,-0.136C0.032,-0.11 0.037,-0.088 0.046,-0.069C0.055,-0.05 0.067,-0.034 0.083,-0.022C0.098,-0.009 0.117,-0 0.138,0.006C0.159,0.011 0.181,0.014 0.205,0.014C0.23,0.014 0.252,0.012 0.271,0.007C0.289,0.002 0.305,-0.004 0.32,-0.013C0.334,-0.022 0.347,-0.033 0.359,-0.046C0.37,-0.058 0.382,-0.073 0.393,-0.09L0.395,-0.09C0.395,-0.077 0.396,-0.065 0.398,-0.054C0.399,-0.043 0.403,-0.033 0.408,-0.025C0.413,-0.017 0.421,-0.011 0.431,-0.007C0.44,-0.002 0.453,-0 0.469,-0C0.478,-0 0.485,-0 0.491,-0.001C0.496,-0.002 0.503,-0.003 0.51,-0.004L0.51,-0.057C0.504,-0.054 0.497,-0.053 0.49,-0.053C0.465,-0.053 0.453,-0.066 0.453,-0.091L0.453,-0.365C0.453,-0.4 0.447,-0.428 0.436,-0.45C0.425,-0.471 0.41,-0.488 0.392,-0.5C0.374,-0.512 0.354,-0.52 0.331,-0.525C0.308,-0.529 0.286,-0.531 0.263,-0.531C0.233,-0.531 0.206,-0.528 0.181,-0.521C0.156,-0.514 0.135,-0.504 0.117,-0.49C0.098,-0.476 0.084,-0.458 0.073,-0.436C0.062,-0.414 0.056,-0.388 0.054,-0.358ZM0.39,-0.282L0.39,-0.2C0.39,-0.175 0.385,-0.152 0.376,-0.132C0.366,-0.112 0.353,-0.095 0.337,-0.081C0.32,-0.067 0.301,-0.056 0.279,-0.049C0.257,-0.042 0.234,-0.038 0.21,-0.038C0.195,-0.038 0.181,-0.04 0.167,-0.045C0.153,-0.05 0.141,-0.057 0.13,-0.066C0.119,-0.075 0.111,-0.085 0.105,-0.098C0.098,-0.11 0.095,-0.124 0.095,-0.14C0.095,-0.165 0.102,-0.185 0.118,-0.199C0.133,-0.212 0.152,-0.223 0.175,-0.23C0.198,-0.237 0.224,-0.243 0.253,-0.247C0.281,-0.25 0.308,-0.254 0.335,-0.259C0.344,-0.26 0.354,-0.263 0.365,-0.266C0.376,-0.269 0.384,-0.275 0.388,-0.282L0.39,-0.282Z" style="fill-rule:nonzero;"/>
                </g>
                <g transform="matrix(128,0,0,128,962.41,892.827)">
                    <path d="M0.16,-0.516L0.16,-0.671L0.097,-0.671L0.097,-0.516L0.007,-0.516L0.007,-0.463L0.097,-0.463L0.097,-0.11C0.096,-0.066 0.104,-0.036 0.121,-0.02C0.138,-0.003 0.167,0.005 0.209,0.005C0.218,0.005 0.228,0.005 0.237,0.004C0.246,0.003 0.256,0.003 0.265,0.003L0.265,-0.05C0.247,-0.048 0.229,-0.047 0.211,-0.047C0.188,-0.048 0.174,-0.055 0.169,-0.067C0.163,-0.078 0.16,-0.094 0.16,-0.115L0.16,-0.463L0.265,-0.463L0.265,-0.516L0.16,-0.516Z" style="fill-rule:nonzero;"/>
                </g>
                <g transform="matrix(128,0,0,128,1000.3,892.827)">
                    <path d="M0.278,-0.478C0.308,-0.478 0.334,-0.472 0.357,-0.459C0.38,-0.446 0.399,-0.43 0.414,-0.409C0.429,-0.388 0.44,-0.365 0.448,-0.339C0.455,-0.312 0.459,-0.285 0.459,-0.258C0.459,-0.231 0.455,-0.204 0.448,-0.178C0.44,-0.151 0.429,-0.128 0.414,-0.107C0.399,-0.086 0.38,-0.07 0.357,-0.057C0.334,-0.044 0.308,-0.038 0.278,-0.038C0.248,-0.038 0.222,-0.044 0.199,-0.057C0.176,-0.07 0.158,-0.086 0.143,-0.107C0.128,-0.128 0.116,-0.151 0.109,-0.178C0.101,-0.204 0.097,-0.231 0.097,-0.258C0.097,-0.285 0.101,-0.312 0.109,-0.339C0.116,-0.365 0.128,-0.388 0.143,-0.409C0.158,-0.43 0.176,-0.446 0.199,-0.459C0.222,-0.472 0.248,-0.478 0.278,-0.478ZM0.278,-0.531C0.239,-0.531 0.204,-0.524 0.174,-0.509C0.143,-0.494 0.118,-0.475 0.097,-0.45C0.076,-0.425 0.061,-0.397 0.05,-0.364C0.039,-0.331 0.034,-0.295 0.034,-0.258C0.034,-0.221 0.039,-0.186 0.05,-0.153C0.061,-0.12 0.076,-0.091 0.097,-0.066C0.118,-0.041 0.143,-0.022 0.174,-0.008C0.204,0.007 0.239,0.014 0.278,0.014C0.317,0.014 0.352,0.007 0.383,-0.008C0.413,-0.022 0.438,-0.041 0.459,-0.066C0.48,-0.091 0.495,-0.12 0.506,-0.153C0.517,-0.186 0.522,-0.221 0.522,-0.258C0.522,-0.295 0.517,-0.331 0.506,-0.364C0.495,-0.397 0.48,-0.425 0.459,-0.45C0.438,-0.475 0.413,-0.494 0.383,-0.509C0.352,-0.524 0.317,-0.531 0.278,-0.531Z" style="fill-rule:nonzero;"/>
                </g>
                <g transform="matrix(128,0,0,128,1071.47,892.827)">
                    <path d="M0.06,-0.516L0.06,-0L0.123,-0L0.123,-0.275C0.123,-0.302 0.128,-0.328 0.137,-0.351C0.146,-0.374 0.16,-0.393 0.177,-0.41C0.194,-0.427 0.214,-0.44 0.237,-0.449C0.26,-0.458 0.286,-0.461 0.315,-0.46L0.315,-0.523C0.268,-0.525 0.228,-0.515 0.195,-0.492C0.161,-0.469 0.136,-0.437 0.12,-0.395L0.118,-0.395L0.118,-0.516L0.06,-0.516Z" style="fill-rule:nonzero;"/>
                </g>
                <g transform="matrix(128,0,0,128,1147.37,892.827)">
                    <rect x="0.077" y="-0.714" width="0.068" height="0.714" style="fill-rule:nonzero;"/>
                </g>
                <g transform="matrix(128,0,0,128,1175.79,892.827)">
                    <path d="M0.594,-0.498L0.662,-0.498C0.657,-0.535 0.646,-0.568 0.629,-0.597C0.611,-0.626 0.589,-0.65 0.563,-0.67C0.536,-0.689 0.507,-0.704 0.475,-0.714C0.442,-0.724 0.409,-0.729 0.375,-0.729C0.319,-0.729 0.27,-0.719 0.228,-0.699C0.185,-0.678 0.15,-0.651 0.122,-0.617C0.094,-0.582 0.073,-0.543 0.059,-0.498C0.045,-0.453 0.038,-0.406 0.038,-0.357C0.038,-0.308 0.045,-0.261 0.059,-0.216C0.073,-0.171 0.094,-0.132 0.122,-0.098C0.15,-0.064 0.185,-0.037 0.228,-0.017C0.27,0.004 0.319,0.014 0.375,0.014C0.417,0.014 0.455,0.007 0.49,-0.006C0.524,-0.019 0.554,-0.038 0.579,-0.063C0.604,-0.088 0.625,-0.118 0.641,-0.153C0.657,-0.188 0.667,-0.228 0.672,-0.272L0.604,-0.272C0.601,-0.24 0.593,-0.21 0.581,-0.183C0.569,-0.155 0.553,-0.131 0.534,-0.11C0.515,-0.089 0.492,-0.073 0.465,-0.061C0.438,-0.049 0.408,-0.043 0.375,-0.043C0.328,-0.043 0.287,-0.052 0.253,-0.07C0.219,-0.088 0.191,-0.112 0.17,-0.142C0.148,-0.171 0.132,-0.205 0.122,-0.243C0.111,-0.28 0.106,-0.318 0.106,-0.357C0.106,-0.396 0.111,-0.435 0.122,-0.472C0.132,-0.509 0.148,-0.543 0.17,-0.573C0.191,-0.602 0.219,-0.626 0.253,-0.644C0.287,-0.662 0.328,-0.671 0.375,-0.671C0.401,-0.671 0.426,-0.667 0.45,-0.66C0.473,-0.652 0.495,-0.641 0.515,-0.626C0.534,-0.611 0.551,-0.593 0.565,-0.572C0.578,-0.55 0.588,-0.525 0.594,-0.498Z" style="fill-rule:nonzero;"/>
                </g>
                <g transform="matrix(128,0,0,128,1265.9,892.827)">
                    <path d="M-0.004,-0.714L-0.004,-0.656L0.244,-0.656L0.244,-0L0.312,-0L0.312,-0.656L0.561,-0.656L0.561,-0.714L-0.004,-0.714Z" style="fill-rule:nonzero;"/>
                </g>
                <g transform="matrix(128,0,0,128,1372.65,892.827)">
                    <path d="M0.054,-0.358L0.117,-0.358C0.118,-0.4 0.132,-0.431 0.157,-0.45C0.182,-0.468 0.215,-0.478 0.255,-0.478C0.274,-0.478 0.291,-0.476 0.308,-0.474C0.324,-0.471 0.338,-0.465 0.351,-0.457C0.363,-0.449 0.373,-0.438 0.38,-0.425C0.387,-0.411 0.39,-0.393 0.39,-0.372C0.39,-0.358 0.388,-0.347 0.385,-0.338C0.381,-0.329 0.376,-0.323 0.369,-0.318C0.362,-0.313 0.354,-0.309 0.344,-0.307C0.334,-0.305 0.322,-0.303 0.309,-0.302C0.275,-0.298 0.242,-0.294 0.209,-0.29C0.175,-0.285 0.146,-0.278 0.12,-0.267C0.093,-0.256 0.072,-0.241 0.056,-0.221C0.04,-0.2 0.032,-0.172 0.032,-0.136C0.032,-0.11 0.037,-0.088 0.046,-0.069C0.055,-0.05 0.067,-0.034 0.083,-0.022C0.098,-0.009 0.117,-0 0.138,0.006C0.159,0.011 0.181,0.014 0.205,0.014C0.23,0.014 0.252,0.012 0.271,0.007C0.289,0.002 0.305,-0.004 0.32,-0.013C0.334,-0.022 0.347,-0.033 0.359,-0.046C0.37,-0.058 0.382,-0.073 0.393,-0.09L0.395,-0.09C0.395,-0.077 0.396,-0.065 0.398,-0.054C0.399,-0.043 0.403,-0.033 0.408,-0.025C0.413,-0.017 0.421,-0.011 0.431,-0.007C0.44,-0.002 0.453,-0 0.469,-0C0.478,-0 0.485,-0 0.491,-0.001C0.496,-0.002 0.503,-0.003 0.51,-0.004L0.51,-0.057C0.504,-0.054 0.497,-0.053 0.49,-0.053C0.465,-0.053 0.453,-0.066 0.453,-0.091L0.453,-0.365C0.453,-0.4 0.447,-0.428 0.436,-0.45C0.425,-0.471 0.41,-0.488 0.392,-0.5C0.374,-0.512 0.354,-0.52 0.331,-0.525C0.308,-0.529 0.286,-0.531 0.263,-0.531C0.233,-0.531 0.206,-0.528 0.181,-0.521C0.156,-0.514 0.135,-0.504 0.117,-0.49C0.098,-0.476 0.084,-0.458 0.073,-0.436C0.062,-0.414 0.056,-0.388 0.054,-0.358ZM0.39,-0.282L0.39,-0.2C0.39,-0.175 0.385,-0.152 0.376,-0.132C0.366,-0.112 0.353,-0.095 0.337,-0.081C0.32,-0.067 0.301,-0.056 0.279,-0.049C0.257,-0.042 0.234,-0.038 0.21,-0.038C0.195,-0.038 0.181,-0.04 0.167,-0.045C0.153,-0.05 0.141,-0.057 0.13,-0.066C0.119,-0.075 0.111,-0.085 0.105,-0.098C0.098,-0.11 0.095,-0.124 0.095,-0.14C0.095,-0.165 0.102,-0.185 0.118,-0.199C0.133,-0.212 0.152,-0.223 0.175,-0.23C0.198,-0.237 0.224,-0.243 0.253,-0.247C0.281,-0.25 0.308,-0.254 0.335,-0.259C0.344,-0.26 0.354,-0.263 0.365,-0.266C0.376,-0.269 0.384,-0.275 0.388,-0.282L0.39,-0.282Z" style="fill-rule:nonzero;"/>
                </g>
                <g transform="matrix(128,0,0,128,1439.08,892.827)">
                    <rect x="0.097" y="-0.106" width="0.084" height="0.106" style="fill-rule:nonzero;"/>
                </g>
                <g transform="matrix(128,0,0,128,1474.67,892.827)">
                    <path d="M0.369,-0.365L0.432,-0.365C0.431,-0.393 0.425,-0.417 0.415,-0.438C0.405,-0.459 0.392,-0.476 0.375,-0.49C0.358,-0.504 0.338,-0.514 0.316,-0.521C0.293,-0.528 0.269,-0.531 0.243,-0.531C0.22,-0.531 0.198,-0.528 0.175,-0.523C0.152,-0.518 0.131,-0.509 0.112,-0.498C0.093,-0.487 0.078,-0.472 0.067,-0.453C0.055,-0.434 0.049,-0.412 0.049,-0.386C0.049,-0.364 0.053,-0.345 0.06,-0.331C0.067,-0.316 0.078,-0.303 0.091,-0.293C0.103,-0.282 0.119,-0.274 0.136,-0.267C0.153,-0.26 0.172,-0.253 0.193,-0.248L0.274,-0.23C0.288,-0.227 0.302,-0.223 0.316,-0.218C0.329,-0.213 0.341,-0.208 0.352,-0.201C0.363,-0.194 0.371,-0.185 0.378,-0.175C0.384,-0.164 0.387,-0.151 0.387,-0.136C0.387,-0.118 0.383,-0.103 0.374,-0.091C0.365,-0.078 0.353,-0.068 0.339,-0.06C0.325,-0.052 0.31,-0.046 0.294,-0.043C0.277,-0.04 0.261,-0.038 0.246,-0.038C0.204,-0.038 0.169,-0.049 0.141,-0.071C0.112,-0.092 0.097,-0.124 0.094,-0.167L0.031,-0.167C0.036,-0.104 0.058,-0.058 0.096,-0.029C0.133,-0 0.182,0.014 0.243,0.014C0.267,0.014 0.291,0.011 0.316,0.006C0.341,0.001 0.363,-0.008 0.383,-0.021C0.402,-0.033 0.418,-0.049 0.431,-0.069C0.444,-0.088 0.45,-0.112 0.45,-0.14C0.45,-0.163 0.446,-0.182 0.437,-0.199C0.428,-0.216 0.417,-0.23 0.404,-0.241C0.39,-0.252 0.374,-0.262 0.357,-0.269C0.339,-0.276 0.321,-0.28 0.303,-0.283L0.219,-0.302C0.208,-0.305 0.197,-0.308 0.184,-0.313C0.171,-0.317 0.16,-0.322 0.149,-0.329C0.138,-0.336 0.13,-0.344 0.123,-0.354C0.116,-0.363 0.112,-0.375 0.112,-0.389C0.112,-0.406 0.116,-0.42 0.123,-0.431C0.13,-0.442 0.14,-0.452 0.152,-0.459C0.164,-0.466 0.177,-0.471 0.192,-0.474C0.206,-0.476 0.22,-0.478 0.234,-0.478C0.252,-0.478 0.269,-0.476 0.285,-0.472C0.301,-0.467 0.315,-0.46 0.328,-0.451C0.34,-0.442 0.35,-0.43 0.357,-0.416C0.364,-0.401 0.368,-0.384 0.369,-0.365Z" style="fill-rule:nonzero;"/>
                </g>
                <g transform="matrix(128,0,0,128,1536.23,892.827)">
                    <rect x="0.097" y="-0.106" width="0.084" height="0.106" style="fill-rule:nonzero;"/>
                </g>
            </g>
        </g>
    </g>
</svg>
