<?xml version="1.0" encoding="UTF-8" standalone="no"?>
<!DOCTYPE svg PUBLIC "-//W3C//DTD SVG 1.1//EN" "http://www.w3.org/Graphics/SVG/1.1/DTD/svg11.dtd">
<svg width="1920px" height="1080px" version="1.1" xmlns="http://www.w3.org/2000/svg" xmlns:xlink="http://www.w3.org/1999/xlink" xml:space="preserve" xmlns:serif="http://www.serif.com/" style="fill-rule:evenodd;clip-rule:evenodd;stroke-linejoin:round;stroke-miterlimit:2;">
    <g transform="matrix(3.48257,0,0,3.48257,14.3306,343.583)">
        <g id="VZP">
            <g transform="matrix(4.16667,0,0,4.16667,0,0)">
                <path d="M104.383,22.566C104.287,22.796 104.192,23.05 104.088,23.313C103.978,22.971 103.93,22.836 103.811,22.541L103.326,21.366L100.098,21.366L98.875,23.924L100.266,26.905L102.141,26.905L100.408,23.901L101.739,21.581L103.334,24.592L103.334,26.905L104.787,26.905L104.787,24.561L106.561,21.366L104.867,21.366L104.383,22.566Z" style="fill:rgb(238,49,35);fill-rule:nonzero;"/>
            </g>
            <g transform="matrix(4.16667,0,0,4.16667,0,0)">
                <path d="M77.612,23.806L77.198,23.806L77.198,22.534L77.692,22.534C78.034,22.534 78.263,22.621 78.263,23.083C78.263,23.687 78.058,23.806 77.612,23.806ZM77.58,21.366L75.777,21.366L75.777,26.905L77.198,26.905L77.198,24.933L77.644,24.933C79.457,24.933 79.813,23.91 79.813,23.09C79.813,21.827 78.987,21.366 77.58,21.366Z" style="fill:rgb(238,49,35);fill-rule:nonzero;"/>
            </g>
            <g transform="matrix(4.16667,0,0,4.16667,0,0)">
                <path d="M44.093,25.833C43.799,25.833 43.569,25.698 43.386,25.484C43.155,25.212 43.115,24.776 43.115,23.862C43.115,23.209 43.203,22.922 43.473,22.645C43.616,22.494 43.847,22.429 44.093,22.429C44.395,22.429 44.673,22.534 44.92,22.724L45.524,21.675C45.27,21.429 44.673,21.271 44.109,21.271C43.139,21.271 42.337,21.66 41.868,22.526C41.598,23.027 41.487,23.551 41.487,24.243C41.487,25.03 41.686,25.753 42.122,26.238C42.631,26.794 43.252,27 43.934,27C44.745,27 45.309,26.762 45.659,26.437L45.047,25.467C44.737,25.746 44.451,25.833 44.093,25.833Z" style="fill:rgb(238,49,35);fill-rule:nonzero;"/>
            </g>
            <g transform="matrix(4.16667,0,0,4.16667,0,0)">
                <path d="M44.022,20.031L42.918,19.474L42.472,20.212L43.974,21.159L45.493,20.212L45.095,19.474L44.022,20.031Z" style="fill:rgb(238,49,35);fill-rule:nonzero;"/>
            </g>
            <g transform="matrix(4.16667,0,0,4.16667,0,0)">
                <path d="M73.041,24.591L74.423,24.591L74.423,23.464L73.041,23.464L73.041,22.534L74.734,22.534L74.837,21.366L71.62,21.366L71.62,26.905L74.941,26.905L74.941,25.721L73.041,25.721L73.041,24.591Z" style="fill:rgb(238,49,35);fill-rule:nonzero;"/>
            </g>
            <g transform="matrix(4.16667,0,0,4.16667,0,0)">
                <path d="M63.035,19.602L61.302,20.563L61.739,21.261L63.575,20.499L63.035,19.602Z" style="fill:rgb(238,49,35);fill-rule:nonzero;"/>
            </g>
            <g transform="matrix(4.16667,0,0,4.16667,0,0)">
                <path d="M68.431,23.663L68.026,23.663L68.026,22.534L68.423,22.534C68.869,22.534 69.084,22.661 69.084,23.058C69.084,23.432 68.918,23.663 68.431,23.663ZM69.513,24.497C70.164,24.385 70.666,23.902 70.666,22.947C70.666,22.025 70.14,21.366 68.511,21.366L66.604,21.366L66.604,26.905L68.026,26.905L68.026,24.711C68.335,24.711 68.462,24.783 68.677,25.356L69.259,26.905L70.903,26.905C70.72,26.492 70.252,25.466 70.069,25.092C69.933,24.806 69.704,24.552 69.513,24.497Z" style="fill:rgb(238,49,35);fill-rule:nonzero;"/>
            </g>
            <g transform="matrix(4.16667,0,0,4.16667,0,0)">
                <path d="M62.08,24.591L63.464,24.591L63.464,23.464L62.08,23.464L62.08,22.534L63.774,22.534L63.877,21.366L60.659,21.366L60.659,26.905L63.98,26.905L63.98,25.721L62.08,25.721L62.08,24.591Z" style="fill:rgb(238,49,35);fill-rule:nonzero;"/>
            </g>
            <g transform="matrix(4.16667,0,0,4.16667,0,0)">
                <path d="M53.028,23.44L52.464,23.296C52.051,23.194 51.923,23.01 51.923,22.828C51.923,22.605 52.122,22.429 52.488,22.429C52.869,22.429 53.362,22.574 53.735,22.82L54.418,21.811C53.926,21.468 53.211,21.271 52.44,21.271C51.2,21.271 50.294,22.002 50.294,23.097C50.294,24.051 50.842,24.498 51.645,24.704L52.297,24.871C52.678,24.966 52.853,25.078 52.853,25.325C52.853,25.627 52.631,25.833 52.074,25.833C51.51,25.833 50.914,25.619 50.516,25.387L50.016,26.5C50.572,26.794 51.224,27 52.058,27C53.497,27 54.482,26.301 54.482,24.974C54.482,23.862 53.625,23.59 53.028,23.44Z" style="fill:rgb(238,49,35);fill-rule:nonzero;"/>
            </g>
            <g transform="matrix(4.16667,0,0,4.16667,0,0)">
                <rect x="94.829" y="21.366" width="1.454" height="5.539" style="fill:rgb(238,49,35);fill-rule:nonzero;"/>
            </g>
            <g transform="matrix(4.16667,0,0,4.16667,0,0)">
                <path d="M87.77,25.721L87.229,25.721L87.229,24.624L87.753,24.624C88.192,24.624 88.28,24.871 88.28,25.149C88.28,25.491 88.128,25.721 87.77,25.721ZM87.229,22.534L87.778,22.534C88.112,22.534 88.255,22.685 88.255,22.97C88.255,23.257 88.136,23.497 87.794,23.497L87.229,23.497L87.229,22.534ZM88.899,23.949C89.511,23.75 89.716,23.226 89.716,22.724C89.716,21.708 89.066,21.366 88.263,21.366L85.808,21.366L85.808,26.905L88.056,26.905C89.32,26.905 89.916,26.207 89.916,25.197C89.916,24.529 89.439,24.091 88.899,23.949Z" style="fill:rgb(238,49,35);fill-rule:nonzero;"/>
            </g>
            <g transform="matrix(4.16667,0,0,4.16667,0,0)">
                <rect x="55.397" y="21.366" width="1.422" height="5.539" style="fill:rgb(238,49,35);fill-rule:nonzero;"/>
            </g>
            <g transform="matrix(4.16667,0,0,4.16667,0,0)">
                <path d="M47.638,24.591L49.021,24.591L49.021,23.464L47.638,23.464L47.638,22.534L49.332,22.534L49.434,21.366L46.216,21.366L46.216,26.905L49.538,26.905L49.538,25.721L47.638,25.721L47.638,24.591Z" style="fill:rgb(238,49,35);fill-rule:nonzero;"/>
            </g>
            <g transform="matrix(4.16667,0,0,4.16667,0,0)">
                <rect x="97.436" y="21.366" width="1.422" height="5.539" style="fill:rgb(238,49,35);fill-rule:nonzero;"/>
            </g>
            <g transform="matrix(4.16667,0,0,4.16667,0,0)">
                <path d="M59.823,21.366L58.059,21.366L56.835,23.924L58.225,26.905L60.101,26.905L58.369,23.901L59.823,21.366Z" style="fill:rgb(238,49,35);fill-rule:nonzero;"/>
            </g>
            <g transform="matrix(4.16667,0,0,4.16667,0,0)">
                <path d="M83.272,25.006C83.272,25.546 83.128,25.833 82.62,25.833C82.119,25.833 81.959,25.492 81.959,24.983L81.959,21.366L80.53,21.366L80.53,25.133C80.53,25.873 80.585,26.015 80.8,26.31C81.125,26.771 81.737,27 82.612,27C83.709,27 84.32,26.572 84.558,26.111C84.669,25.888 84.694,25.673 84.694,25.198L84.694,21.366L83.272,21.366L83.272,25.006Z" style="fill:rgb(238,49,35);fill-rule:nonzero;"/>
            </g>
            <g transform="matrix(4.16667,0,0,4.16667,0,0)">
                <path d="M92.269,21.366L90.832,21.366L90.832,26.905L93.882,26.905L94.152,25.73L92.269,25.73L92.269,21.366Z" style="fill:rgb(238,49,35);fill-rule:nonzero;"/>
            </g>
            <g transform="matrix(4.16667,0,0,4.16667,0,0)">
                <path d="M127.512,15.106L127.734,14.2C127.814,13.842 127.87,13.556 127.887,13.35C127.895,13.556 127.934,13.866 127.989,14.097L128.229,15.106L127.512,15.106ZM128.664,11.728L127.188,11.728L125.406,17.267L126.9,17.267L127.202,16.202L128.514,16.202L128.8,17.267L130.341,17.267L128.664,11.728Z" style="fill:rgb(238,49,35);fill-rule:nonzero;"/>
            </g>
            <g transform="matrix(4.16667,0,0,4.16667,0,0)">
                <path d="M41.407,16.298L41.407,17.267L45.191,17.267L45.302,16.084L43.711,16.084C43.505,16.084 43.235,16.1 43.108,16.132C43.164,16.084 43.291,15.957 43.363,15.838L45.27,12.721L45.27,11.728L41.677,11.728L41.574,12.896L43.013,12.896C43.196,12.896 43.442,12.888 43.561,12.856C43.482,12.927 43.347,13.15 43.243,13.325L41.407,16.298Z" style="fill:rgb(238,49,35);fill-rule:nonzero;"/>
            </g>
            <g transform="matrix(4.16667,0,0,4.16667,0,0)">
                <path d="M102.77,16.195C102.205,16.195 101.609,15.981 101.211,15.75L100.711,16.862C101.268,17.156 101.919,17.363 102.753,17.363C104.191,17.363 105.178,16.664 105.178,15.337C105.178,14.223 104.319,13.953 103.723,13.802L103.159,13.659C102.745,13.556 102.618,13.373 102.618,13.19C102.618,12.967 102.816,12.792 103.184,12.792C103.564,12.792 104.057,12.935 104.43,13.182L105.113,12.173C104.621,11.831 103.906,11.633 103.135,11.633C101.895,11.633 100.989,12.363 100.989,13.46C100.989,14.414 101.537,14.86 102.34,15.066L102.992,15.233C103.373,15.329 103.549,15.44 103.549,15.686C103.549,15.989 103.326,16.195 102.77,16.195Z" style="fill:rgb(238,49,35);fill-rule:nonzero;"/>
            </g>
            <g transform="matrix(4.16667,0,0,4.16667,0,0)">
                <path d="M104.422,10.448L103.984,9.709L102.912,10.265L101.807,9.709L101.402,10.448L102.936,11.521L104.422,10.448Z" style="fill:rgb(238,49,35);fill-rule:nonzero;"/>
            </g>
            <g transform="matrix(4.16667,0,0,4.16667,0,0)">
                <path d="M109.247,10.575L108.85,9.836L107.775,10.392L106.672,9.836L106.227,10.575L107.729,11.521L109.247,10.575Z" style="fill:rgb(238,49,35);fill-rule:nonzero;"/>
            </g>
            <g transform="matrix(4.16667,0,0,4.16667,0,0)">
                <rect x="98.341" y="11.728" width="1.454" height="5.539" style="fill:rgb(238,49,35);fill-rule:nonzero;"/>
            </g>
            <g transform="matrix(4.16667,0,0,4.16667,0,0)">
                <path d="M52.693,12.896L53.091,12.896C53.537,12.896 53.752,13.023 53.752,13.421C53.752,13.795 53.585,14.025 53.099,14.025L52.693,14.025L52.693,12.896ZM52.693,15.074C53.003,15.074 53.13,15.145 53.346,15.717L53.926,17.267L55.571,17.267C55.388,16.854 54.918,15.829 54.737,15.455C54.602,15.17 54.371,14.915 54.181,14.859C54.832,14.748 55.332,14.264 55.332,13.309C55.332,12.387 54.808,11.728 53.179,11.728L51.272,11.728L51.272,17.267L52.693,17.267L52.693,15.074Z" style="fill:rgb(238,49,35);fill-rule:nonzero;"/>
            </g>
            <g transform="matrix(4.16667,0,0,4.16667,0,0)">
                <path d="M117.879,13.969C117.775,14.255 117.672,14.605 117.585,15.05L117.577,15.05C117.49,14.557 117.418,14.351 117.314,14.009L116.615,11.728L115.049,11.728L116.934,17.267L118.213,17.267L120.168,11.728L118.666,11.728L117.879,13.969Z" style="fill:rgb(238,49,35);fill-rule:nonzero;"/>
            </g>
            <g transform="matrix(4.16667,0,0,4.16667,0,0)">
                <path d="M123.475,13.445C123.475,13.81 123.482,14.359 123.523,14.685C123.389,14.311 123.221,13.922 123.063,13.628L122.051,11.728L120.686,11.728L120.686,17.267L122.036,17.267L122.036,15.711C122.036,15.026 121.988,14.518 121.956,14.303C122.075,14.661 122.242,15.058 122.387,15.344L123.364,17.267L124.826,17.267L124.826,11.728L123.475,11.728L123.475,13.445Z" style="fill:rgb(238,49,35);fill-rule:nonzero;"/>
            </g>
            <g transform="matrix(4.16667,0,0,4.16667,0,0)">
                <rect x="80.878" y="11.728" width="1.455" height="5.539" style="fill:rgb(238,49,35);fill-rule:nonzero;"/>
            </g>
            <g transform="matrix(4.16667,0,0,4.16667,0,0)">
                <path d="M82.23,9.964L80.498,10.925L80.935,11.624L82.771,10.861L82.23,9.964Z" style="fill:rgb(238,49,35);fill-rule:nonzero;"/>
            </g>
            <g transform="matrix(4.16667,0,0,4.16667,0,0)">
                <path d="M76.896,15.711C76.896,15.026 76.849,14.518 76.816,14.303C76.935,14.661 77.103,15.058 77.247,15.344L78.224,17.267L79.687,17.267L79.687,11.728L78.335,11.728L78.335,13.445C78.335,13.81 78.343,14.359 78.384,14.685C78.249,14.311 78.082,13.922 77.923,13.628L76.912,11.728L75.545,11.728L75.545,17.267L76.896,17.267L76.896,15.711Z" style="fill:rgb(238,49,35);fill-rule:nonzero;"/>
            </g>
            <g transform="matrix(4.16667,0,0,4.16667,0,0)">
                <path d="M70.849,12.904L72.136,12.904L72.136,17.267L73.574,17.267L73.574,12.904L74.862,12.904L75.029,11.728L70.849,11.728L70.849,12.904Z" style="fill:rgb(238,49,35);fill-rule:nonzero;"/>
            </g>
            <g transform="matrix(4.16667,0,0,4.16667,0,0)">
                <path d="M86.697,12.896L87.189,12.896C87.532,12.896 87.763,12.983 87.763,13.445C87.763,14.049 87.556,14.169 87.109,14.169L86.697,14.169L86.697,12.896ZM86.697,15.296L87.142,15.296C88.954,15.296 89.312,14.272 89.312,13.452C89.312,12.189 88.486,11.728 87.079,11.728L85.275,11.728L85.275,17.267L86.697,17.267L86.697,15.296Z" style="fill:rgb(238,49,35);fill-rule:nonzero;"/>
            </g>
            <g transform="matrix(4.16667,0,0,4.16667,0,0)">
                <path d="M92.349,16.243C91.759,16.243 91.418,15.893 91.418,14.478C91.418,13.42 91.689,12.745 92.333,12.745C92.945,12.745 93.216,13.079 93.216,14.462C93.216,15.885 92.953,16.243 92.349,16.243ZM92.372,11.633C90.91,11.633 89.829,12.665 89.829,14.637C89.829,16.299 90.718,17.363 92.325,17.363C94.304,17.363 94.804,15.878 94.804,14.287C94.804,13.071 94.255,11.633 92.372,11.633Z" style="fill:rgb(238,49,35);fill-rule:nonzero;"/>
            </g>
            <g transform="matrix(4.16667,0,0,4.16667,0,0)">
                <path d="M95.734,16.29C95.734,17.291 95.687,17.609 95.003,18.078L95.656,18.778C96.433,18.499 97.189,17.856 97.189,16.894L97.189,11.728L95.734,11.728L95.734,16.29Z" style="fill:rgb(238,49,35);fill-rule:nonzero;"/>
            </g>
            <g transform="matrix(4.16667,0,0,4.16667,0,0)">
                <path d="M105.694,12.904L106.982,12.904L106.982,17.267L108.42,17.267L108.42,12.904L109.707,12.904L109.874,11.728L105.694,11.728L105.694,12.904Z" style="fill:rgb(238,49,35);fill-rule:nonzero;"/>
            </g>
            <g transform="matrix(4.16667,0,0,4.16667,0,0)">
                <path d="M48.076,16.084L47.598,16.084L47.598,12.896L48.036,12.896C48.466,12.896 48.792,13.063 48.792,14.351C48.792,15.885 48.474,16.084 48.076,16.084ZM49.451,12.07C49.005,11.76 48.513,11.728 48.13,11.728L46.177,11.728L46.177,17.267L48.187,17.267C48.935,17.267 49.379,17.021 49.729,16.6C50.23,16.004 50.357,15.257 50.357,14.398C50.357,13.269 50.079,12.506 49.451,12.07Z" style="fill:rgb(238,49,35);fill-rule:nonzero;"/>
            </g>
            <g transform="matrix(4.16667,0,0,4.16667,0,0)">
                <path d="M67.103,14.478C67.103,13.42 67.374,12.745 68.019,12.745C68.63,12.745 68.9,13.079 68.9,14.462C68.9,15.885 68.638,16.243 68.035,16.243C67.446,16.243 67.103,15.893 67.103,14.478ZM70.49,14.287C70.49,13.071 69.941,11.633 68.058,11.633C66.595,11.633 65.515,12.665 65.515,14.637C65.515,16.299 66.405,17.363 68.011,17.363C69.99,17.363 70.49,15.878 70.49,14.287Z" style="fill:rgb(238,49,35);fill-rule:nonzero;"/>
            </g>
            <g transform="matrix(4.16667,0,0,4.16667,0,0)">
                <path d="M57.821,15.106L58.043,14.2C58.123,13.842 58.178,13.556 58.194,13.35C58.202,13.556 58.242,13.866 58.298,14.097L58.536,15.106L57.821,15.106ZM57.495,11.728L55.713,17.267L57.209,17.267L57.511,16.202L58.822,16.202L59.108,17.267L60.65,17.267L58.973,11.728L57.495,11.728Z" style="fill:rgb(238,49,35);fill-rule:nonzero;"/>
            </g>
            <g transform="matrix(4.16667,0,0,4.16667,0,0)">
                <path d="M63.106,13.969C63.002,14.255 62.9,14.605 62.812,15.05L62.804,15.05C62.717,14.557 62.645,14.351 62.542,14.009L61.843,11.728L60.277,11.728L62.161,17.267L63.44,17.267L65.396,11.728L63.893,11.728L63.106,13.969Z" style="fill:rgb(238,49,35);fill-rule:nonzero;"/>
            </g>
            <g transform="matrix(4.16667,0,0,4.16667,0,0)">
                <path d="M112.475,16.243C111.885,16.243 111.543,15.893 111.543,14.478C111.543,13.42 111.814,12.745 112.458,12.745C113.07,12.745 113.342,13.079 113.342,14.462C113.342,15.885 113.078,16.243 112.475,16.243ZM112.498,11.633C111.035,11.633 109.955,12.665 109.955,14.637C109.955,16.299 110.844,17.363 112.45,17.363C114.43,17.363 114.93,15.878 114.93,14.287C114.93,13.071 114.381,11.633 112.498,11.633Z" style="fill:rgb(238,49,35);fill-rule:nonzero;"/>
            </g>
            <g transform="matrix(4.16667,0,0,4.16667,0,0)">
                <path d="M72.668,7.725C73.479,7.725 74.043,7.486 74.393,7.162L73.781,6.191C73.471,6.47 73.184,6.557 72.828,6.557C72.533,6.557 72.302,6.422 72.119,6.208C71.889,5.937 71.849,5.501 71.849,4.585C71.849,3.933 71.936,3.647 72.207,3.37C72.35,3.218 72.58,3.154 72.828,3.154C73.128,3.154 73.408,3.257 73.653,3.449L74.257,2.4C74.003,2.153 73.408,1.996 72.843,1.996C71.873,1.996 71.071,2.384 70.602,3.251C70.332,3.751 70.221,4.275 70.221,4.967C70.221,5.754 70.419,6.478 70.856,6.962C71.364,7.518 71.984,7.725 72.668,7.725Z" style="fill:rgb(238,49,35);fill-rule:nonzero;"/>
            </g>
            <g transform="matrix(4.16667,0,0,4.16667,0,0)">
                <path d="M43.879,4.332C43.775,4.618 43.672,4.967 43.585,5.413L43.578,5.413C43.489,4.919 43.418,4.713 43.314,4.372L42.616,2.09L41.049,2.09L42.933,7.629L44.213,7.629L46.168,2.09L44.667,2.09L43.879,4.332Z" style="fill:rgb(238,49,35);fill-rule:nonzero;"/>
            </g>
            <g transform="matrix(4.16667,0,0,4.16667,0,0)">
                <path d="M50.159,0.81L49.721,0.072L48.648,0.627L47.543,0.072L47.138,0.81L48.672,1.882L50.159,0.81Z" style="fill:rgb(238,49,35);fill-rule:nonzero;"/>
            </g>
            <g transform="matrix(4.16667,0,0,4.16667,0,0)">
                <path d="M83.455,1.223L82.914,0.326L81.181,1.288L81.619,1.986L83.455,1.223Z" style="fill:rgb(238,49,35);fill-rule:nonzero;"/>
            </g>
            <g transform="matrix(4.16667,0,0,4.16667,0,0)">
                <path d="M81.936,5.468L82.16,4.562C82.23,4.212 82.294,3.934 82.31,3.727C82.318,3.934 82.357,4.236 82.414,4.459L82.651,5.468L81.936,5.468ZM81.61,2.09L79.83,7.629L81.324,7.629L81.627,6.564L82.938,6.564L83.224,7.629L84.766,7.629L83.089,2.09L81.61,2.09Z" style="fill:rgb(238,49,35);fill-rule:nonzero;"/>
            </g>
            <g transform="matrix(4.16667,0,0,4.16667,0,0)">
                <path d="M58.051,3.106C58.664,3.106 58.934,3.44 58.934,4.825C58.934,6.248 58.671,6.605 58.067,6.605C57.478,6.605 57.136,6.255 57.136,4.84C57.136,3.783 57.408,3.106 58.051,3.106ZM58.043,7.725C60.022,7.725 60.523,6.24 60.523,4.649C60.523,3.432 59.974,1.996 58.091,1.996C56.628,1.996 55.548,3.027 55.548,5C55.548,6.661 56.437,7.725 58.043,7.725Z" style="fill:rgb(238,49,35);fill-rule:nonzero;"/>
            </g>
            <g transform="matrix(4.16667,0,0,4.16667,0,0)">
                <path d="M55.11,6.447L53.21,6.447L53.21,5.316L54.593,5.316L54.593,4.188L53.21,4.188L53.21,3.257L54.903,3.257L55.006,2.09L51.789,2.09L51.789,7.629L55.11,7.629L55.11,6.447Z" style="fill:rgb(238,49,35);fill-rule:nonzero;"/>
            </g>
            <g transform="matrix(4.16667,0,0,4.16667,0,0)">
                <path d="M48.505,6.557C47.941,6.557 47.345,6.342 46.947,6.112L46.447,7.224C47.003,7.518 47.655,7.725 48.489,7.725C49.928,7.725 50.914,7.026 50.914,5.699C50.914,4.585 50.055,4.315 49.46,4.165L48.895,4.021C48.481,3.917 48.354,3.735 48.354,3.552C48.354,3.33 48.553,3.154 48.919,3.154C49.3,3.154 49.793,3.297 50.167,3.544L50.849,2.536C50.357,2.193 49.642,1.996 48.872,1.996C47.631,1.996 46.725,2.725 46.725,3.823C46.725,4.776 47.273,5.221 48.077,5.428L48.728,5.595C49.109,5.69 49.285,5.802 49.285,6.048C49.285,6.35 49.062,6.557 48.505,6.557Z" style="fill:rgb(238,49,35);fill-rule:nonzero;"/>
            </g>
            <g transform="matrix(4.16667,0,0,4.16667,0,0)">
                <path d="M69.783,6.447L67.882,6.447L67.882,5.316L69.266,5.316L69.266,4.188L67.882,4.188L67.882,3.257L69.576,3.257L69.679,2.09L66.46,2.09L66.46,7.629L69.783,7.629L69.783,6.447Z" style="fill:rgb(238,49,35);fill-rule:nonzero;"/>
            </g>
            <g transform="matrix(4.16667,0,0,4.16667,0,0)">
                <path d="M76.419,6.073C76.419,5.388 76.373,4.879 76.339,4.666C76.459,5.023 76.627,5.42 76.769,5.707L77.748,7.629L79.209,7.629L79.209,2.09L77.859,2.09L77.859,3.807C77.859,4.172 77.867,4.721 77.908,5.046C77.772,4.673 77.604,4.284 77.445,3.99L76.435,2.09L75.069,2.09L75.069,7.629L76.419,7.629L76.419,6.073Z" style="fill:rgb(238,49,35);fill-rule:nonzero;"/>
            </g>
            <g transform="matrix(4.16667,0,0,4.16667,0,0)">
                <path d="M62.859,6.447L62.859,5.348L63.384,5.348C63.822,5.348 63.911,5.595 63.911,5.874C63.911,6.215 63.758,6.447 63.4,6.447L62.859,6.447ZM62.859,3.257L63.409,3.257C63.743,3.257 63.886,3.41 63.886,3.695C63.886,3.982 63.766,4.22 63.424,4.22L62.859,4.22L62.859,3.257ZM65.546,5.921C65.546,5.253 65.069,4.816 64.529,4.673C65.141,4.474 65.347,3.951 65.347,3.449C65.347,2.431 64.696,2.09 63.894,2.09L61.438,2.09L61.438,7.629L63.687,7.629C64.951,7.629 65.546,6.93 65.546,5.921Z" style="fill:rgb(238,49,35);fill-rule:nonzero;"/>
            </g>
            <g transform="matrix(4.16667,0,0,4.16667,0,0)">
                <path d="M19.988,18.766L15.289,18.766L12.977,22.847L15.201,27L19.914,27L17.705,22.891L19.988,18.766Z" style="fill:rgb(238,49,35);fill-rule:nonzero;"/>
            </g>
            <g transform="matrix(4.16667,0,0,4.16667,0,0)">
                <path d="M21.711,18.766L19.826,22.007L27.53,22.007L17.823,6.01L5.553,27L9.412,27L17.852,12.477L21.711,18.766Z" style="fill:rgb(238,49,35);fill-rule:nonzero;"/>
            </g>
            <g transform="matrix(4.16667,0,0,4.16667,0,0)">
                <path d="M21.829,3.757C21.564,3.418 20.68,1.489 17.823,1.489C14.906,1.489 13.963,3.492 13.625,4.022C13.271,4.553 0,26.986 0,26.986L3.785,27C3.785,27 15.775,6.703 16.526,5.539C17.292,4.361 18.543,4.774 18.928,5.377C19.295,5.996 28.133,20.372 28.9,21.61C29.076,21.904 29.165,22.449 28.855,23.024C28.561,23.583 28.03,23.731 27.648,23.731L19.796,23.731L21.711,27L27.986,27C28.589,27 30.387,26.749 31.772,24.983C33.451,22.832 31.918,20.209 31.625,19.768C31.315,19.312 22.08,4.096 21.829,3.757Z" style="fill:rgb(238,49,35);fill-rule:nonzero;"/>
            </g>
        </g>
    </g>
</svg>
