<svg xmlns="http://www.w3.org/2000/svg" width="196" height="100" fill="none" xmlns:v="https://vecta.io/nano"><path d="M41.938 62.825h25.65v-25.65h-25.65v25.65zm20.713-15.293h-5.42v-5.42h5.42v5.42zm-15.777-5.42h5.423v10.356h10.354v5.42H46.874V42.112zm37.417-4.937c-2.537 0-5.016.752-7.125 2.162s-3.753 3.412-4.724 5.756-1.225 4.922-.73 7.41 1.716 4.773 3.51 6.567 4.079 3.015 6.567 3.51 5.067.241 7.41-.73 4.346-2.614 5.756-4.724 2.161-4.589 2.161-7.125a12.84 12.84 0 0 0-12.825-12.825zm0 20.713a7.89 7.89 0 0 1-7.288-4.87 7.89 7.89 0 0 1 1.71-8.596 7.89 7.89 0 0 1 8.596-1.71 7.89 7.89 0 0 1 3.54 2.905c.867 1.297 1.329 2.822 1.329 4.382a7.9 7.9 0 0 1-7.888 7.888zm58.72-20.713c-2.537 0-5.017.752-7.126 2.161s-3.753 3.412-4.724 5.755a12.82 12.82 0 0 0-.73 7.41c.495 2.488 1.716 4.773 3.51 6.567a12.82 12.82 0 0 0 6.567 3.51c2.487.495 5.066.241 7.41-.73s4.346-2.614 5.755-4.724A12.82 12.82 0 0 0 155.834 50a12.84 12.84 0 0 0-12.824-12.825zm0 20.713a7.89 7.89 0 0 1-7.289-4.869 7.89 7.89 0 0 1-.449-4.558 7.88 7.88 0 0 1 2.159-4.039 7.89 7.89 0 0 1 4.039-2.159c1.53-.304 3.116-.148 4.557.449a7.89 7.89 0 0 1 3.541 2.905c.866 1.297 1.329 2.822 1.329 4.382-.003 2.091-.835 4.095-2.314 5.574a7.9 7.9 0 0 1-5.573 2.314zm-29.36-20.713c-2.537 0-5.017.752-7.126 2.162a12.82 12.82 0 0 0-5.453 13.166c.495 2.488 1.716 4.773 3.51 6.567s4.079 3.015 6.566 3.51 5.067.241 7.41-.73a12.82 12.82 0 0 0 5.756-4.724A12.83 12.83 0 0 0 126.475 50a12.84 12.84 0 0 0-12.825-12.825zm0 20.713a7.89 7.89 0 0 1-7.028-4.297 7.89 7.89 0 0 1 .631-8.213c.852-1.178 2.013-2.097 3.354-2.657s2.811-.738 4.248-.515a7.89 7.89 0 0 1 3.892 1.778c1.108.94 1.936 2.168 2.391 3.548h-7.488v4.936h7.488a7.9 7.9 0 0 1-7.488 5.42z" fill="#858c97"/></svg>