<svg xmlns="http://www.w3.org/2000/svg" width="196" height="100" fill="#fff" xmlns:v="https://vecta.io/nano"><path d="M50.415 48.371a3.65 3.65 0 0 0-1.046 2.929l-.018-.018c.053.63-.032 1.264-.249 1.857a4.35 4.35 0 0 1-1.008 1.58 4.34 4.34 0 0 1-1.58 1.008c-.594.217-1.227.302-1.857.249l.018.018a3.68 3.68 0 0 0-2.94 6.264 3.68 3.68 0 0 0 6.261-2.946l.019.018c-.053-.63.032-1.264.249-1.857a4.35 4.35 0 0 1 1.008-1.58 4.34 4.34 0 0 1 1.58-1.008c.594-.217 1.227-.302 1.857-.249l-.019-.018a3.67 3.67 0 0 0 3.779-4.911 3.67 3.67 0 0 0-6.05-1.336h-.003zm-7.37 5.265l-.019-.018a3.63 3.63 0 0 0 3.977-3.974l.019.018c-.053-.63.032-1.264.249-1.857a4.35 4.35 0 0 1 1.008-1.58 4.34 4.34 0 0 1 1.58-1.008c.594-.217 1.227-.302 1.857-.249l-.019-.018a3.68 3.68 0 0 0 2.168-.468 3.67 3.67 0 0 0 1.505-1.629 3.68 3.68 0 0 0-.727-4.166c-.535-.535-1.222-.892-1.968-1.022a3.68 3.68 0 0 0-4.295 3.967l-.018-.019c.053.63-.032 1.264-.248 1.858s-.561 1.133-1.008 1.58a4.34 4.34 0 0 1-1.58 1.008c-.594.217-1.228.302-1.858.248l.018.019a3.63 3.63 0 0 0-3.977 3.974l-.018-.018c.053.63-.032 1.264-.249 1.857s-.561 1.133-1.008 1.579-.986.791-1.58 1.008-1.227.302-1.857.249l.018.018a3.68 3.68 0 0 0-3.967 4.295c.13.746.487 1.433 1.022 1.968s1.222.892 1.968 1.022a3.68 3.68 0 0 0 4.295-3.967l.019.018c-.053-.63.032-1.264.249-1.857a4.35 4.35 0 0 1 1.008-1.58 4.34 4.34 0 0 1 1.58-1.008c.594-.217 1.227-.302 1.857-.249zm-6.705-2.007a3.65 3.65 0 0 0 1.045-2.929l.019.018a4.35 4.35 0 0 1 .249-1.858 4.33 4.33 0 0 1 1.009-1.58 4.35 4.35 0 0 1 1.58-1.008c.594-.217 1.228-.302 1.858-.248l-.019-.018c.753.071 1.51-.093 2.167-.468a3.68 3.68 0 0 0 1.798-3.826c-.13-.745-.487-1.432-1.022-1.967s-1.222-.892-1.967-1.022-1.512-.028-2.197.294a3.68 3.68 0 0 0-1.629 1.504c-.376.657-.539 1.413-.468 2.167l-.018-.018c.053.63-.032 1.264-.249 1.857a4.35 4.35 0 0 1-1.008 1.58 4.34 4.34 0 0 1-1.58 1.008c-.594.217-1.227.302-1.857.249l.018.018a3.67 3.67 0 0 0-3.778 4.911 3.67 3.67 0 0 0 4.483 2.268 3.67 3.67 0 0 0 1.569-.932h-.002zm30.98-9.974h2.97v14.453h-2.97V41.655zm4.649 9.504a5.25 5.25 0 0 1 3.224-4.863 5.24 5.24 0 0 1 3.033-.307c1.019.2 1.956.698 2.692 1.431s1.238 1.668 1.442 2.686.102 2.075-.295 3.035a5.25 5.25 0 0 1-4.849 3.244c-.689.008-1.374-.122-2.012-.381a5.19 5.19 0 0 1-2.845-2.833 5.17 5.17 0 0 1-.389-2.011zm7.524 0a2.28 2.28 0 0 0-1.449-2.059c-.417-.163-.873-.199-1.311-.104a2.28 2.28 0 0 0-1.756 1.805 2.28 2.28 0 0 0 2.239 2.7 2.22 2.22 0 0 0 2.277-2.341zm14.81-4.95v9.4c0 3.326-2.594 4.732-5.227 4.732a5.07 5.07 0 0 1-2.683-.541 5.05 5.05 0 0 1-2.009-1.859l2.534-1.465c.204.413.53.754.933.977a2.26 2.26 0 0 0 1.324.27c.293.041.591.015.873-.076s.539-.243.754-.446a1.97 1.97 0 0 0 .487-.729 1.96 1.96 0 0 0 .123-.868V54.7a3.51 3.51 0 0 1-1.293.987 3.53 3.53 0 0 1-1.599.3 5.03 5.03 0 0 1 0-10.057 3.52 3.52 0 0 1 1.599.3c.503.224.945.562 1.293.987v-1.01l2.891.002zm-2.89 4.751a2.4 2.4 0 0 0-4.06-1.831 2.4 2.4 0 0 0 1.665 4.131 2.24 2.24 0 0 0 2.396-2.3zm4.572.199a5.25 5.25 0 0 1 3.224-4.863 5.24 5.24 0 0 1 3.033-.307 5.25 5.25 0 0 1 2.692 1.431c.736.733 1.238 1.668 1.442 2.686s.102 2.075-.295 3.035a5.25 5.25 0 0 1-4.849 3.244 5.2 5.2 0 0 1-2.013-.381 5.19 5.19 0 0 1-2.845-2.833 5.17 5.17 0 0 1-.389-2.011zm7.525 0a2.28 2.28 0 0 0-.415-1.248 2.27 2.27 0 0 0-1.035-.811c-.417-.163-.873-.199-1.311-.104a2.28 2.28 0 0 0-.775 4.125 2.28 2.28 0 0 0 1.26.38 2.22 2.22 0 0 0 1.651-.672 2.23 2.23 0 0 0 .488-.769c.108-.287.154-.594.138-.9zm4.349-7.603a1.78 1.78 0 0 1 2.13-1.747 1.78 1.78 0 0 1 1.299 2.43c-.135.326-.364.604-.657.8a1.78 1.78 0 0 1-.99.3 1.8 1.8 0 0 1-1.782-1.782zm.3 2.653h2.971v9.9h-2.975l.004-9.9zm15.797 4.95a4.97 4.97 0 0 1-.281 1.926 4.96 4.96 0 0 1-.999 1.671 4.95 4.95 0 0 1-1.563 1.159 4.99 4.99 0 0 1-1.889.47c-.551.03-1.101-.063-1.611-.272a3.72 3.72 0 0 1-1.338-.936v4.891h-2.97V46.209h2.97v.93a3.71 3.71 0 0 1 1.338-.936c.51-.209 1.06-.301 1.611-.271.654.03 1.296.19 1.889.47a4.97 4.97 0 0 1 1.564 1.159 4.98 4.98 0 0 1 .999 1.671 4.99 4.99 0 0 1 .28 1.927zm-2.97 0a2.36 2.36 0 0 0-1.495-2.134c-.432-.169-.903-.208-1.356-.11a2.35 2.35 0 0 0-1.191.658 2.36 2.36 0 0 0-.629 1.207 2.35 2.35 0 0 0 .145 1.353 2.36 2.36 0 0 0 .868 1.048 2.35 2.35 0 0 0 1.303.393 2.26 2.26 0 0 0 .932-.156c.296-.117.564-.296.786-.524a2.27 2.27 0 0 0 .504-.8 2.26 2.26 0 0 0 .133-.936zm12.138 1.979c0 2.277-1.979 3.247-4.117 3.247a4.33 4.33 0 0 1-2.49-.525 4.34 4.34 0 0 1-1.767-1.831l2.573-1.465a1.63 1.63 0 0 0 1.68 1.168c.712 0 1.069-.218 1.069-.613 0-1.09-4.871-.515-4.871-3.94 0-2.159 1.822-3.247 3.881-3.247a4.33 4.33 0 0 1 3.86 2.118l-2.534 1.366c-.111-.259-.296-.48-.532-.635s-.512-.237-.794-.236c-.515 0-.832.2-.832.554.004 1.129 4.874.376 4.874 4.039zm10.845-6.929v9.9h-2.97v-.931c-.343.411-.778.735-1.27.945a3.38 3.38 0 0 1-1.56.264c-2 0-3.7-1.425-3.7-4.1V46.21h2.97v5.642c-.025.236.002.474.079.699a1.62 1.62 0 0 0 .365.601 1.63 1.63 0 0 0 .584.391c.22.087.457.124.694.11 1.089 0 1.841-.633 1.841-2.039v-5.4l2.967-.003zm17.028 3.821v6.078h-2.97v-5.821c0-.99-.475-1.623-1.425-1.623-.99 0-1.545.693-1.545 1.861v5.583h-2.969v-5.821c0-.99-.475-1.623-1.426-1.623-.99 0-1.544.693-1.544 1.861v5.583h-2.97v-9.9h2.97v.91a3.04 3.04 0 0 1 2.653-1.187 2.95 2.95 0 0 1 2.593 1.306 3.26 3.26 0 0 1 2.871-1.306c2.273.001 3.762 1.624 3.762 4.099zm2.512-3.882c1.217 0 2.204-.987 2.204-2.204s-.987-2.204-2.204-2.204-2.204.987-2.204 2.204.987 2.204 2.204 2.204z" fill-opacity=".5"/></svg>