<svg xmlns="http://www.w3.org/2000/svg" width="196" height="100" fill="none" xmlns:v="https://vecta.io/nano"><path d="M97.693 57.374h-5.12V43.686h5.12v13.688zm-4.62-.5h4.12V44.186h-4.12v12.688zm11.744.5H99.8V43.686h10.482a6.29 6.29 0 0 1 4.214 1.188c.524.479.93 1.073 1.187 1.735a4.62 4.62 0 0 1 .292 2.082 4.86 4.86 0 0 1-1.089 3.375c-.917 1.052-2.443 1.594-4.535 1.613h-5.531l-.003 3.695zm-4.52-.5h4.02v-3.7h.251 5.771c1.949-.017 3.35-.5 4.169-1.443a4.39 4.39 0 0 0 .96-3.041c.062-.634-.024-1.273-.249-1.868a4.15 4.15 0 0 0-1.051-1.565c-1.128-.81-2.509-1.19-3.893-1.072H100.3l-.003 12.689zm8.923-6.27h-4.937v-3.726h4.97a2.11 2.11 0 0 1 1.9.727c.209.347.307.749.282 1.153.019.375-.062.749-.235 1.082-.237.286-.544.506-.891.639a2.16 2.16 0 0 1-1.089.121v.004zm-4.437-.5h4.437c.82 0 1.328-.171 1.553-.523a1.66 1.66 0 0 0 .163-.823c.022-.298-.043-.596-.186-.858l-.006-.009c-.238-.35-.711-.513-1.491-.513h-4.47v2.726zm20.317 7.472c-4.49 0-7.17-1.115-8.191-3.408-.167-.443-.28-.904-.338-1.374l-.044-.288h5.342l.035.21a1.4 1.4 0 0 0 .264.586c.211.255.915.683 3.251.683 2.808 0 2.808-.493 2.808-.758 0-.447-.325-.6-2.615-.844l-.435-.041-2.45-.227c-4.2-.38-6.075-1.685-6.075-4.23 0-2.673 3.191-4.4 8.13-4.4 4.029 0 6.625 1.062 7.714 3.159a4.87 4.87 0 0 1 .513 1.562l.035.281h-5.348l-.022-.226a.85.85 0 0 0-.216-.474c-.2-.268-.832-.711-2.794-.711-2.409 0-2.741.308-2.741.64 0 .443.761.6 3.2.861l3.212.319c3.521.382 5.092 1.655 5.092 4.129.001 2.075-1.444 4.551-8.327 4.551zm-7.989-4.57a4.53 4.53 0 0 0 .257.964c.93 2.089 3.46 3.106 7.732 3.106 3.572 0 7.831-.7 7.831-4.051 0-2.193-1.39-3.279-4.649-3.632l-3.2-.319c-2.6-.282-3.657-.432-3.657-1.358 0-.958 1.139-1.14 3.241-1.14 1.661 0 2.734.3 3.189.905a1.49 1.49 0 0 1 .276.506h4.334c-.087-.387-.225-.76-.41-1.111-1-1.919-3.443-2.891-7.271-2.891-4.635 0-7.63 1.531-7.63 3.9 0 2.26 1.681 3.376 5.619 3.732l2.453.228.438.041c2.127.224 3.065.364 3.065 1.341 0 1.052-1.213 1.258-3.308 1.258-1.938 0-3.162-.291-3.635-.864-.146-.183-.256-.391-.324-.615h-4.351zm25.816 4.553c-5.22 0-8.1-2.111-8.1-5.945v-7.928h5.052v7.928c0 1.315 1.177 2.069 3.228 2.069 1.96 0 3.177-.787 3.177-2.052v-7.945h5v8.348c.005 3.511-3.044 5.525-8.36 5.525h.003zm-7.6-13.373v7.428c0 4.738 4.758 5.445 7.6 5.445 2.938 0 7.865-.653 7.865-5.025v-7.848h-4v7.445c0 1.55-1.444 2.552-3.677 2.552-2.334 0-3.728-.96-3.728-2.569v-7.428h-4.06zm37.145 13.188h-4.768v-6.18L165 57.374h-4.159l-2.676-6.168v6.168h-4.785V43.686h6.294l3.27 7.547 3.428-7.547h6.106l-.006 13.688zm-4.268-.5h3.768V44.186h-5.282l-3.762 8.279-3.586-8.279h-5.466v12.688h3.785V48.8l3.5 8.077h3.5l3.537-8.065.006 8.062zM28.054 43.936H23.5v13.188h12.584v-3.511h-8.03v-9.677zm17.222-.3c-5.813 0-8.87 2.755-8.87 6.8 0 4.57 3.209 6.888 8.87 6.888 6.232 0 8.853-2.688 8.853-6.888 0-4.265-2.957-6.802-8.853-6.802v.002zm-.017 3.427c.396-.002.791.021 1.184.069l-5.091 5.091a4.04 4.04 0 0 1-.344-1.732c0-2.069 1.042-3.43 4.251-3.43v.002zm.017 6.888c-.381.002-.762-.02-1.141-.064l5.1-5.1c.232.536.343 1.116.325 1.7 0 2.013-.96 3.462-4.284 3.462v.002zm17.876-1.8h4.687a2.14 2.14 0 0 1-.42.89c-.972.792-2.212 1.177-3.461 1.075a4.41 4.41 0 0 1-3.477-1.159c-.474-.695-.699-1.53-.639-2.369-.077-.879.168-1.756.689-2.469.655-.74 1.764-1.059 3.394-1.059 1.037-.086 2.073.181 2.94.756a1.8 1.8 0 0 1 .588.84H71.8a4.48 4.48 0 0 0-.387-1.579c-1.041-2.117-3.461-3.377-7.576-3.377-3.579 0-5.981 1.092-7.308 2.739a6.57 6.57 0 0 0-1.277 4.116A6.93 6.93 0 0 0 56.5 54.79c1.311 1.7 3.646 2.536 6.452 2.536a8.06 8.06 0 0 0 5.241-1.478l.118 1.276h3.611v-7.812h-8.77v2.839zm19.019-8.518c-5.812 0-8.87 2.755-8.87 6.8 0 4.57 3.208 6.888 8.87 6.888 6.233 0 8.854-2.688 8.854-6.888 0-4.262-2.957-6.799-8.854-6.799v-.001zm-.016 3.427c.385-.001.77.021 1.153.066L78.237 52.2c-.233-.539-.347-1.122-.333-1.709-.004-2.069 1.042-3.43 4.251-3.43v-.001zm.016 6.888A9.43 9.43 0 0 1 81 53.88l5.117-5.118a3.95 3.95 0 0 1 .337 1.727c.002 2.011-.954 3.46-4.283 3.46v-.001z" fill="#858c97"/></svg>