<svg xmlns="http://www.w3.org/2000/svg" width="196" height="100" fill="#858c97" xmlns:v="https://vecta.io/nano"><path d="M46.447 39.65V35.4h-13.4v29.2h13.4v-4.25A10.35 10.35 0 0 1 36.097 50a10.35 10.35 0 0 1 10.35-10.35z"/><path d="M46.453 39.65v20.7a10.35 10.35 0 0 0 0-20.7zm17.867 2.6h3V56.7h-3V42.25zm4.681 9.5a5.25 5.25 0 0 1 8.973-3.701A5.25 5.25 0 0 1 74.221 57a5.18 5.18 0 0 1-5.22-5.25zm7.52 0a2.28 2.28 0 0 0-3.912-1.531 2.28 2.28 0 0 0 1.632 3.871 2.22 2.22 0 0 0 2.26-2.34h.02zm14.79-4.95v9.41c0 3.32-2.6 4.73-5.23 4.73a5 5 0 0 1-4.69-2.4l2.53-1.46a2.27 2.27 0 0 0 2.26 1.25 2 2 0 0 0 2.24-2.12v-.91a3.53 3.53 0 0 1-2.89 1.28 5 5 0 1 1 0-10 3.53 3.53 0 0 1 2.89 1.28v-1l2.89-.06zm-2.89 4.75a2.4 2.4 0 0 0-4.058-1.832 2.4 2.4 0 0 0 1.658 4.133 2.24 2.24 0 0 0 2.4-2.3zm4.579.2a5.25 5.25 0 0 1 8.965-3.708c.734.735 1.233 1.672 1.435 2.691s.096 2.075-.303 3.034-1.074 1.778-1.938 2.354a5.25 5.25 0 0 1-2.92.88A5.19 5.19 0 0 1 93 51.75zm7.52 0a2.27 2.27 0 0 0-.413-1.251 2.28 2.28 0 0 0-3.502-.276 2.28 2.28 0 0 0 1.645 3.867 2.22 2.22 0 0 0 2.124-1.444c.106-.286.153-.591.136-.896h.01zm4.347-7.6c0-.352.105-.696.3-.989a1.78 1.78 0 0 1 2.739-.27 1.78 1.78 0 0 1 .487.911c.069.345.033.703-.101 1.029a1.78 1.78 0 0 1-1.645 1.099 1.8 1.8 0 0 1-1.78-1.78zm.29 2.65h3v9.9h-3v-9.9zm15.84 4.95a5.01 5.01 0 0 1-.286 1.938 4.99 4.99 0 0 1-1.007 1.68 5.02 5.02 0 0 1-1.576 1.164 5 5 0 0 1-1.901.469 3.72 3.72 0 0 1-3-1.21v4.89h-3V46.8h3v.93a3.71 3.71 0 0 1 3-1.2 5 5 0 0 1 3.466 1.622 4.99 4.99 0 0 1 1.009 1.669c.223.617.324 1.273.295 1.929zm-3 0a2.36 2.36 0 0 0-.428-1.295c-.267-.38-.64-.674-1.072-.843a2.36 2.36 0 0 0-1.36-.108 2.37 2.37 0 0 0-1.193.662c-.324.333-.542.755-.627 1.212a2.37 2.37 0 0 0 .148 1.356c.182.428.486.792.874 1.047a2.36 2.36 0 0 0 1.308.389 2.26 2.26 0 0 0 2.219-1.484c.109-.299.153-.618.131-.936zm12.133 1.98c0 2.28-2 3.25-4.12 3.25a4.34 4.34 0 0 1-4.26-2.36l2.58-1.46a1.62 1.62 0 0 0 1.67 1.17c.71 0 1.07-.22 1.07-.62 0-1.09-4.87-.51-4.87-3.94 0-2.16 1.82-3.24 3.88-3.24a4.34 4.34 0 0 1 3.92 2.11L127.42 50a1.46 1.46 0 0 0-1.33-.87c-.52 0-.83.2-.83.55 0 1.14 4.87.39 4.87 4.05zm10.869-6.93v9.9h-3v-.93c-.341.412-.774.737-1.263.951a3.41 3.41 0 0 1-1.557.279c-2 0-3.71-1.43-3.71-4.1v-6.1h3v5.65a1.63 1.63 0 0 0 .082.699 1.65 1.65 0 0 0 .953.991 1.64 1.64 0 0 0 .695.11c1.08 0 1.84-.64 1.84-2V46.8h2.96zm17.004 3.82v6.08h-3v-5.82c0-1-.47-1.62-1.42-1.62s-1.55.69-1.55 1.86v5.58h-3v-5.82c0-1-.47-1.62-1.42-1.62s-1.551.69-1.551 1.86v5.58h-3v-9.9h3v.91a3.06 3.06 0 0 1 1.181-.926 3.07 3.07 0 0 1 1.48-.254 2.93 2.93 0 0 1 2.589 1.3 3.27 3.27 0 0 1 1.269-1.02c.502-.228 1.053-.324 1.602-.28 2.34 0 3.82 1.62 3.82 4.09zm2.517-3.88a2.2 2.2 0 0 0 0-4.4 2.2 2.2 0 0 0 0 4.4z"/></svg>