<svg xmlns="http://www.w3.org/2000/svg" width="196" height="100" fill="#fff" xmlns:v="https://vecta.io/nano"><path d="M72.867 44.07h3V56.2h-3V44.07zm4.19 7.55c0-3 1.84-4.79 4.68-4.79s4.68 1.79 4.68 4.79-1.8 4.8-4.68 4.8-4.68-1.75-4.68-4.8zm6.35 0c0-1.65-.65-2.62-1.67-2.62s-1.66 1-1.66 2.62.63 2.6 1.66 2.6 1.67-.92 1.67-2.59v-.01zm4.14 5.17h2.88a1.55 1.55 0 0 0 1.62.9c1.14 0 1.74-.62 1.74-1.52v-1.68h-.06a2.84 2.84 0 0 1-2.73 1.64c-2.19 0-3.64-1.67-3.64-4.54s1.38-4.68 3.68-4.68a2.87 2.87 0 0 1 2.76 1.76V47h3v9.1c0 2.19-1.93 3.55-4.78 3.55-2.65 0-4.3-1.19-4.47-2.85v-.01zm6.25-5.18c0-1.46-.67-2.38-1.73-2.38s-1.71.91-1.71 2.38.64 2.3 1.71 2.3 1.73-.81 1.73-2.29v-.01zm4.13 0c0-3 1.84-4.79 4.68-4.79s4.69 1.79 4.69 4.79-1.8 4.8-4.69 4.8-4.68-1.74-4.68-4.79v-.01zm6.35 0c0-1.65-.65-2.62-1.67-2.62s-1.61 1.01-1.61 2.64.63 2.6 1.65 2.6 1.63-.93 1.63-2.6v-.02zm4.16-6.79c-.008-.303.075-.601.236-.857a1.53 1.53 0 0 1 2.35-.289 1.52 1.52 0 0 1 .437.775 1.53 1.53 0 0 1-1.463 1.862 1.46 1.46 0 0 1-1.101-.394 1.47 1.47 0 0 1-.342-.49c-.079-.185-.119-.385-.117-.586v-.02zm0 2.2h3v9.18h-3v-9.18zm13.89 4.59c0 3-1.33 4.71-3.61 4.71a2.86 2.86 0 0 1-1.667-.409c-.501-.304-.896-.755-1.133-1.291h-.06v4.52h-3V47h3v1.64h.06a2.87 2.87 0 0 1 2.78-1.77c2.3.04 3.67 1.76 3.67 4.76l-.04-.02zm-3 0c0-1.46-.67-2.39-1.72-2.39s-1.72.94-1.73 2.39.68 2.38 1.73 2.38 1.72-.91 1.72-2.36v-.02zm8.15-4.8c2.49 0 4 1.18 4.07 3.07h-2.73c0-.65-.54-1.06-1.37-1.06s-1.2.32-1.2.79.33.62 1 .76l1.92.39c1.83.39 2.61 1.13 2.61 2.52 0 1.9-1.73 3.12-4.28 3.12s-4.22-1.22-4.35-3.09h2.89c.09.68.63 1.08 1.51 1.08s1.28-.29 1.28-.77-.28-.58-1-.73l-1.73-.37c-1.79-.37-2.73-1.32-2.73-2.72.02-1.8 1.63-2.97 4.11-2.97v-.02zm14.31 9.37h-2.89v-1.71h-.06a2.61 2.61 0 0 1-2.66 1.91c-.456.026-.912-.046-1.337-.212a3.18 3.18 0 0 1-1.846-1.896c-.155-.43-.215-.888-.177-1.342V47h3v5.24c0 1.09.56 1.67 1.49 1.67a1.55 1.55 0 0 0 .633-.135 1.54 1.54 0 0 0 .834-.95 1.53 1.53 0 0 0 .053-.645V47h3l-.04 9.18zm1.45-9.18h2.9v1.77h.06a2.66 2.66 0 0 1 2.61-1.94 2.39 2.39 0 0 1 2.55 2h.06c.181-.599.557-1.121 1.068-1.483a2.82 2.82 0 0 1 1.752-.517 2.91 2.91 0 0 1 2.195.891c.283.294.501.645.64 1.029a2.9 2.9 0 0 1 .165 1.2v6.25h-3v-5.45c0-1-.45-1.46-1.29-1.46a1.31 1.31 0 0 0-.992.442c-.124.14-.217.306-.272.485s-.07.368-.046.554v5.43h-2.85v-5.49c0-.92-.45-1.42-1.27-1.42a1.34 1.34 0 0 0-.549.118 1.33 1.33 0 0 0-.453.333 1.36 1.36 0 0 0-.277.489 1.34 1.34 0 0 0-.051.56v5.41h-3l.05-9.2zm-78.759-2.38a13.25 13.25 0 0 0-2-3.22 13.53 13.53 0 0 0-20.206-.846 13.53 13.53 0 0 0 1.525 20.166 13.09 13.09 0 0 0 3.2 1.83 13.39 13.39 0 0 0 5.07 1A13.56 13.56 0 0 0 65.598 50a13.39 13.39 0 0 0-1.12-5.38zm-12.42-5.43a10.71 10.71 0 0 1 4.52 1 4.39 4.39 0 0 1-1.08.31 5.73 5.73 0 0 0-4.85 4.85 3 3 0 0 1-2.71 2.65 5.73 5.73 0 0 0-4.85 4.85 2.91 2.91 0 0 1-.79 1.74 10.8 10.8 0 0 1 9.77-15.42l-.01.02zM43.788 57l.36-.33a5.48 5.48 0 0 0 1.62-3.23 2.92 2.92 0 0 1 .87-1.82 2.83 2.83 0 0 1 1.81-.86 5.73 5.73 0 0 0 4.85-4.85 2.92 2.92 0 0 1 .87-1.91 2.87 2.87 0 0 1 1.83-.83 5.48 5.48 0 0 0 3-1.43 10.51 10.51 0 0 1 2.36 2.78.86.86 0 0 1-.13.14 2.87 2.87 0 0 1-1.81.88 5.71 5.71 0 0 0-4.85 4.85 3 3 0 0 1-2.69 2.68 5.76 5.76 0 0 0-4.88 4.85 3.14 3.14 0 0 1-.49 1.37 10.89 10.89 0 0 1-2.72-2.29zm8.27 3.86a10.84 10.84 0 0 1-3-.42 5.78 5.78 0 0 0 .64-2 3 3 0 0 1 2.68-2.68 5.73 5.73 0 0 0 4.86-4.85 3 3 0 0 1 2.68-2.68 5.71 5.71 0 0 0 2.56-1 10.82 10.82 0 0 1-10.42 13.58v.05z" fill-opacity=".5"/></svg>