<svg xmlns="http://www.w3.org/2000/svg" width="196" height="100" fill="#fff" xmlns:v="https://vecta.io/nano"><path d="M62.519 45.25c.36 0 .48.13.48.48v7.92h4.07c.35 0 .48.13.48.48v.7c0 .35-.13.48-.48.48h-5.36c-.35 0-.49-.13-.49-.48v-9.1c0-.35.14-.48.49-.48h.81zm8.583 3.49c0-2.31 1.46-3.7 4-3.7s4 1.39 4 3.7v3.08c0 2.31-1.47 3.7-4 3.7s-4-1.39-4-3.7v-3.08zm6.32 0c0-1.3-.81-2-2.27-2s-2.26.71-2.26 2v3.1c0 1.31.8 2 2.26 2s2.27-.72 2.27-2v-3.1zM91.01 49.8c.39 0 .48.13.48.48v1.9a3 3 0 0 1-1.06 2.36 4.36 4.36 0 0 1-3 .94c-2.59 0-4-1.39-4-3.7v-3.1c0-2.28 1.46-3.68 4-3.68 2 0 3.3.79 3.85 2.37a.43.43 0 0 1-.3.62l-.78.27c-.34.12-.48.05-.6-.3a2.06 2.06 0 0 0-2.17-1.3c-1.47 0-2.27.71-2.27 2v3.18c0 1.31.81 2 2.27 2s2.36-.67 2.36-1.65v-.74h-2.17c-.36 0-.49-.14-.49-.49v-.68c0-.35.13-.48.49-.48h3.39zm4.607-1.06c0-2.31 1.46-3.7 4-3.7s4 1.39 4 3.7v3.08c0 2.31-1.47 3.7-4 3.7s-4-1.39-4-3.7v-3.08zm6.31 0c0-1.3-.81-2-2.26-2s-2.27.71-2.27 2v3.1c0 1.31.81 2 2.27 2s2.26-.72 2.26-2v-3.1zm6.401-3.2c0-.22.07-.29.29-.29h.46c.22 0 .27.07.27.29v9.48c0 .22 0 .29-.27.29h-.46c-.22 0-.29-.07-.29-.29v-9.48zm10.129-.29a3.14 3.14 0 0 1 0 6.28h-3v3.49c0 .22-.05.29-.26.29h-.469c-.21 0-.29-.07-.29-.29v-9.48c0-.22.08-.29.29-.29h3.729zm-.089 5.29c.286 0 .569-.056.834-.166a2.18 2.18 0 0 0 .707-.473c.202-.202.363-.443.473-.707a2.19 2.19 0 0 0 0-1.669c-.11-.264-.271-.505-.473-.707a2.18 2.18 0 0 0-.707-.473 2.19 2.19 0 0 0-.834-.166h-3v4.36h3zm11.04-5.49c.772-.085 1.551.081 2.222.474s1.195.991 1.498 1.706c.08.16 0 .29-.16.37l-.44.2c-.18.07-.25.06-.36-.13a2.72 2.72 0 0 0-2.76-1.64c-1.69 0-2.61.67-2.61 1.87-.009.367.114.725.347 1.008a1.52 1.52 0 0 0 .923.532 6.81 6.81 0 0 0 1.66.32 6.87 6.87 0 0 1 2 .41 2.25 2.25 0 0 1 1.56 2.37c0 1.87-1.36 3-3.86 3a3.61 3.61 0 0 1-2.344-.538c-.697-.442-1.221-1.11-1.486-1.892-.017-.036-.027-.075-.028-.114s.008-.079.024-.116.04-.069.07-.094a.27.27 0 0 1 .104-.056l.44-.16c.035-.014.072-.021.11-.02s.074.01.108.026a.26.26 0 0 1 .088.067c.025.028.043.061.054.097.224.565.622 1.044 1.136 1.368a2.86 2.86 0 0 0 1.724.432c1.89 0 2.82-.66 2.82-2a1.49 1.49 0 0 0-1.17-1.53 7 7 0 0 0-1.59-.28l-1.08-.14c-.338-.072-.671-.162-1-.27a2.63 2.63 0 0 1-.89-.47 2.44 2.44 0 0 1-.612-.866 2.43 2.43 0 0 1-.188-1.044c.07-1.75 1.38-2.89 3.69-2.89zm9.27 6.84c.042.707.353 1.371.869 1.857a2.78 2.78 0 0 0 4.681-1.857v-6.35c0-.22.07-.29.29-.29h.46c.22 0 .29.07.29.29v6.34c0 2.27-1.34 3.64-3.81 3.64s-3.81-1.37-3.81-3.64v-6.34c0-.22.07-.29.28-.29h.47c.21 0 .28.07.28.29v6.35zm20.394-6.64c.22 0 .29.07.29.29v9.48c0 .22-.07.29-.29.29h-.42c-.21 0-.28-.07-.28-.29v-5.77a18.65 18.65 0 0 1 .17-2.51h-.06a17.98 17.98 0 0 1-1.09 2.21l-2.15 3.79c-.026.066-.072.122-.131.161a.35.35 0 0 1-.199.059h-.28c-.072 0-.142-.02-.203-.059a.37.37 0 0 1-.137-.161l-2.18-3.83a16.14 16.14 0 0 1-1-2.18h-.06c.102.84.156 1.684.16 2.53v5.76c0 .22-.07.29-.29.29h-.39c-.22 0-.29-.07-.29-.29v-9.48c0-.22.07-.29.29-.29h.36a.4.4 0 0 1 .4.23l3.5 6.22 3.48-6.16c.11-.21.17-.24.39-.24l.41-.05zM44.73 53.79v7.23c0 .277-.11.543-.306.739s-.462.306-.739.306-.543-.11-.739-.306-.306-.462-.306-.739V53.8a1.77 1.77 0 0 0 1 .34 1.72 1.72 0 0 0 1.09-.35zm8.9-2.09a1 1 0 0 0-1 1v1.26c0 .277.11.543.306.739s.462.306.739.306.543-.11.739-.306.306-.462.306-.739v-1.21a1 1 0 0 0-1.09-1.05zm-13.26 4.83a1.8 1.8 0 0 1-1-.34v7.25a1.05 1.05 0 0 0 2.1 0v-7.2a1.83 1.83 0 0 1-1.1.29zm10-7a1 1 0 0 0-1.05 1v5.57a1.05 1.05 0 1 0 2.1 0v-5.5a1 1 0 0 0-1.1-1.051l.05-.02zm-3.32 2.14a1.83 1.83 0 0 1-1.05-.34v7.27a1.05 1.05 0 1 0 2.1 0v-7.26a1.77 1.77 0 0 1-1.1.35l.05-.02zm-8.95 5.57V36.93a.94.94 0 0 0-.94-.93h-.22a.94.94 0 0 0-.94.93v20.31a.94.94 0 0 0 .94.94h.22a.94.94 0 0 0 .94-.94zm2.38-1.48h-.22a.94.94 0 0 1-.94-.94V39.35a.94.94 0 0 1 .94-.93h.22a.94.94 0 0 1 .94.93v15.49a.94.94 0 0 1-.94.94v-.02zm3.31-2.38h-.23a.93.93 0 0 1-.93-.93v-10.7a.93.93 0 0 1 .93-.94h.23a.94.94 0 0 1 .93.94v10.7a.93.93 0 0 1-.93.93zm3.31-2.45h-.21a.94.94 0 0 1-.94-.93v-5.76a.94.94 0 0 1 .94-1h.22a.94.94 0 0 1 .94.94v5.8a.94.94 0 0 1-.94.95h-.01zm3.32-2.15h-.22a.94.94 0 0 1-.94-.94v-1.49a.94.94 0 0 1 .94-.93h.22a.94.94 0 0 1 .94.93v1.49a.94.94 0 0 1-.93.94h-.01z" fill-opacity=".5"/></svg>