<svg xmlns="http://www.w3.org/2000/svg" width="56" height="56" fill="none" xmlns:v="https://vecta.io/nano"><path d="M0 28C0 12.536 12.536 0 28 0s28 12.536 28 28-12.536 28-28 28S0 43.464 0 28z" fill="#4a5fef"/><path fill-rule="evenodd" d="M45.734 18.686l-7.024 5.557-10.243-6.248 7.108-5.861 10.158 6.553zm-24.376-6.553l7.108 5.862-10.242 6.248h0 0l-7.024-5.557 10.158-6.553zm7.108 18.359l-7.108 5.861-10.158-6.553 7.024-5.558h0 0l10.242 6.249h-.001 0zm0 0h.001 0l10.242-6.248 7.024 5.557-10.158 6.553-7.108-5.861zm7.15 7.105l-7.129-5.845-7.129 5.845-3.051-1.968v2.206l10.18 6.031 10.18-6.031V35.63l-3.051 1.968z" fill="#fff"/></svg>