<svg xmlns="http://www.w3.org/2000/svg" width="56" height="56" fill="none" xmlns:v="https://vecta.io/nano"><path fill-rule="evenodd" d="M50.062 9.744c-.416-2.235-1.739-3.336-2.936-3.769-1.291-.468-3.908-.954-7.197-1.343-2.646-.313-5.756-.288-7.635-.23-.225-1.55-1.309-2.967-2.521-3.457-3.229-1.305-8.218-.99-9.499-.629-1.018.286-2.145.871-2.772 1.773-.421.603-.693 1.374-.695 2.453l.032 3.325.031 2.34h0l.001.094a2.07 2.07 0 0 1-2.063 2.071H9.574c-1.117 0-1.97.188-2.622.486s-1.115.699-1.466 1.174c-.699.942-.821 2.106-.818 3.292 0 0 .01.97.243 2.847.193 1.453 1.762 11.6 3.253 14.686.578 1.201.963 1.701 2.098 2.23 2.529 1.087 8.307 2.297 11.014 2.643.448.058.868.126 1.262.189h0c1.984.321 3.305.535 4.148-1.24.003-.005.203-.529.476-1.298.878-2.67 1-5.039 1-6.754 0-.174.255-.182.255 0l-.002.229h0c-.013 1.448-.049 5.328 2.994 6.413 1.272.453 3.911.857 6.593 1.172 2.425.28 4.185 1.238 4.185 7.484 0 3.8-.795 4.321-4.951 4.321h-.309c-3.139.003-4.344.004-4.344-2.6 0-1.987 1.791-1.965 3.31-1.947l.415.003c.446 0 .407-.209.318-.699-.053-.288-.123-.673-.123-1.17 0-.565.149-1.029.261-1.377.152-.474.236-.734-.216-.745-5.483-.151-8.709-.006-8.709 6.878 0 6.25 2.382 7.41 10.164 7.41 6.101 0 8.252-.201 10.771-8.049.499-1.549 1.704-6.277 2.434-14.215.461-5.019-.435-20.169-1.146-23.992zM39.426 26.49c-.754-.027-1.479.021-2.155.13.19-1.543.825-3.436 3.071-3.357 2.487.086 2.836 2.446 2.845 4.045-1.049-.469-2.347-.769-3.761-.819zM9.331 10.848h-.003c-1.286 0-2.36.22-3.245.621-.04.018-.323.158-.533.263l-.006.003c.006-.022.018-.043.038-.06L15.752 1.549c.02-.02.04-.03.06-.033l-.179.338c-.375.752-.59 1.649-.59 2.677v.015l.063 5.74v.019c-.001.299-.242.544-.542.544H9.331z" fill="#20c05c"/></svg>