<svg xmlns="http://www.w3.org/2000/svg" width="56" height="56" fill="none" xmlns:v="https://vecta.io/nano"><path d="M52.43 49.538H3.503c-1.897 0-3.495-1.548-3.495-3.495V10.696c0-1.897 1.548-3.495 3.495-3.495H52.43c1.897 0 3.495 1.548 3.495 3.495v35.347a3.47 3.47 0 0 1-3.495 3.495z" fill="#e3e3e3"/><path opacity=".1" d="M6.996 49.538l20.919-16.825.15-.899L6.497 16.288l-.05 32.502.549.749z" fill="#231f20"/><path d="M3.503 49.538a3.47 3.47 0 0 1-3.495-3.495V10.646c0-1.947 1.548-2.297 3.495-2.297s3.495.399 3.495 2.297v38.892H3.503z" fill="#d54b3d"/><path d="M3.503 8.848c2.496 0 2.996.749 2.996 1.797v38.393H3.503c-1.648 0-2.996-1.348-2.996-2.995V10.646c0-1.098.499-1.797 2.996-1.797zm0-.499c-1.947 0-3.495.399-3.495 2.297v35.397a3.47 3.47 0 0 0 3.495 3.495h3.495V10.646c0-1.947-1.548-2.297-3.495-2.297z" fill="#d72b27"/><path d="M52.428 49.538h-3.495V10.546c0-1.947 1.548-2.197 3.495-2.197s3.495.25 3.495 2.197v35.547c0 1.897-1.548 3.445-3.495 3.445z" fill="#d54b3d"/><path d="M52.428 8.848c2.247 0 2.996.449 2.996 1.698v35.547c0 1.648-1.348 2.996-2.995 2.996h-2.996V10.546c0-1.298.749-1.698 2.996-1.698zm0-.499c-1.947 0-3.495.25-3.495 2.197v39.042h3.495a3.47 3.47 0 0 0 3.495-3.495V10.546c0-1.947-1.548-2.197-3.495-2.197z" fill="#d72b27"/><path d="M37.453 49.534L.301 12.094l1.954.795 25.861 18.622L55.925 11.12v34.97c0 1.897-1.548 3.445-3.495 3.445H37.453z" fill="url(#A)"/><path d="M27.916 32.711L1.505 13.539C-.043 12.391-.492 10.194.656 8.647s3.395-1.897 4.993-.749l22.317 16.226L50.432 7.698c1.548-1.148 3.744-.799 4.893.799 1.148 1.548.799 3.744-.799 4.893l-26.61 19.321z" fill="#d54b3d"/><path d="M52.429 7.499c.949 0 1.847.449 2.446 1.248.949 1.348.649 3.195-.649 4.194L27.916 32.113 1.805 13.141c-1.348-.999-1.697-2.896-.749-4.194.549-.749 1.498-1.248 2.496-1.248.649 0 1.298.2 1.797.599l22.267 16.176.3.2.299-.2L50.632 8.048c.549-.349 1.148-.549 1.797-.549zm0-.499c-.699 0-1.448.2-2.047.649L27.916 24.075 5.599 7.849C5 7.399 4.251 7.2 3.502 7.2c-1.098 0-2.197.499-2.896 1.448-1.098 1.548-.649 3.744.899 4.893l26.411 19.221 26.56-19.371c1.548-1.148 1.897-3.295.799-4.893A3.42 3.42 0 0 0 52.429 7z" fill="#d72b27"/><defs><linearGradient id="A" x1=".303" y1="30.326" x2="55.943" y2="30.326" gradientUnits="userSpaceOnUse"><stop stop-opacity=".1"/><stop offset="1" stop-opacity=".2"/></linearGradient></defs></svg>