<svg xmlns="http://www.w3.org/2000/svg" width="56" height="56" fill="none" xmlns:v="https://vecta.io/nano"><path d="M28 10.827c5.258 0 8.804 2.271 10.827 4.169l7.902-7.716C41.875 2.769 35.56 0 28 0 17.049 0 7.591 6.285 2.986 15.432l9.053 7.031c2.271-6.751 8.555-11.636 15.96-11.636z" fill="#ea4335"/><path d="M54.88 28.625c0-2.302-.187-3.982-.591-5.724H28v10.391h15.431c-.311 2.582-1.991 6.471-5.724 9.084l8.836 6.845c5.289-4.885 8.338-12.071 8.338-20.596z" fill="#4285f4"/><path d="M12.071 33.541c-.591-1.742-.933-3.609-.933-5.538s.342-3.796.902-5.538l-9.053-7.031C1.089 19.23 0 23.492 0 28.003s1.089 8.773 2.987 12.569l9.084-7.031z" fill="#fbbc05"/><path d="M28 56.001c7.56 0 13.907-2.489 18.542-6.782l-8.836-6.845c-2.364 1.649-5.538 2.8-9.707 2.8-7.404 0-13.689-4.884-15.929-11.635L3.018 40.57C7.622 49.716 17.049 56.001 28 56.001z" fill="#34a853"/></svg>