<svg xmlns="http://www.w3.org/2000/svg" width="56" height="56" fill="none" xmlns:v="https://vecta.io/nano"><g fill-rule="evenodd"><path d="M53.232 40.018l-.005.018c-.17.621-4.365 15.969-20.122 15.965-13.839-.004-20.399-12.174-20.399-12.174-1.009.057-1.982-.105-2.879-.439-4.06-1.509-6.008-6.209-4.607-10.151l-2.232-1.725C-5.656 24.849 18.831-5.637 27.49 1.261l2.067 1.682C32.667 1.033 35.746.001 38.249 0c1.777 0 3.264.52 4.265 1.617 2.248 2.462 1.44 7.163-1.629 11.923.66.634 1.207 1.496 1.598 2.351.976.762 1.608 1.919 1.922 3.519.194.988.303 2.208.399 3.285.077.862.145 1.631.243 2.115l.437.198.21.096c.11.052.219.107.53.264l.18.091c.92.465 2.04 1.032 3.279 2.237 2.201.558 3.041 2.925 1.754 4.541a19.27 19.27 0 0 1-.351.415c.006.016.021.045.043.089h0c.122.242.464.921.722 2.114.912.218 1.639.786 2.02 1.61.659 1.612-.638 3.552-.638 3.552zm-6.346 11.967v.663h.251v-.663h.257v-.209h-.761v.209h.253zm.583.663v-.873h.358l.157.502.155-.502h.358v.873h-.229v-.632l-.187.632h-.195l-.187-.63v.63h-.229z" fill="#5b453e"/><path d="M51.825 39.081c-.199.744-1.172 4.389-5.07 7.463-5.414 4.27-12.527 3.838-15.214 1.445-1.435-1.348-2.056-3.275-2.056-3.275s-.162 1.086-.19 1.513c-1.083-1.848-.991-4.106-.991-4.106s-.578 1.081-.842 1.686c-.797-2.035-.385-4.137-.385-4.137l-.63.943s-.296-2.304.43-4.223c.776-2.051 2.279-3.54 2.577-3.726-1.141-.364-2.456-1.408-2.458-1.41s.523.035.886-.049c0 0-2.307-1.659-2.711-4.197.334.415 1.036.883 1.036.883-.227-.664-.364-2.142-.152-3.596l.001-.002c.436-2.778 2.718-4.588 5.301-4.565.494.004.958.027 1.401.048 2.026.097 3.607.173 5.499-1.579l.079-.073c.452-.42.836-.776 1.483-.921a.82.82 0 0 0 .049-.013c.093-.027.268-.078.57-.078.372 0 .73.084 1.058.28 1.251.747 1.52 2.696 1.655 4.125.304 3.24.347 4.147.822 4.612.303.296.78.413 1.611.838l.299.151c.944.473 1.993 1 3.17 2.265.007.007.016.011.026.011 1.099.026 1.666.895 1.159 1.528-3.689 4.422-8.842 6.54-14.584 6.717l-.701.017-.073.002c-2.319.071-3.074 3.082-1.619 4.894.92 1.145 2.689 1.521 4.145 1.527l.021-.007c6.278.128 12.586-4.332 13.676-6.791l.074-.174s-.058.068-.128.126c-.003.002-.02.018-.049.044-.595.546-6.434 5.9-13.623 5.697 0 0-.812-.017-1.578-.196-1.009-.236-1.775-.68-2.069-1.69-.087-.185-.137-.825-.021-1.255.316-1.06.844-1.069 1.661-1.084l.387-.01h0c3.719-.124 6.72-1.063 8.969-2.135 2.398-1.143 4.226-2.616 4.885-3.359.854 1.444.849 3.297.849 3.297s.335-.117.779-.117c1.394 0 1.681 1.252.626 2.522-.007.013-.019.058-.038.133zm-34.653-6.805s-.174.721-.518 1.6c-.331-2.812-1.506-3.407-1.506-3.407a5.26 5.26 0 0 0-2.226-.493c-3.055 0-5.532 2.617-5.532 5.846s2.477 5.845 5.532 5.845c3.441 0 6.053-3.288 5.445-6.881 0 0-.351.822-.678 1.259.079-1.286-.123-2.558-.517-3.768z" fill="#f2d8b4"/></g><path d="M5.64 31.111c-.022-.006-2.101-1.486-2.397-1.973-1.749-2.863 1.294-8.744 3.46-12.087C12.056 8.789 20.965 2.268 25.012 3.2l4.155 2.08c-1.614.92-3.174 2.051-4.109 2.803l-.884.719s-2.582 1.686-3.866 2.749C15.16 15.812 10.091 22.407 8.211 28.774a7.07 7.07 0 0 0-2.57 2.337z" fill="#207eac"/><path d="M26.057 3.207c-4.125-1.01-13.206 6.064-18.662 15.027l.017.01 4.347 3.533c4.773-7.822 10.773-11.855 10.942-11.973l-.689-4.787 1.291-.638 2.592.866-.198-.894.36-1.144z" fill="#4fb1d3"/><path d="M32.279 4.371l-4.721 3.162-.33.246-4.186-3.257-.096-.616 1.456-.664 2.921.901.049-1.727.134-.392 1.279-.467c.002.001 3.491 2.81 3.496 2.814z" fill="#facd55"/><g fill="#131b23"><path d="M37.47 1.558c-2.667 0-5.661 1.479-7.958 2.933l-.955.622-1.202-1.062.437 1.599-.484.357-2.483-.799 1.643 1.45-.988.823-3.94-3.43.209 1.537 2.864 2.66-3.795 2.933C15.765 15.728 10.79 22.765 8.945 29.558l.105-.062c.014-.008.029-.015.043-.023a6.13 6.13 0 0 1 .154-.084l.099-.052c.053-.027.106-.052.158-.076l.094-.043c.057-.025.114-.048.172-.071l.079-.032c.083-.031.166-.06.249-.086 1.254-.395 2.961-.648 4.958.246 1.003-2.668 2.202-5.382 4.09-7.99 1.531-2.115 3.003-4.003 4.77-5.041 3.345-3.314 12.362-6.827 15.251-3.782.683-1.178 1.276-2.293 1.764-3.691 1.205-3.362 1.227-7.211-3.461-7.211z"/><path d="M27.612 4.666l-.98-1.556-.576.775.345.609 1.211.171z"/></g><g fill-rule="evenodd"><path d="M36.672 1.558c-1.464.154-2.991.686-4.415 1.361-4.808 2.316-8.165 5.731-8.567 6.141l-.035.036a45.32 45.32 0 0 0-1.192 1.22 54.61 54.61 0 0 0-3.399 3.987c-1.902 2.456-2.693 3.602-3.895 5.937 0 0 .008-.01.024-.03.434-.534 6.603-8.118 8.181-9.725 3.004-3.06 7.921-6.467 7.972-6.498 2.1-1.319 3.872-2.093 5.326-2.429zm11.891 30.797c.828 1.431.823 3.268.823 3.268a10.84 10.84 0 0 1-.031 1.226c-1.678 1.455-6.683 5.32-12.645 5.148 0 0-.787-.017-1.529-.194-.972-.232-1.712-.67-2-1.659l-.005-.016-.001-.001c-.005-.01-.041-.099-.065-.291l-.001-.008-.001-.007c-.005-.048-.01-.099-.013-.152l-.001-.019v-.006a3.57 3.57 0 0 1-.002-.292 2.8 2.8 0 0 1 .007-.116h0l.001-.012c.01-.119.028-.236.055-.34.306-1.051.818-1.06 1.61-1.074l.375-.01h0c3.603-.123 6.511-1.054 8.69-2.116 2.324-1.133 4.095-2.592 4.733-3.329z" fill="#fffffe"/><path d="M42.404 23.116c.261 2.787.324 3.448.876 3.841a.31.31 0 0 0 .046.038l-.997.303c-.542-.735-1.295-1.423-2.843-1.311-2.051.176-3.681 2.01-3.386 3.831l-2.727 1.521c-1.393.149-3.09.63-4.587 1.884-1.128-.355-2.428-1.374-2.43-1.376s.517.034.876-.048l-.07-.052-.101-.079c-.537-.431-2.177-1.9-2.511-3.965.33.405 1.024.862 1.024.862l-.024-.075c.002-.012-.095-.286-.162-.815l-.045-.473-.016-.356c.085-1.044.351-1.921 1.014-2.751.967-1.21 2.294-1.701 3.825-1.678.421.005.847.049 1.291.094l1.34.104c1.315.041 2.581-.176 3.914-.773 1.317-.622 2.061-1.339 2.841-2.454.275-.3.759-.74 1.187-.722.284 0 .481.139.621.261.678.907.866 2.319.971 3.417l.073.772zm-4.006 5.375c.316-1.011 1.752-1.497 2.619-.886-.387.223-.507.87-.27 1.246a1.93 1.93 0 0 0-1.347.522c.033-.481-.499-.857-1.001-.882zm5.235 19.73c.775-.404 1.534-.885 2.262-1.452 3.854-3 4.817-6.557 5.014-7.284l.038-.13c-1.784 2.285-4.118 4.102-6.615 5.359-2.053 1.035-3.59 1.394-3.59 1.394s1.1 1.438 2.891 2.112zm-11.709-8.284c.273-1.007 1.044-1.804 2.226-1.84l.073-.002.692-.016c5.679-.173 10.774-2.24 14.422-6.556.502-.617-.059-1.465-1.146-1.491h-.008-.007c-.094.098-.149.239-.22.422-.068.176-.152.391-.301.648-1.11 1.91-2.645 2.783-4.691 3.797-3.327 1.641-5.805 2.007-7.593 2.271-1.585.234-2.628.388-3.242 1.279-.38.558-.387 1.181-.204 1.488zm12.093-.715c-.016 0-.032.004-.058.009-.081.019-.261.077-.52.161-1.727.558-7.002 2.264-10.505 1.174-.018.219-.012.678.078.877v.001c.61.121 1.381.199 2.277.199 5.304 0 9.127-2.389 8.728-2.421zm-29.67-.492l-.005.003c-2.493.182-4.797-2.974-3.437-4.714.186-.139.346-.219.409-.251l.024-.012c.036-.019.074-.035.112-.051l.083-.036c.027-.011.059-.021.093-.03l.159-.046c.024-.007.049-.012.161-.035h0c1.211-.254 2.065.277 2.436.798.171.24.208.421.235.552.009.042.016.08.027.112v.002c-.29-.401-.664-.488-.664-.488-.316-.124-.922.066-.962.742a1.1 1.1 0 0 0 .285.808l.002.002.025.027c.008.008.016.017.024.025.184.189.403.327.612.458.359.225.688.433.764.85.077.46-.059.94-.382 1.284z" fill="#e2b986"/><path d="M39.007 12.151c-2.006-1.568-7.861-1.124-13.723 2.739-2.684 1.769-4.652 3.704-6.169 5.714 0 0 2.342-4.527 7.487-7.521-.359-.059-1.202.044-1.444.073l-.041.005c.935-.818 2.671-1.363 3.871-1.611-.351-.227-1.188-.285-1.603-.296-.113-.003-.121-.003-.235.002l-.031.001c1.129-.642 3.221-1.018 5.124-.678-.239-.323-.781-.558-1.161-.673-.033-.01-.182-.048-.182-.048l.143-.034c1.146-.224 2.485.018 3.544.45-.12-.284-.414-.614-.635-.824-.023-.021-.155-.118-.155-.118a8.36 8.36 0 0 1 2.969 1.283c-.109-.213-.377-.572-.563-.769 1.059.308 2.247 1.076 2.756 2.176.012.023.041.105.048.123l.001.003h0zm-4.698 14.688c.114.17.145.298.099.352-.083.099-.358-.011-.766-.175h0l-.141-.056c-1.244-.472-2.16-.544-3.782.081l-.13.05c-.342.134-.587.229-.711.21-.227-.034-.007-.458.49-.869 1-.811 2.374-1.063 3.548-.619.514.192 1.091.576 1.393 1.025zm-.248 1.294c-.341-.265-.969-.442-1.621-.33-.102.016-.198.044-.292.071l-.096.027a.88.88 0 0 0-.132.046c-.27.116-.503.24-.729.461-.26.255-.334.492-.258.551.064.052.209-.008.429-.1h0l.102-.043c.931-.393 1.59-.404 2.217-.36l.045.003c.278.019.463.032.507-.048.033-.057-.027-.165-.173-.278zm-20.043 4.854h0c-.509-.417-1.23-.615-2.067-.434h0l-.015.003-.145.033-.024.007h0 0c-.022.007-.057.018-.134.04-.034.01-.066.02-.093.031s-.055.025-.082.036c-.039.017-.076.033-.112.052a1.04 1.04 0 0 1-.023.012c-.107.055-.498.255-.821.657-.173.218-.305.46-.402.709a3.71 3.71 0 0 0-.222 1.45c.026.662.199 1.059.264 1.207l.018.043c.165.361-.222.436-.575.047l-.001-.001c-.283-.304-.464-.768-.553-1.18h0c-.052-.245-.086-.519-.086-.815 0-.343.045-.714.159-1.098h0 0c.307-1.009.996-1.772 2.043-2.187.067-.026.141-.046.21-.065l.09-.025h-.001c.176-.053.808-.183 1.45-.082.371.059.709.184 1.001.349s.535.369.721.588l.001.001c.303.351.532.846.492 1.286v.001c-.015.183-.095.446-.257.514-.06.025-.121.012-.163-.031-.047-.047-.061-.115-.079-.206-.027-.134-.063-.318-.234-.564a1.84 1.84 0 0 0-.357-.381h0zm-.178 1.645a.51.51 0 0 1-.201-.295c-.047-.223-.023-.353.165-.487.041-.028.079-.053.113-.074.087-.055.147-.093.148-.138.007-.12-.476-.243-.814.095-.28.304-.369.937.078 1.43.188.207.416.353.633.493.357.23.685.442.76.869a1.33 1.33 0 0 1 .019.313c.002.11-.031.263-.039.302l-.002.009c-.15.664-.769 1.297-1.79 1.135l-.044-.007c-.163-.025-.269-.041-.302.008-.079.111.359.621 1.16.602.784-.017 1.561-.614 1.811-1.511l.002-.007c.012-.043.075-.276.081-.487a2.09 2.09 0 0 0-.029-.524c-.152-.86-.819-1.21-1.321-1.473-.17-.089-.321-.169-.427-.255zm26.638-7.529c.066-.432.371-.742.681-.693s.507.439.441.871-.371.742-.681.693-.507-.439-.441-.871zm-2.723.567c-.17.316.037.765.463 1.002s.909.174 1.08-.142-.037-.765-.463-1.002-.909-.174-1.08.142z" fill="#916d53"/></g><path d="M38.501 24.622c-.006-.428.044-1.135.341-1.266.509-.239 1.183 1.524 1.214 3.089-.402-.272-.874-.388-1.36-.331a7.01 7.01 0 0 1-.195-1.492z" fill="#5b453e"/></svg>