<svg xmlns="http://www.w3.org/2000/svg" width="56" height="57" fill="none" xmlns:v="https://vecta.io/nano"><path d="M11.766 35.389a5.9 5.9 0 0 1-5.883 5.883A5.9 5.9 0 0 1 0 35.389a5.9 5.9 0 0 1 5.883-5.883h5.883v5.883zm2.965.001a5.9 5.9 0 0 1 5.883-5.883 5.9 5.9 0 0 1 5.883 5.883v14.73a5.9 5.9 0 0 1-5.883 5.883 5.9 5.9 0 0 1-5.883-5.883V35.39z" fill="#e01e5a"/><path d="M20.613 11.766a5.9 5.9 0 0 1-5.883-5.883A5.9 5.9 0 0 1 20.613.001a5.9 5.9 0 0 1 5.883 5.883v5.883h-5.883zm-.001 2.966a5.9 5.9 0 0 1 5.883 5.883 5.9 5.9 0 0 1-5.883 5.883H5.883A5.9 5.9 0 0 1 0 20.615a5.9 5.9 0 0 1 5.883-5.883h14.73z" fill="#36c5f0"/><path d="M44.234 20.615a5.9 5.9 0 0 1 5.883-5.883A5.9 5.9 0 0 1 56 20.615a5.9 5.9 0 0 1-5.883 5.883h-5.883v-5.883zm-2.963-.002a5.9 5.9 0 0 1-5.883 5.883 5.9 5.9 0 0 1-5.883-5.883V5.884A5.9 5.9 0 0 1 35.389.001a5.9 5.9 0 0 1 5.883 5.883v14.73z" fill="#2eb67d"/><path d="M35.389 44.234a5.9 5.9 0 0 1 5.883 5.883A5.9 5.9 0 0 1 35.389 56a5.9 5.9 0 0 1-5.883-5.883v-5.883h5.883zm0-2.962a5.9 5.9 0 0 1-5.883-5.883 5.9 5.9 0 0 1 5.883-5.883h14.73a5.9 5.9 0 0 1 5.883 5.883 5.9 5.9 0 0 1-5.883 5.883h-14.73z" fill="#ecb22e"/></svg>