<svg xmlns="http://www.w3.org/2000/svg" width="56" height="56" fill="none" xmlns:v="https://vecta.io/nano"><path d="M28 56c15.464 0 28-12.536 28-28S43.464 0 28 0 0 12.536 0 28s12.536 28 28 28z" fill="url(#A)"/><path fill-rule="evenodd" d="M11.199 16.805a5.6 5.6 0 0 1 5.605-5.605h22.39a5.6 5.6 0 0 1 5.605 5.605v22.39a5.6 5.6 0 0 1-5.605 5.605h-22.39a5.6 5.6 0 0 1-5.605-5.605v-22.39zm18.984.78v10.666c0 1.114.902 2.017 2.016 2.017h6.217c1.113 0 2.016-.903 2.016-2.017V17.585c0-1.114-.902-2.017-2.016-2.017h-6.217c-1.113 0-2.016.903-2.016 2.017zM15.566 36.654V17.583c0-1.113.903-2.015 2.016-2.015h6.217c1.113 0 2.015.902 2.015 2.015v19.071c0 1.113-.903 2.015-2.015 2.015h-6.217c-1.113 0-2.016-.902-2.016-2.015z" fill="#fff"/><defs><linearGradient id="A" x1="0" y1="0" x2="0" y2="56" gradientUnits="userSpaceOnUse"><stop stop-color="#0091e6"/><stop offset="1" stop-color="#0079bf"/></linearGradient></defs></svg>