<svg xmlns="http://www.w3.org/2000/svg" width="56" height="56" fill="none" xmlns:v="https://vecta.io/nano"><path d="M28 56c15.464 0 28-12.536 28-28S43.464 0 28 0 0 12.536 0 28s12.536 28 28 28z" fill="#2d8cff"/><path fill-rule="evenodd" d="M44.433 18.591l-7.913 5.773v7.293l7.913 5.774c.56.428 1.217.56 1.217-.608V19.199c0-1.041-.528-1.172-1.217-.608zM9.738 32.383V19.235a.98.98 0 0 1 .983-.974h19.175c2.986 0 5.408 2.398 5.408 5.356v13.148a.98.98 0 0 1-.983.974H15.146c-2.986 0-5.408-2.398-5.408-5.356z" fill="#fff"/></svg>