<svg xmlns="http://www.w3.org/2000/svg" width="588" height="692" fill="#edcb50" xmlns:v="https://vecta.io/nano"><path d="M448.777 385.918c.73-1.133 3.622-.944 8.3-.496l4.734.265c7.509-.807 16.326-3.123 23.015-6.045 3.479-1.52 7.124-2.798 10.651-4.033 4.931-1.729 10.032-3.514 14.663-5.97 4.421-2.342 8.425-5.382 11.899-9.036.927-.974 1.948-1.975 2.988-2.998 2.397-2.354 4.877-4.787 6.628-7.289 6.798-9.703 11.706-27.13 10.961-38.838l-.185-2.923c-.673-10.84-1.369-22.051-4.825-32.239-2.544-7.498-6.42-17.113-13.888-24.997l-1.07-1.126c-4.401-4.643-8.953-9.441-12.923-14.445l-2.016-2.611c-2.234-2.937-4.548-5.977-7.445-8.323-15.411-12.501-40.518-12.535-47.846-12.247l-.045-1.163c7.43-.292 32.895-.25 48.621 12.504 3.002 2.437 5.358 5.53 7.638 8.524l2 2.593c3.94 4.965 8.473 9.744 12.856 14.368l1.07 1.13c7.626 8.05 11.566 17.814 14.145 25.425 3.505 10.336 4.208 21.623 4.885 32.543l.185 2.918c.772 11.932-4.242 29.693-11.169 39.582-1.815 2.589-4.333 5.06-6.768 7.452l-2.961 2.967c-3.562 3.745-7.664 6.861-12.198 9.26-4.707 2.498-9.849 4.298-14.822 6.038-3.508 1.228-7.134 2.501-10.571 4.002-6.788 2.968-15.737 5.318-23.356 6.137-1.048.113-2.949-.068-4.965-.262-2.348-.223-6.723-.64-7.214-.03l-.972-.637zm8.296-74.85l.034-1.163c3.49.098 6.666-.967 8.496-2.851 1.361-1.398 1.985-3.206 1.872-5.37-.166-3.04-2.102-7.285-4.723-8.763-1.346-.758-2.764-.751-4.212.026l-.548-1.027c1.796-.963 3.637-.967 5.327-.015 3.048 1.721 5.131 6.383 5.313 9.714.14 2.498-.605 4.605-2.201 6.247-2.079 2.145-5.494 3.312-9.358 3.202zm.709 8.625l.193-1.148c3.656.617 7.229-2.187 10.103-4.446l1.157-.902c4.511-3.438 4.7-6.986 3.429-13.172-.73-3.559-4.972-13.011-9.884-15.176-1.489-.655-2.866-.58-4.215.228l-.598-.997c1.671-1.001 3.445-1.099 5.278-.292 5.169 2.278 9.68 11.769 10.554 16.006 1.342 6.527 1.111 10.537-3.865 14.331l-1.145.891c-3.048 2.399-6.844 5.382-11.007 4.677zm-3.067 7.074l.075-1.16c5.112.334 11.158-1.016 15.775-3.521 6.881-3.737 10.126-7.046 9.838-15.858-.268-8.767-3.153-29.178-24.085-29.303l.008-1.163c15.449.091 24.652 11.181 25.238 30.428.268 9.335-3.293 13.034-10.447 16.916-4.798 2.607-11.082 4.006-16.402 3.661zm-2.836 9.054c9.249-2.069 18.059-6.375 23.575-11.518 7.313-6.819 9.487-13.63 7.498-23.511-.257-1.285-.506-2.68-.763-4.139-1.195-6.713-2.681-15.066-6.636-19.933-4.976-6.118-13.041-9.711-21.583-9.608l-.015-1.164c8.889-.106 17.299 3.646 22.498 10.037 4.144 5.097 5.66 13.618 6.877 20.463l.76 4.113c2.076 10.336-.196 17.457-7.845 24.591-5.657 5.276-14.671 9.688-24.113 11.799l-.253-1.13zm-.141 6.336c1.293-.69 2.987-1.031 4.625-1.365 1.493-.303 3.04-.614 4.265-1.182 1.886-.876 3.803-2.085 5.66-3.252l3.358-2.047c6.446-3.673 15.23-9.809 20.467-18.208 3.35-5.375 3.429-13.85.208-22.674l-1.014-2.823c-2.869-8.077-5.834-16.431-13.147-21.006l-.896-.561c-6.881-4.313-14.682-9.203-22.849-8.99l-.03-1.164c8.519-.224 16.474 4.764 23.496 9.165l.892.561c7.657 4.787 10.693 13.334 13.627 21.6l1.01 2.817c3.342 9.157 3.225 18.015-.314 23.692-5.366 8.608-14.315 14.869-20.879 18.603-1.089.621-2.22 1.33-3.316 2.02-1.887 1.186-3.838 2.414-5.789 3.32-1.35.626-2.965.952-4.526 1.27-1.626.33-3.161.641-4.307 1.251l-.541-1.027zm-3.715 7.608c.284-.353 1.154-.614 5.475-1.641l3.558-.895 5.555-1.425c3.921-.902 7.622-1.755 11.241-4.029 14.217-8.945 22.221-16.874 24.475-24.242 2.223-7.274.756-19.065-1.845-26.953-3.895-11.803-8.209-23.018-18.161-30.492-3.441-2.585-7.604-3.867-11.574-4.958-3.83-1.054-10.988-2.782-15.895-2.532l-.061-1.164c5.07-.257 12.364 1.501 16.259 2.574 4.076 1.122 8.36 2.441 11.963 5.147 10.209 7.672 14.769 19.55 18.565 31.057 2.658 8.062 4.148 20.149 1.853 27.658-2.337 7.649-10.508 15.79-24.97 24.887-3.781 2.38-7.578 3.256-11.597 4.18-1.781.41-3.622.834-5.475 1.403-.745.227-2.148.561-3.63.917-1.803.428-4.533 1.08-4.919 1.315l-.817-.807zm1.08 5.297c3.876-1.11 8.043-1.982 12.459-2.903 5.161-1.076 10.5-2.195 15.313-3.726 17.019-5.416 27.825-14.729 32.117-27.684 3.482-10.51-2.859-25.122-7.49-35.787l-1.154-2.665-1.164-2.759c-3.797-9.066-8.999-21.48-17.401-25.539-8.352-4.036-22.108-8.778-32.574-9.646l.095-1.16c10.613.883 24.535 5.678 32.982 9.76 8.795 4.253 14.096 16.901 17.964 26.138l1.161 2.751 1.149 2.661c4.704 10.84 11.151 25.683 7.528 36.618-4.416 13.326-15.472 22.889-32.865 28.423-4.87 1.55-10.239 2.672-15.43 3.756-4.394.917-8.542 1.785-12.376 2.884l-.314-1.122zm-2.662 5.082l1.07-.159c11.234-1.649 21.847-3.21 32.866-7.27l1.762-.644c5.592-2.039 10.874-3.961 15.529-7.91 4.798-4.071 8.212-8.38 11.861-13.183l.166-.22c3.505-4.608 6.035-7.936 6.33-13.91.34-6.89-1.346-13.667-2.976-20.224l-.533-2.15c-3.456-14.107-8.19-33.422-21.155-44.785a105.81 105.81 0 0 1-2.182-1.994c-2.344-2.187-4.768-4.453-7.381-5.674-1.675-.784-3.675-1.061-5.615-1.33-1.368-.19-2.786-.387-4.098-.758-1.641-.466-3.4-1.031-5.256-1.63-5.88-1.891-12.542-4.033-17.93-3.764l-.057-1.163c5.6-.277 12.368 1.899 18.342 3.82l5.218 1.619c1.233.352 2.549.534 3.94.724 2.023.28 4.114.568 5.948 1.429 2.779 1.3 5.271 3.627 7.679 5.878l2.156 1.971c13.241 11.606 18.024 31.129 21.518 45.385l.529 2.145c1.649 6.637 3.354 13.493 3.01 20.562-.314 6.333-2.938 9.783-6.568 14.558l-.166.22c-3.694 4.859-7.147 9.218-12.036 13.365-4.809 4.082-10.186 6.041-15.88 8.114l-1.758.645c-11.132 4.101-21.802 5.67-33.1 7.33l-1.066.156-.167-1.153zm-.874 9.837c6.496-2.081 13.37-3.862 20.021-5.587 8.935-2.316 18.172-4.711 26.854-7.906 12.088-4.45 24.085-17.538 27.908-30.444 5.139-17.351 4.863-31.421-.922-47.037-5.037-13.603-14.191-27.994-25.769-40.525-11.105-12.019-27.341-13.361-44.401-13.751l.026-1.164c17.321.395 33.811 1.774 45.226 14.123 11.68 12.637 20.917 27.168 26.007 40.912 5.879 15.87 6.163 30.159.949 47.772-3.918 13.228-16.221 26.642-28.62 31.205-8.73 3.214-17.998 5.617-26.963 7.941-6.632 1.721-13.491 3.498-19.956 5.568l-.36-1.107zm-2.061 6.712c2.269-1.22 5.241-1.296 8.118-1.368l3.445-.171c4.605-.481 9.245-1.705 13.736-2.888l2.825-.739 3.807-.955c8.255-2.043 16.785-4.158 23.784-8.903 2.416-1.638 4.934-2.623 7.365-3.575 1.286-.5 2.613-1.023 3.914-1.633 3.981-1.869 8.541-5.985 10.904-8.274 9.793-9.48 12.383-25.133 13.041-31.421.48-4.594-.128-9.211-.715-13.668l-.4-3.138c-.265-2.221-.36-4.484-.454-6.671-.148-3.487-.303-7.092-1.15-10.507-2.465-9.968-8.284-17.867-13.078-23.636-2.605-3.134-5.619-5.966-8.53-8.702-3.902-3.665-7.937-7.456-11.079-12.049-3.225-4.716-6.14-8.309-10.723-11.652-3.645-2.66-7.763-3.346-12.122-4.074-1.728-.288-3.513-.588-5.267-1.016-2.7-.663-5.88-.913-8.954-1.152-4.624-.36-9.404-.736-12.973-2.513l.518-1.042c3.365 1.675 8.035 2.039 12.546 2.395 3.119.243 6.348.496 9.139 1.183 1.712.42 3.474.716 5.18 1 4.299.717 8.745 1.459 12.613 4.283 4.7 3.43 7.793 7.251 10.996 11.932 3.07 4.488 7.055 8.232 10.912 11.856 2.938 2.759 5.978 5.617 8.628 8.805 4.874 5.863 10.788 13.902 13.314 24.098.873 3.525 1.028 7.19 1.179 10.738.091 2.164.189 4.404.447 6.583l.397 3.124c.593 4.529 1.209 9.214.718 13.944-.673 6.417-3.32 22.389-13.389 32.137-2.416 2.339-7.086 6.55-11.218 8.491-1.335.625-2.681 1.152-3.986 1.663-2.484.971-4.828 1.888-7.138 3.453-7.169 4.859-15.805 7.001-24.154 9.067l-3.8.951-2.817.735c-4.529 1.194-9.218 2.426-13.91 2.919-1.12.117-2.348.148-3.536.178-2.741.068-5.573.14-7.596 1.228l-.537-1.016z"/></svg>