<svg xmlns="http://www.w3.org/2000/svg" width="588" height="692" fill="#448c74" xmlns:v="https://vecta.io/nano"><path d="M124.911 429.231c-.119-.118-1.165-.475-1.165-.475-.776-.178-1.284.327-1.732.891-.658.832.239 2.021 1.254 2.496 1.733.803 2.778-1.812 1.643-2.912zm-18.249.898c.179-.059.896-.861.896-.891.448-.654.209-1.307-.15-1.931-.507-.921-1.971-.565-2.778.178-1.433 1.277.598 3.238 2.032 2.644zm38.893-4.996c.119-.149.358-1.189.388-1.189.09-.772-.418-1.247-1.046-1.634-.866-.564-2.001.416-2.389 1.456-.658 1.783 2.061 2.585 3.047 1.367zm-26.285-4.958c-.119.149-.269 1.219-.269 1.219-.03.802.538 1.218 1.165 1.545.926.505 1.942-.565 2.271-1.664.477-1.813-2.271-2.377-3.167-1.1zm-27.875-.299c-.06.178.12 1.248.12 1.248.209.772.866 1.01 1.583 1.129 1.016.178 1.673-1.159 1.643-2.258-.09-1.902-2.898-1.605-3.346-.119zm-13.562.865c.09.148 1.016.742 1.016.742.717.357 1.314 0 1.882-.445.836-.654.239-2.021-.627-2.704-1.464-1.218-3.077 1.07-2.27 2.407zm82.598-2.586c-.06-.179-.837-.922-.837-.922-.627-.475-1.314-.267-1.941.06-.926.475-.628 1.931.059 2.793 1.225 1.456 3.256-.476 2.719-1.931zm-25.272 2.672c.149-.119.567-1.099.567-1.129.239-.743-.209-1.307-.747-1.783-.776-.713-2.031.089-2.598 1.04-.926 1.664 1.583 2.882 2.778 1.872zm-25.455-2.701c-.06-.178-.866-.892-.896-.892-.657-.445-1.315-.208-1.942.119-.926.505-.568 1.961.179 2.793 1.285 1.427 3.256-.564 2.659-2.02zm-45.048-7.283c0 .178.448 1.159.478 1.159.418.683 1.135.713 1.852.624 1.045-.119 1.284-1.575.926-2.615-.657-1.812-3.256-.743-3.256.832zm103.6-3.718c-.059.178.09 1.248.09 1.248.179.772.836 1.01 1.553 1.159 1.016.208 1.703-1.1 1.703-2.229-.03-1.872-2.838-1.664-3.346-.178zm-13.177 2.293c.179.059 1.255.03 1.255.03.776-.119 1.105-.743 1.314-1.427.299-.98-.956-1.782-2.061-1.871-1.912-.149-1.942 2.644-.508 3.268zm-74.649.086c.179-.029 1.045-.653 1.075-.683.597-.535.508-1.218.299-1.902-.299-1.01-1.793-.95-2.778-.415-1.673.921-.149 3.268 1.404 3zm60.381-.386c.179.03 1.224-.208 1.254-.208.747-.267.926-.95 1.016-1.663.119-1.04-1.285-1.575-2.39-1.456-1.942.208-1.434 2.971.12 3.327zm-15.898-1.07c.06-.178-.119-1.248-.119-1.248-.209-.773-.866-.981-1.583-1.129-1.016-.179-1.673 1.159-1.613 2.258.059 1.902 2.837 1.605 3.315.119zm-14.308-1.87c-.03-.178-.657-1.069-.657-1.069-.538-.595-1.225-.505-1.912-.297-1.016.297-.986 1.782-.448 2.763.926 1.634 3.286.148 3.017-1.397zm-18.552.001c.03.178.717 1.04.717 1.04.568.564 1.255.445 1.942.208.986-.327.896-1.813.299-2.764-1.016-1.634-3.316-.029-2.957 1.516zm-36.208-.713c.03-.178-.299-1.218-.329-1.218-.329-.713-1.016-.832-1.733-.861-1.045-.03-1.464 1.396-1.255 2.495.388 1.872 3.077 1.129 3.316-.416zm125.758-7.367c-.179 0-1.195.386-1.195.386-.687.357-.777 1.07-.747 1.783.03 1.04 1.494 1.367 2.569 1.07 1.852-.476.956-3.12-.627-3.239zm-48.089-.092c.179.089 1.255.089 1.255.089.776-.089 1.135-.713 1.374-1.367.358-.98-.867-1.842-2.002-1.961-1.882-.238-2.031 2.555-.627 3.239zm-31.546-.449c.119.148 1.075.624 1.105.624.747.267 1.314-.149 1.822-.654.747-.743 0-2.021-.926-2.615-1.613-1.04-2.957 1.397-2.001 2.645zm-33.122-2.971c-.179.03-1.016.743-1.016.743-.538.565-.418 1.248-.149 1.931.359.981 1.852.832 2.778.238 1.613-1.04-.09-3.268-1.613-2.912zm-26.381 2.793c.149.119 1.195.357 1.225.357.777.089 1.255-.446 1.643-1.04.568-.892-.448-1.962-1.523-2.348-1.852-.654-2.599 2.05-1.344 3.031zm106.819-2.79c-.06.179.149 1.248.149 1.248.239.743.897.951 1.614 1.07 1.045.149 1.643-1.218 1.553-2.318-.12-1.901-2.898-1.515-3.316 0zm-28.246-1.783c-.119-.148-1.135-.535-1.135-.535-.777-.208-1.314.238-1.792.773-.687.772.149 2.02 1.135 2.555 1.673.892 2.838-1.634 1.792-2.793zm45.22-1.605c-.059-.178-.866-.921-.866-.921-.627-.475-1.314-.238-1.942.089-.926.476-.597 1.932.12 2.793 1.225 1.426 3.256-.505 2.688-1.961zm-76.593 2.499c.149.089 1.225.237 1.255.237.807.03 1.195-.564 1.523-1.188.478-.921-.627-1.931-1.733-2.199-1.852-.446-2.36 2.288-1.046 3.15zm-11.292-5.562c-.179.059-.986.772-.986.772-.538.595-.358 1.278-.09 1.932.388.951 1.882.772 2.808.148 1.523-1.099-.239-3.268-1.733-2.852zm97.236.982c0 .179.389 1.189.389 1.189.388.683 1.075.772 1.792.743 1.046-.03 1.374-1.486 1.076-2.556-.478-1.842-3.137-.95-3.257.624zm-69.965-1.363c.179 0 1.165-.476 1.165-.505.657-.416.687-1.129.597-1.843-.119-1.039-1.613-1.248-2.658-.861-1.822.653-.687 3.209.896 3.209zm-45.526.235c.149-.119.627-1.07.627-1.099.269-.743-.149-1.308-.627-1.813-.717-.743-2.031-.029-2.659.921-1.016 1.575 1.434 2.942 2.659 1.991zm-21.144-2.853c-.12-.148-1.075-.624-1.105-.624-.747-.267-1.314.149-1.822.654-.747.743 0 2.021.956 2.615 1.583 1.04 2.927-1.426 1.971-2.645zm100.812.002c.18.03 1.195-.326 1.225-.326.717-.327.837-1.04.837-1.754 0-1.04-1.434-1.456-2.51-1.218-1.882.416-1.105 3.09.448 3.298zm49.477-4.19c-.179-.03-1.224.297-1.224.327-.717.327-.837 1.01-.867 1.723-.03 1.04 1.404 1.456 2.51 1.248 1.882-.386 1.135-3.09-.419-3.298zm-63.69.982c-.059.178 0 1.248 0 1.248.15.772.777 1.069 1.464 1.248 1.016.267 1.763-1.011 1.822-2.11.12-1.872-2.688-1.842-3.286-.386zm-102.857.74c.03.178.598 1.1.627 1.1.508.624 1.195.564 1.912.386 1.016-.238 1.075-1.724.568-2.734-.866-1.693-3.316-.297-3.107 1.248zm129.235-.741c.179.029 1.224-.238 1.224-.238.747-.297.896-.981.956-1.694.09-1.04-1.344-1.545-2.449-1.367-1.882.268-1.285 3.001.269 3.299zM95.4 378.512c-.09-.178-.926-.832-.956-.832-.687-.416-1.315-.119-1.942.268-.866.564-.418 1.99.388 2.763 1.374 1.337 3.196-.802 2.509-2.199zm73.371-.411c.09.148.956.802.986.802.687.387 1.314.089 1.912-.327.866-.594.358-1.991-.478-2.733-1.404-1.308-3.166.891-2.42 2.258zm-53.922-1.992c-.09-.149-1.016-.743-1.016-.743-.717-.357-1.315 0-1.882.446-.807.653-.239 2.02.627 2.704 1.464 1.218 3.107-1.07 2.271-2.407zm-38.232 2.136c.179-.03 1.016-.743 1.016-.743.538-.565.418-1.248.149-1.932-.359-.98-1.852-.831-2.778-.237-1.613 1.04.09 3.268 1.613 2.912zm-15.51-3.862c.03.179.657 1.07.687 1.07.538.594 1.225.505 1.912.297 1.016-.297.986-1.783.418-2.763-.926-1.664-3.286-.149-3.017 1.396zm-15.086.034c.06.178.896.862.896.862.657.445 1.315.178 1.942-.178.896-.535.508-1.961-.239-2.764-1.314-1.396-3.226.624-2.599 2.08zm-9.914-2.41c-.119-.149-1.075-.624-1.105-.624-.747-.268-1.314.148-1.822.653-.747.743 0 2.021.926 2.615 1.613 1.04 2.987-1.396 2.001-2.644zm147.058 1.99c.18 0 1.106-.564 1.135-.564.628-.476.598-1.189.478-1.872-.209-1.01-1.702-1.129-2.718-.684-1.762.773-.478 3.239 1.105 3.12zm-20.4-5.555c-.15-.118-1.225-.326-1.225-.326-.777-.06-1.225.475-1.613 1.099-.538.891.508 1.961 1.583 2.288 1.852.594 2.539-2.11 1.255-3.061zm-26.023-.117c-.179.089-.836.921-.836.951-.418.683-.12 1.307.269 1.931.567.862 2.001.416 2.778-.356 1.344-1.397-.777-3.21-2.211-2.526zm-52.487-.269c-.149.089-.747 1.01-.747 1.01-.329.714 0 1.308.448 1.872.657.803 2.031.238 2.718-.653 1.225-1.456-1.076-3.061-2.42-2.229zm-62.879-1.544c-.149-.119-1.195-.356-1.195-.356-.777-.089-1.255.416-1.643 1.04-.568.861.448 1.99 1.494 2.347 1.792.654 2.569-2.05 1.344-3.031zm76.533 1.87c.179-.06.956-.832.956-.832.508-.624.299-1.278 0-1.931-.448-.951-1.912-.684-2.808 0-1.523 1.188.358 3.268 1.852 2.763zm25.394-.71c.179-.03 1.046-.683 1.046-.683.567-.535.478-1.248.239-1.932-.329-.98-1.823-.921-2.778-.356-1.614.98-.03 3.298 1.493 2.971zm64.132-4.461c.029.178.627 1.07.627 1.099.508.595 1.225.535 1.912.357 1.015-.238 1.045-1.753.537-2.734-.866-1.694-3.285-.297-3.076 1.278zm-40.355-.534c0 .178.538 1.129.538 1.129.448.654 1.165.624 1.882.505 1.016-.178 1.165-1.664.747-2.674-.747-1.753-3.256-.535-3.167 1.04zm-114.805-1.868c-.12.148-.358 1.188-.358 1.218-.09.773.448 1.248 1.045 1.634.896.565 1.972-.445 2.36-1.515.657-1.813-2.061-2.585-3.047-1.337zm75.905-1.011c-.12-.148-1.135-.535-1.135-.535-.777-.208-1.314.238-1.763.803-.687.772.15 2.02 1.136 2.555 1.672.862 2.837-1.664 1.762-2.823zm-38.766-.124c-.149-.119-1.225-.297-1.225-.297-.777-.06-1.225.505-1.583 1.129-.508.921.568 1.961 1.613 2.258 1.852.535 2.48-2.169 1.195-3.09zm101.238 2.471c.179 0 1.165-.445 1.165-.475.687-.416.717-1.129.627-1.842-.119-1.04-1.583-1.278-2.659-.921-1.762.653-.687 3.238.867 3.238zm-121.433-1.249c.03.178.687 1.04.687 1.04.538.564 1.255.445 1.942.237.986-.327.926-1.812.358-2.763-.986-1.634-3.316-.06-2.987 1.486zm-38.178-2.083c-.03.178.329 1.189.329 1.218.329.713 1.045.832 1.762.832 1.046 0 1.464-1.426 1.225-2.496-.418-1.872-3.136-1.099-3.316.446zm68.885-1.927c.06.178.896.861.896.891.657.446 1.314.208 1.942-.148.896-.506.538-1.961-.239-2.764-1.284-1.426-3.226.595-2.599 2.021zm77.104-3.358c.06.178.806.951.806.951.598.505 1.285.326 1.942.029.956-.416.717-1.901.03-2.793-1.135-1.515-3.256.327-2.778 1.813zm-34.921-2.054c-.15-.119-1.195-.327-1.225-.327-.777-.059-1.255.476-1.613 1.07-.538.891.508 1.961 1.553 2.318 1.823.594 2.51-2.11 1.285-3.061zm14.662-.509c-.09-.148-.986-.772-.986-.772-.687-.387-1.314-.06-1.912.356-.836.624-.328 1.991.508 2.734 1.434 1.248 3.167-.951 2.39-2.318zm-96.934.093c-.09.148-.149 1.248-.149 1.248.06.772.657 1.158 1.314 1.426.956.386 1.882-.773 2.061-1.872.358-1.872-2.45-2.169-3.226-.802zm53.469-.42c-.06.179.06 1.248.06 1.248.179.773.836 1.04 1.523 1.219 1.016.237 1.733-1.07 1.762-2.17 0-1.901-2.808-1.753-3.346-.297zm-67.447-.883c-.179.059-.896.891-.896.891-.448.654-.209 1.308.149 1.932.508.891 1.972.534 2.778-.208 1.434-1.278-.597-3.239-2.031-2.615zm148.941-1.489c-.18.059-.986.772-.986.772-.538.595-.359 1.278-.06 1.932.418.95 1.882.772 2.808.118 1.524-1.099-.239-3.268-1.762-2.822zm-116.376.98c0 .178.538 1.129.568 1.129.478.624 1.165.624 1.882.505 1.016-.178 1.165-1.664.717-2.704-.747-1.753-3.256-.505-3.166 1.07zm130.718-.771c0 .179.507 1.129.507 1.159.449.654 1.165.654 1.852.535 1.046-.149 1.195-1.634.807-2.674-.657-1.753-3.226-.565-3.166.98zm-40.958-2.705c-.12-.148-1.136-.534-1.136-.534-.776-.208-1.314.237-1.792.772-.687.773.12 2.021 1.105 2.555 1.703.922 2.898-1.604 1.823-2.793zm-37.166.777c.15-.089.717-1.04.717-1.04.329-.713-.03-1.307-.508-1.872-.687-.802-2.031-.178-2.718.713-1.165 1.545 1.195 3.061 2.509 2.199zm-94.692-2.826c-.12-.149-1.105-.594-1.105-.624-.747-.268-1.314.148-1.822.683-.747.743 0 2.021.956 2.615 1.643 1.01 2.957-1.426 1.972-2.674zm56.704-1.545c-.12-.148-1.075-.624-1.105-.624-.747-.267-1.314.149-1.822.654-.747.743 0 2.02.926 2.615 1.613 1.01 2.957-1.427 2.002-2.645zm10.239-1.156c-.149.118-.657 1.069-.657 1.069-.269.743.12 1.308.627 1.842.717.743 2.031.06 2.659-.861 1.046-1.605-1.374-3.001-2.629-2.05zm-32.198 1.304c0-.178-.418-1.159-.418-1.188-.388-.684-1.105-.743-1.822-.684-1.046.06-1.344 1.545-1.016 2.585.538 1.843 3.166.862 3.256-.713zm-16.105 1.753c.179.03 1.195-.327 1.225-.327.717-.327.836-1.04.836-1.753 0-1.04-1.434-1.456-2.509-1.218-1.882.416-1.105 3.12.448 3.298zm86.603-5.378c-.18 0-1.136.506-1.165.506-.658.445-.687 1.129-.568 1.842.149 1.04 1.613 1.218 2.659.832 1.792-.654.657-3.209-.926-3.18zm-19.658-.864c-.119-.119-1.165-.475-1.165-.475-.776-.179-1.284.327-1.732.891-.657.832.239 2.021 1.254 2.496 1.733.802 2.749-1.812 1.643-2.912zm70.202-.772c-.119-.148-1.105-.564-1.135-.564-.747-.238-1.314.208-1.792.713-.717.772.059 2.02 1.045 2.585 1.643.98 2.898-1.545 1.882-2.734zm-13.422 1.935c.179 0 1.135-.505 1.165-.505.657-.446.687-1.129.568-1.842-.15-1.04-1.613-1.219-2.659-.832-1.792.683-.627 3.239.926 3.179zm-14.629-1.339c.18 0 1.166-.446 1.195-.446.687-.386.747-1.099.687-1.813-.089-1.04-1.553-1.307-2.628-.98-1.852.594-.837 3.179.746 3.239zm44.627-1.606c.179-.03 1.105-.595 1.105-.595.628-.505.568-1.188.419-1.901-.239-1.011-1.733-1.07-2.749-.595-1.702.803-.328 3.239 1.225 3.091zm-55.887-1.546c0-.178-.418-1.158-.448-1.188-.388-.683-1.105-.743-1.822-.683-1.046.089-1.315 1.545-.986 2.614.568 1.813 3.196.832 3.256-.743zm-104.23 1.189c.149-.089.777-.981.777-1.01.358-.713.03-1.308-.388-1.902-.627-.832-2.031-.297-2.748.565-1.255 1.456.986 3.12 2.36 2.347zm58.644-4.246c-.03-.179-.717-1.011-.717-1.04-.567-.565-1.255-.416-1.942-.179-.986.357-.866 1.843-.269 2.764 1.016 1.604 3.286-.03 2.928-1.545zm-21.565.538c.09.178.896.861.926.861.657.446 1.314.179 1.942-.208.896-.535.478-1.961-.299-2.763-1.344-1.367-3.226.683-2.569 2.11zm-27.724-.002c.119.148 1.105.564 1.135.594.747.238 1.314-.178 1.822-.713.717-.743-.06-2.021-1.016-2.585-1.703-1.01-2.957 1.486-1.941 2.704zm72.705-.772c.09.178.956.832.956.832.687.416 1.314.119 1.912-.268.866-.564.418-1.99-.388-2.763-1.404-1.337-3.197.802-2.48 2.199zm-94.545.47c.119-.149.358-1.189.358-1.189.09-.773-.448-1.248-1.046-1.634-.866-.565-2.001.445-2.36 1.485-.657 1.783 2.031 2.556 3.047 1.338zm34.836-3.683c-.179 0-1.135.505-1.165.505-.657.446-.657 1.13-.568 1.843.149 1.04 1.643 1.218 2.688.802 1.792-.654.627-3.179-.956-3.15zm47.525 1.192c.09-.149.15-1.248.15-1.248-.06-.772-.657-1.159-1.314-1.426-.956-.386-1.882.802-2.061 1.901-.329 1.872 2.479 2.14 3.226.773zm64.728-6.389c-.179-.03-1.225.297-1.225.297-.717.327-.866 1.01-.896 1.724-.03 1.039 1.404 1.485 2.48 1.277 1.911-.356 1.194-3.06-.359-3.298zm-15.982-.057c-.179-.06-1.225.178-1.255.178-.746.238-.955.921-1.045 1.634-.149 1.04 1.225 1.605 2.36 1.516 1.912-.179 1.464-2.942-.06-3.328zm-23.746-.478c-.179-.03-1.195.386-1.195.386-.717.357-.776 1.07-.776 1.783.029 1.04 1.493 1.397 2.569 1.099 1.852-.505.956-3.149-.598-3.268zm-44.627 2.849c.12-.148.358-1.188.358-1.218.09-.773-.448-1.248-1.076-1.604-.896-.535-1.971.475-2.33 1.515-.627 1.812 2.061 2.525 3.047 1.307zm105.749-2.706c.03-.178-.299-1.218-.329-1.218-.328-.714-1.015-.832-1.732-.862-1.046-.03-1.464 1.396-1.225 2.496.359 1.872 3.077 1.129 3.286-.416zm-48.611.239c.18-.03 1.076-.654 1.076-.654.597-.535.507-1.218.328-1.902-.269-1.01-1.762-1.01-2.748-.475-1.703.921-.209 3.298 1.344 3.031zm-110.844-.503c.119-.148.329-1.188.329-1.218.09-.773-.478-1.248-1.076-1.605-.896-.534-1.971.476-2.33 1.546-.597 1.812 2.121 2.525 3.077 1.277zm32.82-3.326c-.179-.03-1.225.268-1.225.268-.717.297-.866 1.01-.896 1.723-.06 1.04 1.374 1.486 2.479 1.307 1.882-.326 1.195-3.06-.359-3.298zm29.308 1.812c.09.178.926.832.956.832.687.416 1.314.118 1.942-.268.866-.564.418-1.991-.358-2.763-1.404-1.337-3.226.802-2.539 2.199zm17.063-3.864c-.18-.059-1.255.119-1.255.119-.777.208-.986.891-1.105 1.575-.179 1.01 1.165 1.664 2.3 1.604 1.912-.059 1.583-2.852.06-3.298zm-66.916 2.112c.179.029 1.195-.357 1.225-.357.717-.357.807-1.04.777-1.783-.03-1.04-1.464-1.396-2.569-1.129-1.852.446-1.016 3.12.567 3.269zm76.741-3.359c.089.148 1.045.683 1.045.713.717.327 1.315-.059 1.882-.505.807-.684.15-2.021-.717-2.674-1.553-1.189-3.107 1.158-2.21 2.466zm-47.647-3.272c-.179.089-.836.921-.836.951-.418.683-.119 1.307.269 1.901.568.862 2.001.416 2.778-.386 1.314-1.337-.806-3.149-2.211-2.466zm85.373-.415c-.089.149-.209 1.219-.209 1.248 0 .803.598 1.189 1.255 1.486.956.446 1.912-.713 2.151-1.783.388-1.872-2.39-2.288-3.197-.951zm-73.304 1.758c.179.089 1.255.089 1.255.089.777-.089 1.135-.713 1.374-1.367.358-.98-.866-1.842-2.001-1.961-1.882-.237-2.031 2.526-.627 3.239zm98.816-2.174c-.03-.178-.568-1.099-.568-1.129-.478-.624-1.195-.594-1.882-.475-1.015.208-1.135 1.693-.687 2.704.777 1.753 3.286.445 3.137-1.1zm-47.379-2.375c-.15-.119-1.195-.416-1.195-.416-.777-.119-1.255.386-1.673.98-.597.862.358 1.991 1.404 2.407 1.762.713 2.659-1.931 1.464-2.971zm-81.668.447c-.09.179-.06 1.248-.06 1.248.12.773.747 1.1 1.434 1.308.986.327 1.822-.921 1.912-2.051.179-1.871-2.629-1.931-3.286-.505zm93.143-2.109c-.18.059-.927.832-.927.861-.477.624-.268 1.308.06 1.932.478.921 1.942.624 2.808-.06 1.464-1.248-.448-3.298-1.941-2.733zm19.74-.301c-.03.178.358 1.188.358 1.218.359.713 1.046.802 1.763.773 1.045-.03 1.404-1.456 1.135-2.556-.448-1.812-3.107-.98-3.256.565zm-70.405-.656c-.03.179.209 1.219.209 1.248.269.743.956.922 1.673 1.011 1.046.119 1.583-1.278 1.464-2.377-.239-1.902-3.017-1.397-3.346.118zm-70.262.005c-.119.118-.478 1.158-.478 1.158-.179.773.329 1.278.896 1.724.837.653 2.031-.238 2.509-1.248.777-1.753-1.822-2.764-2.927-1.634zm13.566-1.192c.03-.178-.209-1.218-.209-1.248-.269-.742-.956-.921-1.673-1.01-1.045-.119-1.583 1.278-1.464 2.377.239 1.902 2.987 1.397 3.346-.119zm71.963-1.039c.06-.178-.15-1.248-.15-1.248-.239-.743-.926-.951-1.613-1.07-1.045-.148-1.643 1.219-1.553 2.318.12 1.932 2.898 1.516 3.316 0zm11.616-2.762c-.12.149-.299 1.219-.299 1.219-.03.772.508 1.218 1.135 1.574.926.505 1.942-.564 2.27-1.634.538-1.842-2.21-2.436-3.106-1.159zm-52.815 1.723c.09.179.896.862.926.862.657.446 1.314.178 1.942-.208.896-.535.478-1.961-.269-2.763-1.344-1.367-3.256.683-2.599 2.109zm15.478-3.21c-.149.119-.538 1.129-.538 1.129-.209.772.269 1.307.807 1.753.807.683 2.031-.178 2.539-1.159.926-1.664-1.643-2.793-2.808-1.723zm101.657-1.336c-.09-.149-1.046-.713-1.046-.713-.717-.327-1.314.029-1.882.505-.806.683-.179 2.02.717 2.704 1.524 1.158 3.077-1.189 2.211-2.496zm-45.291.123c.12.119 1.135.505 1.165.505.777.178 1.285-.297 1.763-.832.657-.802-.21-2.02-1.225-2.525-1.703-.832-2.778 1.753-1.703 2.852zm-81.013-.508c.09-.148.209-1.218.209-1.248 0-.802-.597-1.188-1.225-1.485-.956-.446-1.912.683-2.151 1.753-.448 1.872 2.33 2.317 3.166.98zm-12.21-1.427c-.09-.148-.986-.772-.986-.772-.687-.357-1.314-.06-1.912.386-.836.624-.298 1.991.538 2.734 1.434 1.218 3.136-1.011 2.36-2.348zm109.949-2.109c-.149.119-.627 1.07-.627 1.099-.269.743.149 1.308.627 1.843.717.742 2.032.029 2.659-.892 1.045-1.634-1.404-3.001-2.659-2.05zm16.64 1.606c.179-.03 1.045-.684 1.075-.684.568-.535.478-1.218.269-1.901-.299-.981-1.793-.951-2.778-.387-1.673.921-.12 3.239 1.434 2.972zM74.4 293.832c.179-.089.837-.921.866-.921.418-.653.149-1.307-.239-1.931-.568-.892-1.972-.446-2.778.327-1.374 1.337.747 3.179 2.151 2.525zm-44.335-.239c.149.09 1.225.208 1.255.208.806 0 1.195-.594 1.494-1.218.448-.951-.687-1.901-1.762-2.169-1.882-.386-2.33 2.347-.986 3.179zm84.991-1.75c.09.148.986.772 1.016.772.717.357 1.314.03 1.912-.386.836-.624.298-1.991-.568-2.734-1.464-1.247-3.136.981-2.36 2.348zm-25.212-1.22c-.06-.178-.777-.98-.807-.98-.597-.505-1.285-.327-1.942-.06-.956.416-.747 1.902-.09 2.793 1.135 1.545 3.286-.267 2.838-1.753zm9.349 1.305c.12.149 1.105.595 1.105.595.747.237 1.315-.179 1.822-.684.717-.743-.03-2.02-1.015-2.615-1.614-.98-2.928 1.516-1.912 2.704zm-38.415-3.06c.179 0 1.165-.446 1.195-.446.687-.416.717-1.099.657-1.812-.09-1.04-1.583-1.278-2.629-.951-1.852.594-.807 3.179.777 3.209zm82.355-1.155c.18.06 1.255.03 1.255.03.777-.119 1.075-.772 1.285-1.456.298-1.01-.986-1.783-2.092-1.842-1.911-.149-1.911 2.644-.448 3.268zm-15.408-.682c.119.149 1.135.535 1.135.535.777.208 1.314-.238 1.792-.772.687-.773-.149-2.021-1.105-2.556-1.703-.921-2.868 1.605-1.822 2.793zm-88.069-1.756c.149.118 1.195.326 1.225.356.777.089 1.255-.446 1.613-1.07.538-.891-.478-1.961-1.523-2.317-1.822-.624-2.539 2.08-1.314 3.031zm124.186-.117c.179-.03 1.075-.624 1.075-.654.598-.505.508-1.218.329-1.901-.269-1.01-1.762-1.01-2.748-.475-1.703.891-.209 3.268 1.344 3.03zm-92.73-5.623c-.179-.03-1.195.386-1.195.386-.717.357-.777 1.07-.777 1.783.03 1.04 1.494 1.397 2.569 1.099 1.852-.505.956-3.149-.597-3.268zm31.726.572c.029.178.627 1.1.627 1.1.508.594 1.195.534 1.912.386 1.015-.238 1.045-1.724.567-2.734-.866-1.723-3.286-.297-3.106 1.248zm-19.596 1.011c.179-.03 1.075-.654 1.075-.654.597-.535.508-1.218.299-1.902-.299-1.01-1.793-.98-2.778-.416-1.673.892-.149 3.239 1.404 2.972zm-34.569-2.23c-.09.148-.149 1.248-.149 1.248.06.772.657 1.159 1.314 1.426.956.386 1.882-.773 2.061-1.872.329-1.872-2.479-2.169-3.226-.802zm45.236-1.398c.12-.119.448-1.159.448-1.159.149-.772-.329-1.277-.926-1.693-.836-.624-2.031.297-2.479 1.307-.747 1.694 1.882 2.674 2.957 1.545zm59.561-4.163c-.179.03-1.076.624-1.105.624-.598.505-.538 1.219-.359 1.902.269 1.01 1.763 1.04 2.748.535 1.703-.892.269-3.269-1.284-3.061zm-33.907.452c-.179-.059-1.254.149-1.254.149-.747.208-.986.891-1.106 1.604-.179 1.04 1.195 1.635 2.301 1.575 1.911-.119 1.553-2.882.059-3.328zm18.308-.834c-.179-.059-1.254.089-1.254.089-.777.179-1.016.832-1.165 1.545-.209 1.011 1.105 1.694 2.24 1.664 1.912-.029 1.673-2.793.179-3.298zm-76.013-3.684c-.179-.06-1.255 0-1.255 0-.777.148-1.075.772-1.255 1.485-.269 1.01 1.016 1.753 2.121 1.813 1.882.059 1.852-2.734.388-3.298zm85.216-1.517c.15-.089.807-.951.807-.951.388-.683.089-1.307-.299-1.902-.597-.861-2.001-.386-2.778.446-1.314 1.367.866 3.15 2.27 2.407zm-36.947-2.912c-.119-.149-1.105-.594-1.105-.594-.747-.238-1.315.178-1.822.683-.717.743.029 2.021.985 2.615 1.643.98 2.958-1.486 1.942-2.704zm-33.458.77c-.12-.118-1.165-.475-1.165-.505-.777-.178-1.284.297-1.732.862-.657.802.239 2.021 1.225 2.496 1.733.862 2.778-1.723 1.673-2.853zm17.177.565c.06.178.837.921.837.921.627.475 1.314.267 1.942-.06.926-.475.657-1.931-.06-2.793-1.195-1.426-3.256.476-2.718 1.932zm32.355-1.063c.119-.149.299-1.219.328-1.219.06-.772-.478-1.218-1.105-1.575-.896-.534-1.971.535-2.3 1.575-.597 1.813 2.121 2.466 3.077 1.219zm10.513-2.384c.179-.06.955-.802.955-.832.508-.624.299-1.278 0-1.932-.448-.95-1.912-.683-2.808 0-1.523 1.219.359 3.269 1.853 2.764zm-49.585-.948c.12-.119.508-1.129.508-1.159.179-.773-.299-1.278-.836-1.753-.806-.654-2.031.208-2.509 1.218-.866 1.723 1.733 2.793 2.838 1.694z"/></svg>