<svg xmlns="http://www.w3.org/2000/svg" viewBox="0 0 32 32" opacity=".7" fill="#fff" stroke="#fff" stroke-width=".1" xmlns:v="https://vecta.io/nano"><path d="M27.1 11.3v.5c0 .3.2.6.5.6 2 .2 3.4 2.1 3.2 4.1-.2 1.8-1.8 3.2-3.6 3.2h-.5v.1-.1h-.2-8.4a.65.65 0 0 0-.6.6.65.65 0 0 0 .6.6h8.6 0 .1.4a4.91 4.91 0 0 0 4.9-4.9c0-2.3-1.5-4.2-3.7-4.7h0 0 0 0 0 0 0 0 0 0 0 0 0 0 0 0 0 0 0 0 0 0 0 0 0 0 0 0 0 0 0 0 0 0 0 0 0 0 0 0 0 0 0 0 0 0 0 0 0 0 0 0 0 0 0 0 0 0 0 0 0 0 0 0 0 0 0 0 0 0 0 0 0 0 0 0 0 0 0 0 0 0 0 0 0 0 0 0 0 0 0 0 0 0 0 0 0 0 0 0 0 0 0 0 0 0 0 0 0 0 0 0 0 0 0 0 0 0 0 0 0 0 0 0 0 0 0 0 0 0 0 0 0 0 0 0 0 0 0 0 0 0 0 0 0 0 0 0 0 0 0 0 0 0 0 0 0 0 0 0 0 0 0 0 0 0 0 0 0 0 0 0 0 0 0 0 0 0 0 0 0 0 0 0 0 0 0 0 0 0 0 0 0 0 0 0 0 0 0 0 0 0 0 0 0 0 0 0 0 0 0 0 0 0 0 0 0 0 0 0 0 0 0 0 0 0 0 0 0 0 0 0 0 0 0 0 0 0 0 0 0 0 0 0 0 0 0 0 0 0 0 0 0 0 0 0 0 0 0 0 0 0 0 0 0 0 0 0 0 0 0 0 0 0 0 0 0 0 0 0 0 0 0 0 0 0 0 0 0 0 0 0 0 0 0 0 0 0 0 0 0 0 0 0 0 0 0 0 0 0 0 0 0 0 0 0 0 0 0c0-5-4.1-9.1-9.1-9.1-3.1 0-5.9 1.5-7.6 4.1-3.4-1.1-7 .7-8.1 4.1h0 0c-.2.7-.3 1.3-.3 2h0 0 0 0 0 0 0 0 0 0 0 0 0 0 0 0 0 0 0 0 0 0 0 0 0 0 0 0 0 0 0 0 0 0 0 0 0 0 0 0 0 0 0 0 0 0 0 0 0 0 0 0 0 0 0 0 0 0 0 0 0 0 0 0 0 0 0 0 0 0 0 0 0 0 0 0 0 0 0 0 0 0 0 0 0 0 0 0 0 0 0 0 0 0 0 0 0 0 0 0 0 0 0 0 0 0 0 0 0 0 0 0 0 0 0 0 0 0 0 0 0 0 0 0 0 0 0 0 0 0 0 0 0 0 0 0 0 0 0 0 0 0 0 0 0 0 0 0 0 0 0 0 0 0 0 0 0 0 0 0 0 0 0 0 0 0 0 0 0 0 0 0 0 0 0 0 0 0 0 0 0 0 0 0 0 0 0 0 0 0 0 0 0 0 0 0 0 0 0 0 0 0 0 0 0 0 0 0 0 0 0 0 0 0 0 0 0 0 0 0 0 0 0 0 0 0 0 0 0 0 0 0 0 0 0 0 0 0 0 0 0 0 0 0 0 0 0 0 0 0 0 0 0 0 0 0 0 0 0 0 0 0 0 0 0 0 0 0 0 0 0 0 0 0 0 0 0 0 0 0 0 0 0 0 0 0 0 0 0 0 0 0 0 0 0 0 0 0 0 0 0 0 0 0 0 0 0 0 0 0 0 0 0 0 0 0 0 0 0 0 0 0 0 0 0 0 0 0 0 0 0 0 0 0 0 0 0 0 0 0 0 0 0 0 0 0 0 0 0 0C1 13-.4 15.4.2 17.7c.4 2 2.1 3.3 4.1 3.3h0 9.6a.65.65 0 0 0 .6-.6.65.65 0 0 0-.6-.6H4.3h0c-1.7 0-3.1-1.4-3.1-3.2 0-1.6 1.2-2.9 2.7-3.1.3 0 .5-.3.5-.6h-.1.1v-.5a5.34 5.34 0 0 1 5.3-5.3c.7 0 1.4.1 2 .4.3.1.6 0 .7-.2h0c2.2-3.8 7.1-5 10.9-2.8 2.4 1.4 3.8 4 3.8 6.8h0zm-7 13h0l-3.5 3.5V12.9a.65.65 0 0 0-.6-.6.65.65 0 0 0-.6.6v14.8l-3.5-3.5h0 0a.61.61 0 0 0-.8 0h0a.61.61 0 0 0 0 .8h0 0l4.5 4.5h0a.61.61 0 0 0 .8 0h0l4.5-4.5h0 0a.61.61 0 0 0 0-.8.53.53 0 0 0-.8.1z"/></svg>