<svg xmlns="http://www.w3.org/2000/svg" xmlns:xlink="http://www.w3.org/1999/xlink" viewBox="0 0 32 32" xmlns:v="https://vecta.io/nano"><use xlink:href="#B" fill="#fff"/><g stroke="#fff"><use xlink:href="#B" fill="none" stroke-width=".2"/><path d="M16,8c-4.4,0-7.9,3.7-7.9,8s3.6,7.9,8,7.9S24,20.4,24,16S20.4,8,16,8z M16,23c-3.8,0-7-3.1-7-7s3.1-6.9,7-6.9  s7,3.1,7,6.9S19.8,23,16,23z" fill="#fff" stroke-width=".1"/></g><defs ><path id="B" d="M30.4 12h-1.8a.55.55 0 0 1-.5-.3c-.2-.4-.3-.9-.5-1.3-.1-.2 0-.4.1-.6L29 8.5c.6-.6.6-1.5 0-2.1L25.5 3c-.6-.6-1.5-.6-2.1 0l-1.3 1.3c-.1.1-.4.2-.6.1-.4-.2-.8-.4-1.3-.5-.1-.1-.2-.3-.2-.5V1.6A1.54 1.54 0 0 0 18.5.1h-5A1.54 1.54 0 0 0 12 1.6v1.8a.55.55 0 0 1-.3.5c-.4.2-.9.3-1.3.5-.2.1-.4 0-.6-.1L8.6 3a1.34 1.34 0 0 0-2 0L3 6.6a1.34 1.34 0 0 0 0 2l1.3 1.3c.1.1.2.4.1.6-.2.4-.4.8-.5 1.3-.1.1-.3.2-.5.2H1.6a1.54 1.54 0 0 0-1.5 1.5v5A1.54 1.54 0 0 0 1.6 20h1.8a.55.55 0 0 1 .5.3c.2.4.3.9.5 1.3.1.2 0 .4-.1.6L3 23.5c-.6.6-.6 1.5 0 2.1L6.5 29c.6.6 1.5.6 2.1 0l1.3-1.3c.1-.1.4-.2.6-.1.4.2.8.4 1.3.5a.55.55 0 0 1 .3.5v1.8a1.54 1.54 0 0 0 1.5 1.5h5a1.54 1.54 0 0 0 1.5-1.5v-1.8a.55.55 0 0 1 .3-.5c.4-.2.9-.3 1.3-.5.2-.1.4 0 .6.1l1.3 1.3c.6.6 1.5.6 2.1 0l3.5-3.5c.6-.6.6-1.5 0-2.1l-1.3-1.3c-.1-.1-.2-.4-.1-.6.2-.4.4-.8.5-1.3a.55.55 0 0 1 .5-.3h1.8a1.54 1.54 0 0 0 1.5-1.5v-5c-.2-.7-.9-1.4-1.7-1.4zm.5 6.5a.47.47 0 0 1-.5.5h-1.8c-.6 0-1.2.4-1.4 1-.1.4-.3.8-.5 1.2-.3.6-.2 1.3.3 1.7l1.3 1.3c.2.2.2.5 0 .7l-3.5 3.5c-.2.2-.5.2-.7 0L22.9 27c-.4-.4-1.1-.6-1.7-.3-.4.2-.8.3-1.2.5-.6.2-1 .8-1 1.4v1.8a.47.47 0 0 1-.5.5h-5a.47.47 0 0 1-.5-.5v-1.8c0-.6-.4-1.2-1-1.4-1.2-.4-1.3-.6-1.8-.6-.4 0-.8.2-1.1.4l-1.3 1.3c-.2.2-.5.2-.7 0l-3.5-3.5c-.2-.2-.2-.5 0-.7L5 22.9c.4-.4.6-1.1.3-1.7-.2-.4-.4-.8-.5-1.2-.2-.6-.8-1-1.4-1H1.6a.47.47 0 0 1-.5-.5v-5a.47.47 0 0 1 .5-.5h1.8c.6 0 1.2-.4 1.4-1 .1-.4.3-.8.5-1.2.3-.6.2-1.3-.3-1.7L3.7 8c-.2-.2-.2-.5 0-.7l3.5-3.5c.2-.2.5-.2.7 0l1.3 1.3c.4.4 1.1.6 1.7.3.4-.3.8-.5 1.2-.6.6-.2 1-.8 1-1.4V1.6a.47.47 0 0 1 .5-.5h5a.47.47 0 0 1 .5.5v1.8c0 .6.4 1.2 1 1.4.4.1.8.3 1.2.5.6.3 1.3.2 1.7-.3l1.3-1.3c.2-.2.5-.2.7 0l3.5 3.5c.2.2.2.5 0 .7L27 9.1c-.4.4-.6 1.1-.3 1.7.2.4.3.8.5 1.2.2.6.8 1 1.4 1h1.8a.47.47 0 0 1 .5.5v5z"/></defs></svg>