<svg xmlns="http://www.w3.org/2000/svg" viewBox="0 0 32 32" xmlns:v="https://vecta.io/nano"><path d="M1.6.9C.7.9 0 1.7 0 2.5v20.3a1.58 1.58 0 0 0 1.6 1.6h10.5l-.8 3.2H9.6a1.11 1.11 0 0 0-1.1 1.1v1.1a1.11 1.11 0 0 0 1.1 1.1h12.8a1.11 1.11 0 0 0 1.1-1.1v-1.1a1.11 1.11 0 0 0-1.1-1.1h-1.7l-.8-3.2h10.5a1.58 1.58 0 0 0 1.6-1.6V2.5A1.58 1.58 0 0 0 30.4.9H1.6zm0 1.1h28.8a.47.47 0 0 1 .5.5v17.6H1.1V2.5a.47.47 0 0 1 .5-.5zm-.5 19.2H31v1.6a.47.47 0 0 1-.5.5H1.7a.47.47 0 0 1-.5-.5v-1.6zm12.1 3.2h5.6l.8 3.2h-7.2l.8-3.2zm-3.6 4.3h12.8v1.1H9.6v-1.1z" fill="#fff"/></svg>