<svg xmlns="http://www.w3.org/2000/svg" viewBox="0 0 32 32" opacity=".7" fill="#fff" xmlns:v="https://vecta.io/nano"><path d="M28.3 3.2H3.7a.47.47 0 0 0-.5.5v24.5a.47.47 0 0 0 .5.5h24.5a.47.47 0 0 0 .5-.5V3.7c.1-.3-.1-.5-.4-.5zm-.6 24.5h0H4.3V4.3h23.5l-.1 23.4h0zM3.7 0a.47.47 0 0 0-.5.5v1.6a.47.47 0 0 0 .5.5.47.47 0 0 0 .5-.5V.5C4.3.2 4 0 3.7 0zM2.1 3.2H.5a.47.47 0 0 0-.5.5.47.47 0 0 0 .5.5h1.6a.47.47 0 0 0 .5-.5.47.47 0 0 0-.5-.5zm0 24.5H.5c-.3 0-.5.3-.5.6a.47.47 0 0 0 .5.5h1.6a.47.47 0 0 0 .5-.5c.1-.3-.2-.6-.5-.6zm1.6 1.6a.47.47 0 0 0-.5.5v1.6a.47.47 0 0 0 .5.5.47.47 0 0 0 .5-.5v-1.6c.1-.2-.2-.5-.5-.5zm24.6 0a.47.47 0 0 0-.5.5v1.6a.47.47 0 0 0 .5.5.47.47 0 0 0 .5-.5v-1.6c0-.2-.2-.5-.5-.5zm3.2-1.6h-1.6a.47.47 0 0 0-.5.5.47.47 0 0 0 .5.5h1.6a.47.47 0 0 0 .5-.5c0-.2-.2-.5-.5-.5z"/><path d="M31.5 3.2h-1.6a.47.47 0 0 0-.5.5.47.47 0 0 0 .5.5h1.6c.3.1.5-.2.5-.5a.47.47 0 0 0-.5-.5zM28.3 0a.47.47 0 0 0-.5.5v1.6a.47.47 0 0 0 .5.5.47.47 0 0 0 .5-.5V.5a.47.47 0 0 0-.5-.5z"/></svg>