<svg xmlns="http://www.w3.org/2000/svg" viewBox="0 0 32 32" fill="#576071" xmlns:v="https://vecta.io/nano"><path d="M16 0c-3.2 0-6.3.9-8.9 2.7S2.4 7 1.2 9.9-.3 16 .3 19.1s2.1 6 4.4 8.2c2.2 2.2 5.1 3.8 8.2 4.4s6.3.3 9.2-.9 5.4-3.3 7.2-5.9S32 19.2 32 16A16.06 16.06 0 0 0 16 0zm0 30.5c-2.9 0-5.7-.8-8-2.4-2.4-1.6-4.2-3.9-5.3-6.5a14.19 14.19 0 0 1-.8-8.4c.6-2.8 1.9-5.4 4-7.4 2-2 4.6-3.4 7.4-4s5.7-.3 8.4.8c2.6 1.1 4.9 3 6.5 5.3 1.6 2.4 2.4 5.2 2.4 8 0 3.8-1.5 7.5-4.2 10.2s-6.6 4.4-10.4 4.4zM21.3 17l-4.6-1.5V6.9c0-.2-.1-.4-.2-.5s-.3-.2-.5-.2-.4.1-.5.2-.2.3-.2.5V16c0 .2 0 .3.1.4s.2.2.4.3l5.1 1.7h.2c.2 0 .3-.1.4-.2s.2-.2.3-.4 0-.4 0-.5c-.2-.1-.3-.3-.5-.3z"/></svg>