<?xml version="1.0" encoding="utf-8"?>
<!-- Generator: Adobe Illustrator 19.2.1, SVG Export Plug-In . SVG Version: 6.00 Build 0)  -->
<svg version="1.1" id="Vrstva_1" xmlns="http://www.w3.org/2000/svg" xmlns:xlink="http://www.w3.org/1999/xlink" x="0px" y="0px"
	 viewBox="0 0 159.5 42.5" style="enable-background:new 0 0 159.5 42.5;" xml:space="preserve">
<style type="text/css">
	.st0{fill:#25272D;}
	.st1{fill:#216AB0;}
</style>
<title>Hlidac statu</title>
<path class="st0" d="M105.2,21h1.9l1.9-2.9h-1.6l-1.2,1.7h-0.1l-1.2-1.7h-1.6L105.2,21z M101.3,27.6c0,3.3,2.1,5.1,4.7,5.1
	c1.2,0,2.3-0.5,3.2-1.3l-1-1.5c-0.6,0.5-1.3,0.8-2,0.8c-1.5,0-2.6-1.3-2.6-3.3s1.1-3.3,2.7-3.3c0.6,0.1,1.2,0.3,1.7,0.7l1.1-1.5
	c-0.8-0.7-1.8-1.1-2.9-1.1C103.3,22.3,101.1,24.8,101.3,27.6z M93.2,29.7c0-1,0.9-1.7,3.5-2v2.2c-0.5,0.6-1.3,1-2.1,1.1
	c-0.7,0.1-1.3-0.5-1.4-1.2C93.2,29.8,93.2,29.7,93.2,29.7z M91,29.9c-0.1,1.5,1.1,2.8,2.7,2.9c0.1,0,0.2,0,0.2,0
	c1.1-0.1,2.2-0.5,3-1.3H97l0.2,1.1h1.9v-5.8c0-2.7-1.2-4.2-3.7-4.2c-1.4,0-2.8,0.5-4,1.3l0.8,1.5c0.8-0.6,1.8-0.9,2.8-1
	c0.9-0.1,1.7,0.6,1.8,1.6c0,0.1,0,0.2,0,0.3C92.8,26.7,91,27.8,91,29.9z M81.9,27.6c0-2.1,1-3.2,2.3-3.2c0.7,0,1.5,0.3,2,0.8v4.6
	c-0.5,0.7-1.3,1.1-2.1,1.1C82.7,30.8,81.9,29.7,81.9,27.6z M79.5,27.6c0,3.2,1.6,5.1,4,5.1c1.1-0.1,2.1-0.5,2.8-1.3h0.1l0.2,1.1h1.9
	V18.4h-2.3V22l0.1,1.6c-0.7-0.7-1.6-1.1-2.6-1.1C81.5,22.4,79.5,24.4,79.5,27.6z M78.6,18.1h-2.3L74.5,21h1.7L78.6,18.1z M74.8,32.5
	h2.3v-9.8h-2.3V32.5z M69.3,30c0,1.7,0.7,2.8,2.3,2.8c0.4,0,0.8-0.1,1.2-0.2l-0.3-1.7h-0.4c-0.2,0-0.5-0.2-0.5-0.8V18.4h-2.3V30z
	 M56.3,32.5h2.4v-5.8H64v5.8h2.3V19.4H64v5.3h-5.3v-5.3h-2.3v13.1H56.3z"/>
<path class="st0" d="M34.5,42.5V25.3c0-6.6-5.4-11.3-12-11.3h-0.1c-6.6,0-12.3,4.7-12.3,11.3v17.2H34.5z"/>
<path class="st1" d="M30.4,27.4c-1.9-0.5-4-0.5-5.9,0c-1.8,0.5-2.1,3,0,3S31.9,27.8,30.4,27.4z"/>
<path class="st1" d="M14.3,27.4c1.9-0.5,4-0.5,5.9,0c1.8,0.5,2.1,3,0,3S12.8,27.8,14.3,27.4z"/>
<path class="st0" d="M22.8,0.3c-0.4-0.4-1.1-0.4-1.5,0L0.4,18.8c-0.4,0.4-0.5,1-0.2,1.5l0.9,1.3c0.3,0.4,0.8,0.5,1.2,0.3
	c0,0,0.1,0,0.1-0.1L22.1,4.5L42,21.8c0.3,0.3,0.8,0.3,1.1,0c0.1-0.1,0.1-0.1,0.2-0.2l0.9-1.3c0.3-0.5,0.2-1.1-0.2-1.5L22.8,0.3z"/>
<path class="st1" d="M150.7,28.7c0,2.5,0.8,4,3,4c1.2,0,2.4-0.6,3.1-1.6h0.1l0.2,1.4h2.4v-9.9h-2.9v6.6c-0.3,0.7-1,1.1-1.8,1.1
	c-0.8,0-1.2-0.5-1.2-1.9v-5.8h-2.9L150.7,28.7z M143.5,28.9c0,2.3,0.9,3.8,3.3,3.8c0.8,0,1.5-0.1,2.2-0.4l-0.5-2.1
	c-0.3,0.1-0.6,0.2-0.9,0.2c-0.8,0-1.3-0.5-1.3-1.6v-4h2.4v-2.3h-2.4v-2.6h-2.4l-0.3,2.6l-1.5,0.1v2.2h1.4L143.5,28.9L143.5,28.9z
	 M139.6,18h-2.8l-1.8,3h2.1L139.6,18z M134.8,29.5c0-0.8,0.7-1.4,2.8-1.6v1.7c-0.4,0.5-1,0.8-1.6,0.8
	C135.2,30.5,134.8,30.2,134.8,29.5z M132,29.7c-0.1,1.5,1.1,2.9,2.6,3c0.1,0,0.2,0,0.3,0c1.1,0,2.1-0.5,2.9-1.3h0.1l0.2,1h2.4v-5.7
	c0-3-1.4-4.5-3.9-4.5c-1.5,0-3,0.5-4.2,1.3l1,1.9c0.8-0.5,1.7-0.8,2.6-0.9c0.8-0.1,1.5,0.5,1.6,1.2c0,0,0,0.1,0,0.2
	C133.6,26.5,132,27.7,132,29.7z M125.4,28.9c0,2.3,0.9,3.8,3.3,3.8c0.8,0,1.5-0.1,2.2-0.4l-0.5-2.1c-0.3,0.1-0.6,0.2-0.9,0.2
	c-0.8,0-1.3-0.5-1.3-1.6v-4h2.4v-2.3h-2.4v-2.6h-2.4l-0.3,2.6l-1.5,0.1v2.2h1.4L125.4,28.9z M115.1,31.4c1.1,0.9,2.4,1.3,3.8,1.4
	c2.7,0,4.1-1.4,4.1-3.2s-1.4-2.5-2.7-3c-1-0.4-1.9-0.6-1.9-1.3c0-0.5,0.5-0.9,1-0.8c0,0,0.1,0,0.1,0c0.8,0,1.5,0.3,2.1,0.8l1.3-1.8
	c-1-0.8-2.2-1.2-3.5-1.3c-2.3,0-3.8,1.3-3.8,3.1c0,1.6,1.4,2.5,2.6,2.9c1,0.4,2,0.7,2,1.4c0,0.5-0.4,0.8-1.3,0.8
	c-0.9-0.1-1.8-0.4-2.6-1L115.1,31.4z"/>
</svg>
