<svg xmlns="http://www.w3.org/2000/svg" width="44.318" height="33.825"><defs><linearGradient id="a" x1="116.71" y1="31.343" x2="102.594" y2="14.521" gradientUnits="userSpaceOnUse" gradientTransform="translate(-105.683 -.685)"><stop offset="0" stop-color="#df8200"/><stop offset=".392" stop-color="#f0a800"/><stop offset=".713" stop-color="#ffcb00"/><stop offset="1" stop-color="#ffcb00"/></linearGradient><linearGradient id="b" x1="106.335" y1="23.516" x2="140.192" y2="23.516" gradientUnits="userSpaceOnUse" gradientTransform="translate(-105.683 -.685)"><stop offset="0" stop-color="#fcc200"/><stop offset="1" stop-color="#ffcb00"/></linearGradient></defs><path d="M27.61.409H13.983v19.322a42.906 42.906 0 016.919-4.057V7.326h6.708v.013a9.777 9.777 0 010 19.555v.006h-6.708v-6.037c0-.173-.157-.171-.236-.113A31.892 31.892 0 0013.983 27v6.825H27.61a16.707 16.707 0 000-33.415z" fill="#fff"/><path transform="translate(-105.683 -.685)" fill="url(#Nepojmenovan%C3%BD_p%C5%99echod_15)" d="M119.666 1.094l6.919 6.917v8.348l-6.919 4.057z"/><path fill="url(#a)" d="M.652 10.697h6.634v23.101H.652z"/><path d="M34.508 12.572a.789.789 0 00-.2-.505.935.935 0 00-.82-.191A42.336 42.336 0 00.648 33.798h6.634c7.037-12.392 17.369-17.99 26.691-20.609.416-.138.544-.391.535-.617z" fill="url(#b)"/><path d="M3.969 0A3.969 3.969 0 110 3.968 3.971 3.971 0 013.969 0z" fill="#ffcb00"/></svg>