<svg xmlns="http://www.w3.org/2000/svg" width="702" height="231" fill="none" xmlns:v="https://vecta.io/nano"><style><![CDATA[.B{stroke-dasharray:2.81 2.81}.C{stroke-dasharray:2.7 2.7}.D{stroke-dasharray:2.66 2.66}.E{stroke-dasharray:2.88 2.88}.F{stroke-dasharray:2.74 2.74}.G{stroke-dasharray:3.03 3.03}.H{stroke-dasharray:2.86 2.86}.I{stroke-dasharray:2.41 2.41}.J{stroke-dasharray:2.6 2.6}]]></style><g opacity=".65" stroke="#80a3c5" stroke-width="2" stroke-miterlimit="10"><path d="M218.641 2.106V.011m0 230.423v-2.095"/><path d="M218.641 226.271V3.154" stroke-dasharray="2.79 2.79"/><path d="M694.203 123.616v-2.094"/><path d="M694.203 119.721v-9.867" class="I"/><path d="M694.203 108.95v-2.095m-11.226 14.661v-2.095"/><path d="M682.977 117.327V112.09" class="B"/><path d="M682.977 111.042v-2.095m-100.579 12.569v-2.095"/><path d="M582.398 117.327V112.09" class="B"/><path d="M582.398 111.042v-2.095m89.329 10.477v-2.095m0-4.188v-2.095M660.5 139.112v-2.095"/><path d="M660.5 135.03V94.433" class="D"/><path d="M660.5 93.448v-2.095m-11.219 72.067v-2.095"/><path d="M649.281 159.186V70.22" class="E"/><path d="M649.281 69.154v-2.095m-11.25 152.901v-2.095"/><path d="M638.031 215.749V13.642" stroke-dasharray="2.84 2.84"/><path d="M638.031 12.576v-2.095M626.797 155.03v-2.094"/><path d="M626.797 150.907V78.553" class="F"/><path d="M626.797 77.525V75.43m-11.227 60.741v-2.095"/><path d="M615.57 132.084V97.353" class="D"/><path d="M615.57 96.367v-2.095m-11.234 60.758v-2.094"/><path d="M604.336 150.907V78.553" class="F"/><path d="M604.336 77.525V75.43m-11.25 52.379v-2.095"/><path d="M593.086 123.616V105.81" class="B"/><path d="M593.086 104.762v-2.095m-22.461 25.142v-2.095"/><path d="M570.625 123.616V105.81" class="B"/><path d="M570.625 104.762v-2.095m-11.258 50.27v-2.095"/><path d="M559.367 148.749V80.668" class="B"/><path d="M559.367 79.619v-2.095m-79.148 43.992v-2.095"/><path d="M480.219 117.327V112.09" class="B"/><path d="M480.219 111.042v-2.095m-11.781 18.862v-2.095"/><path d="M468.438 123.616V105.81" class="B"/><path d="M468.438 104.762v-2.095m-11.227 10.465v2.095m0-.001v2.095m90.937 67.04v-2.095"/><path d="M548.148 180.17V49.245" class="B"/><path d="M548.148 48.197v-2.095m-11.226 96.357v-2.094"/><path d="M536.922 138.361V91.102" class="C"/><path d="M536.922 90.091v-2.095m-11.25 39.813v-2.095"/><path d="M525.672 123.616V105.81" class="B"/><path d="M525.672 104.762v-2.095m-11.219 18.849v-2.095"/><path d="M514.453 117.327V112.09" class="B"/><path d="M514.453 111.042v-2.095m-68.976 18.862v-2.095"/><path d="M445.477 123.616V105.81" class="B"/><path d="M445.477 104.762v-2.095m-11.219 50.27v-2.095"/><path d="M434.258 148.749V80.668" class="B"/><path d="M434.258 79.619v-2.095m-11.227 52.374v-2.094"/><path d="M423.031 125.874V103.627" class="J"/><path d="M423.031 102.663v-2.095m-11.219 41.891v-2.094"/><path d="M411.812 138.361V91.102" class="C"/><path d="M411.812 90.091v-2.095m-11.289 39.813v-2.095"/><path d="M400.523 123.616V105.81" class="B"/><path d="M400.523 104.762v-2.095m-11.226 18.849v-2.095"/><path d="M389.297 117.327V112.09" class="B"/><path d="M389.297 111.042v-2.095m113.914 43.99v-2.095"/><path d="M503.211 148.749V80.668" class="B"/><path d="M503.211 79.619v-2.095m-11.227 54.459v-2.095"/><path d="M491.984 127.63V101.697" class="G"/><path d="M491.984 100.565V98.47m-116.039-6.279v2.095"/><path d="M375.945 96.484v38.586" stroke-dasharray="2.96 2.96"/><path d="M375.945 136.183v2.095m-11.25-14.662v-2.094"/><path d="M364.695 119.721v-9.867" class="I"/><path d="M364.695 108.95v-2.095m-11.257 14.661v-2.095"/><path d="M353.438 117.327V112.09" class="B"/><path d="M353.438 111.042v-2.095m-100.555 27.224v-2.095"/><path d="M252.883 132.084V97.353" class="D"/><path d="M252.883 96.367v-2.095m89.328 25.152v-2.095m0-4.188v-2.095M1 108.947v2.095"/><path d="M1 113.136v5.237" class="B"/><path d="M1 119.421v2.095m13.383-33.52v2.095"/><path d="M14.383 92.1v47.259" class="C"/><path d="M14.383 140.365v2.094m22.484-33.512v2.095"/><path d="M36.867 113.136v5.237" class="B"/><path d="M36.867 119.421v2.095m294.125 17.596v-2.095"/><path d="M330.992 135.03V94.433" class="D"/><path d="M330.992 93.448v-2.095M319.75 163.42v-2.095"/><path d="M319.75 159.186V70.22" class="E"/><path d="M319.75 69.154v-2.095m-11.227 75.4v-2.094"/><path d="M308.523 138.361V91.102" class="C"/><path d="M308.523 90.091v-2.095m-11.242 67.034v-2.094"/><path d="M297.281 150.907V78.553" class="F"/><path d="M297.281 77.525V75.43m-11.234 108.931v-2.095"/><path d="M286.047 180.17V49.245" class="B"/><path d="M286.047 48.197v-2.095m-11.25 129.883v-2.095"/><path d="M274.797 171.751V57.647" class="H"/><path d="M274.797 56.581v-2.095M263.555 163.42v-2.095"/><path d="M263.555 159.186V70.22" class="E"/><path d="M263.555 69.154v-2.095m-22.446 108.926v-2.095"/><path d="M241.109 171.751V57.647" class="H"/><path d="M241.109 56.581v-2.095m-11.242 144.542v-2.094"/><path d="M229.867 194.86V34.565" stroke-dasharray="2.78 2.78"/><path d="M229.867 33.538v-2.095m-79.164 90.073v-2.095"/><path d="M150.703 117.327V112.09" class="B"/><path d="M150.703 111.042v-2.095m-11.781 18.862v-2.095"/><path d="M138.922 123.616V105.81" class="B"/><path d="M138.922 104.762v-2.095m-11.266 10.465v2.095m0-.001v2.095M26 127.809v-2.095"/><path d="M26 123.616V105.81" class="B"/><path d="M26 104.762v-2.095m22.953 10.465v2.095m0-.001v2.095m158.461 58.664v-2.095"/><path d="M207.414 171.751V57.647" class="H"/><path d="M207.414 56.581v-2.095m-11.242 98.451v-2.095"/><path d="M196.172 148.749V80.668" class="B"/><path d="M196.172 79.619v-2.095m-11.258 54.459v-2.095"/><path d="M184.914 127.63V101.697" class="G"/><path d="M184.914 100.565V98.47M116 127.809v-2.095"/><path d="M116 123.616V105.81" class="B"/><path d="M116 104.762v-2.095m-11.258 50.27v-2.095"/><path d="M104.742 148.749V80.668" class="B"/><path d="M104.742 79.619v-2.095M93.5 129.898v-2.094"/><path d="M93.5 125.874V103.627" class="J"/><path d="M93.5 102.663v-2.095m-11.227 41.891v-2.094"/><path d="M82.273 138.361V91.102" class="C"/><path d="M82.273 90.091v-2.095m-11.226 39.813v-2.095"/><path d="M71.047 123.616V105.81" class="B"/><path d="M71.047 104.762v-2.095m-11.242 18.849v-2.095"/><path d="M59.805 117.327v-5.237" class="B"/><path d="M59.805 111.042v-2.095m113.883 43.99v-2.095"/><path d="M173.688 148.749V80.668" class="B"/><path d="M173.688 79.619v-2.095m-11.243 54.459v-2.095"/><path d="M162.445 127.63V101.697" class="G"/><path d="M162.445 100.565V98.47"/></g></svg>