<svg xmlns="http://www.w3.org/2000/svg" viewBox="0 0 136 38" xmlns:v="https://vecta.io/nano"><path d="M21.7 18c0-3.9 3.3-5.8 3.5-5.9-1.9-2.7-4.8-3-5.9-3.1-2.5-.3-4.9 1.4-6.1 1.4C11.9 10.4 10 9 7.9 9c-2.7 0-5.2 1.5-6.6 3.9-2.8 4.8-.7 11.8 2 15.6 1.4 1.9 2.9 4 5 3.9 2-.1 2.8-1.3 5.3-1.3 2.4 0 3.1 1.3 5.3 1.2 2.2 0 3.6-1.9 4.9-3.8 1.6-2.2 2.2-4.3 2.2-4.4-.1.1-4.2-1.4-4.3-6.1zm-4-11.5c1.1-1.3 1.8-3.1 1.6-5-1.6.1-3.6 1.1-4.7 2.4-1 1.1-1.9 3-1.7 4.8 1.8.1 3.7-.9 4.8-2.2zm33.2 25.3h-2.8l-1.5-4.7h-5.4l-1.5 4.7H37l5.3-16h3.3c0 0 5.3 16 5.3 16zm-4.8-6.7l-1.4-4.2-.8-3h0l-.8 3-1.4 4.2h4.4zm18.5.8c0 2-.5 3.5-1.6 4.7-1 1-2.2 1.5-3.7 1.5-1.6 0-2.7-.5-3.4-1.6h0v6h-2.6V24l-.1-3.8h2.3l.1 1.8h0c.9-1.4 2.2-2.1 4-2.1 1.4 0 2.6.5 3.5 1.6 1.1 1.2 1.5 2.6 1.5 4.4zm-2.7.1c0-1.1-.3-2.1-.8-2.8-.6-.8-1.3-1.1-2.3-1.1-.7 0-1.2.2-1.8.6-.5.4-.9 1-1 1.7-.1.3-.1.6-.1.8v1.9c0 .8.3 1.6.8 2.1.5.6 1.2.9 2.1.9 1 0 1.8-.4 2.3-1.1.6-.8.8-1.8.8-3zm16.4-.1c0 2-.5 3.5-1.6 4.7-1 1-2.2 1.5-3.7 1.5-1.6 0-2.7-.5-3.4-1.6h0v6H67V24l-.1-3.8h2.3l.1 1.8h0c.9-1.4 2.2-2.1 4-2.1 1.4 0 2.6.5 3.5 1.6 1.1 1.2 1.5 2.6 1.5 4.4zm-2.7.1c0-1.1-.3-2.1-.8-2.8-.6-.8-1.3-1.1-2.3-1.1-.7 0-1.2.2-1.8.6-.5.4-.9 1-1 1.7-.1.3-.1.6-.1.8v1.9c0 .8.3 1.6.8 2.1.5.6 1.2.9 2.1.9 1 0 1.8-.4 2.3-1.1.6-.8.8-1.8.8-3zm18 1.3c0 1.4-.5 2.5-1.5 3.3-1.1.9-2.6 1.4-4.5 1.4-1.8 0-3.2-.3-4.3-1l.6-2.1c1.2.7 2.4 1 3.8 1 1 0 1.8-.2 2.3-.7.6-.4.8-1 .8-1.8 0-.7-.2-1.2-.7-1.6s-1.2-.9-2.3-1.2c-2.9-1-4.3-2.6-4.3-4.6 0-1.3.5-2.4 1.5-3.2s2.4-1.3 4-1.3c1.5 0 2.8.3 3.7.8l-.7 2.1c-.9-.5-2-.7-3.2-.7-.9 0-1.7.2-2.2.7-.4.4-.7.9-.7 1.5s.3 1.2.8 1.6c.4.4 1.2.8 2.4 1.2 1.4.6 2.5 1.2 3.1 2 1.1.5 1.4 1.5 1.4 2.6h0zm8.8-5.2h-2.9v5.6c0 1.4.5 2.1 1.5 2.1.5 0 .9 0 1.2-.1l.1 2c-.5.2-1.2.3-2.1.3-1 0-1.9-.3-2.5-.9s-.9-1.7-.9-3.1v-5.8h-1.7v-1.9h1.7v-2.1l2.6-.8v2.9h2.9v1.8h.1zm13.2 3.8c0 1.8-.5 3.2-1.6 4.4s-2.6 1.8-4.4 1.8c-1.7 0-3.1-.6-4.2-1.7-1-1.1-1.6-2.5-1.6-4.3s.5-3.3 1.6-4.4 2.5-1.7 4.3-1.7c1.7 0 3.2.6 4.2 1.7 1.2 1.1 1.7 2.5 1.7 4.2zm-2.8.1c0-1.1-.2-2-.7-2.7-.6-.9-1.3-1.4-2.4-1.4s-1.9.5-2.4 1.4c-.5.8-.7 1.7-.7 2.8s.2 2 .7 2.7c.6.9 1.4 1.4 2.4 1.4s1.8-.5 2.4-1.4c.5-.8.7-1.7.7-2.8zm11.4-3.5c-.3 0-.5-.1-.8-.1-.9 0-1.7.3-2.2 1-.4.6-.7 1.4-.7 2.3v6.1h-2.6v-7.9l-.1-3.6h2.3l.1 2.2h.1c.3-.8.7-1.4 1.3-1.8s1.2-.6 1.9-.6h.7v2.4zm11.8 3c0 .5 0 .8-.1 1.2H128c0 1.1.4 2 1.2 2.6.7.5 1.5.8 2.6.8 1.2 0 2.2-.2 3.2-.5l.4 1.8c-1.1.5-2.5.7-4 .7-1.8 0-3.3-.5-4.4-1.6s-1.6-2.5-1.6-4.2.5-3.2 1.5-4.4 2.4-1.9 4.2-1.9c1.7 0 3 .6 3.9 1.9.6.9 1 2.1 1 3.6h0zm-2.5-.7c0-.8-.2-1.4-.5-2-.5-.7-1.2-1.1-2.1-1.1s-1.6.3-2.1 1c-.4.6-.7 1.2-.8 2l5.5.1h0 0zM44.7 5.5c0 1.3-.4 2.4-1.3 3-.8.6-2 .9-3.4.9-.7 0-1.4 0-1.9-.1V2c.7-.1 1.4-.2 2.2-.2 1.4 0 2.5.3 3.2.9s1.2 1.6 1.2 2.8zm-1.4 0c0-.9-.3-1.5-.8-2s-1.2-.7-2.2-.7c-.4 0-.8 0-1 .1v5.6h.9c1 0 1.8-.3 2.3-.8s.8-1.2.8-2.2zm8.6 1.1c0 .8-.3 1.5-.8 2-.5.6-1.2.9-2.1.9s-1.5-.3-2-.8-.8-1.2-.8-2 .3-1.5.8-2.1c.5-.5 1.2-.8 2.1-.8s1.5.3 2.1.8c.5.6.7 1.2.7 2zm-1.3.1c0-.5-.1-.9-.3-1.3-.3-.4-.7-.6-1.2-.6s-.9.2-1.2.6c-.2.4-.3.8-.3 1.3s.1.9.3 1.3c.3.4.7.6 1.2.6s.9-.2 1.2-.7c.1-.3.3-.7.3-1.2zm11-2.7l-1.8 5.4h-1.2l-.8-2.3-.5-1.7h0c-.1.6-.3 1.2-.5 1.7L56 9.4h-1.2L53.1 4h1.3l.8 2.5c.2.6.3 1.2.4 1.7h0c.1-.5.3-1 .5-1.7l.8-2.6H58l.8 2.6c.2.6.3 1.2.5 1.8h0c.1-.6.2-1.1.4-1.8l.7-2.5h1.2zm6.8 5.4h-1.3V6.3c0-1-.4-1.4-1.2-1.4-.4 0-.7.1-.9.4s-.4.6-.4.9v3.2h-1.3V5.5 4h1.1l.1.8h0c.2-.3.4-.5.7-.7.4-.2.7-.3 1.2-.3s1 .2 1.4.5c.4.4.7 1 .7 1.8l-.1 3.3h0zm3.5 0h-1.3V1.5h1.3v7.9zm7.7-2.8c0 .8-.3 1.5-.8 2-.5.6-1.2.9-2.1.9s-1.5-.3-2-.8-.8-1.2-.8-2 .3-1.5.8-2.1c.5-.5 1.2-.8 2.1-.8s1.5.3 2.1.8c.4.6.7 1.2.7 2zm-1.4.1c0-.5-.1-.9-.3-1.3-.3-.4-.7-.6-1.2-.6s-.9.2-1.2.6c-.2.4-.3.8-.3 1.3s.1.9.3 1.3c.3.4.7.6 1.2.6s.9-.2 1.2-.7c.2-.3.3-.7.3-1.2zm7.7 2.7h-1.2l-.1-.6h0c-.4.5-1 .7-1.7.7-.6 0-1-.2-1.3-.5s-.5-.7-.5-1.1c0-.7.3-1.2.9-1.5s1.4-.5 2.5-.5v-.1c0-.7-.4-1.1-1.2-1.1-.6 0-1.1.1-1.5.4l-.3-.8c.5-.3 1.2-.5 2-.5 1.5 0 2.3.7 2.3 2.2v2c0 .6 0 1.1.1 1.4zm-1.4-1.9v-.8c-1.4 0-2.1.3-2.1 1.1 0 .3.1.5.2.6.2.1.4.2.6.2.3 0 .6-.1.8-.2.2-.2.4-.4.4-.6.1-.1.1-.2.1-.3zm8.7 1.9H92v-.9h0c-.4.7-1 1-1.9 1-.7 0-1.3-.3-1.8-.8s-.7-1.2-.7-2c0-.9.3-1.6.8-2.1s1.1-.8 1.8-.8c.8 0 1.3.2 1.6.7h0v-3h1.3v6.4c.1.5.1 1 .1 1.5zm-1.3-2.3v-.9-.4c-.1-.3-.2-.5-.5-.7-.2-.2-.5-.3-.9-.3-.5 0-.9.2-1.1.5-.3.4-.4.8-.4 1.4 0 .5.1 1 .4 1.3.2.4.6.5 1.1.5.4 0 .8-.1 1-.4.3-.3.4-.6.4-1zm12.4-.5c0 .8-.3 1.5-.8 2-.5.6-1.2.9-2.1.9s-1.5-.3-2-.8-.8-1.2-.8-2 .3-1.5.8-2.1c.5-.5 1.2-.8 2.1-.8s1.5.3 2.1.8c.5.6.7 1.2.7 2zm-1.3.1c0-.5-.1-.9-.3-1.3-.3-.4-.7-.6-1.2-.6s-.9.2-1.2.6c-.2.4-.3.8-.3 1.3s.1.9.3 1.3c.3.4.7.6 1.2.6s.9-.2 1.2-.7c.2-.3.3-.7.3-1.2zm8.3 2.7H110V6.3c0-1-.4-1.4-1.2-1.4-.4 0-.7.1-.9.4s-.4.6-.4.9v3.2h-1.3V5.5 4h1.1l.1.8h0c.2-.3.4-.5.7-.7.4-.2.7-.3 1.2-.3s1 .2 1.4.5c.4.4.7 1 .7 1.8l-.1 3.3h0zm8.7-4.5h-1.4v2.6c0 .7.3 1 .8 1 .2 0 .4 0 .6-.1v.9c-.3.1-.6.1-1 .1-.5 0-.9-.1-1.2-.4s-.4-.8-.4-1.5V4.9h-.9V4h.9V3l1.3-.4v1.3h1.4l-.1 1zm6.9 4.5h-1.3V6.3c0-1-.4-1.5-1.2-1.5-.6 0-1 .3-1.2.8 0 .1-.1.3-.1.4v3.2h-1.3V1.5h1.3v3.3h0c.4-.6 1-.9 1.8-.9.5 0 1 .2 1.3.5.4.4.7 1 .7 1.8v3.2zm7.1-3v.5h-3.9c0 .5.2.9.6 1.2.3.3.8.4 1.3.4.6 0 1.1-.1 1.6-.3l.2.8c-.6.2-1.2.3-2 .3-.9 0-1.6-.2-2.1-.7s-.8-1.2-.8-2 .2-1.5.7-2c.5-.6 1.2-.9 2-.9s1.5.3 1.9.9c.3.6.5 1.1.5 1.8zm-1.2-.3c0-.4-.1-.7-.3-.9-.2-.3-.6-.5-1-.5s-.8.2-1 .5-.3.6-.4.9h2.7z" fill="#3d434c"/></svg>