<svg xmlns="http://www.w3.org/2000/svg" viewBox="0 0 135 38" xmlns:v="https://vecta.io/nano"><path d="M43.1 6.8c0 1-.2 1.9-.8 2.6-.7.7-1.6 1.1-2.6 1.1s-2-.4-2.6-1.2c-.7-.8-1.1-1.6-1.1-2.8s.4-2.1 1.1-2.8c.6-.8 1.6-1.2 2.6-1.2.5 0 .9.1 1.4.4s.8.5 1.1.9l-.6.6c-.5-.6-1.2-.9-1.9-.9s-1.4.3-1.9.9c-.6.5-.8 1.3-.8 2.2s.2 1.7.8 2.2 1.2.9 1.9.9c.8 0 1.4-.3 2-.9.4-.4.6-.9.6-1.5h-2.6v-1h3.4c0 0 0 .5 0 .5zm5.5-3.3h-3.2V6h3v.9h-3v2.5h3.2v1h-4.1V2.6h4.1v.9zm3.9 6.9h-.9V3.5h-2v-.9h5v.9h-2l-.1 6.9h0zm5.4 0V2.6h.9v7.7l-.9.1h0zm5 0H62V3.5h-2v-.9h4.9v.9h-2v6.9h0 0zm11.3-1.1c-.7.8-1.6 1.2-2.6 1.2s-1.9-.4-2.6-1.2-1.1-1.7-1.1-2.8.4-2.1 1.1-2.8c.6-.8 1.6-1.2 2.6-1.2s2 .4 2.6 1.2c.7.8 1.1 1.7 1.1 2.8s-.4 2.1-1.1 2.8zm-4.5-.6c.5.5 1.2.9 1.9.9s1.4-.3 1.9-.9c.5-.5.8-1.3.8-2.2s-.2-1.7-.8-2.2c-.5-.5-1.2-.9-1.9-.9s-1.4.3-1.9.9c-.5.5-.8 1.3-.8 2.2-.1.9.2 1.7.8 2.2zm6.8 1.7V2.6h1.1L81 8.7V2.6h1v7.7h-.9L77.4 4v6.3l-.9.1h0zm-8.9 9.9c-2.8 0-5 2.2-5 5.3 0 3 2.2 5.3 5 5.3s5-2.2 5-5.3-2.2-5.3-5-5.3zm0 8.5c-1.5 0-2.8-1.4-2.8-3.2 0-1.9 1.3-3.2 2.8-3.2s2.8 1.2 2.8 3.2c0 1.8-1.3 3.2-2.8 3.2zm-10.9-8.5c-2.8 0-5 2.2-5 5.3 0 3 2.2 5.3 5 5.3s5-2.2 5-5.3-2.2-5.3-5-5.3zm0 8.5c-1.5 0-2.8-1.4-2.8-3.2 0-1.9 1.3-3.2 2.8-3.2s2.8 1.2 2.8 3.2c0 1.8-1.3 3.2-2.8 3.2zm-13-6.8v2.2h5c-.1 1.1-.5 2.1-1.2 2.9-1 1.1-2.4 1.6-3.9 1.6-3.2 0-5.5-2.6-5.5-6s2.5-6 5.5-6c1.6 0 2.9.7 3.9 1.6l1.5-1.6c-1.2-1.2-2.8-2.2-5.2-2.2-4.2 0-7.8 3.7-7.8 8.2s3.6 8.2 7.8 8.2c2.3 0 4-.7 5.4-2.4 1.4-1.5 1.9-3.6 1.9-5.2 0-.5 0-1-.1-1.4l-7.3.1h0zm53.2 1.7c-.5-1.2-1.6-3.4-4.2-3.4S88 22.5 88 25.7c0 3 2.1 5.3 4.9 5.3 2.2 0 3.6-1.5 4.1-2.4l-1.6-1.2c-.6.9-1.3 1.5-2.5 1.5s-1.9-.5-2.5-1.6l6.7-3c0 0-.2-.6-.2-.6zm-6.8 1.7c0-2 1.5-3.1 2.6-3.1.8 0 1.6.5 1.9 1.1l-4.5 2zm-5.5 5.1h2.2V15h-2.2v15.5zm-3.5-9c-.6-.6-1.5-1.2-2.7-1.2-2.5 0-4.8 2.4-4.8 5.3 0 3 2.2 5.2 4.8 5.2 1 0 2-.4 2.6-1.2h.1v.7c0 2-1.1 3.1-2.7 3.1-1.3 0-2.2-1-2.5-1.9l-1.9.9c.6 1.4 2 3.1 4.4 3.1 2.6 0 4.7-1.6 4.7-5.5v-9.4H81l.1.9h0zm-2.6 7.3c-1.5 0-2.8-1.4-2.8-3.2 0-1.9 1.3-3.2 2.8-3.2s2.7 1.4 2.7 3.2-1.2 3.2-2.7 3.2zM107 15h-5.3v15.5h2.2v-5.8h3c2.5 0 4.8-1.9 4.8-4.8.1-3-2.2-4.9-4.7-4.9zm.1 7.5H104v-5.3h3.2c1.6 0 2.6 1.5 2.6 2.6-.2 1.3-1.1 2.7-2.7 2.7zm13.5-2.3c-1.6 0-3.3.7-3.9 2.4l2 .9c.5-.9 1.2-1.1 2-1.1 1.2 0 2.2.7 2.3 2v.1c-.4-.2-1.3-.6-2.2-.6-2.1 0-4.2 1.2-4.2 3.5 0 2.1 1.8 3.5 3.6 3.5 1.5 0 2.2-.7 2.8-1.5h.1v1.1h2.1v-6c-.1-2.7-2.1-4.3-4.6-4.3zm-.2 8.6c-.7 0-1.8-.4-1.8-1.4 0-1.2 1.3-1.6 2.3-1.6.9 0 1.4.2 2 .5-.2 1.5-1.4 2.5-2.5 2.5zm12.3-8.2l-2.5 6.7h-.1l-2.6-6.7h-2.3l3.9 9.4-2.2 5.2h2.2l6-14.7h-2.4v.1zM113 30.5h2.2V15H113v15.5zm-93-8l-3.2-3L5 30.5l15-8zm0-8l-15-8 11.8 11 3.2-3zm4.3 6.1c.9-.8.9-2.5-.1-3.3l-3-1.8L18 19l3.3 3.5 3-1.9zM2.1 31.5l12.9-13-12.9-13h0c-.7.3-1.1 1-1.1 1.8v22.4c0 .8.4 1.5 1.1 1.8z" fill="#fff"/></svg>