<svg xmlns="http://www.w3.org/2000/svg" width="25" height="24" fill="none" xmlns:v="https://vecta.io/nano"><g clip-path="url(#A)"><path d="M22.78 10.867H2.202a.52.52 0 0 0-.514.522v9.391c0 1.441 1.152 2.609 2.572 2.609h16.463c1.421 0 2.572-1.168 2.572-2.609v-9.391a.52.52 0 0 0-.514-.522z" fill="#ffc107"/><path d="M2.2 5.65h20.578c.852 0 1.543.701 1.543 1.565v3.13c0 .864-.691 1.565-1.543 1.565H2.2c-.852 0-1.543-.701-1.543-1.565v-3.13c0-.864.691-1.565 1.543-1.565z" fill="#ffd54f"/><g fill="#f44336"><path d="M12.49 6.693c-2.5-.011-4.7-1.674-5.424-4.1-.23-.829.246-1.69 1.063-1.923.272-.078.56-.078.832 0 2.393.734 4.033 2.966 4.044 5.501a.52.52 0 0 1-.514.522zM8.052 2.294c.534 1.79 2.06 3.092 3.89 3.32-.225-1.857-1.509-3.405-3.275-3.946-.272-.07-.549.097-.617.373-.021.083-.021.17 0 .253h.002z"/><path d="M12.491 6.693a.52.52 0 0 1-.514-.522c.011-2.535 1.651-4.767 4.044-5.501.817-.234 1.666.249 1.896 1.078a1.58 1.58 0 0 1 0 .846c-.725 2.426-2.926 4.089-5.425 4.099zm3.953-5.042a.44.44 0 0 0-.131.02c-1.766.542-3.05 2.089-3.275 3.945 1.831-.229 3.356-1.531 3.89-3.322.049-.176-.002-.365-.134-.49-.092-.096-.219-.151-.351-.152z"/><path d="M9.406 9.823a.52.52 0 0 1-.515-.521c0-.139.054-.272.151-.37l3.087-3.13a.51.51 0 0 1 .727-.013c.204.2.21.53.013.738L9.769 9.67a.51.51 0 0 1-.363.153z"/><path d="M13.006 5.65h-1.029v17.739h1.029V5.65z"/><path d="M15.572 9.823a.51.51 0 0 1-.364-.152l-3.087-3.13c-.197-.207-.192-.538.013-.738a.51.51 0 0 1 .715 0l3.087 3.13c.201.204.2.534-.001.738a.51.51 0 0 1-.362.152z"/></g></g><defs><clipPath id="A"><path fill="#fff" transform="translate(.656)" d="M0 0h23.665v24H0z"/></clipPath></defs></svg>