<svg xmlns="http://www.w3.org/2000/svg" width="416" height="401" fill="none" xmlns:v="https://vecta.io/nano"><g clip-path="url(#A)"><path opacity=".5" d="M459.991 49.157c-.444 35.565-17.199 70.241-43.523 94.165s-61.642 37.192-97.19 38.491c-24.384.888-49.392-3.831-70.257-16.491s-37.11-33.822-40.941-57.91c-3.832-24.104 6.149-50.609 26.619-63.878 21.54-13.976 52.139-13.187 68.778-32.753 14.305-16.82 12.546-42.487 24.581-60.984 21.869-33.641 60.59-18.481 84.546 1.858 28.873 24.482 47.864 58.912 47.387 97.502z" fill="#00386a"/><path d="M326.596 42.532l-8.122 9.027-5.361 6.182-2.318 2.697-3.173 3.798-4.966 5.985L290.9 84.542l-10.786 13.187-2.664 3.009-12.381 14.041-11.592 13.286-5.968 6.938-4.933 5.755-5.837 6.873-3.781 4.489-2.434 2.893-6.314 7.646-3.14 3.864-.937 1.167-2.352 2.565-2.647 2.845-.641.641-1.792 1.825-3.733 3.815-.888.904-1.183 1.2-2.121 2.286c-.165.214-.28.427-.28.691a.91.91 0 0 0 .263.641c.362.329.954.246 1.332-.132l5.031-5.245 4.078-4.16 1.776-1.776 4.554-4.488 3.206-3.174 2.006-1.923 8.452-8.106 5.557-5.262 6.774-6.429.74-.69-.97 1.266-6.544 8.698-2.367 3.173-3.289 4.554-1.792 2.664-1.316 2.171-.69.887-3.897 4.999-2.466 3.222-1.431 1.858-1.545 2.039-.724 1.02c-.329.477-.592.986-.888 1.48-.197.328-.131.739.115.953.313.296.806.214 1.135-.115l1.003-1.003.987-1.085 2.005-2.499 3.272-4.341 2.73-3.584 4.061-5.328.313-.361 1.792-2.006 2.482-2.779 5.837-6.61 12.266-14.042 7.564-8.665 4.324-4.85 5.804-6.511-1.085 1.414-3.519 4.604-7.086 9.618-3.996 5.459-6.05 8.484-2.105 2.96a82.49 82.49 0 0 0-1.348 1.957l-3.239 4.702-1.513 2.203-2.779 4.21-1.069 1.594a19.95 19.95 0 0 0-.509.724c-.247.362-.444.723-.642 1.118-.032.066-.049.131-.082.197a1.61 1.61 0 0 0-.164.592l-.049.395.032.822c.017.279.132.526.395.658l.148.049-4.439 4.949c-.379.428-.395 1.036-.017 1.381.362.345.987.263 1.381-.148l4.127-4.604 5.673-6.346 3.65-3.651 2.039-2.088 1.282-1.364 8.304-8.748 4.373-4.702 8.271-8.928 12.644-13.713 11.723-12.71 10.918-11.805 12.085-13.022.855-.921 4.373-4.489 3.371-3.453 7.958-7.974 7.843-7.859 3.765-3.65 9.389-9.043 4.258-4.078 13.121-12.101.872-.789 3.37-2.992 5.87-5.212 1.381-1.184-11.97 11.394-13.466 12.94-4.077 3.963-8.813 8.682-3.749 3.683-1.102 1.085-7.037 7.103-8.04 8.122-3.503 3.634-9.01 9.388-3.716 3.864-1.365 1.431-14.436 15.39-3.288 3.518-7.86 8.567-6.807 7.432-.986 1.101-3.387 3.815-8.238 9.273-1.315 1.497-2.648 3.091-7.349 8.566-1.727 2.088-4.11 4.982-2.96 3.667-2.269 2.828-1.332 1.644a19.59 19.59 0 0 0-1.003 1.348c-.411.592-.674 1.234-.97 1.875-.082.164-.131.329-.131.493a.93.93 0 0 0 .279.674c.296.28.79.296 1.168.033l1.216-.789c.411-.263.79-.543 1.168-.855.345-.263.674-.576 1.019-.872l1.184-1.085 4.867-4.982 2.335-2.466 7.612-8.04 12.381-13.105 1.48-1.545 4.012-4.177 8.057-8.385 3.93-4.012 9.076-9.257 22.969-23.216 29.037-29.333 11.872-11.773 6.823-6.741 1.135-1.085 3.765-3.568 9.093-8.632 1.693-1.611 2.466-2.253 8.846-8.04 1.579-1.414 4.702-4.094 2.056-1.792.378-.312-2.647 2.73-4.275 4.291-8.731 8.566-4.209 4.094-8.633 8.287-11.706 11.263-9.241 8.895-3.387 3.272-16.311 16.081-3.075 3.091-8.681 8.829-7.415 7.547-3.19 3.305-15.686 16.393-3.585 3.831-8.961 9.585-5.195 5.558-3.716 4.045-1.858 2.022-12.069 13.154-7.925 8.698-3.058 3.14-3.174 3.256-5.409 5.738-3.502 3.733-2.828 3.091-1.184 1.282-1.529 1.76c-.346.394-.378.97-.017 1.282a.8.8 0 0 0 .642.197c.263-.033.444-.148.641-.329l.986-.97 1.036-1.101 1.233-1.316 2.894-3.074 5.952-6.38 4.39-4.768 2.434-2.647c.033-.05.082-.083.115-.132l.395-.411 4.439-4.554 1.644-1.678 7.481-7.415 3.946-3.913 1.201-1.184 7.876-7.596 4.242-4.094 1.578-1.53 14.798-13.959 4.407-4.078 9.454-8.731 3.765-3.452.625-.559-8.55 9.717-3.551 4.045-7.383 8.55-6.38 7.382-4.686 5.508-7.793 9.175a244.41 244.41 0 0 0-3.798 4.62l-7.679 9.405-1.102 1.381-3.124 4.111-3.962 5.196-1.266 1.66-.674.905-1.135 1.233-4.472 4.982-3.848 4.341-4.455 5.08c-.379.428-.412 1.069-.017 1.414.181.165.444.247.707.214.28-.033.51-.164.707-.362.559-.542 1.069-1.151 1.595-1.726l1.266-1.414 3.371-3.782-.461 1.2c.017-.032.033-.065.05-.115-.033.099-.083.198-.132.296a1.42 1.42 0 0 0-.148.51c0 .263.099.526.28.691.131.115.279.18.46.213.263.05.51-.033.756-.18l1.053-.625.329-.23.575-.494c.723-.674 1.365-1.414 2.022-2.137l1.447-1.562 3.585-3.864 2.548-2.795 4.209-4.604 11.757-12.924 3.765-4.11 1.891-2.056 7.711-8.418 3.864-4.176 8.879-9.57 3.732-4.012 7.613-8.023 7.383-7.778 3.979-4.061 4.192-4.258 4.456-4.259 8.369-8.024 3.503-3.288 9.355-8.747 3.946-3.683 1.464-1.365 15.34-13.795 1.447-1.282 4.637-3.995 8.336-7.152 6.659-5.508.444-.378-12.923 12.513-11.757 11.427-12.364 12.052-15.587 15.308-4.374 4.39-9.208 9.257-3.765 3.815-7.81 8.138-6.906 7.186-.789.855-.329.361-1.661 1.793-2.893 2.943-15.094 15.439-11.987 12.397-12.71 13.22-6.544 6.807-2.893 3.009-2.467 2.565-.855.888-1.858 2.022c-.394.428-.394 1.069-.016 1.414.181.165.427.247.69.214.28-.033.494-.164.707-.362l1.546-1.43.46-.477 2.121-2.236 3.009-3.157 7.301-7.777 1.808-1.924 2.944-3.042 7.777-8.056-1.661 1.94-1.545 1.792-1.727 2.055-1.726 2.056a50.84 50.84 0 0 0-1.628 2.121l-.773 1.118c-.296.444-.543.92-.806 1.364-.246.428-.164.97.148 1.25a1 1 0 0 0 .477.23c.247.033.576-.016.789-.181l2.089-1.775 2.186-2.154 1.546-1.53 3.617-3.568 2.878-2.893 4.308-4.325 5.376-5.475 4.555-4.653 2.071-2.121 13.795-14.354 4.242-4.456 8.929-9.372 23.101-24.318 5.607-5.886 1.43-1.348 9.389-8.829 4.554-4.291 14.946-13.861 1.694-1.529 4.554-4.127 4.604-4.176 1.825-1.661 7.991-7.07 3.338-2.91-3.519 3.634-4.406 4.538-1.546 1.595-12.677 12.578-7.958 7.942-4.143 4.127-1.546 1.529-14.453 14.732-3.765 3.946-8.961 9.422-3.979 4.192-7.07 7.679-7.843 8.533-3.288 3.667-8.633 9.652-3.551 3.979-1.25 1.397-13.795 15.752-3.601 4.16-8.319 9.635-11.033 12.858-5.837 6.807-2.368 2.746-1.71 1.989-.871.987-1.053 1.216c-.394.477-.707.987-1.002 1.513-.214.362-.148.822.131 1.069.033.033.066.049.099.082l-11.296 13.055c-.329.378-.362.921-.017 1.217.329.296.888.246 1.217-.132l3.568-4.045 2.466-2.795 5.821-6.494c.148-.017.28-.083.411-.165l1.94-1.512 2.269-2.089 2.187-2.186 1.496-1.513 3.009-3.075 6.511-6.675 7.367-7.58 4.866-5.015 8.09-8.221 5.114-5.196 14.452-14.42 4.949-4.883 8.928-8.797 12.677-12.348 4.818-4.686 7.35-7.037 7.645-7.333 4.949-4.654 7.399-6.939 3.009-2.795 5.295-4.801 5.491-4.669 4.621-3.93 1.726-1.463 14.749-12.2.362-.296a34.17 34.17 0 0 1-1.563 1.891l-2.104 2.302-1.266 1.348-3.963 4.127-4.044 4.226-1.349 1.365-8.55 8.369-2.252 2.203-2.138 2.022-13.252 12.562-9.224 8.78-2.286 2.17-1.595 1.595-8.944 8.895-3.535 3.519-1.003 1.02-14.798 15.439-3.946 4.242-8.041 8.632-8.977 8.895-8.32 8.32c-.016-.082-.066-.164-.131-.23-.198-.181-.494-.132-.691.066l-10.096 10.029-5.491 5.492-8.468 8.632-2.072 2.105-2.926 3.091-3.979 4.193-4.21 4.538c-.246.263-.296.657-.131.937.181.312.69.444 1.036.181l.855-.691 1.134-1.085 1.513-1.545 1.677-1.694 3.124-3.124 7.531-7.563 12.397-12.529 7.103-7.153-.904 1.02-3.831 4.275-6.988 7.81-1.825 2.071-4.325 4.917-10.769 12.15c-.379.428-.395 1.053-.017 1.382.362.345 1.003.279 1.381-.148l13.878-15.094 1.479-1.612 3.7-3.979 8.155-8.599 4.308-4.505 8.599-8.682 4.456-4.488 8.287-8.139 5.426-5.328 7.169-6.938 7.169-6.939 5.409-5.179 12.71-12.118 13.187-12.463 8.977-8.452 5.212-4.9L418.87 78.59l1.069-.97 3.156-2.861 6.61-5.969 3.519-3.091 5.426-4.735 10.473-8.862c.198-.148.346-.312.412-.559.065-.214.032-.444-.066-.625-.115-.181-.296-.312-.51-.345-.197-.033-.46.016-.625.148l-2.598 2.072-2.449 1.989-3.223 2.68-2.878 2.417-4.094 3.535-3.814 3.288-1.858 1.661-4.752 4.242-3.601 3.108-5.87 5.081-4.817 4.176-1.957 1.71-14.897 13.154-1.216 1.086-3.831 3.469-9.52 8.616-3.552 3.239-8.632 8.024-3.568 3.321.016-.017 14.387-14.288 1.069-1.036 3.667-3.486 8.747-8.319 13.187-12.463 5.031-4.883 7.103-6.922.575-.592 1.612-1.677 4.39-4.571 2.663-2.762.362-.395 1.052-1.135 2.072-2.318c.625-.724 1.184-1.496 1.743-2.269.28-.395.51-.806.724-1.233l.559-1.266a1.13 1.13 0 0 0 .148-.543c0-.066 0-.131-.017-.197l2.236-1.907 2.812-2.401 2.039-1.776 2.466-2.236c.214-.197.312-.526.329-.789 0-.263-.099-.559-.296-.723-.28-.214-.592-.428-.987-.378-.279.033-.526.099-.805.181-.099.049-.181.082-.28.115a5.25 5.25 0 0 0-.526.279c-.197.115-.378.263-.559.395-.279.214-.526.444-.789.674l-1.546 1.414-8.024 6.56-5.738 4.851-4.949 4.209-2.368 2.022-7.201 6.248-4.571 3.963-1.677 1.447-7.432 6.544-7.07 6.215-1.678 1.513-4.324 3.913-8.698 7.843-4.077 3.765-9.471 8.813-3.93 3.667-15.308 14.666-1.167 1.151-3.716 3.683-9.076 8.994-2.006 1.99-1.644 1.693-5.607 5.722 2.006-2.203 2.647-2.894 6.758-7.218 5.409-5.788 1.447-1.496 3.716-3.88 9.027-9.422 3.568-3.699 15.472-15.752 3.782-3.782 9.191-9.158 4.028-3.995 8.074-7.909 6.445-6.314 5.952-5.771 13.17-12.792 8.419-8.221 6.116-6.1 1.513-1.513 2.877-2.812a10.88 10.88 0 0 0 1.118-1.332 6.08 6.08 0 0 0 .526-.806l.148-.345c.083-.197.148-.395.198-.608.098-.329 0-.691-.231-.904-.279-.263-.789-.312-1.15-.033l-1.234.937-.838.658-.625.543-2.499 2.137-3.009 2.664-2.335 2.072-1.019.921-3.223 3.025-4.522 4.258-1.463 1.398-8.468 8.32-2.778 2.746-1.431 1.447-8.78 8.912-4.472 4.554-7.63 7.876-24.531 25.42-8.172 8.533-5.081 5.36-4.209 4.44-1.463 1.545-7.761 8.419-4.653 5.08-8.271 9.06-3.814 4.226-1.513 1.677-.608.658-5.558 6.116 5.673-6.527 8.287-9.455 3.617-4.143 1.299-1.48 14.157-15.85 1.677-1.875 1.463-1.595 8.353-9.076 6.215-6.757 1.151-1.217 3.584-3.765 8.83-9.29 3.469-3.601 8.566-8.731 3.947-4.028 1.43-1.463 13.927-13.844 12.561-12.414 2.121-2.17 4.604-4.703 3.059-3.14.805-.839 2.203-2.302 2.089-2.384.805-1.069.461-.707s.279-.493.427-.74a1.01 1.01 0 0 0-.148-1.233c-.312-.28-.838-.329-1.233-.033l-1.151.838-.773.576-.608.51-2.434 2.039-3.074 2.631-3.239 2.795-3.453 3.058-6.002 5.327-8.813 8.007-.345.312 1.431-1.431 7.908-7.909 4.9-4.933 6.561-6.791 1.693-1.759 1.102-1.151 1.825-1.907 1.249-1.463 4.095-3.88 2.893-2.828 2.516-2.45.674-.658 1.611-1.694c.362-.395.444-.97.214-1.381-.279-.493-1.019-.658-1.545-.263l-.954.756-.214.197-1.101 1.003-1.398 1.266-3.124 2.861-3.502 3.256c-.099.033-.181.082-.28.148l-1.677 1.217-.904.707-1.809 1.43-4.012 3.223-7.053 5.706-2.187 1.809-5.015 4.16-3.141 2.598-1.989 1.71-3.272 2.828.723-.674 9.126-8.468 12.578-11.493 3.913-3.535 2.286-2.154 2.137-2.285c.329-.362.411-.888.181-1.25-.131-.23-.362-.378-.625-.428h-.263c-.181.016-.345.082-.509.181l-1.201.658c-.427.247-.838.576-1.249.855l-1.365 1.003-2.335 1.694-2.992 2.187-4.719 3.486-2.417 1.858-5.163 3.962-2.039 1.579-8.747 7.004-4.801 3.864-9.422 7.794-4.044 3.338-1.201 1.003-6.938 5.952 7.941-8.632 8.764-9.471 3.88-4.176 8.238-8.764 4.637-4.916 10.638-11.148 4.817-5.13 2.845-3.042 3.864-4.357c.279-.312.411-.74.312-1.118-.049-.197-.148-.345-.279-.477-.214-.197-.477-.263-.79-.247-.098 0-.213 0-.312.016-.197.016-.395.099-.576.214l-.361.214-.592.493-1.348 1.414-2.072 2.006-1.381 1.332a70.12 70.12 0 0 0 1.381-1.578l2.713-3.404c.148-.164.263-.362.312-.575s.066-.411.017-.608-.148-.378-.296-.51-.329-.23-.526-.263c-.099 0-.181-.016-.28-.016-.197-.016-.395-.016-.592-.016-.197.016-.395.066-.592.115l-.658.312-.345.214a10.13 10.13 0 0 0-.658.51l-1.15 1.019-3.897 3.272-2.45 2.121-4.785 4.193-1.94 1.71-8.353 7.662-3.189 2.927-1.25 1.184-8.698 8.336-4.111 3.946-1.578 1.496-14.897 14.831-11.723 11.871-11.066 11.246-13.466 13.696-15.242 15.456-12.446 12.743-4.391 4.505-7.448 7.793-6.379 6.66-1.727 1.825-4.242 4.505-13.203 13.976-2.96 3.124-2.071 2.154-2.483 2.532 1.677-2.105 2.236-2.779 6.528-7.925.46-.542 1.496-1.743 4.242-4.949 3.519-4.111a37.6 37.6 0 0 1 1.052-1.2l7.58-8.534 3.946-4.423 1.612-1.808 14.058-15.308 3.14-3.387 8.336-8.862 6.857-7.301 3.979-4.144 9.125-9.487 3.272-3.404.954-.987 15.094-15.193 3.979-3.93 9.191-9.01 13.039-12.578 13.334-12.66 4.933-4.653 4.768-4.522 2.204-2.088 4.34-4.226 2.187-2.121 2.779-2.992c.378-.411.477-1.019.214-1.447a1 1 0 0 0-.724-.493c-.098 0-.197 0-.296-.016a1.29 1.29 0 0 0-.592.214 7.72 7.72 0 0 0-.805.444 13.27 13.27 0 0 0-.773.575l-1.513 1.266-1.348 1.102-2.483 2.039-3.124 2.598-2.647 2.203.247-.214-7.284 6.264-2.467 2.187-4.883 4.374-2.713 2.433-2.039 1.891-7.744 7.185 2.91-2.992 1.135-1.135 3.929-3.913 6.627-6.577 4.784-4.67 11.378-10.901c.198-.181.313-.51.313-.756 0-.28-.099-.526-.28-.691s-.444-.247-.723-.23c-.083.016-.181.033-.263.066a1.1 1.1 0 0 0-.461.312l-2.088 1.891-2.22 2.072-2.269 2.121-1.068 1.003-7.547 7.284-2.269 2.187-2.5 2.466-8.599 8.517-4.505 4.538-8.616 8.698-3.962 4.061-9.011 9.257-11.97 12.463-6.034 6.297a60.89 60.89 0 0 0-1.398 1.496l-3.748 3.996-8.781 9.323-3.272 3.502-14.65 15.818-4.455 4.867-8.682 9.47-5.541 6.1-4.012 4.341-4.045 4.407-8.04 8.944-4.406 4.916-7.876 8.978c-.099.098-.181.214-.28.312-.033.033-.082.066-.115.099l-1.266.937a16 16 0 0 1-.871.576c.082-.181.181-.362.296-.527.213-.378.493-.739.756-1.085l.625-.921 1.249-1.874 1.53-2.318.624-.938 5.443-7.892.986-1.397 2.976-4.16 4.999-7.005 11.131-15.11 1.283-1.661 3.485-4.521 7.202-9.323 2.582-3.223 1.529-1.447 12.89-12.183 4.933-4.653 7.037-6.56 12.398-11.542 13.63-12.661 8.682-8.139 5.163-4.834 13.203-12.562 12.479-12.036 5.361-5.212 2.236-2.203 1.825-1.809.921-.888a19 19 0 0 0 1.118-1.167l.213-.296.379-.543c.098-.164.131-.345.148-.526 0-.263-.099-.526-.296-.691-.132-.115-.28-.197-.461-.214a1.11 1.11 0 0 0-.773.181l-2.91 2.417-1.891 1.71-3.979 3.617-2.335 2.154-4.784 4.407-5.393 4.933-4.9 4.472-2.384 2.17-6.873 6.149 6.791-6.511 4.965-4.768 8.665-8.418 11.691-11.493 8.467-8.32c.379-.362.346-.987.017-1.282a.78.78 0 0 0-.625-.197c-.263.033-.444.148-.641.329L380.822 9.566l-15.455 13.4-1.529 1.332-3.091 2.779-9.34 8.418-1.299 1.184a10.14 10.14 0 0 0-.444.411l-2.038 1.94-9.192 8.764-3.699 3.519-1.118 1.069-1.135 1.151 6.035-6.758 4.719-5.212 6.544-7.202 6.724-7.317 12.48-13.548 4.883-5.344 3.7-4.045 1.447-1.562 2.022-2.203c.263-.312.51-.658.74-.987a2.89 2.89 0 0 0 .428-.756l.23-.592c.115-.312-.017-.658-.214-.855-.115-.099-.247-.164-.411-.197-.214-.033-.493.016-.674.164l-1.71 1.381-.756.658-1.776 1.546-3.815 3.404-2.861 2.631-3.666 3.387-.625.608-1.907 1.858-4.67 4.554-1.94 1.891-2.795 2.894-8.304 8.566-4.176 4.489-8.665 9.389-3.387 3.7-13.894 15.341-5.097 5.705-8.501 9.52-3.189 3.601-7.843 9.01-6.248 7.169-1.069 1.25-3.387 4.012-8.139 9.602-1.611 1.891-1.694 2.072-8.007 9.799-2.598 3.174-1.118 1.414-2.171 2.762-12.529 11.838-8.336 7.909-1.134 1.085 3.14-3.535 8.188-9.323 1.76-2.006 2.137-2.482 8.205-9.57 3.617-4.275 8.172-9.75 9.717-11.74 11.214-12.578 12.085-13.581 12.134-13.598 8.435-9.372 3.93-4.341 8.254-9.027 4.275-4.637 8.385-8.912 2.401-2.549 2.121-2.17 7.629-7.826 2.253-2.236 4.488-4.456 6.511-6.33 3.503-3.305 1.315-1.217.411-.378 1.792-1.546 1.266-1.184a1.45 1.45 0 0 0 .313-.559c.082-.296.049-.608-.099-.855-.296-.51-1.019-.658-1.562-.28l-.279.197c-.231.164-.461.345-.675.543l-1.019.904-.839.773-1.956 1.809-.313.296-2.334 2.022-4.341 3.765-2.302 2.072-4.818 4.357-1.825 1.661-8.369 7.975-5.278 5.245-4.554 4.555-1.809 1.809-7.415 7.827-3.305 3.486a7.63 7.63 0 0 0-.362.395l-1.118 1.233zm.97 1.94l1.71-1.891.461-.477-2.302 2.516c.049-.049.098-.099.131-.148zm-59.225 76.342l3.141-3.831.92-1.102L286 99.883l.937-1.085 3.19-3.65 8.567-9.799 3.403-3.88 7.498-8.369 7.169-8.007 3.699-4.078 8.747-9.635 3.848-4.226 13.696-14.782.461-.477 1.496-1.546 4.439-4.571 4.16-4.291 1.48-1.513 6.33-6.149 2.434-2.368 1.792-1.661 4.521-4.143-2.597 2.861-4.9 5.36-13.368 14.568-1.447 1.579-3.617 3.963-7.991 8.829L327.5 56.755l-3.633 4.127-8.304 9.569-3.42 3.946-5.886 6.264-3.782 4.012-1.48 1.579-14.058 15.439-3.206 3.568-8.27 9.323-3.7 4.176-1.397 1.579-.395.444-7.136 6.757 5.508-6.724zm-20.01 25.008l1.102-1.43 5.541-7.037 3.913-3.684-1.447 1.678-1.299 1.562-1.151 1.397-1.924 2.22-1.397 1.611-5.804 6.972 2.466-3.289zm64.881-70.29l.263-.312 3.93-4.176 1.052-1.118 2.351-2.368 9.076-9.142 3.716-3.732 1.25-1.266 15.094-14.354 4.275-3.88 9.306-8.369 1.644-1.48 3.092-2.68 5.672-4.916-8.369 8.155-4.801 4.62-8.369 8.04-13.466 12.957-4.275 4.176-9.076 8.879-1.875 1.841-.723.724c-.066.049-.115.115-.181.164l-1.069 1.003-12.48 11.921 3.963-4.686zm37.192-30.402L337.02 57.692l-14.978 13.943-14.864 13.877-1.151 1.069 3.469-3.634.97-.986 3.338-3.371 6.412-6.495 2.927-2.779 1.118-1.036 3.815-3.486 8.912-8.123 4.686-4.176 8.845-7.859 5.41-4.801 1.414-1.266-6.939 6.56zm37.702-22.296c.033-.033.066-.049.083-.082-.017.033-.05.049-.083.082zm-66.656 85.632l-4.621 4.275-9.388 8.697-12.71 11.97-3.847 3.634-1.184 1.135-6.775 6.56 4.933-5.311 14.93-15.932.953-1.003 3.19-3.322 9.175-9.553 5.393-5.623 1.266-1.282 3.502-3.552 9.274-9.421 3.502-3.551 1.266-1.282 15.094-14.814 3.683-3.601 7.711-7.382 12.036-11.51 9.388-8.945 4.226-4.028 5.475-5.311-7.218 7.399-4.225 4.39-8.797 9.175-12.069 12.71-3.896 4.111-1.546 1.628-5.508 5.969L346.064 84l-3.174 3.469-7.76 8.649-13.68 12.349zm29.859-26.752l-2.154 1.907 7.58-8.172 3.65-3.946 1.348-1.463 14.354-15.11 1.546-1.628-6.232 6.758-3.65 3.963-13.647 14.962-1.299 1.43-1.496 1.299zm-64.914 73.431l1.217-1.43 8.007-9.422 4.308-5.064 13.861-16.015 3.798-4.324 8.615-9.783 3.683-4.177 7.071-7.859 1.249-1.398.921-.839 1.463-1.299 1.743-1.529-24.268 27.31-26.44 29.909-5.524 6.248.296-.329zm14.765-13.992l23.858-26.949 11.887-13.368 6.807-7.596 4.769-5.278 6.083-6.709 1.579-1.398 15.324-13.088 1.414-1.2 2.598-2.138 9.882-8.139 2.976-2.45 1.545-1.233 9.553-7.613 1.809-1.447 4.094-3.124 4.505-3.436 2.598-1.924 1.414-1.036-2.105 1.924-4.867 4.456-2.4 2.203-7.087 6.593-4.357 4.045-1.463 1.348L377.32 67.13l-1.595 1.529-4.143 3.995-8.665 8.336-3.765 3.683-9.257 9.109-4.16 4.111-1.431 1.463-3.239 3.124-6.823 6.56-4.522 4.39-9.339 9.093-3.864 3.765-15.341 15.143-1.759 1.759 1.743-2.038zm-34.364 38.902l6.708-7.3 4.456-4.719 8.418-8.846 3.881-3.979 9.076-9.191 3.782-3.799 2.63-2.581-6.511 7.021-4.225 4.604-8.485 9.257-11.937 13.121-4.044 4.422-1.694 1.842-2.417 2.631-3.732 3.995-.921.987-1.003 1.085.986-1.661 2.582-3.781c-.05.082-.115.164-.165.23l1.529-2.121 1.086-1.217zm26.225-14.601l4.078-4.768 1.381-1.595 7.399-8.32 3.535-3.962 1.052-1.168.214-.246 6.774-6.561 4.423-4.258 9.241-8.863 7.991-7.629-7.63 8.024-7.415 7.794-4.357 4.538-8.665 9.026-4.16 4.275-8.221 8.386-6.117 6.133-1.693 1.693 2.17-2.499zm67.791-70.701l-13.614 12.956-5.771 5.525 14.255-14.256 4.177-4.127 9.421-9.273 4.752-4.686 6.429-6.215 2.121-2.055-7.35 7.547-3.979 4.094-1.447 1.496-4.686 4.916-4.308 4.078zm60.425-45.282l-1.594 1.562-13.023 12.693-5.968 5.788 3.962-3.996L413 57.281l2.91-2.877 2.055-1.94 4.374-4.11-1.102 1.118zm-91.369 111.33l1.496-1.611 3.798-4.078 6.873-7.382 1.809-1.743 9.504-9.142 3.387-3.256 1.003-.953 15.932-14.798 3.453-3.157 9.257-8.386 2.22-2.022-9.849 9.323-6.38 6.05-6.1 5.837-8.205 7.86-4.472 4.34-12.858 12.513-9.142 8.994-2.417 2.384.691-.773z" fill="#ffc65e"/><g opacity=".5"><path opacity=".5" d="M24.075 266.209l12.052 13.499c2.713 3.025 5.508 5.968 8.287 8.945l3.617 3.88 5.114 5.294 8.04 8.337 19.303 19.73 17.774 18.103 4.029 4.439 18.777 20.603 17.79 19.303 9.307 9.964 7.727 8.221 9.225 9.767 6.034 6.313 3.897 4.078 10.309 10.589 5.212 5.278 1.579 1.562 3.42 3.897 3.781 4.373.839 1.053c.789 1.003 1.611 1.973 2.417 2.959l5.031 6.15 1.2 1.463 1.595 1.957c.97 1.2 1.957 2.433 3.059 3.518.295.28.591.493.986.543.362.049.724-.05.987-.28.559-.493.526-1.364.016-1.989l-6.955-8.287-5.508-6.709-2.335-2.91-5.919-7.465-4.16-5.261-2.516-3.272-10.621-13.812-6.906-9.076-8.419-11.065-.904-1.201 1.71 1.628 11.822 11.099 4.308 4.012 6.199 5.606c1.2 1.053 2.417 2.089 3.633 3.091.97.79 1.99 1.546 2.993 2.302l1.217 1.168 6.774 6.593 4.373 4.176 2.533 2.401 2.762 2.631c.444.427.921.838 1.381 1.233.641.559 1.365 1.036 2.039 1.546.444.328 1.069.312 1.43-.017.477-.427.444-1.167.017-1.71l-1.316-1.644c-.46-.576-.953-1.102-1.463-1.644-1.085-1.168-2.236-2.286-3.371-3.387l-5.902-5.542-4.851-4.636-7.218-6.873c-.164-.181-.329-.345-.477-.526l-2.663-2.976-3.7-4.111-8.829-9.701-18.794-20.421-11.592-12.611-6.494-7.185-8.698-9.652 1.907 1.842 6.248 5.968 13.105 12.052 7.431 6.807 11.576 10.326 4.044 3.601c.872.789 1.776 1.545 2.681 2.318l6.429 5.541 3.025 2.598 5.771 4.785 2.187 1.841.986.872c.494.427 1.003.789 1.546 1.134.099.05.181.099.28.148.263.181.542.296.838.346l.576.147 1.233.083c.427.033.805-.115 1.019-.477l.099-.197 6.593 7.382c.559.625 1.48.756 2.039.263s.559-1.43.016-2.055l-6.133-6.856-8.467-9.438c-1.529-2.039-3.174-4.012-4.801-5.985l-2.763-3.354-1.808-2.122-11.609-13.696-6.248-7.234-11.871-13.68-18.251-20.931-16.919-19.419-15.702-18.07-17.33-19.993-1.217-1.414-5.936-7.202-4.554-5.558-10.507-13.071-10.359-12.891c-1.628-2.022-3.206-4.094-4.785-6.166l-11.855-15.357-5.344-6.955-15.785-21.375-1.036-1.43-3.897-5.492-6.774-9.536-1.513-2.236 14.946 19.582 16.985 22.016 5.196 6.692 11.411 14.47 4.834 6.132 1.431 1.809 9.372 11.559 10.72 13.22 4.818 5.787 12.43 14.864 5.113 6.116 1.891 2.253 20.438 23.858 4.686 5.442 11.411 13.006 9.898 11.296 1.463 1.627 5.097 5.64 12.381 13.697 1.99 2.203 4.143 4.423 11.51 12.266c.921.986 1.874 1.923 2.811 2.894l6.709 6.889 4.932 4.982 3.815 3.814 2.22 2.237c.592.591 1.217 1.15 1.841 1.71.806.707 1.727 1.2 2.631 1.742.23.148.46.247.724.28.378.049.756-.066 1.035-.296.461-.395.559-1.118.247-1.726l-.987-1.924a21.22 21.22 0 0 0-1.068-1.875c-.346-.559-.74-1.101-1.118-1.644-.444-.658-.938-1.282-1.414-1.924-2.089-2.762-4.39-5.343-6.594-8.007-1.068-1.299-2.187-2.565-3.272-3.847l-10.671-12.562-17.396-20.454-2.038-2.434-5.525-6.61-11.115-13.285-5.311-6.462-12.233-14.946-30.632-37.768-38.721-47.748-15.505-19.467-8.879-11.197c-.493-.609-.954-1.234-1.414-1.858l-4.686-6.15-11.312-14.847-2.121-2.779-2.927-4.028-10.474-14.404c-.625-.855-1.233-1.71-1.825-2.581l-5.294-7.629-2.318-3.338c-.132-.197-.263-.411-.411-.608l3.617 4.357 5.656 7.037 11.246 14.321 5.393 6.89 10.868 14.123 14.765 19.156 11.657 15.11 4.308 5.541 21.161 26.751 4.094 5.065 11.674 14.288 9.964 12.2 4.374 5.245 21.72 25.88 5.081 5.919 12.743 14.815 7.382 8.583 5.377 6.166 2.696 3.074 17.511 20.01 11.576 13.138 4.143 5.031 4.308 5.212 7.613 8.945 4.949 5.788 4.11 4.686 1.71 1.956c.757.872 1.562 1.71 2.352 2.549.542.575 1.364.707 1.907.246a1.19 1.19 0 0 0 .394-.904c0-.378-.148-.691-.394-1.003-.411-.559-.822-1.102-1.266-1.611l-1.464-1.71-1.742-2.039-4.095-4.785-8.484-9.849-6.346-7.267-3.519-4.028c-.066-.066-.115-.132-.181-.198l-.543-.657-6.017-7.317-2.22-2.713-9.783-12.283-5.163-6.478-1.562-1.973-9.981-12.874-5.376-6.939-2.006-2.598-18.267-24.153-5.328-7.169-11.394-15.406-4.505-6.133c-.247-.329-.477-.675-.724-1.003l12.99 14.222 5.409 5.903 11.46 12.315 9.899 10.655 7.399 7.826 12.315 13.022 6.215 6.38 12.677 12.891 1.874 1.874 5.591 5.295 7.053 6.708 2.253 2.137 1.233 1.135 1.644 1.874 6.643 7.416 5.788 6.412 6.807 7.416c.575.625 1.496.773 2.088.263.279-.247.444-.609.444-1.003 0-.411-.165-.773-.428-1.102-.723-.921-1.512-1.759-2.302-2.631l-1.89-2.104-5.048-5.607 1.71.888c-.05-.033-.099-.049-.148-.082l.427.23a1.61 1.61 0 0 0 .74.296c.395.049.789-.066 1.069-.313.197-.164.329-.378.395-.641.115-.378.032-.773-.132-1.151l-.74-1.66-.296-.527-.641-.937c-.888-1.167-1.874-2.236-2.845-3.337-.707-.79-1.381-1.595-2.071-2.401l-5.13-5.936-3.716-4.225-6.133-6.988-17.232-19.501-5.475-6.231-2.729-3.124-11.214-12.776-5.541-6.396L158.77 302.3l-5.327-6.183-10.655-12.578-10.309-12.184c-1.825-2.154-3.585-4.357-5.377-6.544l-5.623-6.889-5.591-7.284-10.506-13.68-4.308-5.705-11.427-15.275-4.818-6.429-1.792-2.384-17.922-24.943-1.661-2.351-5.146-7.514-9.257-13.483-7.087-10.753-.477-.724 16.426 21.178 15.012 19.254 15.834 20.257 20.142 25.551 5.787 7.185 12.217 15.127 5.031 6.199 10.77 12.89 9.503 11.378 1.135 1.316.477.542 2.384 2.746 3.88 4.768 20.421 24.828 16.41 19.747 17.494 20.964 9.011 10.786 3.995 4.769 3.387 4.061 1.184 1.414c.871 1.036 1.792 2.055 2.697 3.074.559.642 1.512.773 2.088.264.279-.247.444-.609.444-1.003 0-.428-.165-.757-.428-1.102-.625-.839-1.2-1.71-1.874-2.516l-.641-.756-2.96-3.486-4.193-4.949-10.342-12.068-2.549-2.993-4.028-4.834-10.671-12.825 2.614 2.779 2.417 2.565 2.763 2.894 2.778 2.877a75.78 75.78 0 0 0 2.878 2.762 28.98 28.98 0 0 0 1.529 1.332c.608.51 1.266.937 1.907 1.414.592.444 1.398.411 1.875-.016.197-.181.345-.395.411-.658.098-.345.082-.855-.148-1.2-.74-1.151-1.48-2.286-2.302-3.387-.904-1.234-1.875-2.401-2.828-3.585l-2.006-2.548-4.686-5.92-3.815-4.735-5.689-7.086-7.234-8.863-6.15-7.514-2.795-3.42-19.007-22.756-5.903-7.021-12.43-14.732-32.26-38.13-7.81-9.256-1.776-2.352-11.559-15.34-5.607-7.449-18.086-24.367-1.99-2.746-5.36-7.399-5.426-7.498-2.154-2.976-9.175-12.972-3.765-5.41 4.801 5.804 6.018 7.251 2.105 2.549 16.574 20.799 10.457 13.072 5.442 6.807 2.022 2.532 19.484 23.775 5.229 6.215 12.496 14.798 5.574 6.577 10.21 11.707 11.362 13.006 4.883 5.475 12.907 14.338 5.311 5.903 1.875 2.071 21.078 22.97 5.558 6.002 12.924 13.893 17.247 18.416 9.126 9.733 3.683 3.946 2.664 2.861 1.331 1.447 1.628 1.76c.641.657 1.348 1.2 2.088 1.743.51.378 1.184.345 1.595-.017.05-.049.099-.082.132-.131l17.511 18.826c.509.542 1.299.674 1.808.23.494-.427.51-1.266.017-1.825l-5.41-5.952-3.749-4.094-8.665-9.668a1.43 1.43 0 0 0-.18-.625c-.625-1.052-1.217-2.121-1.924-3.124-.872-1.25-1.792-2.483-2.73-3.7s-1.923-2.4-2.893-3.584l-1.99-2.466-4.078-4.949-8.829-10.721-10.046-12.134-6.626-8.024-10.852-13.302-6.857-8.402-18.991-23.726-6.428-8.122-11.576-14.634-16.228-20.75-6.166-7.909-9.241-12.019-9.602-12.496-6.067-8.073-9.076-12.069-3.667-4.899-6.231-8.6-6.018-8.895-5.064-7.465-1.891-2.795-15.669-23.825-.378-.575c.888.838 1.727 1.71 2.549 2.614 1.052 1.135 2.055 2.318 3.075 3.486l1.809 2.088 5.475 6.528 5.59 6.675c.608.724 1.2 1.464 1.792 2.203l11 14.026 2.894 3.699c.904 1.151 1.759 2.318 2.647 3.486l16.458 21.638 11.51 15.077 2.844 3.733c.675.888 1.398 1.759 2.105 2.63l11.723 14.683 4.637 5.805 1.348 1.66 20.454 24.4 5.624 6.544 11.476 13.286 11.724 14.748 10.967 13.664c-.132.016-.263.066-.362.148-.296.247-.263.707 0 1.036l13.203 16.557 7.235 9.01 11.41 13.927 2.796 3.404 4.094 4.834 5.574 6.576 6.034 6.955c.345.395.921.559 1.348.362.51-.23.773-.937.428-1.496-.28-.46-.559-.937-.888-1.365-.461-.625-.937-1.233-1.431-1.841l-2.038-2.483-2.22-2.762-4.127-5.13-9.981-12.365-16.54-20.388-9.438-11.674 1.348 1.496 5.722 6.347 10.441 11.608 2.778 3.042 6.561 7.185 16.245 17.906c.559.624 1.48.756 2.055.263.559-.494.559-1.431.016-2.072l-20.075-22.986-2.154-2.467-5.295-6.116-11.411-13.45-5.968-7.103-11.444-14.124-5.919-7.333-10.704-13.581-7.004-8.896-9.126-11.723-9.125-11.723-6.775-8.846-15.883-20.783-16.327-21.523-11.049-14.666-6.412-8.517-17.396-23.431-1.266-1.742-3.716-5.147-7.761-10.753-4.012-5.706-6.133-8.813-11.427-16.935c-.197-.312-.427-.559-.756-.691-.312-.115-.658-.115-.937 0a1.03 1.03 0 0 0-.592.707c-.082.279-.049.674.115.954l2.647 4.193 2.549 3.946 3.453 5.212 3.108 4.653 4.571 6.643 4.242 6.166 2.154 3.025 5.525 7.712 4.012 5.837 6.577 9.52 5.409 7.81 2.204 3.189 17.05 24.17 1.414 1.974 4.522 6.231 11.213 15.505 4.226 5.788 10.474 14.091 4.341 5.837-.033-.033-18.81-23.611c-.461-.576-.905-1.168-1.365-1.759l-4.571-6.002-10.901-14.305-16.327-21.539-6.413-8.237-9.109-11.642c-.247-.328-.526-.624-.789-.937l-2.22-2.663-6.034-7.251-3.667-4.39a21.36 21.36 0 0 0-.543-.609l-1.513-1.743-3.091-3.453c-.97-1.035-2.022-2.006-3.075-2.943-.543-.477-1.102-.871-1.71-1.266-.575-.362-1.2-.674-1.792-1.036-.247-.164-.51-.279-.789-.312-.099-.017-.197-.016-.296-.016l-2.45-3.618-3.108-4.554-2.302-3.305c-.937-1.348-1.924-2.68-2.91-3.996-.247-.345-.723-.559-1.118-.608s-.855.049-1.118.329c-.362.378-.74.806-.724 1.397.017.412.066.806.132 1.217.049.148.082.28.132.428.099.279.214.559.329.822.148.312.312.608.51.904.263.444.575.855.871 1.283.592.855 1.25 1.677 1.858 2.515l8.418 12.957c2.039 3.124 4.143 6.198 6.248 9.273l5.426 8.008 2.598 3.831 8.09 11.674 5.114 7.399 1.874 2.712 8.484 12.053 8.056 11.46c.642.921 1.316 1.809 1.957 2.713l5.081 7.037 10.21 14.14 4.917 6.643 11.509 15.456 4.801 6.412 19.238 25.025c.493.642 1.003 1.266 1.512 1.908l4.851 6.1 11.838 14.88 2.614 3.288c.724.921 1.48 1.809 2.237 2.713l7.58 9.224-2.944-3.321-3.864-4.39-9.602-11.164-7.678-8.945-1.99-2.368-5.13-6.133-12.479-14.896-4.9-5.87-20.816-25.453-4.999-6.215-12.068-15.094-5.262-6.609-10.408-13.236-8.303-10.556-7.596-9.751-16.804-21.572-10.803-13.795-8.04-10.03-1.989-2.482-3.7-4.719a17.28 17.28 0 0 0-1.792-1.858c-.345-.329-.707-.642-1.102-.921-.164-.082-.329-.181-.477-.263-.279-.165-.559-.296-.855-.395a1.38 1.38 0 0 0-1.381.198c-.428.378-.592 1.134-.247 1.693l1.2 1.99c.247.411.559.937.838 1.331l.691 1.02 2.746 4.045 3.453 4.899 2.697 3.782 1.184 1.661 3.963 5.261 5.574 7.383 1.841 2.4 10.951 13.878 3.601 4.554c.625.789 1.266 1.562 1.907 2.335l11.773 14.436 6.001 7.366 10.408 12.579 33.657 40.415 11.296 13.466 7.103 8.385 5.903 6.955 2.055 2.417 11.197 12.858 6.774 7.695 12.069 13.713 5.64 6.347 2.236 2.515.888 1.003 8.155 9.208-8.747-9.454-12.661-13.795-5.541-6.035-1.973-2.154-21.161-23.512-2.499-2.779c-.724-.805-1.414-1.627-2.121-2.433l-12.069-13.828-8.994-10.293-1.611-1.907-4.999-5.919-12.315-14.585-4.768-5.705-11.526-14.091-5.311-6.495-1.924-2.351-18.234-22.871-16.344-20.602c-.937-1.184-1.924-2.335-2.877-3.502l-6.232-7.58-4.143-5.048-1.118-1.332-3.042-3.617c-1.019-1.2-2.088-2.351-3.19-3.469-.46-.461-.937-.938-1.447-1.365-.312-.28-.641-.543-.987-.789l-1.019-.74c-.575-.428-1.365-.395-1.841.016-.46.411-.608 1.2-.263 1.825l1.052 1.842c.214.378.493.888.74 1.249l.658 1.003 2.614 3.93 3.404 4.982 3.617 5.262 3.963 5.606 6.906 9.734 10.408 14.354.411.559-1.891-2.351-10.424-12.989-6.511-8.057-8.994-10.803-2.335-2.811-1.529-1.809-2.532-3.009c-.625-.723-1.283-1.414-1.973-2.088l-5.081-6.692c-1.217-1.611-2.466-3.173-3.716-4.752l-3.223-4.11-.855-1.102c-.707-.904-1.496-1.776-2.236-2.647-.51-.608-1.365-.822-2.022-.526-.773.345-1.135 1.397-.641 2.236.312.526.608 1.052.954 1.546l.247.345 1.299 1.792 1.644 2.269 3.732 5.097 4.242 5.722a1.93 1.93 0 0 0 .164.428c.493.887.97 1.808 1.513 2.68l.904 1.447 1.825 2.91 4.11 6.462 7.3 11.378 2.318 3.518 5.327 8.09 3.338 5.064 2.203 3.223 3.65 5.311-.871-1.168-11.049-14.88-14.979-20.471-4.604-6.363a123.25 123.25 0 0 0-2.828-3.732c-.954-1.217-2.006-2.368-3.025-3.519-.477-.542-1.233-.74-1.825-.477a1.3 1.3 0 0 0-.723.855l-.049.379a1.75 1.75 0 0 0 .197.789l.789 1.891c.312.674.707 1.331 1.069 1.989l1.25 2.17 2.137 3.749 2.762 4.785 4.407 7.547 2.351 3.88 5.031 8.287 2.006 3.272 8.945 14.091 4.949 7.728 10.013 15.209 4.291 6.528 1.282 1.94 7.695 11.246-11.51-13.153-12.595-14.502-5.541-6.413-11.641-13.614-6.528-7.662-14.782-17.544-6.807-7.958-4.028-4.719c-1.874-2.203-3.864-4.291-5.821-6.412-.428-.461-1.019-.724-1.595-.642-.296.05-.543.148-.756.346-.329.296-.46.674-.493 1.134-.017.165-.017.312-.033.477 0 .296.066.592.214.871a8.72 8.72 0 0 0 .263.576c.197.329.411.641.641.953.608.757 1.266 1.447 1.874 2.22l2.631 3.387 1.759 2.253c-.691-.773-1.398-1.546-2.105-2.286-1.496-1.578-3.075-3.041-4.604-4.571-.23-.263-.493-.443-.806-.559a1.89 1.89 0 0 0-.904-.115 1.58 1.58 0 0 0-.806.362c-.23.197-.378.444-.46.756-.017.132-.049.28-.066.411-.049.296-.099.576-.132.872a5.41 5.41 0 0 0 .082.888c.115.345.23.69.362 1.019.082.181.181.362.263.526a10.21 10.21 0 0 0 .658 1.053c.428.641.888 1.249 1.332 1.858l4.226 6.297c.888 1.332 1.809 2.647 2.729 3.963l5.442 7.76 2.22 3.141 9.98 13.597 3.815 5.196c.51.691 1.036 1.365 1.562 2.039l10.934 14.239 5.163 6.725 1.973 2.565 19.533 24.449L72.3 243.65l14.847 18.185 18.103 22.164 20.405 25.058 16.837 20.487 5.952 7.235 10.326 12.299 8.813 10.506 2.433 2.845 5.969 7.004 18.563 21.803 4.16 4.899 2.861 3.42 3.338 4.078-2.845-2.812-3.765-3.748-10.688-10.935c-.246-.246-.476-.509-.723-.772l-2.335-2.483-6.642-7.087-5.509-5.87c-.542-.575-1.085-1.167-1.611-1.759l-11.394-12.611-5.92-6.544-2.417-2.68-20.372-23.282-4.505-5.196-11.772-13.762-9.685-11.329-5.492-6.56-12.562-15.045-4.505-5.393-1.315-1.578-20.059-24.795-5.163-6.528-11.838-15.061-16.508-21.342-16.59-21.802-6.1-8.041-5.919-7.793-2.729-3.601-5.557-7.12-2.795-3.568c-1.25-1.594-2.631-3.074-3.962-4.603-.559-.625-1.431-.872-2.121-.559-.411.18-.723.542-.838.986-.017.148-.033.296-.066.444 0 .312.082.608.23.904.164.428.329.855.526 1.266.23.428.477.839.74 1.25.51.822 1.085 1.628 1.628 2.45l1.414 2.187 2.614 4.012 3.338 5.047 2.828 4.275c-.099-.131-.181-.279-.28-.411l8.09 11.806c.921 1.348 1.891 2.664 2.845 3.995l5.673 7.942 3.157 4.423c.789 1.118 1.644 2.22 2.466 3.321l9.389 12.628-3.963-4.801-1.513-1.875-5.146-6.445-8.665-10.868-6.133-7.843-14.305-18.596c-.247-.329-.691-.543-1.069-.592-.395-.05-.789.065-1.069.312s-.444.625-.444 1.019l.049.395a1.62 1.62 0 0 0 .395.74l2.466 3.387 2.713 3.617 2.779 3.7 1.299 1.743 9.553 12.348 2.877 3.716 3.256 4.094 11.214 14.107 5.985 7.399 11.477 14.157 5.36 6.528 12.233 14.831 16.508 19.73 8.353 9.948 1.973 2.318 5.294 6.199 12.381 14.502 4.654 5.409 21.046 24.253 6.494 7.399 12.628 14.387 8.122 9.174 5.788 6.643 5.87 6.692 11.937 13.335 6.577 7.316 12.019 13.121c.132.148.28.296.411.461.033.065.082.115.115.181.428.657.806 1.348 1.168 2.038.246.461.477.921.707 1.382-.247-.165-.494-.329-.74-.527-.526-.394-1.003-.855-1.496-1.299l-1.25-1.068-2.581-2.138-3.19-2.647-1.283-1.069-10.802-9.323-1.908-1.677-5.672-5.064-9.57-8.55-20.569-18.941c-.756-.691-1.496-1.447-2.236-2.154l-6.116-5.903-12.644-12.184c-1.48-1.414-2.911-2.877-4.358-4.324l-1.891-2.499-15.932-21.046-6.084-8.057-8.583-11.493-15.077-20.224-16.525-22.213-10.638-14.174-6.33-8.434-16.459-21.573-15.785-20.421-6.856-8.78-2.894-3.667-2.384-2.992-1.167-1.496c-.493-.642-1.003-1.25-1.546-1.842-.132-.131-.28-.246-.411-.378a12.81 12.81 0 0 0-.74-.641c-.23-.165-.477-.263-.756-.296a1.42 1.42 0 0 0-1.085.312c-.197.165-.329.378-.395.641-.099.346-.082.839.148 1.168 1.019 1.562 1.989 3.173 3.108 4.686l2.236 3.075 4.719 6.478 2.812 3.814 5.755 7.794 6.429 8.78 5.821 7.975 2.828 3.864 7.991 11.18-8.533-11.115-6.248-8.122-11.049-14.19-15.127-19.155-10.934-13.877c-.477-.609-1.398-.674-1.891-.247-.247.214-.395.543-.395.905 0 .378.148.69.395 1.002l15.472 21.803 17.347 25.041 1.726 2.483 3.617 5.015 10.934 15.193 1.529 2.121c.181.246.345.493.526.723l2.549 3.338 11.477 15.012 4.62 6.05 1.398 1.825 1.513 1.858-9.043-10.029-6.955-7.843-9.602-10.852-9.75-11.148-18.037-20.684-7.103-8.09-5.393-6.133-2.072-2.384c-.954-1.134-1.907-2.269-2.943-3.338a15.92 15.92 0 0 0-1.348-1.249c-.312-.313-.674-.559-1.052-.757-.28-.148-.559-.296-.855-.427-.428-.214-.987-.082-1.299.181-.181.148-.296.345-.362.575-.082.296-.066.74.132 1.036.575.921 1.151 1.858 1.759 2.746.296.411.575.822.855 1.233l2.006 2.877 4.423 6.199 3.436 4.653 4.407 5.969c.263.345.526.674.806 1.019l2.433 3.124 5.985 7.662 2.483 3.174 3.815 4.62 11.329 13.68c1.94 2.335 3.963 4.62 5.969 6.906l12.48 14.354 4.916 5.607 20.471 23.052 7.613 8.467 12.71 14.124 4.801 5.311 12.069 13.072 9.602 10.407 1.677 1.776 5.377 5.673 12.907 13.598 2.549 2.68c.92.97 1.874 1.907 2.795 2.844l13.219 13.45 4.275 4.357c.625.641 1.266 1.25 1.908 1.874l3.749 3.667 15.488 20.471 10.359 13.63 1.414 1.858-4.719-5.228-12.463-13.631-2.68-2.927-3.338-3.551-12.842-13.697-5.754-6.05-13.121-13.664-15.801-16.294-16.821-18.629-18.152-20.093-18.169-20.174-12.496-14.009-5.804-6.527-12.036-13.697-6.182-7.07-11.838-13.844-3.387-3.963c-.987-1.151-1.924-2.335-2.877-3.486l-10.342-12.562-2.96-3.699-5.87-7.366-8.32-10.671-4.324-5.722c-.543-.707-1.069-1.431-1.595-2.154l-.493-.674-2.006-2.91c-.493-.707-1.036-1.398-1.546-2.072-.214-.247-.477-.428-.773-.543-.428-.164-.888-.164-1.282 0-.806.346-1.135 1.398-.658 2.269a11.36 11.36 0 0 1 .247.461c.214.378.428.74.691 1.085.378.559.773 1.102 1.184 1.661l1.003 1.364 2.368 3.19c.131.181.263.345.378.526l2.631 3.798 4.883 7.038c.872 1.266 1.792 2.499 2.697 3.748l5.656 7.843 2.17 2.976 10.457 13.68c2.236 2.927 4.587 5.788 6.906 8.665l6.001 7.482 2.384 2.959 10.375 12.25 4.62 5.442c.181.197.345.411.526.608.691.181 1.184.74 1.677 1.283zm3.058-1.118l-2.516-2.828-.641-.757 3.354 3.815c-.066-.082-.131-.164-.197-.23zm103.389 100.051l-5.163-5.278-1.48-1.529-21.49-22.723-1.446-1.562-4.9-5.328-13.121-14.272-5.179-5.656-11.181-12.446-10.687-11.905-5.442-6.133-12.841-14.502-5.64-6.379-19.648-22.674c-.214-.247-.411-.51-.625-.756l-2.039-2.467-6.051-7.317-5.673-6.856c-.658-.806-1.348-1.595-1.99-2.433l-8.073-10.359-3.108-3.979c-.74-.954-1.447-1.957-2.154-2.927l-5.393-7.366 3.814 4.308 7.136 8.122L7.551 224.89l2.105 2.4 5.278 6.002 11.773 13.268 18.629 20.685 5.525 6.051 12.809 13.844 5.294 5.722 8.303 9.717 5.327 6.232 2.088 2.45 20.569 23.298 4.769 5.328 12.446 13.745 5.574 6.166 2.105 2.318.608.642 8.846 11.657-9.076-9.273zm33.789 33.657c-.658-.608-1.299-1.233-1.94-1.858l-9.537-9.339-4.834-6.396 2.253 2.417 2.104 2.187 1.875 1.94 2.976 3.206 2.17 2.335 9.372 9.717-4.439-4.209zm-93.54-107.433c-.148-.148-.279-.296-.427-.444l-5.541-6.495-1.496-1.759-3.124-3.864-12.069-14.913-4.933-6.101c-.559-.69-1.134-1.364-1.661-2.055l-18.81-24.663c-1.743-2.269-3.371-4.62-5.048-6.955L6.794 208.974l-1.924-2.681-3.453-4.998-6.347-9.191 10.72 13.713 6.067 7.843 10.556 13.68 17.001 22.032 5.492 7.004 11.674 14.864 2.417 3.091.954 1.201c.066.098.148.197.214.296l1.299 1.742 15.637 20.422-6.33-6.626zm-38.968-59.982l16.426 21.852 18.202 24.417 18.136 24.252 1.398 1.874-4.818-5.721-1.315-1.595-4.456-5.492-8.566-10.556-3.65-4.768c-.46-.592-.904-1.217-1.348-1.825l-4.538-6.216-10.589-14.502-5.426-7.612-10.211-14.371-6.232-8.78-1.628-2.302 8.616 11.345zM4.887 171.962l-.099-.148.099.148zm115.951 112.547l5.574 7.531 11.345 15.307 15.669 20.767 4.752 6.264 1.48 1.941 8.615 11.082-7.053-8.156-21.178-24.696-1.332-1.578-4.406-5.262-12.661-15.127-7.448-8.895-1.694-2.072-4.702-5.771-12.43-15.258-4.703-5.772-1.694-2.071-19.484-24.746-4.735-6.034-9.685-12.611-15.094-19.682-11.723-15.357-5.278-6.889-6.972-8.961 9.767 11.888 5.821 6.955 12.167 14.502 16.87 19.928 5.459 6.429 2.17 2.548 7.942 9.126 12.397 14.255 4.62 5.262 11.526 12.89 16.097 22.263zm-34.743-48.537l2.466 3.502-10.885-12.529-5.245-6.051-1.94-2.236-20.059-23.693-2.17-2.565 8.994 10.325 5.278 6.035 19.928 22.641 1.907 2.154 1.726 2.417zm98.177 108.009c-.658-.658-1.283-1.349-1.924-2.039l-12.644-13.384-6.791-7.202-21.473-23.101-5.788-6.33-13.072-14.338-5.59-6.149-10.49-11.757-1.858-2.088-1.085-1.496c-.576-.789-1.118-1.579-1.677-2.384l-1.99-2.812 36.502 40.366 39.987 43.983 8.353 9.191c-.164-.148-.312-.312-.46-.46zm-18.317-24.121l-36.041-39.675-17.857-19.78-10.144-11.296-7.054-7.909-8.945-10.095-1.809-2.582-16.903-24.795-1.546-2.285-2.746-4.193-10.457-15.932-3.157-4.818c-.543-.822-1.052-1.661-1.578-2.483l-9.717-15.373-1.841-2.927-3.963-6.56-4.357-7.235c-.839-1.381-1.628-2.779-2.433-4.16l-1.315-2.252 2.499 3.42 5.804 7.925 2.861 3.913 8.599 11.543 5.278 7.086 1.776 2.368 17.708 23.298 2.006 2.598 5.245 6.791 10.951 14.173 4.834 6.166 11.986 15.193 5.41 6.823 1.923 2.351 4.094 5.311 8.6 11.164 5.754 7.399 11.937 15.308 4.95 6.33 19.928 25.173 2.334 2.894-2.614-2.877zm52.023 57.153l-9.717-11.098c-2.121-2.417-4.176-4.9-6.248-7.367l-11.723-13.893-5.246-6.396-12.134-14.93-5.015-6.199-3.403-4.307 9.339 10.786 6.133 6.988 12.332 14.041 17.494 19.797 5.886 6.692 2.45 2.795 3.502 3.995 5.295 6.183 1.315 1.529 1.447 1.66c-.773-.559-1.529-1.15-2.285-1.742-1.776-1.398-3.486-2.927-5.18-4.44.115.099.214.197.329.296l-2.894-2.598c-.592-.592-1.134-1.184-1.677-1.792zm-17.379-41.188l-6.38-6.807-2.137-2.285-11.115-12.299-5.311-5.87c-.526-.575-1.036-1.151-1.546-1.743l-.312-.362-8.616-11.098-5.574-7.251L148 273l-9.997-13.056 10.655 12.595L159 284.772l6.018 7.185 11.953 14.289 5.656 6.84 11.099 13.515 8.09 10.046 2.219 2.779a177 177 0 0 1-3.436-3.601zm-93.672-111.79l16.969 22.246 7.234 9.438-18.793-23.397-5.426-6.857-12.2-15.439-6.149-7.794-8.155-10.523-2.697-3.486 9.98 12.085 5.409 6.544 1.973 2.385 6.527 7.727 5.327 7.071zm-57.235-96.796l2.055 2.631 16.689 21.326 7.596 9.766-5.278-6.511-10.835-13.729-3.782-4.785c-.872-1.101-1.694-2.252-2.549-3.37l-5.393-7.136c.51.592 1.003 1.2 1.496 1.808zM199.695 280.53l-2.138-2.483-5.426-6.281-9.799-11.361-2.27-2.943-12.002-15.555-4.275-5.541-1.266-1.644-19.32-25.979-4.127-5.623-10.901-15.061-2.614-3.617 12.2 16.097 7.925 10.44 7.662 9.981 10.293 13.417 5.689 7.317 16.442 21.062 11.838 14.979 3.141 3.962-1.052-1.167z" fill="#00386a"/></g><path d="M94.134 41.594c25.403-1.973 36.962 20.109 43.259 41.698 4.209 14.469 2.565 32.227 10.178 45.364 6.166 10.622 18.432 19.008 27.738 26.801 17.675 14.798 25.584 34.693 16.212 57.153-6.051 14.502-20.027 18.317-28.511 30.418-8.353 11.888-7.366 27.426-14.551 39.61-10.392 17.593-40.645 26.751-59.932 23.512-67.512-11.329-60.524-114.964-56.972-165.277 2.137-30.467 8.945-101.333 62.579-99.278z" fill="#ffc65e"/><g opacity=".3"><path opacity=".3" d="M150.106 101.329l-.444-.461c-12.282-12.594-21.342-29.152-30.073-45.183-6.428-11.756-13.055-23.923-20.898-34.315l.658-.493c7.876 10.441 14.535 22.641 20.964 34.43 8.616 15.768 17.511 32.079 29.497 44.526 4.703-13.187-2.992-26.9-10.441-40.168-7.152-12.726-14.534-25.897-11.147-38.754l.082-.329.345.016c3.108.197 6.363 1.052 9.191 2.433 5.755-10.013 5.969-21.622 6.183-32.852.082-4.209.164-8.55.542-12.743l.033-.329.329-.033c1.957-.214 3.732-.312 5.294-.378 6.166-.296 9.882-.477 15.209-7.859 7.235-9.997 7.235-22.049 7.219-33.723v-3.634h.822v3.634c0 11.789.016 23.989-7.383 34.2-5.574 7.695-9.651 7.892-15.85 8.188-1.464.066-3.091.148-4.9.345-.345 4.061-.427 8.271-.51 12.348-.213 11.46-.444 23.315-6.494 33.591l-.198.329-.345-.181c-2.729-1.381-5.87-2.269-8.895-2.499-3.091 12.43 4.143 25.337 11.164 37.817 7.662 13.631 15.571 27.738 10.276 41.467l-.23.609z" fill="#00386a"/></g><g opacity=".3"><path opacity=".3" d="M369.184 293.145c-2.615-6.544-4.407-13.433-6.133-20.093-1.201-4.62-2.434-9.388-3.946-14.008-5.673-17.38-13.647-33.855-21.375-49.804l-10.079-21.276-1.694-3.716 2.401 3.305c1.595 2.203 3.14 4.538 4.768 6.988 4.209 6.33 8.55 12.891 13.926 17.412 2.039-6.149 2.927-10.95 3.519-14.173.641-3.486.97-5.229 2.088-5.574 1.365-.411 3.157 1.447 7.991 6.413l6.33 6.428c1.53 1.53 3.42 2.861 5.245 4.16 2.483 1.776 5.065 3.601 6.906 5.969 1.99 2.565 3.239 5.475 4.456 8.27 1.463 3.371 2.96 6.857 5.738 9.8l-.592.559c-2.877-3.042-4.423-6.593-5.902-10.03-1.25-2.894-2.434-5.623-4.341-8.106-1.759-2.269-4.291-4.078-6.725-5.804-1.858-1.315-3.782-2.68-5.36-4.258l-6.347-6.429c-3.929-4.029-6.297-6.495-7.169-6.199-.641.197-1.019 2.187-1.529 4.933-.625 3.337-1.545 8.385-3.732 14.847l-.181.559-.46-.378c-5.689-4.604-10.195-11.395-14.552-17.972l-2.121-3.173 8.139 17.051c7.744 15.965 15.735 32.473 21.424 49.902 1.513 4.636 2.763 9.421 3.963 14.058 1.726 6.643 3.502 13.499 6.1 19.994l-.756.345z" fill="#00386a"/></g></g><defs><clipPath id="A"><path fill="#fff" d="M0 0h416v401H0z"/></clipPath></defs></svg>