<svg xmlns="http://www.w3.org/2000/svg" xmlns:xlink="http://www.w3.org/1999/xlink" width="321" height="56" fill="none" xmlns:v="https://vecta.io/nano"><g clip-path="url(#A)" fill="#858c97"><path d="M55.952 25.406l-4.619-3.767c-.374-.304-.839-.469-1.316-.469h-4.745l-.1.096-.135 2.72 5.575-.004.865.413.826.409 1.625.873-1.738-.613-.856-.335-.808-.33-5.505-.043-.204 4.132-.2-4.037-.513.226-.782.339-1.573.66 1.49-.83.752-.404.608-.322-.139-2.785a2.16 2.16 0 0 0-.508.304l-4.619 3.767c-.487.395-.769.991-.769 1.616 0 .582-.326 1.117-.843 1.382l-1.243.643h-.126c-.282 0-.561-.03-.834-.1-1.912-.491-4.415-.791-7.156-.791s-5.245.3-7.156.791a3.35 3.35 0 0 1-.834.1h-.126l-1.243-.643c-.517-.265-.843-.799-.843-1.382a2.08 2.08 0 0 0-.769-1.616l-4.619-3.767a2.09 2.09 0 0 0-1.317-.469h-4.75l-.187.009-.139 2.798 6.235.017-6.257.404-.2 4.084-.196-3.989-3.163 1.177 3.142-1.62-.13-2.677a2.14 2.14 0 0 0-.421.265l-4.62 3.768c-.487.395-.769.991-.769 1.616v4.328 4.328a2.08 2.08 0 0 0 .769 1.616l4.619 3.767a2.09 2.09 0 0 0 1.317.469h4.81l.391-3.937.369 3.763c.174-.074.343-.174.491-.295l4.619-3.767c.495-.404.756-1.012.769-1.651a1.55 1.55 0 0 1 .843-1.347l1.243-.643h.126c.282 0 .561.03.834.1 1.912.491 4.415.791 7.156.791s5.245-.3 7.156-.791a3.4 3.4 0 0 1 .834-.1h.126l1.295.665c.504.261.791.791.791 1.36 0 .626.282 1.217.769 1.612l4.619 3.767a2.09 2.09 0 0 0 1.317.469h4.658l.361-2.394.343 2.299c.252-.078.491-.204.699-.374l4.619-3.767c.487-.395.769-.991.769-1.616v-4.328-4.328c.009-.621-.274-1.217-.76-1.612zm-19.401 4.723l-.526-.122-.817-.174-1.069-.183-2.685-.313-1.521-.087-1.573-.03-1.573.03-1.521.087-2.685.313-1.069.183-.817.174-.526.122-.187.043.178-.07.508-.183.804-.248 1.056-.274 1.269-.252 1.429-.2 1.538-.126 1.595-.048 1.595.048 1.538.126 1.43.2 1.269.252 1.056.274.804.248.508.183.178.07-.187-.043zm6.878-10.876l-1.303.925V1.304H14.59v18.875l-1.299-.925V0h30.138v19.253z"/><path d="M43.429 56H13.291V40.067l1.299-1.069v15.699h27.535V38.998l1.303 1.069V56zM18.232 4.988h4.788c1.56 0 2.724.417 3.506 1.256s1.169 2.06 1.169 3.676v10.089c0 1.616-.391 2.842-1.169 3.676s-1.947 1.256-3.506 1.256h-4.788V4.988zm4.732 17.098c.513 0 .908-.152 1.182-.456s.413-.799.413-1.482V9.776c0-.682-.139-1.178-.413-1.482s-.669-.456-1.182-.456H21.37V22.09h1.595v-.004zm7.232 1.825c-.817-.873-1.225-2.107-1.225-3.706V9.716c0-1.595.408-2.829 1.225-3.706s1.994-1.312 3.533-1.312 2.716.439 3.533 1.312 1.225 2.107 1.225 3.706v10.489c0 1.595-.408 2.833-1.225 3.706s-1.994 1.312-3.533 1.312-2.716-.439-3.533-1.312zm5.158-3.507V9.52c0-1.312-.543-1.968-1.625-1.968s-1.625.656-1.625 1.968v10.885c0 1.312.543 1.968 1.625 1.968s1.625-.656 1.625-1.968zM23.847 36.79v13.843h-4.093V36.79h4.093zm13.117 3.72h-3.246v10.129h-4.093V40.51h-3.246v-3.72h10.58v3.719h.004z"/></g><g fill="#858c97"><path d="M133.427 25.685a4.24 4.24 0 0 1-.811-3.622l2.008-8.496c.718-3.038-.464-6.163-3.01-7.963C127.352 2.591 122.297 1 117.001 1s-10.35 1.591-14.612 4.605a7.58 7.58 0 0 0-3.01 7.963l2.008 8.496c.302 1.28-.018 2.616-.835 3.65-2.94 3.719-4.646 8.463-4.503 13.606.111 3.891 1.298 7.527 3.274 10.611 2.43 3.803 6.66 6.07 11.172 6.07h13.031c4.577 0 8.848-2.342 11.269-6.223 2.004-3.214 3.163-7.007 3.163-11.074a20.81 20.81 0 0 0-4.531-13.017zm-5.18-15.939c.594.417.867 1.771.7 2.481l-1.113 4.716c-.389 1.656-2.133 2.611-3.733 2.031a20.91 20.91 0 0 0-14.19 0c-1.6.575-3.339-.38-3.733-2.031l-1.113-4.716c-.167-.71.106-2.064.695-2.481 3.27-2.314 7.16-3.742 11.241-3.742s7.972 1.428 11.246 3.742zm-26.911-.042c-.079.181-.153.343-.195.482s-.079.25-.092.325c-.019.079-.024.121-.024.121s-.009-.042-.014-.121a1.8 1.8 0 0 1 .01-.348 3.01 3.01 0 0 1 .093-.538c.06-.199.12-.436.236-.668.093-.246.241-.487.39-.747l.264-.376.139-.195.158-.181.329-.371c.116-.121.241-.232.366-.348.246-.241.52-.445.793-.654.269-.218.566-.39.854-.57.278-.19.584-.329.867-.473a7.35 7.35 0 0 1 .835-.385 22.74 22.74 0 0 1 .765-.297c.236-.097.463-.148.663-.209s.371-.102.515-.144l.449-.111s-.148.088-.408.227c-.129.07-.287.158-.468.246l-.288.148c-.102.051-.208.107-.32.167a27.44 27.44 0 0 1-.704.39c-.255.125-.506.292-.775.45a11.76 11.76 0 0 0-.807.505c-.264.186-.552.348-.802.556-.264.195-.529.385-.765.603l-.362.311-.329.329c-.056.056-.107.107-.163.158a4.24 4.24 0 0 0-.143.167l-.283.325c-.158.227-.334.431-.455.645-.139.199-.232.399-.329.58zm9.057 34.002l-1.683 2.398-6.53 2.314v-2.551l.631-.223v-6.2l-.631.223v-2.551l6.53-2.314 1.683 1.22v7.684zm.107-21.3c-.218.093-.446.181-.663.297-.223.107-.45.209-.673.329a13.38 13.38 0 0 0-.672.366l-.334.195-.329.209c-.223.135-.436.288-.654.436s-.422.311-.636.459c-.199.167-.412.32-.607.487a22.1 22.1 0 0 0-1.127 1.02 18.86 18.86 0 0 0-.988 1.034c-.302.343-.58.672-.835.983l-.663.876c-.185.269-.357.501-.482.7-.264.394-.399.631-.399.631s.056-.269.218-.724a11.81 11.81 0 0 1 .835-1.818 12.52 12.52 0 0 1 .714-1.136 13.15 13.15 0 0 1 .932-1.183 12.78 12.78 0 0 1 .543-.584 11.32 11.32 0 0 1 .589-.566c.204-.186.417-.362.635-.538.223-.167.441-.343.672-.501s.464-.32.705-.459l.357-.213.367-.195a8.76 8.76 0 0 1 .366-.19l.371-.167a10.18 10.18 0 0 1 .737-.306c.245-.093.487-.181.729-.25l.357-.111c.12-.028.236-.06.352-.088.464-.125.909-.19 1.317-.26.413-.046.788-.102 1.127-.107.334-.014.626-.028.867-.014l.751.037s-.269.07-.732.167c-.232.042-.51.13-.83.204a6.28 6.28 0 0 0-.501.139l-.552.158c-.38.13-.793.255-1.215.427-.107.042-.213.079-.325.121-.106.037-.213.084-.324.135zm8.356 18.304l-1.683 2.398-4.642 1.646-1.684-1.206v-7.684l1.684-2.411 4.642-1.646 1.683 1.22v7.684zm5.728-5.361l-.506.181v3.102l.506-.181v2.036l-3.33 1.178V39.63l.505-.181v-3.102l-.505.181v-2.036l3.33-1.178v2.036zm.7-3.868v.663l-2.365.839v-3.214l8.908-3.154v3.218l-2.365.839v-.663l-.631.223v6.2l.631-.223v2.55l-4.174 1.479v-2.551l.645-.227v-6.21l-.649.227zm9.047 9.97a10.15 10.15 0 0 1-.102 1.043 14.26 14.26 0 0 1-.222 1.224c-.102.431-.223.881-.385 1.34a13.89 13.89 0 0 1-.561 1.387c-.223.459-.469.918-.756 1.359-.278.441-.598.858-.928 1.252a12.19 12.19 0 0 1-.519.561c-.185.172-.357.352-.547.51s-.371.315-.561.455a9.66 9.66 0 0 1-.566.394l-.557.334c-.185.097-.371.186-.542.274-.348.172-.682.292-.974.399-.301.093-.557.176-.774.227-.436.097-.687.139-.687.139s.223-.13.612-.329c.195-.102.418-.25.682-.394.135-.074.264-.172.403-.26.14-.097.293-.181.441-.292l.459-.339.473-.385.478-.427.477-.464c.158-.162.311-.334.469-.505l.45-.542c.287-.376.579-.761.83-1.173.269-.399.501-.825.728-1.243.218-.427.427-.849.607-1.271.186-.417.344-.835.497-1.229l.389-1.132a30.97 30.97 0 0 0 .492-1.739l.12-.496.042-.176a6.29 6.29 0 0 0 .046.7c.005.218.01.487-.014.798zm-28.622-3.036v6.205l1.442-.515.343-.473v-5.481l-.343-.246-1.442.51zm8.374-2.963l-.339.487v5.481l.339.232 1.544-.547.329-.468V35.15l-.329-.246-1.544.547zm78.282-13.885h-2.067v6.446h-2.606v-6.446h-2.067v-2.37h6.74v2.37zm4.911 3.616h-.957v2.835h-2.606v-8.816h3.616c2.431 0 3.615 1.22 3.615 3.159 0 1.119-.452 1.891-1.259 2.33l1.878 3.326h-2.848l-1.439-2.835zm-.957-2.04h1.01c.592 0 .983-.202.983-.781 0-.531-.303-.794-.983-.794h-1.01v1.575zm11.613 3.462h-2.695l-.39 1.409h-2.822l2.949-8.816h3.225l2.949 8.816h-2.826l-.39-1.408zm-.514-1.865l-.829-3.01-.829 3.01h1.658zm7.429-5.542v8.816h-2.607v-8.816h2.607zm9.663 0v8.816h-2.33l-2.997-4.7v4.7h-2.611v-8.816h2.33l3.011 4.7v-4.7h2.597zm-30.148 12.668v8.816h-2.606v-3.273h-2.747v3.273h-2.607v-8.816h2.607v3.212h2.747v-3.212h2.606zm7.341 7.407h-2.694l-.391 1.408h-2.821l2.949-8.816h3.225l2.949 8.816h-2.822l-.395-1.408zm-.513-1.865l-.83-3.01-.829 3.01h1.659zm8.731.443h-.957v2.835h-2.607V31.87h3.616c2.431 0 3.616 1.22 3.616 3.159 0 1.119-.452 1.891-1.259 2.33l1.878 3.326h-2.848l-1.439-2.835zm-.961-2.041h1.009c.592 0 .983-.202.983-.781 0-.531-.303-.794-.983-.794h-1.009v1.575zm14.771.466c0 2.734-1.813 4.41-4.748 4.41h-3.348V31.87h3.348c2.935-.004 4.748 1.672 4.748 4.406zm-2.607 0c0-1.259-.755-2.041-2.141-2.041h-.755v4.081h.755c1.386 0 2.141-.768 2.141-2.04zm-16.058 8.535l.746 1.514 1.668.241-1.207 1.18.285 1.663-1.492-.785-1.496.785.285-1.663-1.207-1.18 1.668-.241.75-1.514zm6.294-.452l.583 1.185 1.303.189-.943.917.224 1.303-1.167-.614-1.168.614.224-1.303-.943-.917 1.303-.189.584-1.185zm-12.588 0l-.584 1.185-1.303.189.943.917-.224 1.303 1.168-.614 1.167.614-.224-1.303.943-.917-1.303-.189-.583-1.185zm22.102-37.137v2.032h6.384v33.797l-22.19 10.694-22.195-10.694V9.254h6.385V7.222h-8.412v37.105L205.068 56l24.217-11.672V7.222h-8.411z"/><use xlink:href="#C"/><use xlink:href="#C" x="-1.086"/><path d="M208.322 7.415l.176-.193h-.352l.176.193z"/><use xlink:href="#C" x="-2.17"/><path d="M217.824 6.933h-.131V4.208c0-.728-.588-1.316-1.317-1.316s-1.316.588-1.316 1.316V2.316c0-.728-.588-1.316-1.317-1.316s-1.316.588-1.316 1.316c0-.728-.588-1.316-1.317-1.316s-1.316.588-1.316 1.316v4.906h-.553l.198.219c.096.114.184.233.263.369a3.14 3.14 0 0 1-.369-.263l-.329-.303c-.009-.009-.013-.013-.017-.022h-.224c-.009.009-.013.013-.018.022l-.316.29c.071.088.132.18.189.276a3.25 3.25 0 0 1-.285-.197l-.285.197a3.01 3.01 0 0 1 .188-.276l-.316-.29c-.008-.009-.013-.013-.017-.022h-.224c-.009.009-.013.013-.018.022l-.315.29a2.38 2.38 0 0 1 .188.276 3.25 3.25 0 0 1-.285-.197l-.285.197c.057-.097.123-.189.188-.276l-.315-.29c-.009-.009-.014-.013-.018-.022h-.224c-.009.009-.013.013-.017.022l-.316.29a2.38 2.38 0 0 1 .188.276 3.25 3.25 0 0 1-.285-.197l-.285.197a3.02 3.02 0 0 1 .189-.276l-.316-.29c-.009-.009-.013-.013-.018-.022h-.224c-.008.009-.013.013-.017.022l-.316.29a2.52 2.52 0 0 1 .189.276c-.101-.061-.194-.127-.286-.197l-.285.197a3.02 3.02 0 0 1 .189-.276l-.316-.29c-.009-.009-.013-.013-.018-.022h-.224c-.008.009-.013.013-.017.022l-.316.29c.07.088.132.18.189.276-.101-.061-.193-.127-.286-.197l-.285.197a3.02 3.02 0 0 1 .189-.276l-.316-.29c-.009-.009-.013-.013-.018-.022h-.223c-.009.009-.014.013-.018.022l-.316.29c.07.088.132.18.189.276a3.25 3.25 0 0 1-.285-.197l-.286.197a3.02 3.02 0 0 1 .189-.276l-.316-.29c-.009-.009-.013-.013-.017-.022h-.224c-.009.009-.013.013-.018.022l-.316.29c.07.088.132.18.189.276a3.25 3.25 0 0 1-.285-.197l-.285.197a3.01 3.01 0 0 1 .188-.276l-.316-.29c-.008-.009-.013-.013-.017-.022h-.224c-.009.009-.013.013-.018.022l-.329.303c-.114.097-.232.184-.368.263a3.07 3.07 0 0 1 .263-.369l.197-.219h-.552V2.316c0-.728-.588-1.316-1.317-1.316s-1.316.588-1.316 1.316c0-.728-.588-1.316-1.317-1.316s-1.316.588-1.316 1.316v1.891c0-.728-.588-1.316-1.317-1.316s-1.316.588-1.316 1.316v2.725h-.132c-.355 0-.645.29-.645.645V9.25c0 .355.29.645.645.645h.132v2.725c0 .728.588 1.316 1.316 1.316s1.317-.588 1.317-1.316v1.891c0 .728.588 1.316 1.316 1.316s1.317-.588 1.317-1.316c0 .728.588 1.316 1.316 1.316s1.317-.588 1.317-1.316V9.609h9.438v4.906c0 .728.588 1.316 1.317 1.316s1.316-.588 1.316-1.316c0 .728.588 1.316 1.316 1.316s1.317-.588 1.317-1.316v-1.891c0 .728.588 1.316 1.316 1.316s1.317-.588 1.317-1.316V9.899h.131c.356 0 .645-.29.645-.645V7.582c-.013-.36-.302-.649-.658-.649zm-23.866-.285c-.04.303-.093.606-.198.908-.105-.303-.158-.606-.197-.908s-.053-.606-.053-.908a7.1 7.1 0 0 1 .057-.908c.04-.303.092-.606.198-.908.105.303.157.606.197.908a8.93 8.93 0 0 1 .057.908l-.061.908zm2.637-1.812c-.04.303-.092.606-.198.908-.105-.303-.158-.606-.197-.908s-.053-.606-.053-.908a7.1 7.1 0 0 1 .057-.908c.04-.303.092-.606.198-.908.105.303.158.606.197.908a8.93 8.93 0 0 1 .057.908l-.061.908zm2.633 0c-.04.303-.093.606-.198.908-.105-.303-.158-.606-.197-.908s-.053-.606-.053-.908.018-.606.053-.908.092-.606.197-.908c.105.303.158.606.198.908.035.303.052.606.052.908a6.29 6.29 0 0 1-.052.908zm12.076 0c-.04.303-.093.606-.198.908-.105-.303-.158-.606-.197-.908s-.053-.606-.053-.908a7.1 7.1 0 0 1 .057-.908c.04-.303.092-.606.197-.908.106.303.158.606.198.908a8.93 8.93 0 0 1 .057.908l-.061.908zm2.632 0c-.039.303-.092.606-.197.908-.105-.303-.158-.606-.198-.908s-.052-.606-.052-.908.017-.606.057-.908.092-.606.197-.908c.106.303.158.606.198.908s.052.606.057.908a7.92 7.92 0 0 1-.062.908zm2.638 1.812c-.04.303-.093.606-.198.908-.105-.303-.158-.606-.197-.908s-.053-.606-.053-.908.018-.606.053-.908.092-.606.197-.908c.105.303.158.606.198.908.035.303.052.606.052.908s-.017.606-.052.908z"/><use xlink:href="#C" x="-5.428"/><use xlink:href="#C" x="-3.256"/><use xlink:href="#C" x="-4.34"/></g><g clip-path="url(#B)" fill="#858c97"><path d="M274.128 49.14l-2.018-4.362h-2.084v4.362h-5.6V32.211h8.204c4.559 0 7.228 2.214 7.228 6.055 0 2.474-.911 4.297-2.669 5.339l3.321 5.469h-6.382v.065zm-4.102-8.66h2.604c1.238 0 1.889-.716 1.889-2.018 0-1.237-.716-1.953-1.889-1.953h-2.604v3.972zm19.861 4.233c1.367 0 2.409-1.042 2.409-2.735v-9.767h5.6v9.767c0 4.493-3.19 7.423-8.074 7.423-4.949 0-8.205-2.93-8.205-7.423v-9.767h5.6v9.767c.065 1.628 1.237 2.735 2.67 2.735zm14.846-12.502l6.707 8.66v-8.66h5.079V49.14h-4.689l-6.642-8.66v8.66h-5.079V32.211h4.624zM266.771 51.94l-.066.065h-.065s-.065 0-.13-.065c-.065 0-.065-.065-.13-.065s-.13-.065-.195-.065-.196-.065-.261-.065c-.13 0-.195 0-.26.065-.065 0-.131.065-.196.13s-.065.13-.13.13c0 .065-.065.13-.065.195s0 .195.065.261.13.13.195.13a.5.5 0 0 0 .261.13c.13 0 .195.065.325.13s.196.065.326.13.195.13.26.195a.88.88 0 0 1 .196.26c.065.13.065.261.065.391s0 .326-.065.456-.13.26-.261.391-.26.195-.39.261-.326.065-.521.065c-.13 0-.261 0-.326-.065-.13 0-.195-.065-.325-.065-.131-.065-.196-.065-.261-.13s-.195-.13-.26-.195l.195-.26.065-.065h.065c.065 0 .065 0 .13.065.066-.065.066-.065.131 0s.13.065.26.13c.065.065.196.065.326.065.195 0 .39-.065.521-.13.13-.13.195-.326.195-.456s0-.195-.065-.26-.13-.13-.195-.13c-.131-.065-.196-.13-.326-.13s-.195-.065-.326-.065c-.13-.065-.195-.065-.325-.13s-.196-.13-.261-.195-.13-.195-.195-.261c-.065-.13-.065-.26-.065-.391s0-.261.065-.391.13-.26.195-.326c.131-.065.196-.195.391-.195.13-.065.326-.065.521-.065s.391.065.586.13.326.13.456.26l-.13.13zm4.493-.586c.26 0 .456 0 .586.065.195.065.326.13.456.261s.195.195.26.391c.065.13.065.326.065.456 0 .195 0 .326-.065.456s-.13.26-.26.391-.261.195-.456.261-.391.065-.586.065h-.586V55h-.586v-3.646h1.172zm0 1.823c.13 0 .26 0 .325-.065.131-.065.196-.065.261-.13s.13-.13.13-.195c.065-.065.065-.195.065-.26 0-.13 0-.195-.065-.26s-.065-.13-.13-.195-.13-.13-.261-.13-.195-.065-.325-.065h-.586v1.367h.586v-.065zm7.813 0c0 .26-.065.521-.13.716s-.195.391-.39.586c-.131.195-.326.26-.586.391a2.35 2.35 0 0 1-.717.13 2.34 2.34 0 0 1-.716-.13c-.195-.065-.391-.195-.586-.391-.13-.195-.261-.326-.391-.586-.065-.195-.065-.456-.065-.716s.065-.521.13-.716.196-.391.391-.586c.13-.195.326-.26.586-.391a2.34 2.34 0 0 1 .716-.13 2.35 2.35 0 0 1 .717.13c.196.065.39.195.586.391l.39.586c.065.195.065.456.065.716zm-.586 0c0-.195 0-.391-.065-.586s-.13-.326-.26-.391c-.13-.13-.261-.195-.391-.26s-.325-.065-.521-.065-.325 0-.521.065c-.13.065-.26.13-.39.26s-.196.26-.261.391c-.065.195-.065.326-.065.586 0 .195 0 .391.065.586s.13.326.261.391c.13.13.26.195.39.261s.326.065.521.065.326 0 .521-.065c.13-.065.261-.13.391-.261s.195-.26.26-.391c.065-.195.065-.391.065-.586zm6.513 1.758h-.521c-.13 0-.196-.065-.196-.13l-.846-1.237c0-.065-.065-.065-.065-.065h-.13-.326v1.433h-.586V51.29h.977c.26 0 .456 0 .586.065.195.065.325.13.456.195s.195.195.26.326.065.26.065.391 0 .261-.065.326c-.065.13-.065.195-.195.325-.065.065-.131.195-.261.261s-.195.13-.325.13l.195.195.977 1.433zm-1.693-1.823c.13 0 .26 0 .325-.065.131 0 .196-.065.261-.13s.13-.13.13-.195c.065-.065.065-.195.065-.26a.59.59 0 0 0-.195-.456c-.13-.13-.326-.13-.586-.13h-.456v1.302h.456v-.065zm7.032-1.302h-1.107v3.125h-.586V51.81h-1.107v-.521h2.865v.521h-.065zm9.116 2.344s.065 0 .065.065l.26.261a1.01 1.01 0 0 1-.521.391c-.195.065-.455.13-.781.13a2.34 2.34 0 0 1-.716-.13 1.01 1.01 0 0 1-.521-.391c-.13-.195-.261-.326-.326-.586-.065-.195-.13-.456-.13-.716s.065-.521.13-.716.196-.391.391-.586c.13-.195.326-.26.586-.391a2.34 2.34 0 0 1 .716-.13 2.35 2.35 0 0 1 .717.13 1.42 1.42 0 0 1 .521.325l-.196.261s0 .065-.065.065h-.065c-.065 0-.065 0-.13-.065-.065 0-.065-.065-.196-.13-.065-.065-.13-.065-.26-.13-.13 0-.195-.065-.391-.065s-.325 0-.456.065a1.36 1.36 0 0 0-.39.261c-.131.13-.196.26-.261.391-.065.195-.065.326-.065.586 0 .195 0 .391.065.586s.13.326.261.391a1.36 1.36 0 0 0 .39.26c.131.065.326.065.456.065h.261c.065 0 .13 0 .195-.065.065 0 .13-.065.195-.065.065-.065.131-.065.196-.13 0 .065.065.065.065.065zm5.47.325V55h-2.083v-3.646h.586v3.125h1.497zm4.298 0c.13 0 .26 0 .391-.065s.195-.13.26-.195.13-.195.195-.325.065-.26.065-.391v-2.214h.586v2.214c0 .195-.065.391-.13.586s-.195.326-.26.456c-.13.13-.261.26-.456.326s-.391.13-.586.13a1.56 1.56 0 0 1-.586-.13c-.195-.065-.326-.195-.456-.326s-.195-.26-.26-.456-.131-.391-.131-.586v-2.214h.586v2.149c0 .13 0 .261.066.391s.13.195.195.325c.065.065.195.13.26.195 0 .13.131.13.261.13zm5.989-3.125c.261 0 .456 0 .586.065.196.065.326.13.391.195.13.065.195.195.261.326.065.065.065.195.065.391 0 .065 0 .195-.065.26 0 .065-.066.13-.131.195l-.195.195c-.065.065-.195.13-.26.13.52.13.781.391.781.846 0 .13 0 .326-.065.456s-.13.261-.261.326-.26.195-.39.195c-.131.065-.326.065-.521.065h-1.303v-3.646h1.107zm-.586.456v1.107h.586a1.3 1.3 0 0 0 .586-.13c.13-.065.196-.26.196-.391a.59.59 0 0 0-.196-.456c-.13-.065-.325-.13-.521-.13h-.651zm.717 2.669c.13 0 .26 0 .325-.065.065 0 .196-.065.196-.13.065-.065.13-.13.13-.195s.065-.13.065-.261c0-.195-.065-.325-.195-.391-.131-.13-.326-.13-.521-.13h-.717v1.172h.717zm-50.921-33.336l12.372.195c.195-.13.325-.326.521-.456l-12.893.26zm22.27.39l9.768.195c.13-.195.26-.456.39-.781.065-.13.131-.261.131-.391l-11.721.195v.065a5.86 5.86 0 0 0 1.432.716zm8.139-4.362l-30.409.521 30.8.586c-.13-.13-.196-.325-.261-.456-.065-.195-.13-.456-.13-.651zm-30.409-6.251l31.386.586.195-1.107-31.581.521zm18.297 13.283h-.13a1.85 1.85 0 0 1-.846 0h-.261-.325l-1.954.065c-.195 0-.325.065-.521.065-.065 0-.13.065-.195.065-.261.065-.521.195-.912.195a2.19 2.19 0 0 1-1.107-.326l-12.046.26 19.209.326a7.98 7.98 0 0 1-.912-.651c0 .065 0 0 0 0zm23.703-17.45l-42 .781 32.493.586.13-.13c.586-.456 1.237-.456 1.563-.456 1.367 0 2.865.13 4.753.391a2.31 2.31 0 0 1 .651.13l1.173.13a10.66 10.66 0 0 1 2.474.065h.13s.196-.13.261-.781l-1.628-.716zm-19.144 20.835l-.131-.13-22.725.456 23.702.391c-.13-.065-.26-.195-.325-.261l-.521-.456z"/><path d="M295.616 13.785l-31.19.521 31.06.521c.13-.261.13-.651.13-1.042zm11.135-9.246l.326-.195-.261-.195.847-.781-43.237.781 42.651.716-.326-.326zm13.675 13.283c0-.13-.065-.195-.13-.26.065-.065.13-.195.13-.261 0-.13-.065-.195-.13-.195 0 0-.065 0-.065-.065v-.065c.065-.13 0-.261-.131-.326-.065-.065-.195-.065-.325-.065h-.326-.065c-.065-.065.065-.13 0-.195s-.13 0-.195 0c-.196 0-.391.065-.586.195-.391.326-.391.912-.782 1.237-.325.261-.781.326-1.237.326-1.563 0-3.125-.065-4.688-.065-.065 0-.13-1.563-.196-2.93l-.13-1.693v-.195c-.065-.391-.13-.781-.26-1.107-.065-.13-.13-.326-.261-.456-.065-.13-.13-.325-.195-.456-.13-.26-.065-.456.065-.716.065-.13.195-.325.261-.456.195-.26.39-.456.651-.651.13-.065.195-.13.325-.13s.196 0 .326.065c.195.13.456.13.651.195.26.065.521.13.847.13.13 0 .26-.065.39-.13.13-.13.196-.391.196-.586s.065-.456.13-.651.13-.391.26-.586c.065-.13.13-.326.326-.326.065 0 .13 0 .195-.065s.13-.195.065-.26c0-.13-.065-.195-.13-.26-.26-.456-.13-1.042-.065-1.498.13-.651.195-1.172-.326-1.693-.39-.456-.911-.716-1.432-.977a7.06 7.06 0 0 0-3.256-.586c.065 0 .13.13.13.13.065.13.065.195 0 .26-.13.13-.39.065-.586.26.065.065.13.13.196.13-.066 0-.782.391-.717.456.065 0 .131.065.196.13.13.065.195.13.26.26-.391.065-.716.195-.977.456.131.13.261.195.391.326-.13.13-.326.195-.456.326.13.13.261.195.391.26-.326 0-.456.065-.586.195.13.065.26.13.325.13-.13.065-.195.195-.325.326.13.065.26.065.391.13 0 0 .065 0 .065.065v.065c-.065.13-.196.26-.326.391.261.065.456.195.586.391.065.13.065.195.065.391-.065.391-.13.781-.26 1.172-.261.586-.651 1.042-1.433.912-.781-.065-1.563-.065-2.279 0-.651.065-1.432-.13-2.149-.26l-4.623-.391c-.325 0-.651 0-.846.195-.196.13-.261.391-.326.586-.13.326-.195.586-.26.912-.066.456-.196.846-.196 1.237l-.195 1.628v.651c0 .391-.065.781-.13 1.172 0 .13-.066.26-.131.456-.195.521-.586 1.042-.586 1.628v.195c0 .065.065.13.065.261.261.716 1.433.977 2.019.391.195-.195.261-.456.261-.716s-.066-.521-.196-.716c-.13-.26-.325-.456-.391-.716-.13-.261-.065-.521 0-.781.131-.391.326-.781.587-1.172.26-.456.52-.977.651-1.498.065-.195.065-.391.13-.651.065-.325.13-.586.26-.846a.14.14 0 0 1 .131-.13h.13l2.67 1.042 1.432.586c.196.065.391.195.651.261l-.456 1.172-.455 1.367c-.196.456-.326.846-.326.977-.13.326-.26.716-.456 1.042-.26.521-.521.977-.976 1.302-.066.065-.196.13-.261.195-.521.261-1.172.326-1.693.586-.586.261-.977.781-1.302 1.367l-.065.065c-.196.325-.326.716-.521 1.107s-.391.781-.782 1.042l-1.693 1.237a18.27 18.27 0 0 0-1.302 1.042c-.065.065-.13.065-.195.13l-1.042 1.042c-.326.326-.391.391-.651 0-.326-.391-.586-.846-.847-1.237-.065-.13-.13-.195-.26-.326l-.652-.651c-.065-.065-.195-.195-.325-.26-.261-.13-.586-.261-.912-.391-.846-.326-1.823-.456-2.67-.716-.781-.26-1.497-.586-2.083-1.107l-.196-.195c.066-.13.066-.326 0-.521-.13-.391-.39-.781-.325-1.107v-.26c-.065-.195-.261-.261-.391-.261-.846-.065-1.563.521-2.344.912-.391.195-.781.326-1.172.456-.196.065-.391.195-.521.26-.326.13-.586.326-.847.521-.455.325-.846.651-1.237 1.042-.195.195-.325.391-.325.651.065.26.39.456.651.456s.586-.13.846-.195c.847-.26 1.889-.195 2.735-.195.261 0 .456.065.716.065h.521c.196 0 .326-.13.391-.261l1.758 1.237c.13.065.196.13.261.195l.716.586 1.302.977 1.107.912.912.716 1.107.912 1.563 1.107c.195.13.39.261.651.261.195 0 .391-.065.586-.13l2.93-1.107 2.67-1.172 1.628-.781c.195.261.325.521.521.716l.39.586.521.716c.456.651.977 1.237 1.498 1.823h1.628.065c.586 0 1.107.26 1.498.716l.521.716 1.497 1.953v-.651l-.195-.911-1.172-3.581-.586-1.498-.847-1.953-.781-1.432c-.065-.13-.13-.261-.195-.326 0-.065.065-.065.065-.13l.976-1.498 1.042-1.498 1.042-1.497c.065-.13.195-.261.261-.391l.586-.846c.13-.195.26-.456.325-.651s.13-.326.261-.521c0 .195.065.326.065.521.065.521.26 1.042.39 1.563.131.326.196.586.391.846.13.26.261.521.521.716.13.13.261.13.456.195s.456.065.716.065c.651 0 1.303-.195 1.758-.26l2.41-.521c.716-.13 1.367-.391 2.083-.586.261-.065.521-.13.782-.13s.456.065.716 0c.13 0 .326-.065.456-.065.065-.065.13-.065.26-.13.196-.065.326-.326.196-.521.13-.13.195-.195.195-.326z"/></g><defs><clipPath id="A"><path fill="#fff" d="M0 0h56.713v56H0z"/></clipPath><clipPath id="B"><path fill="#fff" transform="translate(264.713)" d="M0 0h56v56H0z"/></clipPath><path id="C" d="M207.236 7.415l.176-.193h-.351l.175.193z"/></defs></svg>