<?xml version="1.0" encoding="UTF-8" standalone="no"?>
<!DOCTYPE svg PUBLIC "-//W3C//DTD SVG 1.1//EN" "http://www.w3.org/Graphics/SVG/1.1/DTD/svg11.dtd">
<svg width="100%" height="100%" viewBox="0 0 514 224" version="1.1" xmlns="http://www.w3.org/2000/svg" xmlns:xlink="http://www.w3.org/1999/xlink" xml:space="preserve" xmlns:serif="http://www.serif.com/" style="fill-rule:evenodd;clip-rule:evenodd;stroke-linejoin:round;stroke-miterlimit:2;">
    <rect id="Artboard1" x="0" y="0" width="513.569" height="223.608" style="fill:none;"/>
    <path d="M236.832,199.058C176.68,199.058 117.028,199.104 57.376,199.023C43.932,199.005 31.254,196.459 21.47,189.103C13.545,183.144 7.924,175.843 7.893,167.018C7.754,127.625 7.664,88.231 7.954,48.839C8.025,39.319 14.155,31.699 23.599,25.378C33.754,18.582 45.807,16.659 58.626,16.652C169.598,16.59 280.571,16.583 391.544,16.652C408.775,16.662 422.868,21.729 433.37,32.461C437.296,36.472 442.264,39.898 446.797,43.562C457.81,52.465 468.951,61.277 479.836,70.269C486.973,76.164 494.256,82.021 500.582,88.405C512.193,100.121 510.211,121.104 495.973,131.853C483.187,141.505 471.335,151.875 459.138,161.974C449.08,170.302 439.102,178.686 429.118,187.065C418.839,195.69 405.649,199.02 390.795,199.036C339.641,199.093 288.487,199.058 236.832,199.058ZM420.628,105.407C420.544,106.936 420.665,108.487 420.914,110.035C421.115,111.286 421.441,112.497 421.881,113.661C425.469,126.138 436.655,134.495 449.881,133.764C462.77,133.051 472.363,125.065 475.723,113.661C476.673,111.21 477.125,108.552 477.012,105.752C477.01,105.71 477.008,105.668 477.006,105.626C477.034,104.846 477.036,104.056 477.012,103.257C476.622,90.48 464.155,77.745 451.129,76.964C439.886,76.29 431.573,81.286 424.809,90.138C421.378,94.97 420.429,100.163 420.628,105.407Z" style="fill:#f91f3e;"/>
    <path d="M41.855,71.553L54.203,71.553L83.505,115.849L83.505,71.553L96.049,71.553L96.049,140.153L85.759,140.153L54.399,93.113L54.399,140.153L41.855,140.153L41.855,71.553Z" style="fill:#fff;fill-rule:nonzero;"/>
    <path d="M130.153,141.133C124.991,141.133 120.516,139.989 116.727,137.703C112.937,135.416 110.03,132.345 108.005,128.491C105.979,124.636 104.967,120.389 104.967,115.751C104.967,111.112 105.979,106.833 108.005,102.913C110.03,98.993 112.937,95.889 116.727,93.603C120.516,91.316 124.991,90.173 130.153,90.173C135.314,90.173 139.789,91.316 143.579,93.603C147.368,95.889 150.275,98.993 152.301,102.913C154.326,106.833 155.339,111.112 155.339,115.751C155.339,120.389 154.326,124.636 152.301,128.491C150.275,132.345 147.368,135.416 143.579,137.703C139.789,139.989 135.314,141.133 130.153,141.133ZM130.153,131.137C134.138,131.137 137.258,129.732 139.512,126.923C141.766,124.113 142.893,120.389 142.893,115.751C142.893,111.047 141.766,107.274 139.512,104.432C137.258,101.59 134.138,100.169 130.153,100.169C126.167,100.169 123.048,101.59 120.794,104.432C118.54,107.274 117.413,111.047 117.413,115.751C117.413,120.389 118.54,124.113 120.794,126.923C123.048,129.732 126.167,131.137 130.153,131.137Z" style="fill:#fff;fill-rule:nonzero;"/>
    <path d="M157.495,91.153L169.451,91.153L181.505,125.061L193.559,91.153L205.515,91.153L186.699,140.153L176.311,140.153L157.495,91.153Z" style="fill:#fff;fill-rule:nonzero;"/>
    <path d="M211.493,71.553L223.645,71.553L223.645,83.705L211.493,83.705L211.493,71.553ZM211.493,91.153L223.645,91.153L223.645,140.153L211.493,140.153L211.493,91.153Z" style="fill:#fff;fill-rule:nonzero;"/>
    <path d="M259.709,90.369C265.785,90.369 270.391,92.394 273.527,96.445C276.663,100.495 278.231,105.951 278.231,112.811L278.231,140.153L266.079,140.153L266.079,113.791C266.079,109.217 265.311,105.836 263.776,103.648C262.24,101.459 259.774,100.365 256.377,100.365C252.653,100.365 249.582,101.769 247.165,104.579L247.165,140.153L235.013,140.153L235.013,91.153L246.381,91.153L246.577,94.583C250.693,91.773 255.07,90.369 259.709,90.369Z" style="fill:#fff;fill-rule:nonzero;"/>
    <path d="M289.011,66.653L301.163,66.653L301.163,111.243L316.353,91.153L330.073,91.153L312.237,114.673L330.465,140.153L316.745,140.153L301.163,118.397L301.163,140.153L289.011,140.153L289.011,66.653Z" style="fill:#fff;fill-rule:nonzero;"/>
    <path d="M346.733,141.133C342.682,141.133 339.301,139.81 336.59,137.164C333.878,134.518 332.523,130.941 332.523,126.433C332.523,122.186 334.058,118.772 337.129,116.192C340.199,113.611 343.825,111.782 348.007,110.704C352.188,109.626 356.206,109.021 360.061,108.891C359.93,106.016 359.195,103.958 357.856,102.717C356.516,101.475 354.311,100.855 351.241,100.855C349.085,100.855 346.978,101.149 344.92,101.737C342.862,102.325 340.493,103.272 337.815,104.579L336.737,94.681C342.682,91.806 348.627,90.369 354.573,90.369C360.322,90.369 364.716,91.937 367.754,95.073C370.792,98.209 372.311,103.207 372.311,110.067L372.311,123.297C372.311,125.779 372.425,127.56 372.654,128.638C372.882,129.716 373.274,130.402 373.83,130.696C374.385,130.99 375.316,131.137 376.623,131.137L378.191,131.137L377.113,141.133L372.703,141.133C370.024,141.133 367.77,140.626 365.941,139.614C364.111,138.601 362.707,137.213 361.727,135.449C360.159,137.213 358.019,138.601 355.308,139.614C352.596,140.626 349.738,141.133 346.733,141.133ZM351.829,131.823C353.07,131.823 354.475,131.512 356.043,130.892C357.611,130.271 358.983,129.405 360.159,128.295L360.159,117.123C356.239,117.319 352.776,118.168 349.771,119.671C346.765,121.173 345.263,123.264 345.263,125.943C345.263,127.968 345.785,129.454 346.831,130.402C347.876,131.349 349.542,131.823 351.829,131.823Z" style="fill:#fff;fill-rule:nonzero;"/>
</svg>
