<svg xmlns="http://www.w3.org/2000/svg" width="306" height="161" fill="none" xmlns:v="https://vecta.io/nano"><g clip-path="url(#A)"><path opacity=".05" fill-rule="evenodd" d="M146.646-18.373C110.09-16.106 77.797 2.661 62.944 34.584c-.202.367-.298.683-.512 1.04l-.093.266v.051l-.096.158-.118.31c-10.581 24.052-9.355 50.994 1.118 75.618v.098l.627 1.349.096.212c.193.411.404.831.596 1.293l.118.259.605 1.242v.158c.311.468.503.879.714 1.344l.093.158c.916 1.864 1.835 3.685 2.856 5.493l.192.265c.118.304.32.623.534.926.084.212.193.418.276.623.214.256.32.528.534.781.084.252.289.467.404.72.192.256.298.525.512.781.084.205.298.461.404.67.192.256.298.522.5.774.096.26.307.468.5.724.127.272.32.477.404.733.214.253.32.516.534.768l.5.683c.096.253.31.515.503.768.106.266.32.474.404.683a7.22 7.22 0 0 1 .627.828c.192.205.289.411.416.619.192.26.404.516.596.835.214.205.31.401.503.607.211.319.416.575.627.888.193.152.286.357.404.515.404.465.692.936 1.105 1.4l21.693-46.442c-1.415-7.039-2.13-14.251-2.13-21.606 0-26.069 9.153-50.997 26.062-70.596l.211-.205c.311-.363.714-.717 1.003-1.037l.118-.098.286-.477.627-.619c.289-.259.503-.566.692-.825l.128-.06.276-.303c.214-.256.531-.522.726-.733l.094-.145.307-.313.32-.31.596-.569.726-.733.404-.417.5-.461.31-.31.308-.253.714-.733.192-.098.32-.316.503-.468c.224-.205.416-.367.714-.575v-.051c.32-.253.606-.521.916-.828l.724-.569.692-.575.307-.31c.214-.205.404-.364.618-.509l.106-.06.403-.31.193-.158a5.84 5.84 0 0 0 .618-.509l.316-.272c.404-.303.811-.559 1.1-.879h.117c1.742-1.324 3.574-2.62 5.409-3.862zM0 25.418c14.577 11.094 34.646 17.099 56.532 16.581a101.97 101.97 0 0 1 2.738-6.941l.214-.477.093-.303c.214-.363.32-.733.512-1.084 16.3-34.988 51.736-53.225 88.602-54.884-20.988-13.534-51.139-17.684-81.56-8.919C34.435-21.182 9.696.699 0 25.418zM150.319-24.39c-6.328-11.296-15.481-20.424-27.307-26.012-23.202-10.993-50.49-5.237-71.776 12.387l11.506 5.395c1.127-.367 2.353-.736 3.462-1.04 15.791-4.561 32.473-6.021 48.68-3.578 12.422 1.805 24.835 5.955 35.435 12.848zm9.069 6.018c36.544 2.266 68.827 21.034 83.69 52.957.202.367.308.683.5 1.04l.127.266v.051l.084.158.106.31c10.59 24.052 9.364 50.994-1.127 75.618v.098c-.193.474-.404.891-.597 1.349l-.105.212c-.214.411-.404.831-.525 1.293l-.202.259-.617 1.242v.158c-.193.468-.5.879-.705 1.344v.158l-2.962 5.493-.093.265a38.72 38.72 0 0 1-.609.926c-.084.212-.211.418-.298.623-.193.256-.317.528-.509.781-.096.252-.311.467-.404.72s-.32.525-.512.781c-.106.205-.298.461-.404.67-.214.256-.307.522-.521.774-.097.26-.289.468-.404.724-.205.272-.416.477-.503.733-.192.253-.317.516-.512.768l-.509.683c-.106.253-.298.515-.513.768-.105.266-.298.474-.416.683-.192.253-.403.509-.605.828-.084.205-.298.411-.404.619-.214.26-.403.516-.618.835-.192.205-.285.401-.5.607-.201.319-.416.575-.605.888-.214.152-.298.357-.404.515-.403.465-.726.936-1.13 1.4l-21.693-46.442c1.437-7.039 2.257-14.251 2.257-21.606 0-26.069-9.277-50.997-26.186-70.596l-.192-.205c-.298-.363-.705-.717-1.025-1.037l-.105-.098-.298-.477-.597-.619c-.211-.259-.531-.566-.723-.825l-.106-.06-.298-.303c-.214-.256-.512-.522-.726-.733l-.084-.145-.32-.313-.285-.31-.631-.569-.714-.733-.416-.417-.49-.461-.32-.31-.289-.253-.714-.733-.214-.098-.298-.316-.522-.468c-.192-.205-.416-.367-.692-.575v-.051c-.32-.253-.631-.521-.938-.828l-.705-.569-.714-.575-.307-.31c-.193-.205-.404-.364-.596-.509l-.128-.06-.403-.31-.193-.158c-.192-.158-.403-.303-.596-.509l-.32-.272c-.403-.303-.81-.559-1.127-.879h-.087c-1.735-1.324-3.589-2.62-5.399-3.862zM306 25.418c-14.543 11.094-34.616 17.099-56.498 16.581-.823-2.333-1.748-4.608-2.76-6.941l-.214-.477-.094-.303c-.192-.363-.298-.733-.512-1.084-16.303-34.988-51.726-53.225-88.484-54.884 20.883-13.534 51.025-17.684 81.473-8.919C271.577-21.182 296.325.699 306 25.418zM155.709-24.39c6.309-11.296 15.462-20.424 27.285-26.012 23.227-10.993 50.515-5.237 71.802 12.387l-11.519 5.395a68.09 68.09 0 0 0-3.462-1.04c-15.779-4.561-32.482-6.021-48.668-3.578-12.413 1.805-24.748 5.955-35.438 12.848zM153.061 161c.81-.525 1.745-1.084 2.651-1.659.096-.048.311-.158.404-.26 17.315-11.04 31.153-27.206 39.412-46.442 4.368-10.259 5.688-14.359 4.176-25.807-1.537-12.181-6.924-21.612-14.363-28.25.512 2.38.724 4.82.724 7.311 0 18.607-14.764 33.692-33.004 33.692-18.325 0-33.095-15.086-33.095-33.692 0-2.491.193-4.931.727-7.311-7.436 6.637-12.848 16.069-14.363 28.25-1.537 11.448-.096 15.548 4.176 25.807a103.54 103.54 0 0 0 39.4 46.442c.106.105.298.212.416.26.904.575 1.82 1.134 2.739 1.659zm0-64.635c16.492 0 29.936-13.629 29.936-30.472 0-3.729-.723-7.311-1.937-10.629-8.129-5.651-18.135-8.442-27.999-8.442-9.973 0-19.946 2.794-28.105 8.442-1.214 3.319-1.823 6.896-1.823 10.629-.003 16.846 13.326 30.472 29.928 30.472zm0-52.757c-23.122 0-46.135 14.305-49.895 42.814l-1.117-15.237c0-26.227 9.578-50.169 25.453-68.469l.205-.205c.202-.357.618-.721.916-1.037v-.101l.416-.411.307-.316.193-.259.105-.047c.214-.256.404-.521.705-.781V-.49l.214-.158.106-.158c.298-.259.512-.515.726-.771h.084v-.06-.051h.106v-.047l.214-.212.192-.205V-2.2l.094-.051v-.06l.117-.047.404-.411v-.054h.096v-.107l.193-.145v-.06l.223-.098v-.051l.084-.06v-.047-.054h.106v-.044-.06l.403-.31v-.051l.311-.265v-.047h.093v-.051-.047h.118v-.066-.044h.096v-.054l.097-.051v-.06l.093-.051v-.047l.319-.256.084-.107.32-.31h.093v-.06-.051h.118v-.047-.051h.084v-.06-.051h.106v-.054-.044h.093l.214-.272.192-.098.308-.256v-.06-.051c.214-.158.512-.363.726-.515v-.107c.289-.253.596-.509.907-.721v-.047-.06h.093v-.047l.512-.363v-.047-.051h.106v-.047l.105-.066.404-.351.093-.107.311-.256h.105v-.054c.215-.158.404-.313.618-.471v-.047h.096v-.051-.054h.094v-.054-.047h.096v-.054h.118v-.044-.066h.096v-.047h.093v-.05c.215-.158.404-.316.618-.462v-.06h.106v-.048-.05h.093v-.054h.096v-.06c.404-.303.714-.559 1.13-.825v-.054a116.67 116.67 0 0 1 7.327-5.076v.006c.404-.259.811-.522 1.227-.727v.006-.06h.093v-.054l.404-.253h.096v-.051h.118v-.06h.093l.31-.259v-.047l.106-.051v-.06-.051-.098l.084-.06v-.051-.047-.051-.06h.106v.06.051.047.051l.105.06v.098.051.06l.106.051v.047l.307.259h.096v.06h.093v.051h.097l.403.253v.054h.118v.06c.416.202.82.462 1.227.718v.006a107.71 107.71 0 0 1 7.308 5.07v.054c.404.265.832.521 1.13.825v.06h.106v.054h.106v.051.047h.105v.06c.298.145.404.303.596.461l.118.051v.047h.093v.066.044h.097v.054h.093v.047.054h.118v.054l.093.051v.047c.192.158.404.316.596.471v.054h.127l.286.256.118.107.382.351.127.066v.047h.084v.051.047l.512.363v.047h.084v.06.047c.32.212.627.468.938.721v.107c.298.152.512.357.705.515v.051.06l.31.256.211.098.289.272v.044.054h.118v.051.06h.096v.051.047h.106v.047l.083.06.32.31.084.107.32.256v.047l.093.051v.06h.118v.051.054h.096v.044.066h.097v.047.051h.093v.047l.307.265v.051l.404.31v.06.044h.105v.054.047h.118v.06.051h.093l.097.098v.06l.211.145v.107h.096v.054l.404.411.105.047v.06l.084.051v.047l.214.205.193.212v.047h.127v.051.06h.093c.193.256.503.509.714.771l.106.158.192.158v.047c.298.259.525.525.705.781l.106.047.214.259.298.316.404.411v.101c.403.316.714.676 1.024 1.037l.193.205c15.8 18.303 25.366 42.245 25.366 68.469l-1.13 15.237c-3.695-28.506-26.711-42.82-49.72-42.814z" fill="#fff"/></g><defs><clipPath id="A"><path fill="#fff" d="M0 0h306v161H0z"/></clipPath></defs></svg>