<?xml version="1.0" encoding="UTF-8"?>
<svg width="174px" height="24px" viewBox="0 0 174 24" version="1.1" xmlns="http://www.w3.org/2000/svg" xmlns:xlink="http://www.w3.org/1999/xlink">
    <title>logo</title>
    <g id="design" stroke="none" stroke-width="1" fill="none" fill-rule="evenodd">
        <g id="1a_homepage" transform="translate(-1137, -11969)" fill-rule="nonzero">
            <g id="footer" transform="translate(156, 11588)">
                <g id="logo" transform="translate(981, 381)">
                    <path d="M161.929632,0.292418773 L160.92015,4.97111913 L153.875483,4.97111913 L154.884966,0.292418773 L161.929632,0.292418773 Z M157.891703,19.0397112 L156.871366,23.7184116 L149.8267,23.7184116 L150.836182,19.0397112 L157.891703,19.0397112 Z M165.945852,14.3501805 L164.936369,19.0397112 L157.891703,19.0397112 L158.901185,14.3501805 L165.945852,14.3501805 Z M174,9.66064982 L172.990518,14.3501805 L165.945852,14.3501805 L166.955334,9.66064982 L174,9.66064982 Z M159.910667,9.66064982 L158.901185,14.3501805 L0,14.3501805 L1.00948222,9.66064982 L159.910667,9.66064982 Z M167.964816,4.97111913 L166.955334,9.66064982 L159.910667,9.66064982 L160.92015,4.97111913 L167.964816,4.97111913 Z" id="arrow" fill="#1CEAFF"></path>
                    <path d="M24.7811603,0 C29.3726762,0 33.0958203,3.31407942 32.1840299,7.57039711 L27.3102932,7.57039711 C27.5599501,5.62093863 26.300811,4.32129964 24.2384279,4.32129964 C22.2845914,4.32129964 21.0905802,5.18772563 21.0905802,6.55234657 C21.0905802,8.10108303 23.619713,9.2166065 26.0728634,10.732852 C28.1678104,12.032491 30.3713038,13.7978339 30.3713038,16.6462094 C30.3713038,20.5776173 26.9412352,24 21.372801,24 C16.7812851,24 13.1666875,20.8267148 13.644292,16.3971119 L18.7785402,16.3971119 C18.5940112,18.3790614 20.0376794,19.6787004 21.8504055,19.6787004 C23.7608235,19.6787004 25.0308172,18.4873646 25.0308172,16.9386282 C25.0308172,15.3574007 22.4691204,14.2743682 20.2981909,12.833935 C18.3877729,11.534296 15.9671865,10.0613718 15.9671865,6.73646209 C15.9671865,3.31407942 19.2887087,0 24.7811603,0 Z M47.7930131,0.465703971 L49.4863381,23.534296 L44.7862757,23.534296 L44.5366188,20.4368231 L44.4280724,18.9963899 L37.3508422,18.9963899 L37.3508422,19.0288809 L36.5910168,20.4368231 L34.9628197,23.534296 L30.0131004,23.534296 L41.5081722,0.465703971 L47.7930131,0.465703971 Z M43.8202121,4.81949458 L43.7876482,4.81949458 L42.6587648,7.35379061 L39.510917,14.3068592 L44.1458515,14.3068592 L44.1132876,12.1407942 L43.9287586,7.34296029 L43.8202121,4.81949458 Z M61.0573924,0.465703971 L57.5187773,17.0469314 L57.1605739,18.8447653 L64.2378041,18.8447653 L63.2283219,23.534296 L51.2665003,23.534296 L56.1836556,0.465703971 L61.0573924,0.465703971 Z M92.6769807,0 C97.2684966,0 100.991641,3.31407942 100.07985,7.57039711 L95.2061135,7.57039711 C95.4557704,5.62093863 94.1966313,4.32129964 92.1342483,4.32129964 C90.1804117,4.32129964 88.9864005,5.18772563 88.9864005,6.55234657 C88.9864005,8.10108303 91.5155334,9.2166065 93.9686837,10.732852 C96.0636307,12.032491 98.2671241,13.7978339 98.2671241,16.6462094 C98.2671241,20.5776173 94.8370555,24 89.2686213,24 C84.6771054,24 81.0625078,20.8267148 81.5401123,16.3971119 L86.6743606,16.3971119 C86.4898316,18.3790614 87.9334997,19.6787004 89.7462258,19.6787004 C91.6566438,19.6787004 92.9266376,18.4873646 92.9266376,16.9386282 C92.9266376,15.3574007 90.3649407,14.2743682 88.1940112,12.833935 C86.2835933,11.534296 83.8630069,10.0613718 83.8630069,6.73646209 C83.8630069,3.31407942 87.184529,0 92.6769807,0 Z M82.2673737,0.465703971 L81.2578915,5.15523466 L74.1806613,5.15523466 L74.1806613,5.18772563 L73.8224579,6.95306859 L73.6053649,7.85198556 L73.2471616,9.64981949 L80.2918278,9.64981949 L79.2823456,14.3393502 L72.2159701,14.3393502 L72.2159701,14.3501805 L71.8577667,16.1480144 L71.6406737,17.0469314 L71.2824704,18.8447653 L78.3597006,18.8447653 L77.3502183,23.534296 L65.3883968,23.534296 L70.3055521,0.465703971 L82.2673737,0.465703971 Z M109.751341,0.454873646 L109.751341,0.465703971 L108.524766,6.27075812 L107.94947,8.97833935 L107.94947,9.01083032 L115.862508,0.465703971 L121.821709,0.465703971 L113.474485,9.55234657 L111.162445,11.967509 L111.162445,12 L112.356457,14.8483755 L116.047037,23.534296 L110.478603,23.534296 L108.09058,17.3718412 L106.864005,14.0144404 L106.864005,14.0469314 L106.288709,16.7111913 L104.845041,23.5234657 L99.9713038,23.5234657 L104.888459,0.454873646 L109.751341,0.454873646 Z M128.247661,0.465703971 L123.330505,23.534296 L118.456769,23.534296 L123.373924,0.465703971 L128.247661,0.465703971 Z M144.475359,0.465703971 L143.465876,5.15523466 L138.841797,5.15523466 L138.440175,6.95306859 L134.934124,23.534296 L130.060387,23.534296 L133.566438,6.95306859 L133.96806,5.15523466 L129.34398,5.15523466 L130.353462,0.465703971 L144.475359,0.465703971 Z" id="text" fill="#000000"></path>
                </g>
            </g>
        </g>
    </g>
</svg>